<svg width="374" height="444" viewBox="0 0 374 444" fill="none" xmlns="http://www.w3.org/2000/svg">
<path d="M175.324 37.3685C155.965 -19.9128 99.8869 -6.79168 90.4533 49.5677C80.2463 57.6693 42.7151 95.2083 67.344 129.767C43.5549 134.376 4.27366 124.618 0.496316 190.197C-2.06618 234.447 52.9338 375.767 100.864 419.497C133.485 449.279 145.727 444.036 156.285 438.806C161.235 436.349 165.824 433.896 171.965 435.048C191.215 438.689 222.453 452.947 248.977 403.177C275.504 353.408 391.887 230.279 371.086 175.966C350.317 121.646 314.676 121.408 314.676 121.408C319.235 82.3763 264.844 50.4857 264.844 50.4857C230.863 -45.2331 175.324 37.3685 175.324 37.3685Z" fill="#90C92D"/>
<path d="M175.324 37.3685C155.965 -19.9128 99.8869 -6.79168 90.4533 49.5677C80.2463 57.6693 42.7151 95.2083 67.344 129.767C43.5549 134.376 4.27366 124.618 0.496316 190.197C-2.06618 234.447 52.9338 375.767 100.864 419.497C132.555 448.419 145.676 441.376 156.485 434.349C162.035 430.736 166.977 427.126 173.496 428.368C192.735 431.986 220.996 445.118 247.524 395.349C274.055 345.568 368.434 228.677 361.606 181.579C353.453 125.568 308.043 123.279 308.043 123.279C312.606 84.2474 259.637 52.3685 259.637 52.3685C225.645 -43.3542 175.324 37.3685 175.324 37.3685Z" fill="#9AD839"/>
<path d="M175.325 37.3685C155.965 -19.9128 99.887 -6.79168 90.4534 49.5677C80.2464 57.6693 42.7151 95.2083 67.344 129.767C43.555 134.376 4.27373 124.618 0.496386 190.197C-2.06611 234.447 54.8167 370.189 102.735 413.919C134.395 442.806 145.907 435.689 155.614 428.556C160.614 424.896 165.125 421.236 171.664 422.478C190.914 426.107 220.856 435.876 247.375 386.107C273.907 336.329 370.434 220.466 350.375 165.997C332.516 117.478 302.055 129.966 302.055 129.966C306.614 90.9466 256.016 53.5677 256.016 53.5677C228.125 -38.1237 175.325 37.3685 175.325 37.3685Z" fill="#ABE24B"/>
<path d="M52.5861 133.216C56.926 132.169 62.6135 132.216 66.594 129.896C42.7346 134.177 4.2463 125.298 0.496303 190.197C-0.0740089 200.099 2.22677 214.857 6.70333 232.286C-0.394321 190.857 0.363491 147.818 52.5861 133.216Z" fill="#D9EF9C"/>
<path d="M66.8948 129.087C66.9963 129.228 67.0862 129.376 67.1956 129.529C67.3752 129.388 67.5745 129.259 67.7659 129.118C67.4768 129.107 67.176 129.087 66.8948 129.087Z" fill="#D9EF9C"/>
<path d="M299.285 252.587C286.426 302.638 257.356 342.349 224.285 383.888C221.145 388.376 216.387 391.497 215.664 396.716C283.465 363.548 320.004 242.759 321.043 206.747C321.043 206.466 321.043 206.177 321.024 205.876C316.774 211.548 313.805 217.986 310.086 224.087C304.606 232.439 302.336 242.189 299.285 252.587Z" fill="#D9EF9C"/>
<path d="M54.6643 215.216C51.3753 209.868 48.0667 203.208 44.7542 197.197C44.7464 196.337 44.0159 195.169 42.844 194.259C29.5745 251.216 62.6643 396.259 141.977 407.458C121.496 381.236 96.9964 354.888 92.5042 324.587C87.094 286.388 75.2932 250.618 54.6643 215.216Z" fill="#D9EF9C"/>
<path d="M95.4456 50.6888C95.9456 32.349 106.106 14.3177 128.496 8.48567C137.614 5.97786 147.864 6.02864 156.985 8.55599C132.485 -11.5026 97.6956 6.26692 90.4534 49.5677C82.0354 56.2474 55.094 82.8958 59.637 111.408C61.344 87.8177 74.0862 64.1966 95.4456 50.6888Z" fill="#D9EF9C"/>
<path d="M136.067 0.669252C114.387 -0.022155 95.7932 20.0989 90.8361 49.6185L90.8244 49.7278L90.7346 49.7982C76.5432 61.0794 44.7346 97.3958 67.6955 129.607L67.9533 129.986L67.4533 130.079C63.465 130.857 59.0861 131.228 54.4533 131.618C43.1838 132.568 30.4142 133.638 20.2932 141.216C8.6369 149.966 2.29315 165.997 0.886903 190.236C-1.60528 233.427 52.6447 375.017 101.156 419.298C118.145 434.798 130.945 442.169 141.426 442.509C147.645 442.708 152.227 440.439 156.656 438.216C160.735 436.197 164.586 434.279 169.363 434.439C170.254 434.466 171.145 434.568 172.035 434.728C174.184 435.138 176.453 435.669 178.863 436.228C184.727 437.599 191.375 439.158 198.387 439.376C219.074 440.048 235.035 428.497 248.606 403.029C256.356 388.486 271.555 367.978 289.145 344.236C332.004 286.376 385.387 214.368 370.715 176.048C362.344 154.177 350.664 138.439 335.985 129.267C324.766 122.259 315.785 121.767 314.793 121.736L314.235 121.728L314.274 121.368C318.754 82.9661 265.164 51.0794 264.613 50.7591L264.496 50.6888L264.453 50.5677C253.824 20.5989 240.024 5.138 223.445 4.59894C198.656 3.79816 175.906 37.1966 175.676 37.5364L175.215 38.2357L174.934 37.4388C167.227 14.6185 153.055 1.21613 136.067 0.669252ZM141.434 443.169C130.715 442.818 117.727 435.368 100.574 419.716C79.1057 400.126 53.2346 357.298 31.3752 305.138C11.1252 256.849 -1.15607 211.716 0.0861212 190.169C3.26581 135.259 31.5666 132.876 54.3244 130.966C58.7463 130.599 62.926 130.236 66.7463 129.536C56.426 114.786 55.9963 97.9974 65.465 79.6068C72.7541 65.4388 84.3049 53.9857 90.0549 49.3958C92.6135 34.2864 98.6057 21.5482 107.414 12.5677C115.645 4.14581 125.824 -0.311217 136.055 0.0169082C153.246 0.567689 167.574 13.8568 175.445 36.5169C178.856 31.7161 200.184 3.1966 223.445 3.9466C240.395 4.48566 254.445 20.0872 265.184 50.2982C266.586 51.138 279.504 59.0169 291.766 71.1185C303.645 82.8177 317.274 100.966 315.113 121.099C317.106 121.216 325.836 122.107 336.445 128.747C351.285 138.029 363.055 153.876 371.477 175.876C386.254 214.486 332.793 286.626 289.844 344.599C272.266 368.318 257.074 388.818 249.344 403.318C235.637 429.048 219.445 440.716 198.395 440.048C191.285 439.806 184.586 438.236 178.676 436.857C176.285 436.298 174.004 435.767 171.895 435.376C171.067 435.216 170.203 435.118 169.375 435.099C164.836 434.947 161.074 436.818 157.106 438.786C152.567 441.048 147.875 443.376 141.434 443.169Z" fill="#75A31C"/>
<path d="M191.887 103.298C200.453 124.529 223.645 137.786 243.696 132.947C263.746 128.099 273.043 106.958 264.477 85.7357C255.926 64.5169 232.715 51.2474 212.676 56.0989C192.625 60.9466 183.324 82.0872 191.887 103.298Z" fill="#A4D33D"/>
<path d="M193.293 103.068C201.594 123.618 223.996 136.478 243.324 131.806C262.656 127.126 271.625 106.677 263.317 86.1263C255.024 65.5872 232.625 52.7161 213.293 57.3958C193.965 62.0677 185.004 82.5169 193.293 103.068Z" fill="#9FC636"/>
<path d="M195.395 103.697C203.453 123.677 225.024 136.236 243.567 131.747C262.086 127.259 270.575 107.427 262.504 87.4583C254.446 67.4779 232.895 54.9193 214.364 59.4076C195.825 63.888 187.344 83.7162 195.395 103.697Z" fill="#95B72A"/>
<mask id="mask0_2_7" style="mask-type:luminance" maskUnits="userSpaceOnUse" x="194" y="60" width="70" height="72">
<path d="M194.465 60.9075H263.465V131.908H194.465V60.9075Z" fill="white"/>
</mask>
<g mask="url(#mask0_2_7)">
<mask id="mask1_2_7" style="mask-type:luminance" maskUnits="userSpaceOnUse" x="195" y="61" width="69" height="71">
<path d="M235.586 131.837C219.953 131.837 203.864 120.068 197.766 103.208C191.477 85.8294 197.934 68.5989 212.805 63.1185C214.055 62.6575 215.356 62.2864 216.696 61.9974C218.715 61.5794 220.774 61.3685 222.864 61.3685C229.434 61.3685 236.246 63.4466 242.535 67.4583C250.856 72.7474 257.293 80.7591 260.637 89.9857C266.926 107.376 260.453 124.607 245.594 130.099C244.356 130.556 243.043 130.927 241.703 131.208C239.696 131.626 237.645 131.837 235.586 131.837ZM204.317 90.0364C203.274 94.9974 203.664 100.626 205.735 106.349C210.637 119.896 223.356 129.368 235.625 129.368C237.203 129.368 238.774 129.208 240.324 128.888C253.887 126.017 260.406 111.318 254.887 96.0286C249.965 82.4661 237.266 72.9974 224.996 72.9974C223.414 72.9974 221.836 73.1575 220.285 73.4778C212.516 75.1185 207.055 80.6458 204.844 87.9388C204.543 88.5989 204.356 89.306 204.317 90.0364Z" fill="white"/>
</mask>
<g mask="url(#mask1_2_7)">
<mask id="mask2_2_7" style="mask-type:luminance" maskUnits="userSpaceOnUse" x="195" y="61" width="69" height="71">
<path d="M235.586 131.837C219.953 131.837 203.864 120.068 197.766 103.208C191.477 85.8294 197.934 68.5989 212.805 63.1185C214.055 62.6575 215.356 62.2864 216.696 61.9974C218.715 61.5794 220.774 61.3685 222.864 61.3685C229.434 61.3685 236.246 63.4466 242.535 67.4583C250.856 72.7474 257.293 80.7591 260.637 89.9857C266.926 107.376 260.453 124.607 245.594 130.099C244.356 130.556 243.043 130.927 241.703 131.208C239.696 131.626 237.645 131.837 235.586 131.837ZM204.317 90.0364C203.274 94.9974 203.664 100.626 205.735 106.349C210.637 119.896 223.356 129.368 235.625 129.368C237.203 129.368 238.774 129.208 240.324 128.888C253.887 126.017 260.406 111.318 254.887 96.0286C249.965 82.4661 237.266 72.9974 224.996 72.9974C223.414 72.9974 221.836 73.1575 220.285 73.4778C212.516 75.1185 207.055 80.6458 204.844 87.9388C204.543 88.5989 204.356 89.306 204.317 90.0364Z" fill="white"/>
</mask>
<g mask="url(#mask2_2_7)">
<path d="M167.785 66.345L196.805 146.572L290.614 126.861L261.594 46.6341L167.785 66.345Z" fill="url(#paint0_radial_2_7)"/>
</g>
</g>
</g>
<path d="M212.805 63.1185C197.934 68.5989 191.477 85.8294 197.766 103.208C204.664 122.286 224.375 134.849 241.703 131.208C243.043 130.927 244.356 130.556 245.594 130.099C260.453 124.607 266.926 107.376 260.637 89.9856C257.293 80.7591 250.856 72.7474 242.535 67.4583C234.246 62.177 225.055 60.2356 216.696 61.9974C215.356 62.2864 214.055 62.6575 212.805 63.1185ZM246.266 131.267C244.934 131.747 243.567 132.138 242.164 132.439C224.043 136.236 203.485 123.259 196.344 103.509C189.844 85.5286 196.625 67.6575 212.137 61.9388C213.465 61.4583 214.824 61.0677 216.235 60.7786C225.016 58.927 234.625 60.927 243.305 66.4192C251.953 71.888 258.606 80.1575 262.055 89.6966C268.555 107.677 261.766 125.548 246.266 131.267Z" fill="#749615"/>
<mask id="mask3_2_7" style="mask-type:luminance" maskUnits="userSpaceOnUse" x="203" y="72" width="55" height="58">
<path d="M203.465 72.9075H257.465V129.908H203.465V72.9075Z" fill="white"/>
</mask>
<g mask="url(#mask3_2_7)">
<mask id="mask4_2_7" style="mask-type:luminance" maskUnits="userSpaceOnUse" x="203" y="72" width="54" height="58">
<path d="M235.625 129.368C223.356 129.368 210.637 119.896 205.735 106.349C203.664 100.626 203.274 94.9974 204.317 90.0364C204.266 90.8294 204.387 91.6458 204.684 92.4778C205.817 95.638 209.305 97.7591 212.946 97.7591C213.145 97.7591 213.356 97.7474 213.555 97.7357C213.387 100.349 213.774 103.126 214.785 105.927C218.114 115.138 227.106 121.509 235.965 121.509C237.184 121.509 238.407 121.388 239.606 121.138C249.524 119.048 254.485 108.868 250.684 98.3763C247.364 89.1771 238.395 82.806 229.535 82.806C228.305 82.806 227.086 82.9388 225.875 83.1888C223.016 83.7864 220.567 85.056 218.625 86.8177C216.985 85.0364 214.477 83.9466 211.864 83.9466C211.235 83.9466 210.594 84.0169 209.965 84.1458C207.524 84.6575 205.703 86.1068 204.844 87.9388C207.055 80.6458 212.516 75.1185 220.285 73.4778C221.836 73.1575 223.414 72.9974 224.996 72.9974C237.266 72.9974 249.965 82.4661 254.887 96.0286C260.407 111.318 253.887 126.017 240.324 128.888C238.774 129.208 237.203 129.368 235.625 129.368Z" fill="white"/>
</mask>
<g mask="url(#mask4_2_7)">
<mask id="mask5_2_7" style="mask-type:luminance" maskUnits="userSpaceOnUse" x="203" y="72" width="54" height="58">
<path d="M235.625 129.368C223.356 129.368 210.637 119.896 205.735 106.349C203.664 100.626 203.274 94.9974 204.317 90.0364C204.266 90.8294 204.387 91.6458 204.684 92.4778C205.817 95.638 209.305 97.7591 212.946 97.7591C213.145 97.7591 213.356 97.7474 213.555 97.7357C213.387 100.349 213.774 103.126 214.785 105.927C218.114 115.138 227.106 121.509 235.965 121.509C237.184 121.509 238.407 121.388 239.606 121.138C249.524 119.048 254.485 108.868 250.684 98.3763C247.364 89.1771 238.395 82.806 229.535 82.806C228.305 82.806 227.086 82.9388 225.875 83.1888C223.016 83.7864 220.567 85.056 218.625 86.8177C216.985 85.0364 214.477 83.9466 211.864 83.9466C211.235 83.9466 210.594 84.0169 209.965 84.1458C207.524 84.6575 205.703 86.1068 204.844 87.9388C207.055 80.6458 212.516 75.1185 220.285 73.4778C221.836 73.1575 223.414 72.9974 224.996 72.9974C237.266 72.9974 249.965 82.4661 254.887 96.0286C260.407 111.318 253.887 126.017 240.324 128.888C238.774 129.208 237.203 129.368 235.625 129.368Z" fill="white"/>
</mask>
<g mask="url(#mask5_2_7)">
<path d="M183.328 77.5403L207.879 141.326L280.352 124.826L255.801 61.0364L183.328 77.5403Z" fill="url(#paint1_radial_2_7)"/>
</g>
</g>
</g>
<path d="M250.684 98.3763C254.485 108.868 249.524 119.048 239.606 121.138C229.684 123.208 218.574 116.408 214.785 105.927C211.004 95.4466 215.965 85.2591 225.875 83.1888C235.793 81.099 246.907 87.8958 250.684 98.3763Z" fill="#231F20"/>
<mask id="mask6_2_7" style="mask-type:luminance" maskUnits="userSpaceOnUse" x="204" y="87" width="1" height="4">
<path d="M204.766 87.9427H204.844V88.1068H204.766V87.9427ZM204.664 88.1068H204.844V88.306H204.664V88.1068ZM204.664 88.306H204.766V88.4075H204.664V88.306ZM204.567 88.4075H204.766V88.7083H204.567V88.4075ZM204.465 88.7083H204.664V89.0091H204.465V88.7083ZM204.364 89.0091H204.664V89.1068H204.364V89.0091ZM204.364 89.1068H204.567V89.5091H204.364V89.1068ZM204.364 89.5091H204.465V89.6068H204.364V89.5091ZM204.317 89.6068H204.465V89.806H204.317V89.6068ZM204.317 89.806H204.364V90.0364H204.317V89.806Z" fill="white"/>
</mask>
<g mask="url(#mask6_2_7)">
<mask id="mask7_2_7" style="mask-type:luminance" maskUnits="userSpaceOnUse" x="204" y="87" width="1" height="4">
<path d="M204.317 90.0364C204.356 89.306 204.543 88.5989 204.844 87.9388C204.645 88.6263 204.465 89.3177 204.317 90.0364Z" fill="white"/>
</mask>
<g mask="url(#mask7_2_7)">
<path d="M203.61 88.0911L204.352 90.1419L205.547 89.888L204.809 87.8411L203.61 88.0911Z" fill="url(#paint2_radial_2_7)"/>
</g>
</g>
<mask id="mask8_2_7" style="mask-type:luminance" maskUnits="userSpaceOnUse" x="203" y="83" width="17" height="15">
<path d="M203.465 83.9075H219.465V97.9075H203.465V83.9075Z" fill="white"/>
</mask>
<g mask="url(#mask8_2_7)">
<mask id="mask9_2_7" style="mask-type:luminance" maskUnits="userSpaceOnUse" x="204" y="83" width="15" height="15">
<path d="M212.946 97.7591C209.305 97.7591 205.817 95.638 204.684 92.4778C204.387 91.6458 204.266 90.8294 204.317 90.0364C204.465 89.3177 204.645 88.6263 204.844 87.9388C205.703 86.1068 207.524 84.6575 209.965 84.1458C210.594 84.0169 211.235 83.9466 211.864 83.9466C214.477 83.9466 216.985 85.0364 218.625 86.8177C215.625 89.5286 213.824 93.3958 213.555 97.7357C213.356 97.7474 213.145 97.7591 212.946 97.7591Z" fill="white"/>
</mask>
<g mask="url(#mask9_2_7)">
<mask id="mask10_2_7" style="mask-type:luminance" maskUnits="userSpaceOnUse" x="204" y="83" width="15" height="15">
<path d="M212.946 97.7591C209.305 97.7591 205.817 95.638 204.684 92.4778C204.387 91.6458 204.266 90.8294 204.317 90.0364C204.465 89.3177 204.645 88.6263 204.844 87.9388C205.703 86.1068 207.524 84.6575 209.965 84.1458C210.594 84.0169 211.235 83.9466 211.864 83.9466C214.477 83.9466 216.985 85.0364 218.625 86.8177C215.625 89.5286 213.824 93.3958 213.555 97.7357C213.356 97.7474 213.145 97.7591 212.946 97.7591Z" fill="white"/>
</mask>
<g mask="url(#mask10_2_7)">
<path d="M199.379 85.0599L205.422 100.763L223.512 96.6458L217.469 80.9427L199.379 85.0599Z" fill="url(#paint3_radial_2_7)"/>
</g>
</g>
</g>
<path d="M213.555 97.7357C213.824 93.3958 215.625 89.5286 218.625 86.8177C219.274 87.5286 219.785 88.3372 220.106 89.2357C221.453 92.9388 219.067 96.6693 214.805 97.5677C214.395 97.6458 213.977 97.7083 213.555 97.7357Z" fill="#918F90"/>
<path d="M95.5353 88.0677C90.4533 109.466 103.305 129.986 124.195 133.927C145.106 137.857 166.156 123.708 171.215 102.318C176.274 80.9388 163.414 60.4076 142.524 56.4661C121.625 52.5365 100.586 66.6888 95.5353 88.0677Z" fill="#A4D33D"/>
<path d="M96.9338 88.4466C92.0354 109.146 104.395 129.017 124.555 132.818C144.715 136.607 165.035 122.908 169.926 102.189C174.836 81.4778 162.453 61.6067 142.305 57.8177C122.137 54.0169 101.836 67.7356 96.9338 88.4466Z" fill="#9FC636"/>
<path d="M98.4338 89.8177C93.676 109.947 105.477 129.228 124.805 132.868C144.113 136.497 163.645 123.118 168.414 102.986C173.176 82.8568 161.375 63.5794 142.055 59.9466C122.727 56.306 103.203 69.6771 98.4338 89.8177Z" fill="#95B72A"/>
<mask id="mask11_2_7" style="mask-type:luminance" maskUnits="userSpaceOnUse" x="98" y="61" width="70" height="72">
<path d="M98.4651 61.9075H167.465V132.908H98.4651V61.9075Z" fill="white"/>
</mask>
<g mask="url(#mask11_2_7)">
<mask id="mask12_2_7" style="mask-type:luminance" maskUnits="userSpaceOnUse" x="99" y="62" width="68" height="71">
<path d="M130.125 132.376C129.285 132.376 128.453 132.349 127.614 132.279C126.227 132.169 124.836 131.966 123.465 131.658C105.727 127.786 95.5862 109.259 100.836 90.3489C105.395 73.9857 120.184 62.3568 135.914 62.3568C136.754 62.3568 137.594 62.388 138.426 62.4583C139.817 62.5677 141.203 62.7786 142.586 63.0794C151.145 64.9388 158.227 70.2591 162.496 78.0482C166.793 85.8763 167.754 95.2278 165.203 104.376C160.645 120.747 145.844 132.376 130.125 132.376ZM114.606 81.8685C110.715 85.6458 107.696 90.5482 106.125 96.1966C101.887 111.368 109.735 126.107 123.606 129.138C125.293 129.509 127.004 129.689 128.703 129.689C140.926 129.689 152.696 120.486 156.414 107.169C160.625 92.0091 152.817 77.2669 138.914 74.2278C137.215 73.8568 135.516 73.6771 133.817 73.6771C127.555 73.6771 121.426 76.0872 116.426 80.2278C115.727 80.6771 115.106 81.2278 114.606 81.8685Z" fill="white"/>
</mask>
<g mask="url(#mask12_2_7)">
<mask id="mask13_2_7" style="mask-type:luminance" maskUnits="userSpaceOnUse" x="99" y="62" width="68" height="71">
<path d="M130.125 132.376C129.285 132.376 128.453 132.349 127.614 132.279C126.227 132.169 124.836 131.966 123.465 131.658C105.727 127.786 95.5862 109.259 100.836 90.3489C105.395 73.9857 120.184 62.3568 135.914 62.3568C136.754 62.3568 137.594 62.388 138.426 62.4583C139.817 62.5677 141.203 62.7786 142.586 63.0794C151.145 64.9388 158.227 70.2591 162.496 78.0482C166.793 85.8763 167.754 95.2278 165.203 104.376C160.645 120.747 145.844 132.376 130.125 132.376ZM114.606 81.8685C110.715 85.6458 107.696 90.5482 106.125 96.1966C101.887 111.368 109.735 126.107 123.606 129.138C125.293 129.509 127.004 129.689 128.703 129.689C140.926 129.689 152.696 120.486 156.414 107.169C160.625 92.0091 152.817 77.2669 138.914 74.2278C137.215 73.8568 135.516 73.6771 133.817 73.6771C127.555 73.6771 121.426 76.0872 116.426 80.2278C115.727 80.6771 115.106 81.2278 114.606 81.8685Z" fill="white"/>
</mask>
<g mask="url(#mask13_2_7)">
<path d="M99.719 47.5169L77.1995 128.368L163.621 147.216L186.141 66.3685L99.719 47.5169Z" fill="url(#paint4_radial_2_7)"/>
</g>
</g>
</g>
<path d="M138.426 62.4583C121.785 61.138 105.637 73.1185 100.836 90.349C95.5862 109.259 105.727 127.786 123.465 131.658C124.836 131.966 126.227 132.169 127.614 132.279C144.254 133.599 160.406 121.618 165.203 104.376C167.754 95.2279 166.793 85.8763 162.496 78.0482C158.227 70.2591 151.145 64.9388 142.586 63.0794C141.203 62.7787 139.817 62.5677 138.426 62.4583ZM127.524 133.529C126.035 133.419 124.574 133.197 123.137 132.876C104.586 128.837 93.9455 109.607 99.4065 90.0365C104.375 72.2162 121.176 59.8177 138.524 61.1966C140.004 61.3177 141.485 61.5365 142.914 61.849C151.895 63.8177 159.324 69.3568 163.805 77.4857C168.274 85.5794 169.274 95.2474 166.645 104.697C161.684 122.517 144.856 134.919 127.524 133.529Z" fill="#749615"/>
<mask id="mask14_2_7" style="mask-type:luminance" maskUnits="userSpaceOnUse" x="104" y="72" width="55" height="58">
<path d="M104.465 72.9075H158.465V129.908H104.465V72.9075Z" fill="white"/>
</mask>
<g mask="url(#mask14_2_7)">
<mask id="mask15_2_7" style="mask-type:luminance" maskUnits="userSpaceOnUse" x="104" y="73" width="54" height="57">
<path d="M128.703 129.689C127.004 129.689 125.293 129.509 123.606 129.138C109.735 126.107 101.887 111.368 106.125 96.1966C107.696 90.5482 110.715 85.6458 114.606 81.8685C114.106 82.5091 113.727 83.2357 113.496 84.0364C112.567 87.3489 114.696 90.7161 118.305 92.0482C116.594 94.1888 115.266 96.6966 114.496 99.4778C111.586 109.857 117.477 120.068 127.613 122.298C128.934 122.579 130.254 122.716 131.574 122.716C140.387 122.716 148.715 116.529 151.235 107.486C154.145 97.1068 148.254 86.888 138.086 84.6771C136.774 84.388 135.446 84.2474 134.137 84.2474C132.535 84.2474 130.946 84.4583 129.406 84.8489C128.906 82.1693 126.555 79.8294 123.246 79.1068C122.555 78.9583 121.863 78.888 121.196 78.888C119.434 78.888 117.774 79.3763 116.426 80.2278C121.426 76.0872 127.555 73.6771 133.817 73.6771C135.516 73.6771 137.215 73.8568 138.914 74.2278C152.817 77.2669 160.625 92.0091 156.414 107.169C152.696 120.486 140.926 129.689 128.703 129.689Z" fill="white"/>
</mask>
<g mask="url(#mask15_2_7)">
<mask id="mask16_2_7" style="mask-type:luminance" maskUnits="userSpaceOnUse" x="104" y="73" width="54" height="57">
<path d="M128.703 129.689C127.004 129.689 125.293 129.509 123.606 129.138C109.735 126.107 101.887 111.368 106.125 96.1966C107.696 90.5482 110.715 85.6458 114.606 81.8685C114.106 82.5091 113.727 83.2357 113.496 84.0364C112.567 87.3489 114.696 90.7161 118.305 92.0482C116.594 94.1888 115.266 96.6966 114.496 99.4778C111.586 109.857 117.477 120.068 127.613 122.298C128.934 122.579 130.254 122.716 131.574 122.716C140.387 122.716 148.715 116.529 151.235 107.486C154.145 97.1068 148.254 86.888 138.086 84.6771C136.774 84.388 135.446 84.2474 134.137 84.2474C132.535 84.2474 130.946 84.4583 129.406 84.8489C128.906 82.1693 126.555 79.8294 123.246 79.1068C122.555 78.9583 121.863 78.888 121.196 78.888C119.434 78.888 117.774 79.3763 116.426 80.2278C121.426 76.0872 127.555 73.6771 133.817 73.6771C135.516 73.6771 137.215 73.8568 138.914 74.2278C152.817 77.2669 160.625 92.0091 156.414 107.169C152.696 120.486 140.926 129.689 128.703 129.689Z" fill="white"/>
</mask>
<g mask="url(#mask16_2_7)">
<path d="M104.758 62.4193L88.2893 126.947L157.75 140.947L174.219 76.4153L104.758 62.4193Z" fill="url(#paint5_radial_2_7)"/>
</g>
</g>
</g>
<path d="M151.235 107.486C148.344 117.876 137.766 124.509 127.614 122.298C117.477 120.068 111.586 109.857 114.496 99.4778C117.387 89.0872 127.965 82.4661 138.086 84.6771C148.254 86.888 154.145 97.1068 151.235 107.486Z" fill="#231F20"/>
<mask id="mask17_2_7" style="mask-type:luminance" maskUnits="userSpaceOnUse" x="114" y="79" width="3" height="3">
<path d="M114.465 79.9075H116.465V81.9075H114.465V79.9075Z" fill="white"/>
</mask>
<g mask="url(#mask17_2_7)">
<mask id="mask18_2_7" style="mask-type:luminance" maskUnits="userSpaceOnUse" x="114" y="80" width="3" height="2">
<path d="M114.606 81.8685C115.106 81.2278 115.727 80.6771 116.426 80.2278C115.805 80.7474 115.196 81.2982 114.606 81.8685Z" fill="white"/>
</mask>
<g mask="url(#mask18_2_7)">
<mask id="mask19_2_7" style="mask-type:luminance" maskUnits="userSpaceOnUse" x="114" y="80" width="3" height="2">
<path d="M114.606 81.8685C115.106 81.2278 115.727 80.6771 116.426 80.2278C115.805 80.7474 115.196 81.2982 114.606 81.8685Z" fill="white"/>
</mask>
<g mask="url(#mask19_2_7)">
<path d="M114.711 79.8528L114.176 81.7747L116.321 82.2435L116.856 80.3216L114.711 79.8528Z" fill="url(#paint6_radial_2_7)"/>
</g>
</g>
</g>
<mask id="mask20_2_7" style="mask-type:luminance" maskUnits="userSpaceOnUse" x="112" y="77" width="18" height="16">
<path d="M112.465 77.9075H129.465V92.9075H112.465V77.9075Z" fill="white"/>
</mask>
<g mask="url(#mask20_2_7)">
<mask id="mask21_2_7" style="mask-type:luminance" maskUnits="userSpaceOnUse" x="113" y="78" width="17" height="15">
<path d="M118.305 92.0482C114.696 90.7161 112.567 87.3489 113.496 84.0364C113.727 83.2357 114.106 82.5091 114.606 81.8685C115.196 81.2982 115.805 80.7474 116.426 80.2278C117.774 79.3763 119.434 78.888 121.196 78.888C121.864 78.888 122.555 78.9583 123.246 79.1068C126.555 79.8294 128.907 82.1693 129.407 84.8489C125.094 85.9466 121.157 88.4857 118.305 92.0482Z" fill="white"/>
</mask>
<g mask="url(#mask21_2_7)">
<mask id="mask22_2_7" style="mask-type:luminance" maskUnits="userSpaceOnUse" x="113" y="78" width="17" height="15">
<path d="M118.305 92.0482C114.696 90.7161 112.567 87.3489 113.496 84.0364C113.727 83.2357 114.106 82.5091 114.606 81.8685C115.196 81.2982 115.805 80.7474 116.426 80.2278C117.774 79.3763 119.434 78.888 121.196 78.888C121.864 78.888 122.555 78.9583 123.246 79.1068C126.555 79.8294 128.907 82.1693 129.407 84.8489C125.094 85.9466 121.157 88.4857 118.305 92.0482Z" fill="white"/>
</mask>
<g mask="url(#mask22_2_7)">
<path d="M113.387 75.6614L109.371 91.4036L128.582 95.2747L132.598 79.5325L113.387 75.6614Z" fill="url(#paint7_radial_2_7)"/>
</g>
</g>
</g>
<path d="M121.586 92.6263C120.906 92.6263 120.215 92.556 119.535 92.4075C119.106 92.3177 118.696 92.1966 118.305 92.0482C121.156 88.4857 125.094 85.9466 129.406 84.8489C129.555 85.7083 129.524 86.5989 129.274 87.4778C128.426 90.5794 125.196 92.6263 121.586 92.6263Z" fill="#918F90"/>
<path d="M44.8362 188.669C41.8244 231.368 47.344 396.087 157.535 408.677C267.715 421.259 312.137 241.876 321.184 207.208C330.235 172.536 344.914 166.388 315.137 150.958C278.235 150.978 44.8362 188.669 44.8362 188.669Z" fill="#701609"/>
<path d="M315.137 150.958C306.043 150.966 285.004 153.259 258.477 156.716C259.684 206.966 270.856 260.517 248.774 307.329C254.137 291.118 255.485 274.767 249.594 257.536C247.926 252.896 242.227 248.118 235.856 251.197C212.754 262.908 181.485 265.169 161.196 251.419C134.203 232.388 103.805 214.376 69.5861 210.779C67.0236 223.658 65.6252 236.497 63.2463 249.579C57.4143 287.396 74.8361 324.017 89.0549 360.529C93.1135 370.568 99.2736 379.529 106.625 387.888C120.434 398.849 137.203 406.349 157.535 408.677C267.715 421.259 312.137 241.876 321.184 207.208C330.235 172.536 344.914 166.388 315.137 150.958Z" fill="#771A10"/>
<path d="M172.477 355.997C175.524 321.876 180.387 288.529 181.684 254.986C181.574 255.107 181.453 255.216 181.324 255.349C178.946 256.579 174.926 256.447 172.516 255.716C143.996 246.517 116.555 233.646 95.4455 215.708C84.5236 223.009 75.7346 231.837 71.1643 243.939C59.5939 273.716 74.5158 303.689 86.2268 333.556C96.6643 360.466 113.926 387.197 139.785 405.107C145.375 406.747 151.285 407.966 157.535 408.677C161.035 409.079 164.465 409.279 167.836 409.298C168.375 403.329 169.906 397.497 171.434 391.368C173.645 379.638 171.055 367.759 172.477 355.997Z" fill="#84251E"/>
<path d="M242.344 358.247C234.375 376.556 220.016 391.658 201.645 402.958C279.914 371.997 313.453 236.818 321.184 207.208C321.485 206.056 321.793 204.939 322.106 203.849C281.793 206.169 253.387 333.396 242.344 358.247Z" fill="#84251E"/>
<path d="M45.215 188.947C41.2346 246.189 53.6564 396.478 157.567 408.349C160.195 408.658 162.856 408.849 165.453 408.927H165.465C212.016 410.427 276.645 377.009 320.235 209.267L320.793 207.118C323.125 198.216 325.844 191.118 328.024 185.408C334.406 168.806 336.785 162.579 315.043 151.286C278.805 151.376 54.6057 187.427 45.215 188.947ZM165.477 409.579H165.465C162.836 409.497 160.156 409.298 157.504 408.997C131.926 406.079 110.125 394.697 92.6955 375.177C78.1955 358.939 66.6369 337.017 58.3439 310.029C43.9064 263.048 42.8049 211.618 44.426 188.638L44.4533 188.388L44.7463 188.349C47.0666 187.966 278.594 150.646 315.113 150.626H315.235L315.344 150.689C337.754 162.298 335.317 168.646 328.805 185.638C326.613 191.329 323.895 198.408 321.586 207.298L321.024 209.439C316.055 228.579 302.836 279.439 278.055 325.068C246.856 382.548 208.977 410.978 165.477 409.579Z" fill="#75A31C"/>
<path d="M171.024 249.888C129.793 217.009 75.5666 235.579 76.0354 264.306C76.4768 293.048 120.363 407.126 165.914 408.599C211.477 410.068 277.395 301.759 249.766 255.798C222.145 209.837 171.024 249.888 171.024 249.888Z" fill="#E5303E"/>
<path d="M251.504 276.618C243.336 233.427 184.317 241.017 175.754 258.439C157.535 246.177 133.543 234.919 109.524 233.658C90.0353 237.439 75.7853 249.529 76.0353 264.306C76.4768 293.048 120.363 407.126 165.914 408.599C172.395 408.806 179.293 406.798 186.254 403.056C226.293 374.829 256.227 301.556 251.504 276.618Z" fill="#EA4256"/>
<path d="M243.375 270.447C238.465 256.497 218.934 247.376 201.336 250.747C183.727 254.118 181.543 269.118 180.946 281.548C178.274 265.079 165.235 252.857 148.254 244.447C130.363 236.017 111.274 237.568 91.465 240.396C81.8752 246.189 75.8752 254.677 76.0354 264.306C76.4768 293.048 120.363 407.126 165.914 408.599C196.606 409.587 258.817 314.318 243.375 270.447Z" fill="#F24E69"/>
<path d="M133.567 383.587C121.535 360.208 97.2346 314.169 88.676 259.197C85.137 301.368 114.793 362.497 133.567 383.587Z" fill="#F7849A"/>
<path d="M177.246 352.876C181.594 327.806 180.254 302.548 180.004 277.329C176.895 266.267 168.926 257.298 158.344 250.247C179.535 280.497 182.043 318.868 177.246 352.876Z" fill="#F7849A"/>
<path d="M124.887 232.786C97.8869 231.927 76.1448 246.068 76.426 264.318C76.6448 278.286 87.4065 313.708 104.426 346.568C116.164 369.247 139.785 407.439 165.914 408.267C181.985 408.786 202.524 394.829 220.895 370.927C247.453 336.376 266.485 284.318 249.414 255.939C240.965 241.888 229.465 234.529 215.235 234.068C192.985 233.357 171.524 249.958 171.293 250.126L171.035 250.337L170.746 250.107C153.637 236.466 136.364 233.158 124.887 232.786ZM165.926 408.927C139.324 408.068 115.516 369.626 103.696 346.786C86.6369 313.868 75.844 278.329 75.6252 264.298C75.3244 245.677 97.426 231.247 124.887 232.138C136.426 232.509 153.793 235.818 171.004 249.439C173.606 247.478 194.024 232.728 215.235 233.408C229.774 233.876 241.535 241.357 250.125 255.669C267.324 284.279 248.246 336.599 221.574 371.306C202.785 395.747 182.496 409.458 165.926 408.927Z" fill="#CC1B31"/>
<path d="M178.094 354.849C183.496 328.357 181.735 301.747 180.196 288.236C177.875 267.837 173.664 253.599 170.696 250.056L171.344 249.708C177.317 256.806 185.586 298.978 181.336 338.958C180.754 344.376 178.094 354.849 178.094 354.849Z" fill="#CC1B31"/>
<path d="M59.387 196.427C56.9339 202.279 49.7268 214.919 54.8753 219.107C60.0354 223.298 85.055 207.599 84.1643 205.388C83.2737 203.169 59.387 196.427 59.387 196.427Z" fill="#E6E6E6"/>
<path d="M59.387 196.427C56.9339 202.279 49.7268 214.919 54.8753 219.107C55.2151 219.388 55.637 219.568 56.1136 219.677C62.1643 213.767 65.7268 205.857 66.3167 198.466C62.3948 197.279 59.387 196.427 59.387 196.427Z" fill="white"/>
<path d="M59.6565 196.849C59.2737 197.728 58.7932 198.747 58.3049 199.837C55.4065 206.079 51.0041 215.517 55.1565 218.888C55.594 219.259 56.2932 219.458 57.176 219.486C63.9533 219.708 79.844 210.029 83.1643 206.466C83.8635 205.708 83.7854 205.478 83.7854 205.478C83.1955 204.009 68.8362 199.447 59.6565 196.849ZM57.1955 220.146C56.0744 220.107 55.2151 219.837 54.6057 219.337C50.0862 215.658 54.5666 205.966 57.5432 199.568C58.094 198.368 58.6252 197.247 59.0158 196.306L59.1369 196.017L59.5041 196.118C63.5354 197.259 83.6369 203.036 84.5549 205.306C84.7033 205.658 84.4846 206.138 83.8752 206.806C80.5862 210.458 64.3362 220.368 57.1955 220.146Z" fill="#B3B3B3"/>
<path d="M123.543 230.509C123.196 233.966 121.477 251.017 127.953 253.236C134.426 255.447 150.317 238.118 147.477 233.126C144.625 228.146 123.543 230.509 123.543 230.509Z" fill="#E6E6E6"/>
<path d="M138.387 230.099C131.567 229.618 123.543 230.509 123.543 230.509C123.196 233.966 121.477 251.017 127.953 253.236C128.676 253.478 129.504 253.478 130.414 253.286C135.817 246.548 138.856 238.396 138.387 230.099Z" fill="white"/>
<path d="M123.926 230.798C122.664 243.536 124.184 251.587 128.094 252.927C128.387 253.029 128.696 253.087 129.055 253.099C132.977 253.228 139.317 247.947 143.274 242.908C146.625 238.669 148.094 234.966 147.106 233.259C146.106 231.529 142.375 230.509 136.285 230.318C130.887 230.146 125.266 230.669 123.926 230.798ZM129.055 253.759C128.614 253.736 128.196 253.669 127.817 253.536C122.227 251.618 122.196 239.939 123.145 230.466L123.164 230.228L123.465 230.189C123.535 230.177 130.055 229.466 136.274 229.669C142.793 229.868 146.684 230.997 147.824 233.009C148.946 234.947 147.496 238.798 143.965 243.279C139.785 248.587 133.324 253.888 129.055 253.759Z" fill="#B3B3B3"/>
<path d="M207.856 241.447C207.496 244.896 205.774 261.947 199.004 262.716C192.235 263.478 180.156 243.079 183.926 238.829C187.703 234.568 207.856 241.447 207.856 241.447Z" fill="#E6E6E6"/>
<path d="M207.856 241.447C207.856 241.447 198.324 238.189 191.145 237.548C190.215 246.099 192.664 255.177 198.426 262.716C198.625 262.736 198.817 262.736 199.004 262.716C205.774 261.947 207.496 244.896 207.856 241.447Z" fill="white"/>
<path d="M189.567 237.767C186.856 237.689 185.067 238.118 184.254 239.029C182.586 240.908 184.235 246.786 188.164 253.009C191.906 258.927 196.164 262.697 198.934 262.388C203.024 261.919 206.113 254.368 207.426 241.658C205.645 241.068 196.016 237.978 189.567 237.767ZM198.504 263.056C194.836 262.939 190.387 257.939 187.453 253.286C184.086 247.939 181.434 241.068 183.594 238.618C184.574 237.529 186.555 237.029 189.543 237.118C196.805 237.349 207.535 240.986 207.996 241.138L208.274 241.236L208.254 241.486C207.293 250.958 204.934 262.376 199.074 263.036C198.895 263.056 198.703 263.056 198.504 263.056Z" fill="#B3B3B3"/>
<path d="M262.535 210.126C264.114 213.427 271.934 229.697 266.453 232.876C260.965 236.056 239.293 221.736 240.254 216.447C241.227 211.158 262.535 210.126 262.535 210.126Z" fill="#E6E6E6"/>
<path d="M266.453 232.876C271.934 229.697 264.114 213.427 262.535 210.126C262.535 210.126 257.543 210.368 252.293 211.216C253.305 219.177 257.414 227.509 264.426 233.329C265.227 233.329 265.926 233.189 266.453 232.876Z" fill="white"/>
<path d="M262.285 210.466C259.696 210.618 241.496 211.857 240.645 216.509C240.426 217.736 241.606 219.677 243.977 221.997C249.043 226.947 258.965 232.837 264.176 232.997C265.016 233.036 265.703 232.896 266.215 232.607C269.524 230.689 268.086 222.626 262.285 210.466ZM264.184 233.658C258.696 233.478 248.664 227.568 243.356 222.388C241.574 220.658 239.535 218.197 239.856 216.376C240.856 210.908 261.606 209.837 262.496 209.798L262.793 209.779L262.914 210.017C267.254 219.068 271.434 230.408 266.703 233.146C266.067 233.529 265.215 233.689 264.184 233.658Z" fill="#B3B3B3"/>
<path d="M313.184 182.529C314.774 185.837 322.586 202.107 317.106 205.286C311.625 208.466 289.934 194.146 290.906 188.857C291.863 183.568 313.184 182.529 313.184 182.529Z" fill="#E6E6E6"/>
<path d="M314.817 205.736C315.727 205.759 316.516 205.626 317.106 205.286C322.586 202.107 314.774 185.837 313.184 182.529C313.184 182.529 305.574 182.896 299.246 184.329C300.524 192.947 306.324 200.747 314.817 205.736Z" fill="white"/>
<path d="M312.934 182.876C310.344 183.029 292.137 184.267 291.293 188.927C291.067 190.146 292.254 192.099 294.614 194.396C299.684 199.357 309.625 205.247 314.817 205.419C315.676 205.439 316.356 205.306 316.856 205.029C320.215 203.079 318.817 195.216 312.934 182.876ZM314.824 206.068C309.336 205.896 299.305 199.978 294.004 194.798C292.215 193.068 290.176 190.607 290.504 188.798C291.504 183.318 312.254 182.247 313.145 182.208L313.446 182.189L313.567 182.427C317.895 191.486 322.067 202.829 317.344 205.568C316.703 205.939 315.864 206.107 314.824 206.068Z" fill="#B3B3B3"/>
<path d="M304.004 217.947C300.496 220.486 306.906 227.958 314.156 233.036C316.156 226.197 317.785 220.177 319.074 215.286C313.055 214.306 307.844 215.208 304.004 217.947Z" fill="#E6E6E6"/>
<path d="M304.016 217.806C303.785 217.966 303.586 218.158 303.446 218.357C306.864 221.736 311.227 224.216 316.016 226.396C317.184 222.208 318.215 218.419 319.074 215.138C313.055 214.158 307.856 215.048 304.016 217.806Z" fill="white"/>
<path d="M315.344 215.247C310.934 215.099 307.215 216.099 304.285 218.208C303.684 218.646 303.387 219.279 303.426 220.087C303.567 223.368 308.727 228.697 313.906 232.439C315.477 227.079 317.016 221.536 318.594 215.536C317.485 215.376 316.395 215.279 315.344 215.247ZM314.406 233.626L313.906 233.279C308.586 229.548 302.785 223.829 302.625 220.079C302.574 219.068 302.953 218.267 303.735 217.697C306.824 215.486 310.715 214.439 315.336 214.587C316.555 214.626 317.836 214.759 319.137 214.966L319.567 215.036L319.465 215.368C317.805 221.689 316.196 227.497 314.543 233.126L314.406 233.626Z" fill="#B3B3B3"/>
<path d="M45.0745 231.228C45.637 239.947 46.5237 249.349 47.844 259.126C56.7542 250.868 69.0667 239.587 69.0549 238.568C69.0354 237.478 56.9143 229.009 45.0745 231.228Z" fill="#E6E6E6"/>
<path d="M45.0745 231.228C45.426 236.599 45.8948 242.228 46.5042 248.036C53.0745 243.759 61.2854 240.868 68.844 238.197C67.2268 236.267 56.0354 229.177 45.0745 231.228Z" fill="white"/>
<path d="M45.4963 231.486C46.0745 240.497 46.9651 249.529 48.1448 258.337L50.926 255.759C58.3049 248.919 68.4143 239.556 68.6448 238.529C68.4143 237.716 59.926 231.529 49.9456 231.197C48.4143 231.146 46.9143 231.247 45.4963 231.486ZM47.5432 259.919L47.4456 259.146C46.2034 249.986 45.2737 240.599 44.6838 231.228L44.6643 230.966L44.9651 230.908C46.5432 230.618 48.2268 230.486 49.9338 230.536C59.8948 230.868 69.4338 237.259 69.4534 238.579C69.4651 239.447 64.1838 244.497 51.5432 256.208L47.5432 259.919Z" fill="#B3B3B3"/>
<path d="M120.977 371.587C115.805 370.329 103.574 374.978 98.2659 380.466C105.137 387.197 112.817 393.017 121.453 397.626C124.285 389.318 126.055 372.818 120.977 371.587Z" fill="#E6E6E6"/>
<path d="M120.977 371.439C115.805 370.189 103.567 374.829 98.2659 380.318C102.864 384.837 107.856 388.927 113.246 392.536C117.375 386.408 119.574 378.966 122.274 372.216C121.906 371.829 121.477 371.556 120.977 371.439Z" fill="white"/>
<path d="M98.7854 380.486C105.656 387.189 113.196 392.779 121.203 397.107C123.535 389.966 125.125 377.017 122.293 372.958C121.895 372.388 121.426 372.029 120.887 371.896C120.434 371.798 119.946 371.736 119.375 371.708C113.524 371.529 103.434 375.837 98.7854 380.486ZM121.696 398.146L121.254 397.896C112.906 393.447 105.074 387.658 97.9651 380.669L97.7463 380.466L97.9456 380.267C102.625 375.419 113.227 370.868 119.364 371.048C120.004 371.079 120.574 371.146 121.086 371.267C121.824 371.458 122.465 371.927 122.985 372.658C126.024 377.017 124.336 390.408 121.844 397.728L121.696 398.146Z" fill="#B3B3B3"/>
<path d="M69.8635 290.427C66.926 287.966 59.8049 291.646 55.0237 296.677C57.176 305.197 59.7463 313.689 62.7737 321.978C68.676 313.368 72.8948 292.947 69.8635 290.427Z" fill="#E6E6E6"/>
<path d="M69.8635 290.427C66.926 287.966 59.8049 291.646 55.0237 296.677C56.344 301.908 57.844 307.126 59.4846 312.298C65.4768 306.927 67.4534 299.579 70.7542 292.779C70.6252 291.638 70.344 290.818 69.8635 290.427Z" fill="white"/>
<path d="M55.4534 296.779C57.6057 305.247 60.094 313.439 62.8752 321.118C68.4963 312.216 72.3049 292.927 69.5862 290.658C69.0862 290.236 68.4065 290.009 67.5862 289.978C64.426 289.876 59.3362 292.716 55.4534 296.779ZM62.6643 322.818L62.387 322.056C59.4768 314.087 56.8752 305.556 54.6252 296.728L54.594 296.587L54.6956 296.466C58.8166 292.146 64.094 289.216 67.5745 289.318C68.6135 289.349 69.4846 289.646 70.1448 290.208C73.5042 293.017 68.9768 313.618 63.1252 322.146L62.6643 322.818Z" fill="#B3B3B3"/>
<path d="M204.074 376.118C202.426 378.118 199.387 391.759 205.266 401.427C214.094 397.509 222.324 392.259 229.996 385.997C219.254 379.568 205.656 374.208 204.074 376.118Z" fill="#E6E6E6"/>
<path d="M204.074 375.966C203.664 376.466 203.164 377.689 202.746 379.368C204.336 386.009 207.266 392.599 212.106 397.919C218.387 394.517 224.336 390.466 229.996 385.857C219.254 379.419 205.645 374.056 204.074 375.966Z" fill="white"/>
<path d="M205.574 376.056C204.977 376.036 204.567 376.118 204.407 376.306C202.766 378.306 199.914 391.497 205.446 400.978C213.625 397.286 221.676 392.267 229.375 386.036C220.426 380.728 209.606 376.189 205.574 376.056ZM205.114 401.876L204.914 401.556C199.004 391.857 202.024 378.009 203.746 375.919C204.055 375.548 204.657 375.368 205.567 375.408C209.793 375.536 221.086 380.267 230.215 385.747L230.606 385.978L230.285 386.236C222.317 392.736 213.977 397.939 205.477 401.716L205.114 401.876Z" fill="#B3B3B3"/>
<path d="M270.586 287.509C268.176 290.646 272.887 305.919 285.645 309.286C288.836 302.618 291.805 295.939 294.543 289.337C285.196 284.689 272.754 284.697 270.586 287.509Z" fill="#E6E6E6"/>
<path d="M270.586 287.357C270.094 288.009 269.895 289.158 270.016 290.618C274.614 296.236 281.227 300.158 288.727 302.517C290.766 298.068 292.715 293.607 294.543 289.197C285.196 284.536 272.746 284.548 270.586 287.357Z" fill="white"/>
<path d="M279.266 285.919C275.137 285.786 271.856 286.486 270.934 287.689C269.965 288.947 270.227 292.876 272.325 297.279C273.657 300.036 277.567 306.658 285.395 308.868C288.407 302.587 291.325 296.056 294.067 289.478C289.735 287.376 284.364 286.099 279.266 285.919ZM285.895 309.689L285.543 309.587C277.137 307.376 272.965 300.388 271.586 297.478C269.543 293.236 268.977 288.978 270.235 287.318C271.344 285.888 274.715 285.118 279.254 285.267C284.606 285.447 290.246 286.818 294.746 289.056L295.035 289.208L294.926 289.458C292.106 296.247 289.114 302.958 286.016 309.419L285.895 309.689Z" fill="#B3B3B3"/>
<path d="M13.8439 168.646C-9.2459 205.357 39.4846 203.466 56.1838 203.947C72.8635 204.427 82.6057 262.579 167.164 235.279C238.805 271.599 257.414 215.329 273.254 209.439C289.094 203.536 382.863 177.228 345.156 154.759C301.227 128.607 65.6057 86.3489 13.8439 168.646Z" fill="#90C92D"/>
<path d="M13.844 168.646C-9.24585 205.357 39.7268 199.388 56.4143 199.868C73.1057 200.349 80.8557 252.638 165.414 225.337C237.055 261.646 250.203 206.556 266.055 200.669C281.887 194.767 382.864 177.228 345.156 154.759C301.227 128.607 65.6057 86.3489 13.844 168.646Z" fill="#9AD839"/>
<path d="M13.844 168.646C-9.24586 205.357 39.7932 197.286 56.4846 197.759C73.176 198.236 80.7541 246.177 165.324 218.876C236.965 255.197 244.727 200.536 260.543 194.638C276.395 188.736 382.863 177.228 345.156 154.759C301.227 128.607 65.6057 86.3489 13.844 168.646Z" fill="#ABE24B"/>
<path d="M183.086 213.447C187.785 201.036 196.157 189.736 207.696 180.837C192.907 186.419 182.227 198.927 183.086 213.447Z" fill="#D9EF9C"/>
<path d="M101.985 186.458C121.106 193.329 132.805 198.138 143.684 209.556C137.477 195.876 119.395 186.966 101.985 186.458Z" fill="#D9EF9C"/>
<path d="M115.164 166.118C152.895 158.419 192.735 156.466 231.317 166.497C199.184 153.126 149.754 152.497 115.164 166.118Z" fill="#D9EF9C"/>
<path d="M283.145 134.548C224.606 121.638 140.754 113.497 80.2034 128.349C187.446 116.357 261.676 133.118 283.145 134.548Z" fill="#D9EF9C"/>
<path d="M186.735 120.939C158.285 119.298 117.836 119.236 82.1565 127.579C82.2151 127.798 94.3245 125.677 100.465 124.716C131.067 119.958 163.043 120.228 186.715 121.599C215.125 123.228 243.735 127.099 268.977 132.009C274.586 133.087 285.864 135.068 286.196 134.947C257.184 128.376 221.793 122.966 186.735 120.939Z" fill="#75A31C"/>
<path d="M345.375 154.497C345.266 154.439 345.156 154.368 345.035 154.306C344.965 154.529 344.887 154.736 344.785 154.939L344.926 155.029C351.106 158.708 354.004 162.697 353.586 166.908C351.934 182.927 302.793 199.208 281.793 206.169C277.985 207.427 274.996 208.419 273.067 209.138C269.196 210.579 265.293 214.818 260.387 220.169C249.375 232.158 234.305 248.568 206.735 246.966C194.934 246.286 181.676 242.267 167.356 234.997L167.176 234.908L167.004 234.966C149.996 240.458 134.727 242.857 121.594 242.099C93.7659 240.497 80.3752 225.478 70.6057 214.509C65.3245 208.587 61.1448 203.908 56.387 203.626H56.1643C55.0354 203.587 53.7463 203.568 52.344 203.536C49.1838 203.486 45.2541 203.427 41.1955 203.189C24.8049 202.247 14.7541 198.896 10.4846 192.966C7.43383 188.728 7.37523 183.087 10.3049 176.158C10.0666 176.036 9.83617 175.896 9.61351 175.747C6.5432 182.947 6.6057 188.829 9.80492 193.279C14.2268 199.427 24.4846 202.876 41.1838 203.837C45.2659 204.079 49.2034 204.146 52.3752 204.197C53.7659 204.228 55.0432 204.247 56.176 204.279L56.387 204.286C60.7346 204.536 64.8166 209.099 69.9534 214.876C79.8362 225.958 93.3557 241.118 121.574 242.759C134.785 243.517 150.106 241.118 167.145 235.646C181.524 242.908 194.836 246.939 206.727 247.626C234.703 249.236 249.914 232.677 261.024 220.587C265.703 215.509 269.735 211.118 273.434 209.736C275.336 209.029 278.336 208.036 282.137 206.779C305.043 199.189 352.703 183.396 354.387 166.997C354.836 162.536 351.805 158.329 345.375 154.497Z" fill="#75A31C"/>
<path d="M196.543 213.396C196.875 198.177 215.356 185.908 219.293 187.849C223.246 189.806 230.766 196.517 228.746 199.247C226.735 201.978 196.543 213.396 196.543 213.396Z" fill="#679319"/>
<path d="M219.766 188.099C221.844 191.169 221.414 195.349 219.766 197.587C214.844 204.599 205.465 207.868 196.676 211.618C196.594 212.208 196.543 212.798 196.543 213.396C196.543 213.396 226.735 201.978 228.746 199.247C230.696 196.626 223.793 190.306 219.766 188.099Z" fill="#7EA528"/>
<path d="M218.387 187.986C213.496 187.829 197.676 199.048 196.953 212.868C205.746 209.529 226.836 201.189 228.414 199.068C228.746 198.618 228.785 197.997 228.524 197.236C227.496 194.146 222.184 189.658 219.114 188.138C218.914 188.036 218.684 187.986 218.387 187.986ZM196.114 213.919L196.137 213.368C196.465 198.669 213.074 187.158 218.375 187.329C218.817 187.337 219.184 187.427 219.504 187.579C222.664 189.146 228.184 193.736 229.293 197.099C229.606 198.036 229.555 198.829 229.094 199.427C227.043 202.208 197.953 213.216 196.715 213.697L196.114 213.919Z" fill="#75A31C"/>
<path d="M182.746 213.849C181.285 207.497 184.293 199.529 190.985 191.966C194.106 188.447 197.684 185.439 201.317 183.197C204.934 180.947 212.137 179.607 212.137 179.607C201.715 181.138 188.696 192.646 184.535 203.857C183.266 207.279 182.746 213.849 182.746 213.849Z" fill="#75A31C"/>
<path d="M131.684 213.607C122.985 199.767 99.2737 193.876 96.7346 196.806C94.1956 199.747 91.0159 208.079 94.3557 209.997C97.7151 211.919 131.684 213.607 131.684 213.607Z" fill="#679319"/>
<path d="M119.016 202.267C121.844 204.329 123.434 206.388 121.985 207.548C112.594 213.536 92.4768 204.099 94.3557 209.997C95.3752 213.189 131.684 213.607 131.684 213.607C128.727 208.896 124.035 205.107 119.016 202.267Z" fill="#7EA528"/>
<path d="M100.086 196.419C98.5159 196.368 97.4456 196.568 97.0667 197.009C95.0862 199.298 92.6838 204.958 93.4534 208.079C93.6448 208.857 94.0237 209.419 94.5862 209.736C97.176 211.216 121.125 212.736 131.016 213.247C123.856 202.466 107.426 196.646 100.086 196.419ZM132.356 213.966L131.684 213.939C130.293 213.868 97.5549 212.208 94.137 210.259C93.4065 209.837 92.8948 209.138 92.676 208.169C91.844 204.779 94.3752 198.966 96.4065 196.618C96.9338 195.986 98.2151 195.689 100.074 195.747C107.696 195.997 124.914 202.126 132.043 213.466L132.356 213.966Z" fill="#75A31C"/>
<path d="M143.793 210.158C140.274 199.978 122.774 190.247 108.875 187.626C105.114 186.919 98.5549 186.529 98.5549 186.529C105.227 185.478 115.344 187.716 124.953 192.368C130.684 195.126 135.426 198.349 138.875 201.728C141.664 204.427 143.793 210.158 143.793 210.158Z" fill="#75A31C"/>
<path d="M111.387 167.337C116.364 164.529 122.906 162.247 130.434 160.517C161.606 153.298 209.625 155.286 232.906 166.708C232.906 166.708 223.715 163.599 218.406 162.189C191.067 154.927 149.715 155.189 124.293 162.818C119.535 164.247 111.387 167.337 111.387 167.337Z" fill="#75A31C"/>
<path d="M342.086 157.728C343.254 155.267 345.184 153.626 347.516 153.126C349.477 152.708 351.586 153.118 353.586 154.318C353.586 154.318 349.485 153.396 347.754 153.767C346.614 154.017 345.555 154.587 344.656 155.419C343.934 156.118 342.086 157.728 342.086 157.728Z" fill="#75A31C"/>
<path d="M5.30493 177.849C7.25415 175.747 10.1135 175.177 13.5432 176.126C14.7463 176.458 16.9456 178.228 16.9456 178.228C14.7932 177.087 11.176 175.646 8.18384 176.759C7.37524 177.048 5.30493 177.849 5.30493 177.849Z" fill="#75A31C"/>
<path d="M244.836 36.3958C242.496 23.0481 225.926 13.8567 217.496 23.4661C239.785 26.0559 244.836 36.3958 244.836 36.3958Z" fill="#421302"/>
<path d="M217.996 23.2786C235.977 25.4661 242.656 32.806 244.485 35.3685C242.625 27.6263 235.684 20.9271 228.215 19.8685C224.235 19.2982 220.625 20.5091 217.996 23.2786ZM244.735 36.5365C244.696 36.4271 239.465 26.2474 217.516 23.6966L217.106 23.6575L217.434 23.2786C220.164 20.1693 224.024 18.7865 228.285 19.3958C236.227 20.5286 243.606 27.9661 245.067 36.3177L245.324 37.6966L244.735 36.5365Z" fill="#230901"/>
<path d="M108.293 27.7786C110.715 14.4388 127.336 5.33721 135.715 14.9856C113.395 17.4778 108.293 27.7786 108.293 27.7786Z" fill="#421302"/>
<path d="M125.055 11.3489C117.586 12.3685 110.614 19.0286 108.715 26.7591C110.555 24.2083 117.274 16.8958 135.274 14.7982C132.656 12.0286 129.043 10.7864 125.055 11.3489ZM107.875 29.0872L108.114 27.7083C109.637 19.3568 117.043 11.9583 124.996 10.8685C129.254 10.2786 133.106 11.6771 135.836 14.806L136.145 15.1771L135.735 15.2279C113.785 17.6575 108.496 27.8177 108.453 27.9271L107.875 29.0872Z" fill="#230901"/>
<defs>
<radialGradient id="paint0_radial_2_7" cx="0" cy="0" r="1" gradientTransform="matrix(36.5614 -7.68279 11.4993 31.7898 229.205 96.5975)" gradientUnits="userSpaceOnUse">
<stop stop-color="white"/>
<stop offset="0.5" stop-color="white"/>
<stop offset="0.625" stop-color="white"/>
<stop offset="0.648438" stop-color="white"/>
<stop offset="0.65625" stop-color="#FEFEFE"/>
<stop offset="0.664062" stop-color="#FDFDFD"/>
<stop offset="0.671875" stop-color="#FCFCFC"/>
<stop offset="0.679688" stop-color="#FBFBFB"/>
<stop offset="0.6875" stop-color="#FBFBFB"/>
<stop offset="0.695312" stop-color="#FAFAFA"/>
<stop offset="0.703125" stop-color="#F9F9F9"/>
<stop offset="0.710938" stop-color="#F8F8F8"/>
<stop offset="0.71875" stop-color="#F7F7F7"/>
<stop offset="0.726562" stop-color="#F7F7F7"/>
<stop offset="0.734375" stop-color="#F6F6F6"/>
<stop offset="0.742188" stop-color="#F5F5F5"/>
<stop offset="0.75" stop-color="#F4F4F4"/>
<stop offset="0.757812" stop-color="#F3F3F3"/>
<stop offset="0.761719" stop-color="#F3F3F3"/>
<stop offset="0.765625" stop-color="#F3F3F3"/>
<stop offset="0.769531" stop-color="#F2F2F2"/>
<stop offset="0.773438" stop-color="#F2F2F2"/>
<stop offset="0.777344" stop-color="#F1F1F1"/>
<stop offset="0.78125" stop-color="#F1F1F1"/>
<stop offset="0.785156" stop-color="#F1F1F1"/>
<stop offset="0.789062" stop-color="#F0F0F0"/>
<stop offset="0.792969" stop-color="#F0F0F0"/>
<stop offset="0.796875" stop-color="#EFEFEF"/>
<stop offset="0.800781" stop-color="#EFEFEF"/>
<stop offset="0.804688" stop-color="#EEEEEE"/>
<stop offset="0.808594" stop-color="#EEEEEE"/>
<stop offset="0.8125" stop-color="#EEEEEE"/>
<stop offset="0.816406" stop-color="#EDEDED"/>
<stop offset="0.824219" stop-color="#ECECEC"/>
<stop offset="0.832031" stop-color="#EBEBEB"/>
<stop offset="0.839844" stop-color="#EBEBEB"/>
<stop offset="0.847656" stop-color="#EAEAEA"/>
<stop offset="0.855469" stop-color="#E9E9E9"/>
<stop offset="0.863281" stop-color="#E8E8E8"/>
<stop offset="0.871094" stop-color="#E7E7E7"/>
<stop offset="0.878906" stop-color="#E7E7E7"/>
<stop offset="0.882812" stop-color="#E6E6E6"/>
<stop offset="0.886719" stop-color="#E6E6E6"/>
<stop offset="0.890625" stop-color="#E5E5E5"/>
<stop offset="0.894531" stop-color="#E5E5E5"/>
<stop offset="0.898438" stop-color="#E5E5E5"/>
<stop offset="0.902344" stop-color="#E4E4E4"/>
<stop offset="0.90625" stop-color="#E4E4E4"/>
<stop offset="0.910156" stop-color="#E3E3E3"/>
<stop offset="0.917969" stop-color="#E2E2E2"/>
<stop offset="0.925781" stop-color="#E1E1E1"/>
<stop offset="0.933594" stop-color="#E1E1E1"/>
<stop offset="0.941406" stop-color="#E0E0E0"/>
<stop offset="0.945312" stop-color="#E0E0E0"/>
<stop offset="0.949219" stop-color="#DFDFDF"/>
<stop offset="0.953125" stop-color="#DFDFDF"/>
<stop offset="0.957031" stop-color="#DEDEDE"/>
<stop offset="0.964844" stop-color="#DDDDDD"/>
<stop offset="0.972656" stop-color="#DDDDDD"/>
<stop offset="0.976562" stop-color="#DCDCDC"/>
<stop offset="0.980469" stop-color="#DCDCDC"/>
<stop offset="0.988281" stop-color="#DBDBDB"/>
<stop offset="0.992188" stop-color="#DADADA"/>
<stop offset="1" stop-color="#DADADA"/>
</radialGradient>
<radialGradient id="paint1_radial_2_7" cx="0" cy="0" r="1" gradientTransform="matrix(28.2801 -6.43867 9.47445 24.6204 230.305 101.188)" gradientUnits="userSpaceOnUse">
<stop stop-color="white"/>
<stop offset="0.125" stop-color="white"/>
<stop offset="0.152344" stop-color="white"/>
<stop offset="0.175781" stop-color="#FFFFFE"/>
<stop offset="0.179688" stop-color="#FFFEFD"/>
<stop offset="0.183594" stop-color="#FFFEFC"/>
<stop offset="0.1875" stop-color="#FFFDFB"/>
<stop offset="0.191406" stop-color="#FFFDFA"/>
<stop offset="0.195312" stop-color="#FFFCF9"/>
<stop offset="0.199219" stop-color="#FFFCF8"/>
<stop offset="0.203125" stop-color="#FFFCF6"/>
<stop offset="0.207031" stop-color="#FFFBF5"/>
<stop offset="0.210938" stop-color="#FFFBF4"/>
<stop offset="0.214844" stop-color="#FFFAF3"/>
<stop offset="0.21875" stop-color="#FFFAF2"/>
<stop offset="0.222656" stop-color="#FFF9F1"/>
<stop offset="0.226562" stop-color="#FFF9F0"/>
<stop offset="0.230469" stop-color="#FFF9EF"/>
<stop offset="0.234375" stop-color="#FFF8EE"/>
<stop offset="0.238281" stop-color="#FFF8ED"/>
<stop offset="0.242188" stop-color="#FFF7EC"/>
<stop offset="0.246094" stop-color="#FFF7EB"/>
<stop offset="0.25" stop-color="#FFF6EA"/>
<stop offset="0.253906" stop-color="#FFF6E9"/>
<stop offset="0.257812" stop-color="#FFF6E8"/>
<stop offset="0.261719" stop-color="#FEF5E7"/>
<stop offset="0.265625" stop-color="#FEF5E6"/>
<stop offset="0.269531" stop-color="#FEF4E4"/>
<stop offset="0.273438" stop-color="#FEF4E3"/>
<stop offset="0.277344" stop-color="#FEF3E2"/>
<stop offset="0.28125" stop-color="#FEF3E1"/>
<stop offset="0.285156" stop-color="#FEF3E0"/>
<stop offset="0.289062" stop-color="#FEF2DF"/>
<stop offset="0.292969" stop-color="#FEF2DE"/>
<stop offset="0.296875" stop-color="#FEF1DD"/>
<stop offset="0.300781" stop-color="#FEF1DC"/>
<stop offset="0.304688" stop-color="#FEF0DB"/>
<stop offset="0.308594" stop-color="#FEF0DA"/>
<stop offset="0.3125" stop-color="#FEF0D9"/>
<stop offset="0.316406" stop-color="#FEEFD8"/>
<stop offset="0.320312" stop-color="#FEEFD7"/>
<stop offset="0.324219" stop-color="#FEEED6"/>
<stop offset="0.328125" stop-color="#FEEED5"/>
<stop offset="0.332031" stop-color="#FEEDD4"/>
<stop offset="0.335938" stop-color="#FEEDD3"/>
<stop offset="0.339844" stop-color="#FEEDD1"/>
<stop offset="0.34375" stop-color="#FEECD0"/>
<stop offset="0.347656" stop-color="#FEECCF"/>
<stop offset="0.351562" stop-color="#FEEBCE"/>
<stop offset="0.355469" stop-color="#FEEBCD"/>
<stop offset="0.359375" stop-color="#FEEBCC"/>
<stop offset="0.363281" stop-color="#FEEACB"/>
<stop offset="0.367188" stop-color="#FEEACA"/>
<stop offset="0.371094" stop-color="#FEE9C9"/>
<stop offset="0.375" stop-color="#FEE9C8"/>
<stop offset="0.378906" stop-color="#FEE8C7"/>
<stop offset="0.382812" stop-color="#FEE8C6"/>
<stop offset="0.386719" stop-color="#FEE8C5"/>
<stop offset="0.390625" stop-color="#FEE7C4"/>
<stop offset="0.394531" stop-color="#FEE7C3"/>
<stop offset="0.398438" stop-color="#FEE6C2"/>
<stop offset="0.402344" stop-color="#FEE6C1"/>
<stop offset="0.40625" stop-color="#FEE5BF"/>
<stop offset="0.410156" stop-color="#FEE5BE"/>
<stop offset="0.414062" stop-color="#FEE5BD"/>
<stop offset="0.417969" stop-color="#FEE4BC"/>
<stop offset="0.421875" stop-color="#FEE4BB"/>
<stop offset="0.425781" stop-color="#FEE3BA"/>
<stop offset="0.429688" stop-color="#FEE3B9"/>
<stop offset="0.433594" stop-color="#FEE2B8"/>
<stop offset="0.4375" stop-color="#FEE2B7"/>
<stop offset="0.441406" stop-color="#FEE2B6"/>
<stop offset="0.445312" stop-color="#FDE1B5"/>
<stop offset="0.449219" stop-color="#FDE1B4"/>
<stop offset="0.453125" stop-color="#FDE0B3"/>
<stop offset="0.457031" stop-color="#FDE0B2"/>
<stop offset="0.460938" stop-color="#FDDFB1"/>
<stop offset="0.464844" stop-color="#FDDFB0"/>
<stop offset="0.46875" stop-color="#FDDFAF"/>
<stop offset="0.472656" stop-color="#FDDEAE"/>
<stop offset="0.476562" stop-color="#FDDEAC"/>
<stop offset="0.480469" stop-color="#FDDDAB"/>
<stop offset="0.484375" stop-color="#FDDDAA"/>
<stop offset="0.488281" stop-color="#FDDCA9"/>
<stop offset="0.492188" stop-color="#FDDCA8"/>
<stop offset="0.496094" stop-color="#FDDCA7"/>
<stop offset="0.5" stop-color="#FDDBA6"/>
<stop offset="0.503906" stop-color="#FDDBA5"/>
<stop offset="0.507812" stop-color="#FDDAA4"/>
<stop offset="0.511719" stop-color="#FDDAA3"/>
<stop offset="0.515625" stop-color="#FDD9A2"/>
<stop offset="0.519531" stop-color="#FDD9A1"/>
<stop offset="0.523438" stop-color="#FDD9A0"/>
<stop offset="0.527344" stop-color="#FDD89F"/>
<stop offset="0.53125" stop-color="#FDD89E"/>
<stop offset="0.535156" stop-color="#FDD79D"/>
<stop offset="0.539062" stop-color="#FDD79C"/>
<stop offset="0.542969" stop-color="#FDD69B"/>
<stop offset="0.546875" stop-color="#FDD699"/>
<stop offset="0.550781" stop-color="#FDD698"/>
<stop offset="0.554688" stop-color="#FDD597"/>
<stop offset="0.558594" stop-color="#FDD596"/>
<stop offset="0.5625" stop-color="#FDD495"/>
<stop offset="0.566406" stop-color="#FDD494"/>
<stop offset="0.570312" stop-color="#FDD493"/>
<stop offset="0.574219" stop-color="#FDD392"/>
<stop offset="0.578125" stop-color="#FDD391"/>
<stop offset="0.582031" stop-color="#FDD290"/>
<stop offset="0.585938" stop-color="#FDD28F"/>
<stop offset="0.589844" stop-color="#FDD18E"/>
<stop offset="0.59375" stop-color="#FDD18D"/>
<stop offset="0.597656" stop-color="#FDD18C"/>
<stop offset="0.601562" stop-color="#FDD08B"/>
<stop offset="0.605469" stop-color="#FDD08A"/>
<stop offset="0.609375" stop-color="#FDCF89"/>
<stop offset="0.613281" stop-color="#FDCF87"/>
<stop offset="0.617188" stop-color="#FDCE86"/>
<stop offset="0.621094" stop-color="#FDCE85"/>
<stop offset="0.625" stop-color="#FCCE84"/>
<stop offset="0.628906" stop-color="#FCCD83"/>
<stop offset="0.632812" stop-color="#FCCD82"/>
<stop offset="0.636719" stop-color="#FCCC81"/>
<stop offset="0.640625" stop-color="#FCCC80"/>
<stop offset="0.644531" stop-color="#FCCB7F"/>
<stop offset="0.648438" stop-color="#FCCB7E"/>
<stop offset="0.652344" stop-color="#FCCB7D"/>
<stop offset="0.65625" stop-color="#FCCA7C"/>
<stop offset="0.660156" stop-color="#FCCA7B"/>
<stop offset="0.664062" stop-color="#FCC97A"/>
<stop offset="0.667969" stop-color="#FCC979"/>
<stop offset="0.671875" stop-color="#FCC878"/>
<stop offset="0.675781" stop-color="#FCC877"/>
<stop offset="0.679688" stop-color="#FCC876"/>
<stop offset="0.683594" stop-color="#FCC774"/>
<stop offset="0.6875" stop-color="#FCC773"/>
<stop offset="0.691406" stop-color="#FCC672"/>
<stop offset="0.695312" stop-color="#FCC671"/>
<stop offset="0.699219" stop-color="#FCC570"/>
<stop offset="0.703125" stop-color="#FCC56F"/>
<stop offset="0.707031" stop-color="#FCC56E"/>
<stop offset="0.710938" stop-color="#FCC46D"/>
<stop offset="0.714844" stop-color="#FCC46C"/>
<stop offset="0.71875" stop-color="#FCC36B"/>
<stop offset="0.722656" stop-color="#FCC36A"/>
<stop offset="0.726562" stop-color="#FCC269"/>
<stop offset="0.730469" stop-color="#FCC268"/>
<stop offset="0.734375" stop-color="#FCC267"/>
<stop offset="0.738281" stop-color="#FCC166"/>
<stop offset="0.742188" stop-color="#FCC165"/>
<stop offset="0.746094" stop-color="#FCC064"/>
<stop offset="0.75" stop-color="#FCC062"/>
<stop offset="0.753906" stop-color="#FCBF61"/>
<stop offset="0.757812" stop-color="#FCBF60"/>
<stop offset="0.761719" stop-color="#FCBF5F"/>
<stop offset="0.765625" stop-color="#FCBE5E"/>
<stop offset="0.769531" stop-color="#FCBE5D"/>
<stop offset="0.773438" stop-color="#FCBD5C"/>
<stop offset="0.777344" stop-color="#FCBD5B"/>
<stop offset="0.78125" stop-color="#FCBD5A"/>
<stop offset="0.785156" stop-color="#FCBC59"/>
<stop offset="0.789062" stop-color="#FCBC58"/>
<stop offset="0.792969" stop-color="#FCBB57"/>
<stop offset="0.796875" stop-color="#FCBB56"/>
<stop offset="0.800781" stop-color="#FCBA55"/>
<stop offset="0.804688" stop-color="#FCBA54"/>
<stop offset="0.808594" stop-color="#FBBA53"/>
<stop offset="0.8125" stop-color="#FBB952"/>
<stop offset="0.816406" stop-color="#FBB951"/>
<stop offset="0.820312" stop-color="#FBB84F"/>
<stop offset="0.824219" stop-color="#FBB84E"/>
<stop offset="0.828125" stop-color="#FBB74D"/>
<stop offset="0.832031" stop-color="#FBB74C"/>
<stop offset="0.835938" stop-color="#FBB74B"/>
<stop offset="0.839844" stop-color="#FBB64A"/>
<stop offset="0.84375" stop-color="#FBB649"/>
<stop offset="0.847656" stop-color="#FBB548"/>
<stop offset="0.851562" stop-color="#FBB547"/>
<stop offset="0.855469" stop-color="#FBB446"/>
<stop offset="0.859375" stop-color="#FBB445"/>
<stop offset="0.863281" stop-color="#FBB444"/>
<stop offset="0.867188" stop-color="#FBB343"/>
<stop offset="0.871094" stop-color="#FBB342"/>
<stop offset="0.875" stop-color="#FBB241"/>
<stop offset="0.878906" stop-color="#FBB240"/>
<stop offset="0.882812" stop-color="#FBB13F"/>
<stop offset="0.886719" stop-color="#FBB13E"/>
<stop offset="0.890625" stop-color="#FBB13C"/>
<stop offset="0.894531" stop-color="#FBB03B"/>
<stop offset="1" stop-color="#FBB03B"/>
</radialGradient>
<radialGradient id="paint2_radial_2_7" cx="0" cy="0" r="1" gradientTransform="matrix(36.5614 -7.68279 11.4993 31.7898 229.205 96.5975)" gradientUnits="userSpaceOnUse">
<stop stop-color="white"/>
<stop offset="0.5" stop-color="white"/>
<stop offset="0.625" stop-color="white"/>
<stop offset="0.648438" stop-color="white"/>
<stop offset="0.65625" stop-color="white"/>
<stop offset="0.664062" stop-color="#FEFEFE"/>
<stop offset="0.671875" stop-color="#FEFEFE"/>
<stop offset="0.679688" stop-color="#FDFDFD"/>
<stop offset="0.699219" stop-color="#FDFDFD"/>
<stop offset="0.703125" stop-color="#FCFCFC"/>
<stop offset="0.71875" stop-color="#FBFBFB"/>
<stop offset="0.734375" stop-color="#FBFBFB"/>
<stop offset="0.742188" stop-color="#FAFAFA"/>
<stop offset="0.757812" stop-color="#F9F9F9"/>
<stop offset="0.769531" stop-color="#F9F9F9"/>
<stop offset="0.773438" stop-color="#F8F8F8"/>
<stop offset="0.785156" stop-color="#F8F8F8"/>
<stop offset="0.796875" stop-color="#F7F7F7"/>
<stop offset="0.808594" stop-color="#F7F7F7"/>
<stop offset="0.8125" stop-color="#F6F6F6"/>
<stop offset="0.824219" stop-color="#F6F6F6"/>
<stop offset="0.832031" stop-color="#F6F6F6"/>
<stop offset="0.835938" stop-color="#F5F5F5"/>
<stop offset="0.84375" stop-color="#F5F5F5"/>
<stop offset="0.851562" stop-color="#F4F4F4"/>
<stop offset="0.867188" stop-color="#F4F4F4"/>
<stop offset="0.875" stop-color="#F3F3F3"/>
<stop offset="0.890625" stop-color="#F2F2F2"/>
<stop offset="0.902344" stop-color="#F2F2F2"/>
<stop offset="0.90625" stop-color="#F1F1F1"/>
<stop offset="0.917969" stop-color="#F1F1F1"/>
<stop offset="0.925781" stop-color="#F1F1F1"/>
<stop offset="0.929688" stop-color="#F0F0F0"/>
<stop offset="0.945312" stop-color="#EFEFEF"/>
<stop offset="0.957031" stop-color="#EFEFEF"/>
<stop offset="0.964844" stop-color="#EFEFEF"/>
<stop offset="0.96875" stop-color="#EEEEEE"/>
<stop offset="0.984375" stop-color="#EDEDED"/>
<stop offset="1" stop-color="#EDEDED"/>
</radialGradient>
<radialGradient id="paint3_radial_2_7" cx="0" cy="0" r="1" gradientTransform="matrix(28.2801 -6.43867 9.47445 24.6204 230.305 101.188)" gradientUnits="userSpaceOnUse">
<stop stop-color="white"/>
<stop offset="0.125" stop-color="white"/>
<stop offset="0.179688" stop-color="#FFFFFE"/>
<stop offset="0.183594" stop-color="#FFFFFE"/>
<stop offset="0.1875" stop-color="#FFFFFD"/>
<stop offset="0.191406" stop-color="#FFFEFD"/>
<stop offset="0.195312" stop-color="#FFFEFC"/>
<stop offset="0.199219" stop-color="#FFFEFC"/>
<stop offset="0.203125" stop-color="#FFFDFB"/>
<stop offset="0.207031" stop-color="#FFFDFB"/>
<stop offset="0.210938" stop-color="#FFFDFA"/>
<stop offset="0.214844" stop-color="#FFFDF9"/>
<stop offset="0.21875" stop-color="#FFFDF9"/>
<stop offset="0.222656" stop-color="#FFFDF8"/>
<stop offset="0.226562" stop-color="#FFFCF7"/>
<stop offset="0.230469" stop-color="#FFFCF7"/>
<stop offset="0.234375" stop-color="#FFFCF7"/>
<stop offset="0.238281" stop-color="#FFFBF6"/>
<stop offset="0.242188" stop-color="#FFFBF6"/>
<stop offset="0.246094" stop-color="#FFFBF5"/>
<stop offset="0.25" stop-color="#FFFBF4"/>
<stop offset="0.253906" stop-color="#FFFBF4"/>
<stop offset="0.261719" stop-color="#FFFAF3"/>
<stop offset="0.265625" stop-color="#FFFAF3"/>
<stop offset="0.269531" stop-color="#FFFAF2"/>
<stop offset="0.273438" stop-color="#FFFAF1"/>
<stop offset="0.28125" stop-color="#FFF9F0"/>
<stop offset="0.289062" stop-color="#FFF9F0"/>
<stop offset="0.292969" stop-color="#FFF8EF"/>
<stop offset="0.296875" stop-color="#FFF8EE"/>
<stop offset="0.304688" stop-color="#FFF8ED"/>
<stop offset="0.3125" stop-color="#FFF8EC"/>
<stop offset="0.316406" stop-color="#FFF7EC"/>
<stop offset="0.320312" stop-color="#FFF7EB"/>
<stop offset="0.324219" stop-color="#FFF7EA"/>
<stop offset="0.328125" stop-color="#FFF6EA"/>
<stop offset="0.332031" stop-color="#FFF6E9"/>
<stop offset="0.339844" stop-color="#FFF6E8"/>
<stop offset="0.347656" stop-color="#FFF6E7"/>
<stop offset="0.351562" stop-color="#FFF5E7"/>
<stop offset="0.355469" stop-color="#FFF5E6"/>
<stop offset="0.363281" stop-color="#FFF5E5"/>
<stop offset="0.371094" stop-color="#FFF5E4"/>
<stop offset="0.375" stop-color="#FFF4E4"/>
<stop offset="0.378906" stop-color="#FFF4E3"/>
<stop offset="0.386719" stop-color="#FFF3E2"/>
<stop offset="0.394531" stop-color="#FFF3E1"/>
<stop offset="0.398438" stop-color="#FFF3E1"/>
<stop offset="0.402344" stop-color="#FFF3E0"/>
<stop offset="0.410156" stop-color="#FFF2DF"/>
<stop offset="0.417969" stop-color="#FFF2DE"/>
<stop offset="0.421875" stop-color="#FFF1DD"/>
<stop offset="0.425781" stop-color="#FFF1DD"/>
<stop offset="0.429688" stop-color="#FFF1DC"/>
<stop offset="0.433594" stop-color="#FFF1DB"/>
<stop offset="0.4375" stop-color="#FFF1DB"/>
<stop offset="0.445312" stop-color="#FEF0DA"/>
<stop offset="0.453125" stop-color="#FEF0D9"/>
<stop offset="0.457031" stop-color="#FEF0D8"/>
<stop offset="0.460938" stop-color="#FEF0D8"/>
<stop offset="0.46875" stop-color="#FEEFD7"/>
<stop offset="0.472656" stop-color="#FEEFD7"/>
<stop offset="0.476562" stop-color="#FEEED6"/>
<stop offset="0.480469" stop-color="#FEEED5"/>
<stop offset="0.488281" stop-color="#FEEED4"/>
<stop offset="0.496094" stop-color="#FEEED4"/>
<stop offset="0.5" stop-color="#FEEDD3"/>
<stop offset="0.503906" stop-color="#FEEDD2"/>
<stop offset="0.507812" stop-color="#FEEDD2"/>
<stop offset="0.511719" stop-color="#FEECD1"/>
<stop offset="0.515625" stop-color="#FEECD1"/>
<stop offset="0.519531" stop-color="#FEECD0"/>
<stop offset="0.523438" stop-color="#FEECD0"/>
<stop offset="0.527344" stop-color="#FEECCF"/>
<stop offset="0.53125" stop-color="#FEECCE"/>
<stop offset="0.535156" stop-color="#FEEBCE"/>
<stop offset="0.539062" stop-color="#FEEBCD"/>
<stop offset="0.542969" stop-color="#FEEBCD"/>
<stop offset="0.546875" stop-color="#FEEBCC"/>
<stop offset="0.550781" stop-color="#FEEBCC"/>
<stop offset="0.554688" stop-color="#FEEBCB"/>
<stop offset="0.558594" stop-color="#FEEACB"/>
<stop offset="0.5625" stop-color="#FEEACA"/>
<stop offset="0.566406" stop-color="#FEEACA"/>
<stop offset="0.570312" stop-color="#FEE9C9"/>
<stop offset="0.574219" stop-color="#FEE9C9"/>
<stop offset="0.578125" stop-color="#FEE9C8"/>
<stop offset="0.582031" stop-color="#FEE9C8"/>
<stop offset="0.585938" stop-color="#FEE9C7"/>
<stop offset="0.589844" stop-color="#FEE9C7"/>
<stop offset="0.59375" stop-color="#FEE8C6"/>
<stop offset="0.597656" stop-color="#FEE8C6"/>
<stop offset="0.601562" stop-color="#FEE8C5"/>
<stop offset="0.605469" stop-color="#FEE7C5"/>
<stop offset="0.609375" stop-color="#FEE7C4"/>
<stop offset="0.613281" stop-color="#FEE7C4"/>
<stop offset="0.617188" stop-color="#FEE7C3"/>
<stop offset="0.621094" stop-color="#FEE7C3"/>
<stop offset="0.625" stop-color="#FEE7C2"/>
<stop offset="0.628906" stop-color="#FEE6C1"/>
<stop offset="0.632812" stop-color="#FEE6C1"/>
<stop offset="0.636719" stop-color="#FEE6C0"/>
<stop offset="0.640625" stop-color="#FEE6BF"/>
<stop offset="0.644531" stop-color="#FEE6BF"/>
<stop offset="0.652344" stop-color="#FEE5BE"/>
<stop offset="0.65625" stop-color="#FEE5BE"/>
<stop offset="0.660156" stop-color="#FEE5BD"/>
<stop offset="0.664062" stop-color="#FEE4BC"/>
<stop offset="0.667969" stop-color="#FEE4BC"/>
<stop offset="0.675781" stop-color="#FEE4BB"/>
<stop offset="0.679688" stop-color="#FEE4BB"/>
<stop offset="0.683594" stop-color="#FEE3BA"/>
<stop offset="0.6875" stop-color="#FEE3B9"/>
<stop offset="0.695312" stop-color="#FEE2B8"/>
<stop offset="0.703125" stop-color="#FEE2B8"/>
<stop offset="0.707031" stop-color="#FEE2B7"/>
<stop offset="0.710938" stop-color="#FEE2B6"/>
<stop offset="0.71875" stop-color="#FEE1B5"/>
<stop offset="0.726562" stop-color="#FEE1B4"/>
<stop offset="0.730469" stop-color="#FEE1B4"/>
<stop offset="0.734375" stop-color="#FEE1B3"/>
<stop offset="0.738281" stop-color="#FEE1B2"/>
<stop offset="0.742188" stop-color="#FEE0B2"/>
<stop offset="0.746094" stop-color="#FEE0B1"/>
<stop offset="0.753906" stop-color="#FEDFB0"/>
<stop offset="0.757812" stop-color="#FEDFB0"/>
<stop offset="0.761719" stop-color="#FEDFAF"/>
<stop offset="0.765625" stop-color="#FEDFAF"/>
<stop offset="0.769531" stop-color="#FEDFAE"/>
<stop offset="0.773438" stop-color="#FEDFAE"/>
<stop offset="0.777344" stop-color="#FEDEAD"/>
<stop offset="0.78125" stop-color="#FEDEAD"/>
<stop offset="0.785156" stop-color="#FEDEAC"/>
<stop offset="0.789062" stop-color="#FEDDAC"/>
<stop offset="0.792969" stop-color="#FEDDAB"/>
<stop offset="0.796875" stop-color="#FEDDAB"/>
<stop offset="0.800781" stop-color="#FEDDAA"/>
<stop offset="0.804688" stop-color="#FEDDAA"/>
<stop offset="0.808594" stop-color="#FEDDA9"/>
<stop offset="0.8125" stop-color="#FDDCA9"/>
<stop offset="0.816406" stop-color="#FDDCA8"/>
<stop offset="0.824219" stop-color="#FDDCA7"/>
<stop offset="0.832031" stop-color="#FDDCA6"/>
<stop offset="0.835938" stop-color="#FDDBA5"/>
<stop offset="0.839844" stop-color="#FDDBA5"/>
<stop offset="0.84375" stop-color="#FDDBA4"/>
<stop offset="0.847656" stop-color="#FDDAA3"/>
<stop offset="0.851562" stop-color="#FDDAA3"/>
<stop offset="0.859375" stop-color="#FDDAA2"/>
<stop offset="0.863281" stop-color="#FDDAA2"/>
<stop offset="0.867188" stop-color="#FDDAA1"/>
<stop offset="0.871094" stop-color="#FDD9A0"/>
<stop offset="0.875" stop-color="#FDD9A0"/>
<stop offset="0.882812" stop-color="#FDD89F"/>
<stop offset="0.886719" stop-color="#FDD89F"/>
<stop offset="0.890625" stop-color="#FDD89E"/>
<stop offset="0.894531" stop-color="#FDD89D"/>
<stop offset="1" stop-color="#FDD89D"/>
</radialGradient>
<radialGradient id="paint4_radial_2_7" cx="0" cy="0" r="1" gradientTransform="matrix(37.4245 8.16308 -8.77689 31.5093 133.025 97.3575)" gradientUnits="userSpaceOnUse">
<stop stop-color="white"/>
<stop offset="0.5" stop-color="white"/>
<stop offset="0.625" stop-color="white"/>
<stop offset="0.648438" stop-color="white"/>
<stop offset="0.65625" stop-color="#FEFEFE"/>
<stop offset="0.664062" stop-color="#FDFDFD"/>
<stop offset="0.671875" stop-color="#FCFCFC"/>
<stop offset="0.679688" stop-color="#FBFBFB"/>
<stop offset="0.6875" stop-color="#FBFBFB"/>
<stop offset="0.695312" stop-color="#FAFAFA"/>
<stop offset="0.703125" stop-color="#F9F9F9"/>
<stop offset="0.710938" stop-color="#F8F8F8"/>
<stop offset="0.71875" stop-color="#F7F7F7"/>
<stop offset="0.726562" stop-color="#F7F7F7"/>
<stop offset="0.734375" stop-color="#F6F6F6"/>
<stop offset="0.742188" stop-color="#F5F5F5"/>
<stop offset="0.75" stop-color="#F4F4F4"/>
<stop offset="0.757812" stop-color="#F3F3F3"/>
<stop offset="0.761719" stop-color="#F3F3F3"/>
<stop offset="0.765625" stop-color="#F3F3F3"/>
<stop offset="0.769531" stop-color="#F2F2F2"/>
<stop offset="0.773438" stop-color="#F2F2F2"/>
<stop offset="0.777344" stop-color="#F1F1F1"/>
<stop offset="0.78125" stop-color="#F1F1F1"/>
<stop offset="0.785156" stop-color="#F1F1F1"/>
<stop offset="0.789062" stop-color="#F0F0F0"/>
<stop offset="0.792969" stop-color="#F0F0F0"/>
<stop offset="0.796875" stop-color="#EFEFEF"/>
<stop offset="0.800781" stop-color="#EFEFEF"/>
<stop offset="0.804688" stop-color="#EEEEEE"/>
<stop offset="0.808594" stop-color="#EEEEEE"/>
<stop offset="0.8125" stop-color="#EEEEEE"/>
<stop offset="0.816406" stop-color="#EDEDED"/>
<stop offset="0.824219" stop-color="#ECECEC"/>
<stop offset="0.832031" stop-color="#EBEBEB"/>
<stop offset="0.839844" stop-color="#EBEBEB"/>
<stop offset="0.847656" stop-color="#EAEAEA"/>
<stop offset="0.855469" stop-color="#E9E9E9"/>
<stop offset="0.863281" stop-color="#E8E8E8"/>
<stop offset="0.871094" stop-color="#E7E7E7"/>
<stop offset="0.878906" stop-color="#E7E7E7"/>
<stop offset="0.882812" stop-color="#E6E6E6"/>
<stop offset="0.886719" stop-color="#E6E6E6"/>
<stop offset="0.890625" stop-color="#E5E5E5"/>
<stop offset="0.894531" stop-color="#E5E5E5"/>
<stop offset="0.898438" stop-color="#E5E5E5"/>
<stop offset="0.902344" stop-color="#E4E4E4"/>
<stop offset="0.90625" stop-color="#E4E4E4"/>
<stop offset="0.910156" stop-color="#E3E3E3"/>
<stop offset="0.917969" stop-color="#E2E2E2"/>
<stop offset="0.925781" stop-color="#E1E1E1"/>
<stop offset="0.933594" stop-color="#E1E1E1"/>
<stop offset="0.941406" stop-color="#E0E0E0"/>
<stop offset="0.945312" stop-color="#E0E0E0"/>
<stop offset="0.949219" stop-color="#DFDFDF"/>
<stop offset="0.953125" stop-color="#DFDFDF"/>
<stop offset="0.957031" stop-color="#DEDEDE"/>
<stop offset="0.964844" stop-color="#DDDDDD"/>
<stop offset="0.972656" stop-color="#DDDDDD"/>
<stop offset="0.976562" stop-color="#DCDCDC"/>
<stop offset="0.980469" stop-color="#DCDCDC"/>
<stop offset="0.988281" stop-color="#DBDBDB"/>
<stop offset="0.992188" stop-color="#DADADA"/>
<stop offset="1" stop-color="#DADADA"/>
</radialGradient>
<radialGradient id="paint5_radial_2_7" cx="0" cy="0" r="1" gradientTransform="matrix(29.2395 5.89208 -6.28608 24.6309 131.265 101.688)" gradientUnits="userSpaceOnUse">
<stop stop-color="white"/>
<stop offset="0.125" stop-color="white"/>
<stop offset="0.152344" stop-color="white"/>
<stop offset="0.175781" stop-color="#FFFFFE"/>
<stop offset="0.179688" stop-color="#FFFEFD"/>
<stop offset="0.183594" stop-color="#FFFEFC"/>
<stop offset="0.1875" stop-color="#FFFDFB"/>
<stop offset="0.191406" stop-color="#FFFDFA"/>
<stop offset="0.195312" stop-color="#FFFCF9"/>
<stop offset="0.199219" stop-color="#FFFCF8"/>
<stop offset="0.203125" stop-color="#FFFCF6"/>
<stop offset="0.207031" stop-color="#FFFBF5"/>
<stop offset="0.210938" stop-color="#FFFBF4"/>
<stop offset="0.214844" stop-color="#FFFAF3"/>
<stop offset="0.21875" stop-color="#FFFAF2"/>
<stop offset="0.222656" stop-color="#FFF9F1"/>
<stop offset="0.226562" stop-color="#FFF9F0"/>
<stop offset="0.230469" stop-color="#FFF9EF"/>
<stop offset="0.234375" stop-color="#FFF8EE"/>
<stop offset="0.238281" stop-color="#FFF8ED"/>
<stop offset="0.242188" stop-color="#FFF7EC"/>
<stop offset="0.246094" stop-color="#FFF7EB"/>
<stop offset="0.25" stop-color="#FFF6EA"/>
<stop offset="0.253906" stop-color="#FFF6E9"/>
<stop offset="0.257812" stop-color="#FFF6E8"/>
<stop offset="0.261719" stop-color="#FEF5E7"/>
<stop offset="0.265625" stop-color="#FEF5E6"/>
<stop offset="0.269531" stop-color="#FEF4E4"/>
<stop offset="0.273438" stop-color="#FEF4E3"/>
<stop offset="0.277344" stop-color="#FEF3E2"/>
<stop offset="0.28125" stop-color="#FEF3E1"/>
<stop offset="0.285156" stop-color="#FEF3E0"/>
<stop offset="0.289062" stop-color="#FEF2DF"/>
<stop offset="0.292969" stop-color="#FEF2DE"/>
<stop offset="0.296875" stop-color="#FEF1DD"/>
<stop offset="0.300781" stop-color="#FEF1DC"/>
<stop offset="0.304688" stop-color="#FEF0DB"/>
<stop offset="0.308594" stop-color="#FEF0DA"/>
<stop offset="0.3125" stop-color="#FEF0D9"/>
<stop offset="0.316406" stop-color="#FEEFD8"/>
<stop offset="0.320312" stop-color="#FEEFD7"/>
<stop offset="0.324219" stop-color="#FEEED6"/>
<stop offset="0.328125" stop-color="#FEEED5"/>
<stop offset="0.332031" stop-color="#FEEDD4"/>
<stop offset="0.335938" stop-color="#FEEDD3"/>
<stop offset="0.339844" stop-color="#FEEDD1"/>
<stop offset="0.34375" stop-color="#FEECD0"/>
<stop offset="0.347656" stop-color="#FEECCF"/>
<stop offset="0.351562" stop-color="#FEEBCE"/>
<stop offset="0.355469" stop-color="#FEEBCD"/>
<stop offset="0.359375" stop-color="#FEEBCC"/>
<stop offset="0.363281" stop-color="#FEEACB"/>
<stop offset="0.367188" stop-color="#FEEACA"/>
<stop offset="0.371094" stop-color="#FEE9C9"/>
<stop offset="0.375" stop-color="#FEE9C8"/>
<stop offset="0.378906" stop-color="#FEE8C7"/>
<stop offset="0.382812" stop-color="#FEE8C6"/>
<stop offset="0.386719" stop-color="#FEE8C5"/>
<stop offset="0.390625" stop-color="#FEE7C4"/>
<stop offset="0.394531" stop-color="#FEE7C3"/>
<stop offset="0.398438" stop-color="#FEE6C2"/>
<stop offset="0.402344" stop-color="#FEE6C1"/>
<stop offset="0.40625" stop-color="#FEE5BF"/>
<stop offset="0.410156" stop-color="#FEE5BE"/>
<stop offset="0.414062" stop-color="#FEE5BD"/>
<stop offset="0.417969" stop-color="#FEE4BC"/>
<stop offset="0.421875" stop-color="#FEE4BB"/>
<stop offset="0.425781" stop-color="#FEE3BA"/>
<stop offset="0.429688" stop-color="#FEE3B9"/>
<stop offset="0.433594" stop-color="#FEE2B8"/>
<stop offset="0.4375" stop-color="#FEE2B7"/>
<stop offset="0.441406" stop-color="#FEE2B6"/>
<stop offset="0.445312" stop-color="#FDE1B5"/>
<stop offset="0.449219" stop-color="#FDE1B4"/>
<stop offset="0.453125" stop-color="#FDE0B3"/>
<stop offset="0.457031" stop-color="#FDE0B2"/>
<stop offset="0.460938" stop-color="#FDDFB1"/>
<stop offset="0.464844" stop-color="#FDDFB0"/>
<stop offset="0.46875" stop-color="#FDDFAF"/>
<stop offset="0.472656" stop-color="#FDDEAE"/>
<stop offset="0.476562" stop-color="#FDDEAC"/>
<stop offset="0.480469" stop-color="#FDDDAB"/>
<stop offset="0.484375" stop-color="#FDDDAA"/>
<stop offset="0.488281" stop-color="#FDDCA9"/>
<stop offset="0.492188" stop-color="#FDDCA8"/>
<stop offset="0.496094" stop-color="#FDDCA7"/>
<stop offset="0.5" stop-color="#FDDBA6"/>
<stop offset="0.503906" stop-color="#FDDBA5"/>
<stop offset="0.507812" stop-color="#FDDAA4"/>
<stop offset="0.511719" stop-color="#FDDAA3"/>
<stop offset="0.515625" stop-color="#FDD9A2"/>
<stop offset="0.519531" stop-color="#FDD9A1"/>
<stop offset="0.523438" stop-color="#FDD9A0"/>
<stop offset="0.527344" stop-color="#FDD89F"/>
<stop offset="0.53125" stop-color="#FDD89E"/>
<stop offset="0.535156" stop-color="#FDD79D"/>
<stop offset="0.539062" stop-color="#FDD79C"/>
<stop offset="0.542969" stop-color="#FDD69B"/>
<stop offset="0.546875" stop-color="#FDD699"/>
<stop offset="0.550781" stop-color="#FDD698"/>
<stop offset="0.554688" stop-color="#FDD597"/>
<stop offset="0.558594" stop-color="#FDD596"/>
<stop offset="0.5625" stop-color="#FDD495"/>
<stop offset="0.566406" stop-color="#FDD494"/>
<stop offset="0.570312" stop-color="#FDD493"/>
<stop offset="0.574219" stop-color="#FDD392"/>
<stop offset="0.578125" stop-color="#FDD391"/>
<stop offset="0.582031" stop-color="#FDD290"/>
<stop offset="0.585938" stop-color="#FDD28F"/>
<stop offset="0.589844" stop-color="#FDD18E"/>
<stop offset="0.59375" stop-color="#FDD18D"/>
<stop offset="0.597656" stop-color="#FDD18C"/>
<stop offset="0.601562" stop-color="#FDD08B"/>
<stop offset="0.605469" stop-color="#FDD08A"/>
<stop offset="0.609375" stop-color="#FDCF89"/>
<stop offset="0.613281" stop-color="#FDCF87"/>
<stop offset="0.617188" stop-color="#FDCE86"/>
<stop offset="0.621094" stop-color="#FDCE85"/>
<stop offset="0.625" stop-color="#FCCE84"/>
<stop offset="0.628906" stop-color="#FCCD83"/>
<stop offset="0.632812" stop-color="#FCCD82"/>
<stop offset="0.636719" stop-color="#FCCC81"/>
<stop offset="0.640625" stop-color="#FCCC80"/>
<stop offset="0.644531" stop-color="#FCCB7F"/>
<stop offset="0.648438" stop-color="#FCCB7E"/>
<stop offset="0.652344" stop-color="#FCCB7D"/>
<stop offset="0.65625" stop-color="#FCCA7C"/>
<stop offset="0.660156" stop-color="#FCCA7B"/>
<stop offset="0.664062" stop-color="#FCC97A"/>
<stop offset="0.667969" stop-color="#FCC979"/>
<stop offset="0.671875" stop-color="#FCC878"/>
<stop offset="0.675781" stop-color="#FCC877"/>
<stop offset="0.679688" stop-color="#FCC876"/>
<stop offset="0.683594" stop-color="#FCC774"/>
<stop offset="0.6875" stop-color="#FCC773"/>
<stop offset="0.691406" stop-color="#FCC672"/>
<stop offset="0.695312" stop-color="#FCC671"/>
<stop offset="0.699219" stop-color="#FCC570"/>
<stop offset="0.703125" stop-color="#FCC56F"/>
<stop offset="0.707031" stop-color="#FCC56E"/>
<stop offset="0.710938" stop-color="#FCC46D"/>
<stop offset="0.714844" stop-color="#FCC46C"/>
<stop offset="0.71875" stop-color="#FCC36B"/>
<stop offset="0.722656" stop-color="#FCC36A"/>
<stop offset="0.726562" stop-color="#FCC269"/>
<stop offset="0.730469" stop-color="#FCC268"/>
<stop offset="0.734375" stop-color="#FCC267"/>
<stop offset="0.738281" stop-color="#FCC166"/>
<stop offset="0.742188" stop-color="#FCC165"/>
<stop offset="0.746094" stop-color="#FCC064"/>
<stop offset="0.75" stop-color="#FCC062"/>
<stop offset="0.753906" stop-color="#FCBF61"/>
<stop offset="0.757812" stop-color="#FCBF60"/>
<stop offset="0.761719" stop-color="#FCBF5F"/>
<stop offset="0.765625" stop-color="#FCBE5E"/>
<stop offset="0.769531" stop-color="#FCBE5D"/>
<stop offset="0.773438" stop-color="#FCBD5C"/>
<stop offset="0.777344" stop-color="#FCBD5B"/>
<stop offset="0.78125" stop-color="#FCBD5A"/>
<stop offset="0.785156" stop-color="#FCBC59"/>
<stop offset="0.789062" stop-color="#FCBC58"/>
<stop offset="0.792969" stop-color="#FCBB57"/>
<stop offset="0.796875" stop-color="#FCBB56"/>
<stop offset="0.800781" stop-color="#FCBA55"/>
<stop offset="0.804688" stop-color="#FCBA54"/>
<stop offset="0.808594" stop-color="#FBBA53"/>
<stop offset="0.8125" stop-color="#FBB952"/>
<stop offset="0.816406" stop-color="#FBB951"/>
<stop offset="0.820312" stop-color="#FBB84F"/>
<stop offset="0.824219" stop-color="#FBB84E"/>
<stop offset="0.828125" stop-color="#FBB74D"/>
<stop offset="0.832031" stop-color="#FBB74C"/>
<stop offset="0.835938" stop-color="#FBB74B"/>
<stop offset="0.839844" stop-color="#FBB64A"/>
<stop offset="0.84375" stop-color="#FBB649"/>
<stop offset="0.847656" stop-color="#FBB548"/>
<stop offset="0.851562" stop-color="#FBB547"/>
<stop offset="0.855469" stop-color="#FBB446"/>
<stop offset="0.859375" stop-color="#FBB445"/>
<stop offset="0.863281" stop-color="#FBB444"/>
<stop offset="0.867188" stop-color="#FBB343"/>
<stop offset="0.871094" stop-color="#FBB342"/>
<stop offset="0.875" stop-color="#FBB241"/>
<stop offset="0.878906" stop-color="#FBB240"/>
<stop offset="0.882812" stop-color="#FBB13F"/>
<stop offset="0.886719" stop-color="#FBB13E"/>
<stop offset="0.890625" stop-color="#FBB13C"/>
<stop offset="0.894531" stop-color="#FBB03B"/>
<stop offset="1" stop-color="#FBB03B"/>
</radialGradient>
<radialGradient id="paint6_radial_2_7" cx="0" cy="0" r="1" gradientTransform="matrix(37.4245 8.16308 -8.77689 31.5093 133.025 97.3575)" gradientUnits="userSpaceOnUse">
<stop stop-color="white"/>
<stop offset="0.5" stop-color="white"/>
<stop offset="0.625" stop-color="white"/>
<stop offset="0.648438" stop-color="white"/>
<stop offset="0.65625" stop-color="white"/>
<stop offset="0.664062" stop-color="#FEFEFE"/>
<stop offset="0.671875" stop-color="#FEFEFE"/>
<stop offset="0.679688" stop-color="#FDFDFD"/>
<stop offset="0.699219" stop-color="#FDFDFD"/>
<stop offset="0.703125" stop-color="#FCFCFC"/>
<stop offset="0.71875" stop-color="#FBFBFB"/>
<stop offset="0.734375" stop-color="#FBFBFB"/>
<stop offset="0.742188" stop-color="#FAFAFA"/>
<stop offset="0.757812" stop-color="#F9F9F9"/>
<stop offset="0.769531" stop-color="#F9F9F9"/>
<stop offset="0.773438" stop-color="#F8F8F8"/>
<stop offset="0.785156" stop-color="#F8F8F8"/>
<stop offset="0.796875" stop-color="#F7F7F7"/>
<stop offset="0.808594" stop-color="#F7F7F7"/>
<stop offset="0.8125" stop-color="#F6F6F6"/>
<stop offset="0.824219" stop-color="#F6F6F6"/>
<stop offset="0.832031" stop-color="#F6F6F6"/>
<stop offset="0.835938" stop-color="#F5F5F5"/>
<stop offset="0.84375" stop-color="#F5F5F5"/>
<stop offset="0.851562" stop-color="#F4F4F4"/>
<stop offset="0.867188" stop-color="#F4F4F4"/>
<stop offset="0.875" stop-color="#F3F3F3"/>
<stop offset="0.890625" stop-color="#F2F2F2"/>
<stop offset="0.902344" stop-color="#F2F2F2"/>
<stop offset="0.90625" stop-color="#F1F1F1"/>
<stop offset="0.917969" stop-color="#F1F1F1"/>
<stop offset="0.925781" stop-color="#F1F1F1"/>
<stop offset="0.929688" stop-color="#F0F0F0"/>
<stop offset="0.945312" stop-color="#EFEFEF"/>
<stop offset="0.957031" stop-color="#EFEFEF"/>
<stop offset="0.964844" stop-color="#EFEFEF"/>
<stop offset="0.96875" stop-color="#EEEEEE"/>
<stop offset="0.984375" stop-color="#EDEDED"/>
<stop offset="1" stop-color="#EDEDED"/>
</radialGradient>
<radialGradient id="paint7_radial_2_7" cx="0" cy="0" r="1" gradientTransform="matrix(29.2395 5.89208 -6.28608 24.6309 131.265 101.688)" gradientUnits="userSpaceOnUse">
<stop stop-color="white"/>
<stop offset="0.125" stop-color="white"/>
<stop offset="0.179688" stop-color="#FFFFFE"/>
<stop offset="0.183594" stop-color="#FFFFFE"/>
<stop offset="0.1875" stop-color="#FFFFFD"/>
<stop offset="0.191406" stop-color="#FFFEFD"/>
<stop offset="0.195312" stop-color="#FFFEFC"/>
<stop offset="0.199219" stop-color="#FFFEFC"/>
<stop offset="0.203125" stop-color="#FFFDFB"/>
<stop offset="0.207031" stop-color="#FFFDFB"/>
<stop offset="0.210938" stop-color="#FFFDFA"/>
<stop offset="0.214844" stop-color="#FFFDF9"/>
<stop offset="0.21875" stop-color="#FFFDF9"/>
<stop offset="0.222656" stop-color="#FFFDF8"/>
<stop offset="0.226562" stop-color="#FFFCF7"/>
<stop offset="0.230469" stop-color="#FFFCF7"/>
<stop offset="0.234375" stop-color="#FFFCF7"/>
<stop offset="0.238281" stop-color="#FFFBF6"/>
<stop offset="0.242188" stop-color="#FFFBF6"/>
<stop offset="0.246094" stop-color="#FFFBF5"/>
<stop offset="0.25" stop-color="#FFFBF4"/>
<stop offset="0.253906" stop-color="#FFFBF4"/>
<stop offset="0.261719" stop-color="#FFFAF3"/>
<stop offset="0.265625" stop-color="#FFFAF3"/>
<stop offset="0.269531" stop-color="#FFFAF2"/>
<stop offset="0.273438" stop-color="#FFFAF1"/>
<stop offset="0.28125" stop-color="#FFF9F0"/>
<stop offset="0.289062" stop-color="#FFF9F0"/>
<stop offset="0.292969" stop-color="#FFF8EF"/>
<stop offset="0.296875" stop-color="#FFF8EE"/>
<stop offset="0.304688" stop-color="#FFF8ED"/>
<stop offset="0.3125" stop-color="#FFF8EC"/>
<stop offset="0.316406" stop-color="#FFF7EC"/>
<stop offset="0.320312" stop-color="#FFF7EB"/>
<stop offset="0.324219" stop-color="#FFF7EA"/>
<stop offset="0.328125" stop-color="#FFF6EA"/>
<stop offset="0.332031" stop-color="#FFF6E9"/>
<stop offset="0.339844" stop-color="#FFF6E8"/>
<stop offset="0.347656" stop-color="#FFF6E7"/>
<stop offset="0.351562" stop-color="#FFF5E7"/>
<stop offset="0.355469" stop-color="#FFF5E6"/>
<stop offset="0.363281" stop-color="#FFF5E5"/>
<stop offset="0.371094" stop-color="#FFF5E4"/>
<stop offset="0.375" stop-color="#FFF4E4"/>
<stop offset="0.378906" stop-color="#FFF4E3"/>
<stop offset="0.386719" stop-color="#FFF3E2"/>
<stop offset="0.394531" stop-color="#FFF3E1"/>
<stop offset="0.398438" stop-color="#FFF3E1"/>
<stop offset="0.402344" stop-color="#FFF3E0"/>
<stop offset="0.410156" stop-color="#FFF2DF"/>
<stop offset="0.417969" stop-color="#FFF2DE"/>
<stop offset="0.421875" stop-color="#FFF1DD"/>
<stop offset="0.425781" stop-color="#FFF1DD"/>
<stop offset="0.429688" stop-color="#FFF1DC"/>
<stop offset="0.433594" stop-color="#FFF1DB"/>
<stop offset="0.4375" stop-color="#FFF1DB"/>
<stop offset="0.445312" stop-color="#FEF0DA"/>
<stop offset="0.453125" stop-color="#FEF0D9"/>
<stop offset="0.457031" stop-color="#FEF0D8"/>
<stop offset="0.460938" stop-color="#FEF0D8"/>
<stop offset="0.46875" stop-color="#FEEFD7"/>
<stop offset="0.472656" stop-color="#FEEFD7"/>
<stop offset="0.476562" stop-color="#FEEED6"/>
<stop offset="0.480469" stop-color="#FEEED5"/>
<stop offset="0.488281" stop-color="#FEEED4"/>
<stop offset="0.496094" stop-color="#FEEED4"/>
<stop offset="0.5" stop-color="#FEEDD3"/>
<stop offset="0.503906" stop-color="#FEEDD2"/>
<stop offset="0.507812" stop-color="#FEEDD2"/>
<stop offset="0.511719" stop-color="#FEECD1"/>
<stop offset="0.515625" stop-color="#FEECD1"/>
<stop offset="0.519531" stop-color="#FEECD0"/>
<stop offset="0.523438" stop-color="#FEECD0"/>
<stop offset="0.527344" stop-color="#FEECCF"/>
<stop offset="0.53125" stop-color="#FEECCE"/>
<stop offset="0.535156" stop-color="#FEEBCE"/>
<stop offset="0.539062" stop-color="#FEEBCD"/>
<stop offset="0.542969" stop-color="#FEEBCD"/>
<stop offset="0.546875" stop-color="#FEEBCC"/>
<stop offset="0.550781" stop-color="#FEEBCC"/>
<stop offset="0.554688" stop-color="#FEEBCB"/>
<stop offset="0.558594" stop-color="#FEEACB"/>
<stop offset="0.5625" stop-color="#FEEACA"/>
<stop offset="0.566406" stop-color="#FEEACA"/>
<stop offset="0.570312" stop-color="#FEE9C9"/>
<stop offset="0.574219" stop-color="#FEE9C9"/>
<stop offset="0.578125" stop-color="#FEE9C8"/>
<stop offset="0.582031" stop-color="#FEE9C8"/>
<stop offset="0.585938" stop-color="#FEE9C7"/>
<stop offset="0.589844" stop-color="#FEE9C7"/>
<stop offset="0.59375" stop-color="#FEE8C6"/>
<stop offset="0.597656" stop-color="#FEE8C6"/>
<stop offset="0.601562" stop-color="#FEE8C5"/>
<stop offset="0.605469" stop-color="#FEE7C5"/>
<stop offset="0.609375" stop-color="#FEE7C4"/>
<stop offset="0.613281" stop-color="#FEE7C4"/>
<stop offset="0.617188" stop-color="#FEE7C3"/>
<stop offset="0.621094" stop-color="#FEE7C3"/>
<stop offset="0.625" stop-color="#FEE7C2"/>
<stop offset="0.628906" stop-color="#FEE6C1"/>
<stop offset="0.632812" stop-color="#FEE6C1"/>
<stop offset="0.636719" stop-color="#FEE6C0"/>
<stop offset="0.640625" stop-color="#FEE6BF"/>
<stop offset="0.644531" stop-color="#FEE6BF"/>
<stop offset="0.652344" stop-color="#FEE5BE"/>
<stop offset="0.65625" stop-color="#FEE5BE"/>
<stop offset="0.660156" stop-color="#FEE5BD"/>
<stop offset="0.664062" stop-color="#FEE4BC"/>
<stop offset="0.667969" stop-color="#FEE4BC"/>
<stop offset="0.675781" stop-color="#FEE4BB"/>
<stop offset="0.679688" stop-color="#FEE4BB"/>
<stop offset="0.683594" stop-color="#FEE3BA"/>
<stop offset="0.6875" stop-color="#FEE3B9"/>
<stop offset="0.695312" stop-color="#FEE2B8"/>
<stop offset="0.703125" stop-color="#FEE2B8"/>
<stop offset="0.707031" stop-color="#FEE2B7"/>
<stop offset="0.710938" stop-color="#FEE2B6"/>
<stop offset="0.71875" stop-color="#FEE1B5"/>
<stop offset="0.726562" stop-color="#FEE1B4"/>
<stop offset="0.730469" stop-color="#FEE1B4"/>
<stop offset="0.734375" stop-color="#FEE1B3"/>
<stop offset="0.738281" stop-color="#FEE1B2"/>
<stop offset="0.742188" stop-color="#FEE0B2"/>
<stop offset="0.746094" stop-color="#FEE0B1"/>
<stop offset="0.753906" stop-color="#FEDFB0"/>
<stop offset="0.757812" stop-color="#FEDFB0"/>
<stop offset="0.761719" stop-color="#FEDFAF"/>
<stop offset="0.765625" stop-color="#FEDFAF"/>
<stop offset="0.769531" stop-color="#FEDFAE"/>
<stop offset="0.773438" stop-color="#FEDFAE"/>
<stop offset="0.777344" stop-color="#FEDEAD"/>
<stop offset="0.78125" stop-color="#FEDEAD"/>
<stop offset="0.785156" stop-color="#FEDEAC"/>
<stop offset="0.789062" stop-color="#FEDDAC"/>
<stop offset="0.792969" stop-color="#FEDDAB"/>
<stop offset="0.796875" stop-color="#FEDDAB"/>
<stop offset="0.800781" stop-color="#FEDDAA"/>
<stop offset="0.804688" stop-color="#FEDDAA"/>
<stop offset="0.808594" stop-color="#FEDDA9"/>
<stop offset="0.8125" stop-color="#FDDCA9"/>
<stop offset="0.816406" stop-color="#FDDCA8"/>
<stop offset="0.824219" stop-color="#FDDCA7"/>
<stop offset="0.832031" stop-color="#FDDCA6"/>
<stop offset="0.835938" stop-color="#FDDBA5"/>
<stop offset="0.839844" stop-color="#FDDBA5"/>
<stop offset="0.84375" stop-color="#FDDBA4"/>
<stop offset="0.847656" stop-color="#FDDAA3"/>
<stop offset="0.851562" stop-color="#FDDAA3"/>
<stop offset="0.859375" stop-color="#FDDAA2"/>
<stop offset="0.863281" stop-color="#FDDAA2"/>
<stop offset="0.867188" stop-color="#FDDAA1"/>
<stop offset="0.871094" stop-color="#FDD9A0"/>
<stop offset="0.875" stop-color="#FDD9A0"/>
<stop offset="0.882812" stop-color="#FDD89F"/>
<stop offset="0.886719" stop-color="#FDD89F"/>
<stop offset="0.890625" stop-color="#FDD89E"/>
<stop offset="0.894531" stop-color="#FDD89D"/>
<stop offset="1" stop-color="#FDD89D"/>
</radialGradient>
</defs>
</svg>
