<svg width="458" height="379" viewBox="0 0 458 379" fill="none" xmlns="http://www.w3.org/2000/svg">
<path d="M317.711 66.5969C306.203 -2.63358 384.203 -11.2312 422.992 12.2883C412.351 9.98752 405.844 9.21799 405.844 9.21799C427.953 16.7063 457.332 35.8078 457.113 63.636C453.422 53.1164 449.754 47.0656 449.754 47.0656C456.453 70.6555 479.504 158.488 346.691 137.386C334.984 100.448 317.711 66.5969 317.711 66.5969Z" fill="#331B1B"/>
<path d="M404.742 91.5188C425.961 87.1985 429.074 63.0266 421.914 43.9485C412.121 19.218 380.871 13.7258 361.762 27.7453C338.14 45.8781 340.504 76.1164 334.051 102.796C325.433 81.7375 317.711 66.5969 317.711 66.5969C306.203 -2.63358 384.203 -11.2312 422.992 12.2883C412.351 9.98752 405.844 9.21799 405.844 9.21799C427.953 16.7063 457.332 35.8078 457.113 63.636C453.422 53.1164 449.754 47.0656 449.754 47.0656C456.453 70.6555 463.941 150.538 342.402 124.648C341.043 120.335 343.883 128.816 342.402 124.648C359.953 108.745 380.351 96.1867 404.742 91.5188Z" fill="#2B2020"/>
<path d="M416.664 8.89768C396.664 3.87815 375.684 3.3469 354.832 10.636C328.211 19.5266 320.684 48.1672 321.594 72.8977C321.211 72.6985 320.851 72.4875 320.504 72.2766C318.754 68.6477 317.711 66.5969 317.711 66.5969C306.801 0.956268 376.363 -10.1726 416.664 8.89768Z" fill="#3D3232"/>
<path d="M450.172 46.8156C450.203 46.8781 453.234 51.9055 456.523 60.5969C454.594 33.4484 424.043 15.8977 405.683 9.67501L401.234 8.17501L405.902 8.72579C405.961 8.72579 411.301 9.37814 420.062 11.1672C405.332 3.12814 386.141 -0.461707 368.051 1.53829C349.973 3.52657 335.223 10.9953 326.523 22.5656C318.043 33.8586 315.234 48.6164 318.183 66.4484C319.062 68.1867 335.734 101.296 347.051 136.948C367.254 140.136 384.914 140.937 399.531 139.316H399.543C421.711 136.866 437.461 128.866 446.363 115.519C462.012 92.0461 452.434 58.2961 449.273 47.2063L448.293 43.7063L450.172 46.8156ZM346.613 137.878L346.312 137.816L346.211 137.527C334.652 101.058 317.453 67.1555 317.273 66.8274L317.234 66.675C314.211 48.5383 317.074 33.4875 325.734 21.9758C334.601 10.1867 349.582 2.57736 367.941 0.546105C387.351 -1.59452 408.031 2.63595 423.242 11.8664L425.754 13.3859L422.891 12.7688C417.664 11.6359 413.422 10.8781 410.461 10.3977C429.891 18.1281 457.824 36.3664 457.601 63.6477L457.582 66.4484L456.652 63.7961C454.734 58.3469 452.812 54.0774 451.422 51.257C455.172 65.2766 461.383 94.7688 447.184 116.066C438.121 129.667 422.121 137.816 399.664 140.308L399.641 140.296C384.871 141.925 367.031 141.109 346.613 137.878Z" fill="#1D1D1B"/>
<path d="M343.914 88.0383C350.101 35.2258 373.574 16.2453 401.504 27.0657C429.422 37.886 465.672 128.726 360.992 107.507C347.691 95.0657 343.914 88.0383 343.914 88.0383Z" fill="#382B2B"/>
<path d="M389.172 42.5969C399.801 40.3781 411.363 41.3586 420.863 45.8469C438.691 74.8274 440.723 123.667 360.992 107.507C356.601 103.405 353.273 99.9055 350.754 97.0383C350.074 72.8156 363.984 48.7375 389.172 42.5969Z" fill="#493E3E"/>
<path d="M344.414 87.9367C345.012 88.9563 349.211 95.8078 361.223 107.058C375.621 109.956 388.051 110.866 398.183 109.745H398.191C422.262 107.085 428.891 93.7258 430.211 82.9875C432.883 61.2258 416.203 33.2961 401.332 27.5383C395.113 25.1281 389.121 24.218 383.531 24.8274C362.851 27.1086 348.961 49.5188 344.414 87.9367ZM360.891 107.988L360.754 107.968L360.652 107.866C347.453 95.5188 343.633 88.5578 343.473 88.2688L343.402 88.136L343.422 87.9758C348.004 48.968 362.203 26.1867 383.422 23.8469C389.164 23.2063 395.312 24.136 401.672 26.6086C416.863 32.4953 433.902 60.9563 431.183 83.1164C429.824 94.2063 423.012 107.995 398.301 110.726H398.293C388.023 111.859 375.441 110.937 360.891 107.988Z" fill="#1D1D1B"/>
<path d="M138.137 61.2375C133.449 -8.75467 55.4452 -0.14139 23.0468 31.2375C32.8866 26.6672 39.0585 24.507 39.0585 24.507C19.2343 36.6164 -5.01575 61.636 1.58582 88.718C2.77331 77.6555 4.95691 70.968 4.95691 70.968C3.84753 95.4172 1.56238 186.038 126.164 136.538C129.082 97.9875 138.137 61.2375 138.137 61.2375Z" fill="#331B1B"/>
<path d="M59.0468 104.488C37.371 104.886 28.785 82.007 31.371 61.8664C35.2303 35.6164 64.4335 23.4563 86.2811 32.968C113.473 45.4875 118.113 75.4875 130.531 100.077C134.086 77.6672 138.137 61.2375 138.137 61.2375C133.449 -8.75467 55.4452 -0.14139 23.0468 31.2375C32.8866 26.6672 39.0585 24.507 39.0585 24.507C19.2343 36.6164 -5.01575 61.636 1.58582 88.718C2.77331 77.6555 4.95691 70.968 4.95691 70.968C3.84753 95.4172 14.8983 174.898 127.41 123.187C126.93 127.577 127.75 118.687 127.41 123.187C106.648 111.507 83.8749 103.726 59.0468 104.488Z" fill="#2B2020"/>
<path d="M28.4413 26.5578C46.7772 17.3078 67.1053 12.218 89.0975 14.7766C117.09 17.6555 131.004 43.9172 135.808 68.2063C136.129 67.9485 136.426 67.6672 136.719 67.3782C137.59 63.4563 138.137 61.2375 138.137 61.2375C133.691 -5.12185 63.3397 -0.824976 28.4413 26.5578Z" fill="#3D3232"/>
<path d="M5.61316 67.3782L5.44519 70.9875C4.92566 82.4875 3.34363 117.476 23.9882 136.937C35.7186 148.007 52.9218 152.386 75.0897 149.937H75.0975C89.7186 148.327 106.738 143.698 125.691 136.198C128.543 98.9758 137.183 63.0774 137.641 61.1867C136.426 43.1672 130.301 29.386 119.441 20.2453C108.297 10.8586 92.2108 6.78831 74.1288 8.78831C56.035 10.7766 38.16 18.4563 25.6405 29.5071C33.7694 25.8469 38.8358 24.0578 38.8866 24.0383L43.3046 22.4875L39.3124 24.925C22.8593 34.9875 -2.88294 58.7375 1.47253 85.6164C2.67956 76.4367 4.47253 70.8664 4.49206 70.8078L5.61316 67.3782ZM75.2147 150.917H75.203C52.7264 153.398 35.2733 148.925 23.3202 137.655C4.57409 119.988 3.85925 89.8977 4.28894 75.4055C3.578 78.4563 2.69519 83.0383 2.08191 88.7688L1.78113 91.5578L1.12097 88.8274C-5.36341 62.2883 17.66 38.425 34.8319 26.6555C32.0585 27.7688 28.0975 29.4367 23.2577 31.675L20.6171 32.9172L22.7069 30.8781C35.4139 18.5656 54.6014 9.93674 74.0155 7.80784C92.3593 5.77659 108.715 9.92502 120.07 19.4875C131.152 28.8274 137.391 42.8664 138.633 61.2063L138.609 61.3586C138.527 61.7258 129.527 98.507 126.648 136.577L126.621 136.886L126.344 136.995C107.199 144.609 89.9843 149.288 75.2147 150.917Z" fill="#1D1D1B"/>
<path d="M117.531 87.8352C99.3553 37.7063 72.1132 24.3352 47.3866 40.9563C22.66 57.5969 8.19519 154.019 105.355 110.538C115.461 95.5188 117.531 87.8352 117.531 87.8352Z" fill="#382B2B"/>
<path d="M62.9842 53.4055C52.1014 53.5656 41.0624 57.0383 32.8358 63.4758C22.1131 95.6086 31.3631 143.655 105.355 110.538C108.691 105.585 111.129 101.448 112.93 98.1086C108.023 74.3469 88.9413 53.9055 62.9842 53.4055Z" fill="#493E3E"/>
<path d="M64.3827 34.8664C58.7928 35.4758 53.1718 37.6672 47.66 41.3781C34.496 50.2375 24.6522 81.0852 32.2655 101.718C36.0116 111.898 45.5428 123.476 69.6132 120.816H69.6249C79.7538 119.706 91.66 116.109 105.031 110.136C114.148 96.5578 116.664 88.9758 117.008 87.8586C103.762 51.3977 85.078 32.5774 64.3827 34.8664ZM69.7343 121.808L69.7264 121.796C45.0272 124.527 35.2186 112.566 31.3436 102.058C23.5858 81.0461 33.66 49.5969 47.1132 40.5578C52.7538 36.757 58.5272 34.5188 64.2694 33.8781C85.4882 31.5383 104.562 50.6477 117.984 87.675L118.047 87.8156L118.008 87.968C117.918 88.2883 115.797 95.8977 105.766 110.808L105.687 110.925L105.562 110.976C92.0546 117.027 79.9999 120.667 69.7343 121.808Z" fill="#1D1D1B"/>
<path d="M237.672 24.175C162.047 24.1672 115.383 48.386 70.6913 123.538C9.67174 162.597 -35.5587 370.038 230.851 377.577C482.652 384.718 460.961 202.327 414.523 146.366C382.922 82.7766 302.863 32.4563 266.14 32.4563C280.473 30.4367 301.824 30.7063 298.043 27.5071C294.262 24.3078 245.172 24.175 237.672 24.175Z" fill="#D9DADB"/>
<path d="M237.582 24.3664C161.961 24.3586 115.297 48.5774 70.5936 123.718C9.58191 162.777 -31.9728 359.308 234.492 364.027C465.914 368.116 452.262 197.566 405.824 141.609C374.211 78.0188 302.773 32.6477 266.043 32.6477C280.371 30.6281 301.723 30.886 297.953 27.6867C294.172 24.4875 245.074 24.3664 237.582 24.3664Z" fill="white"/>
<path d="M162.086 36.8352C126.68 50.7258 98.6249 77.5461 71.1249 123.788L71.0546 123.898L70.9608 123.956C55.3124 133.976 40.9296 155.027 32.4999 180.257C23.0429 208.519 21.9296 238.816 29.3436 265.566C40.3905 305.398 81.2616 372.835 230.863 377.077C280.152 378.476 321.883 372.616 354.883 359.667C399.281 342.245 428.281 311.577 438.742 270.968C450.953 223.558 435.601 172.558 414.141 146.687L414.074 146.585C399.723 117.726 374.113 89.0969 341.961 65.9758C313.633 45.6086 284.582 32.9563 266.141 32.9563L266.062 31.9563C271.031 31.2688 276.933 30.8274 282.133 30.4485C288.762 29.9563 295.043 29.4953 297.293 28.6086C297.891 28.3781 297.973 28.2063 297.984 28.1985C297.973 28.1985 297.953 28.0852 297.711 27.886C295.113 25.675 265.683 24.6867 237.683 24.675C207.262 24.675 183.242 28.5461 162.086 36.8352ZM355.254 360.609C322.121 373.609 280.262 379.488 230.832 378.085C170.207 376.366 121.633 364.167 86.4647 341.827C56.66 322.905 37.1093 297.327 28.3788 265.835C20.9061 238.886 22.035 208.386 31.5429 179.937C40.0272 154.546 54.5272 133.335 70.3202 123.175C97.9218 76.7883 126.121 49.8664 161.719 35.9055C182.992 27.5578 207.133 23.6672 237.672 23.675C250.961 23.675 294.601 23.925 298.363 27.1164C298.832 27.5188 299.031 27.9367 298.961 28.3586C298.891 28.8469 298.461 29.2375 297.664 29.5461C295.273 30.4875 289.211 30.925 282.203 31.4485C278.871 31.6985 275.254 31.9563 271.781 32.2961C290.383 34.468 316.793 46.6477 342.543 65.1672C374.812 88.3586 400.523 117.097 414.953 146.085C436.562 172.175 452.004 223.507 439.711 271.218C432.363 299.769 411.742 338.448 355.254 360.609Z" fill="#706F6F"/>
<path d="M277.633 54.1477L277.551 54.1672C275.223 54.9485 270.004 50.886 267.473 48.5969C268.172 53.3664 267.953 55.9367 266.832 56.3274C265.933 56.6164 264.613 55.9172 261.183 48.886L262.101 48.4485C265.391 55.2063 266.422 55.3664 266.531 55.3664C266.922 55.1086 267.121 52.4367 266.254 47.2961L265.973 45.675L267.101 46.8586C269.582 49.4485 275.422 53.8156 277.234 53.218C277.383 53.175 277.414 53.1086 277.433 53.007C277.633 51.6281 273.601 46.8274 269.074 43.6164L266.711 41.9563L269.492 42.7258C269.683 42.7766 270.043 42.9055 270.531 43.0852C273.043 43.9758 280.641 46.6985 282.543 44.6985C282.621 44.6281 282.812 44.425 282.582 43.8352C281.164 40.3078 269.711 33.136 266.113 32.9563L266.164 31.9563C270.051 32.1477 281.973 39.6164 283.512 43.468C283.902 44.4485 283.601 45.0578 283.273 45.3977C281.441 47.3078 276.582 46.175 272.051 44.6672C275.383 47.507 278.703 51.2766 278.422 53.1555C278.351 53.6164 278.074 53.9758 277.633 54.1477Z" fill="#706F6F"/>
<path d="M235.094 109.058C263.844 90.6985 291.754 69.9367 313.941 108.417C340.492 154.468 388.191 167.128 361.234 211.378C338.523 248.636 260.594 226.218 242.14 212.167C195.14 235.058 133.519 252.335 123.523 214.835C115.765 185.718 135.465 162.347 140.668 150.148C156.457 113.109 150.082 70.9563 214.414 110.675C232.863 112.558 235.094 109.058 235.094 109.058Z" fill="#2B2020"/>
<path d="M242.312 211.937C250.391 218.097 271.293 226.495 294.101 229.956C313.074 232.816 346.992 234.198 360.992 211.226C369.172 197.796 370.973 186.448 366.664 175.519C362.703 165.468 354.082 156.577 344.113 146.269C334.062 135.878 322.672 124.109 313.703 108.558C306.312 95.7571 297.914 88.7961 288.004 87.3078C272.961 85.0266 256.742 95.468 239.574 106.519C238.141 107.437 236.711 108.359 235.281 109.269C234.891 109.745 231.711 112.718 214.391 110.956L214.324 110.948L214.273 110.917C199.433 101.757 187.883 96.6477 178.961 95.2883C159.183 92.2961 154.453 108.128 148.469 128.155C146.312 135.386 144.082 142.859 140.926 150.257C139.824 152.827 138.101 155.878 136.105 159.398C128.777 172.327 117.699 191.866 123.797 214.769C126.957 226.628 135.582 233.706 149.422 235.796C179.414 240.327 224.172 220.609 242.023 211.917L242.183 211.835L242.312 211.937ZM123.258 214.905C117.098 191.788 128.242 172.136 135.613 159.128C137.601 155.616 139.324 152.577 140.406 150.038C143.555 142.667 145.781 135.206 147.937 127.995C154 107.706 158.789 91.675 179.043 94.7453C188.031 96.0969 199.633 101.226 214.512 110.398C232.312 112.218 234.832 108.937 234.851 108.905L234.941 108.827C236.383 107.905 237.832 106.976 239.273 106.046C256.523 94.9367 272.832 84.4367 288.094 86.7453C298.184 88.2766 306.711 95.3156 314.184 108.277C323.113 123.769 334.484 135.519 344.512 145.886C354.531 156.226 363.172 165.167 367.172 175.308C371.562 186.425 369.754 197.925 361.473 211.519C347.301 234.769 313.133 233.398 294.023 230.507C271.242 227.058 250.344 218.675 242.101 212.488C224.113 221.238 179.402 240.898 149.34 236.347C135.258 234.218 126.484 227.007 123.258 214.905Z" fill="#706F6F"/>
<path d="M265.351 168.218C274.301 191.859 296.164 204.198 314.152 195.777C332.172 187.366 339.504 161.386 330.551 137.738C321.601 114.109 299.734 101.757 281.734 110.175C263.734 118.577 256.402 144.585 265.351 168.218Z" fill="#1E1616"/>
<path d="M268.562 168.198C277.004 190.456 297.332 202.187 313.973 194.405C330.613 186.628 337.273 162.277 328.851 140.019C320.422 117.757 300.094 106.038 283.441 113.816C266.801 121.597 260.133 145.948 268.562 168.198Z" fill="#110C0C"/>
<mask id="mask0_2_3" style="mask-type:luminance" maskUnits="userSpaceOnUse" x="266" y="114" width="65" height="83">
<path d="M266.812 114.347H330.812V196.347H266.812V114.347Z" fill="white"/>
</mask>
<g mask="url(#mask0_2_3)">
<mask id="mask1_2_3" style="mask-type:luminance" maskUnits="userSpaceOnUse" x="267" y="114" width="64" height="82">
<path d="M303.293 195.847C290.094 195.847 276.652 184.675 270.691 167.296C264.023 147.835 268.984 126.796 282.234 118.359C283.344 117.667 284.523 117.038 285.723 116.538C288.601 115.308 291.633 114.698 294.703 114.698C299.652 114.698 304.723 116.269 309.562 119.378C317.441 124.425 323.723 132.905 327.273 143.245C333.953 162.698 328.992 183.769 315.734 192.198C314.621 192.886 313.453 193.519 312.254 194.019C309.344 195.257 306.324 195.847 303.293 195.847ZM296.183 125.077C294.152 125.077 292.133 125.425 290.152 126.155C277.742 130.726 271.844 148.558 276.984 165.976C281.293 180.628 292.031 190.327 302.711 190.327C304.742 190.327 306.762 189.976 308.734 189.245C321.133 184.675 327.043 166.847 321.922 149.417C317.601 134.777 306.871 125.077 296.183 125.077Z" fill="white"/>
</mask>
<g mask="url(#mask1_2_3)">
<mask id="mask2_2_3" style="mask-type:luminance" maskUnits="userSpaceOnUse" x="267" y="114" width="64" height="82">
<path d="M303.293 195.847C290.094 195.847 276.652 184.675 270.691 167.296C264.023 147.835 268.984 126.796 282.234 118.359C283.344 117.667 284.523 117.038 285.723 116.538C288.601 115.308 291.633 114.698 294.703 114.698C299.652 114.698 304.723 116.269 309.562 119.378C317.441 124.425 323.723 132.905 327.273 143.245C333.953 162.698 328.992 183.769 315.734 192.198C314.621 192.886 313.453 193.519 312.254 194.019C309.344 195.257 306.324 195.847 303.293 195.847ZM296.183 125.077C294.152 125.077 292.133 125.425 290.152 126.155C277.742 130.726 271.844 148.558 276.984 165.976C281.293 180.628 292.031 190.327 302.711 190.327C304.742 190.327 306.762 189.976 308.734 189.245C321.133 184.675 327.043 166.847 321.922 149.417C317.601 134.777 306.871 125.077 296.183 125.077Z" fill="white"/>
</mask>
<g mask="url(#mask2_2_3)">
<path d="M239.75 125.019L272.918 221.804L358.223 185.527L325.058 88.7414L239.75 125.019Z" fill="url(#paint0_radial_2_3)"/>
</g>
</g>
</g>
<path d="M282.234 118.359C268.984 126.796 264.023 147.835 270.691 167.296C278.023 188.667 296.652 200.655 312.254 194.019C313.453 193.519 314.621 192.886 315.734 192.198C328.992 183.769 333.953 162.698 327.273 143.245C323.723 132.905 317.441 124.425 309.562 119.378C301.711 114.335 293.242 113.335 285.723 116.538C284.523 117.038 283.344 117.667 282.234 118.359ZM316.402 193.468C315.234 194.206 313.984 194.878 312.742 195.405C296.433 202.335 277.004 189.968 269.433 167.835C262.523 147.718 267.754 125.898 281.574 117.085C282.734 116.335 283.984 115.687 285.234 115.155C293.141 111.796 302.004 112.816 310.203 118.058C318.383 123.257 324.891 132.027 328.551 142.706C335.453 162.835 330.223 184.667 316.402 193.468Z" fill="#4F2102"/>
<mask id="mask3_2_3" style="mask-type:luminance" maskUnits="userSpaceOnUse" x="274" y="124" width="50" height="67">
<path d="M274.812 124.347H323.812V190.347H274.812V124.347Z" fill="white"/>
</mask>
<g mask="url(#mask3_2_3)">
<mask id="mask4_2_3" style="mask-type:luminance" maskUnits="userSpaceOnUse" x="275" y="125" width="49" height="66">
<path d="M302.711 190.327C292.031 190.327 281.293 180.628 276.984 165.976C271.844 148.558 277.742 130.726 290.152 126.155C292.133 125.425 294.152 125.077 296.183 125.077C306.871 125.077 317.601 134.777 321.922 149.417C327.043 166.847 321.133 184.675 308.734 189.245C306.762 189.976 304.742 190.327 302.711 190.327ZM281.621 155.226C281.293 158.769 281.652 162.538 282.793 166.245C285.793 176.038 293.293 182.398 300.914 182.398C302.531 182.398 304.152 182.116 305.742 181.507C314.773 178.058 319.133 165.597 315.484 153.726C312.484 143.925 304.973 137.558 297.383 137.558C295.762 137.558 294.133 137.847 292.543 138.456C290.973 139.066 289.551 139.937 288.281 141.027C287.031 139.968 285.461 139.366 283.812 139.366C283.101 139.366 282.383 139.476 281.664 139.706C277.734 140.988 275.441 145.495 276.543 149.757C277.254 152.527 279.234 154.527 281.621 155.226Z" fill="white"/>
</mask>
<g mask="url(#mask4_2_3)">
<mask id="mask5_2_3" style="mask-type:luminance" maskUnits="userSpaceOnUse" x="275" y="125" width="49" height="66">
<path d="M302.711 190.327C292.031 190.327 281.293 180.628 276.984 165.976C271.844 148.558 277.742 130.726 290.152 126.155C292.133 125.425 294.152 125.077 296.183 125.077C306.871 125.077 317.601 134.777 321.922 149.417C327.043 166.847 321.133 184.675 308.734 189.245C306.762 189.976 304.742 190.327 302.711 190.327ZM281.621 155.226C281.293 158.769 281.652 162.538 282.793 166.245C285.793 176.038 293.293 182.398 300.914 182.398C302.531 182.398 304.152 182.116 305.742 181.507C314.773 178.058 319.133 165.597 315.484 153.726C312.484 143.925 304.973 137.558 297.383 137.558C295.762 137.558 294.133 137.847 292.543 138.456C290.973 139.066 289.551 139.937 288.281 141.027C287.031 139.968 285.461 139.366 283.812 139.366C283.101 139.366 282.383 139.476 281.664 139.706C277.734 140.988 275.441 145.495 276.543 149.757C277.254 152.527 279.234 154.527 281.621 155.226Z" fill="white"/>
</mask>
<g mask="url(#mask5_2_3)">
<path d="M322.234 107.616L343.449 184.644L276.652 207.784L255.437 130.761L322.234 107.616Z" fill="url(#paint1_radial_2_3)"/>
</g>
</g>
</g>
<path d="M282.793 166.245C286.433 178.128 296.703 184.956 305.742 181.507C314.773 178.058 319.133 165.597 315.484 153.726C311.844 141.827 301.562 134.995 292.543 138.456C283.512 141.937 279.14 154.366 282.793 166.245Z" fill="#231F20"/>
<mask id="mask6_2_3" style="mask-type:luminance" maskUnits="userSpaceOnUse" x="275" y="139" width="14" height="17">
<path d="M275.812 139.347H288.812V155.347H275.812V139.347Z" fill="white"/>
</mask>
<g mask="url(#mask6_2_3)">
<mask id="mask7_2_3" style="mask-type:luminance" maskUnits="userSpaceOnUse" x="276" y="139" width="13" height="17">
<path d="M281.621 155.226C279.234 154.527 277.254 152.527 276.543 149.757C275.441 145.495 277.734 140.988 281.664 139.706C282.383 139.476 283.101 139.366 283.812 139.366C285.461 139.366 287.031 139.968 288.281 141.027C284.523 144.257 282.152 149.425 281.621 155.226Z" fill="white"/>
</mask>
<g mask="url(#mask7_2_3)">
<mask id="mask8_2_3" style="mask-type:luminance" maskUnits="userSpaceOnUse" x="276" y="139" width="13" height="17">
<path d="M281.621 155.226C279.234 154.527 277.254 152.527 276.543 149.757C275.441 145.495 277.734 140.988 281.664 139.706C282.383 139.476 283.101 139.366 283.812 139.366C285.461 139.366 287.031 139.968 288.281 141.027C284.523 144.257 282.152 149.425 281.621 155.226Z" fill="white"/>
</mask>
<g mask="url(#mask8_2_3)">
<path d="M287.164 135.304L292.269 153.847L276.562 159.288L271.453 140.749L287.164 135.304Z" fill="url(#paint2_radial_2_3)"/>
</g>
</g>
</g>
<path d="M283.531 155.507C282.883 155.507 282.234 155.405 281.621 155.226C282.152 149.425 284.523 144.257 288.281 141.027C289.461 142.019 290.371 143.417 290.801 145.109C291.902 149.378 289.594 153.866 285.672 155.167C284.961 155.398 284.242 155.507 283.531 155.507Z" fill="#918F90"/>
<path d="M140.543 161.609C138.57 187.327 152.984 209.308 172.726 210.706C192.472 212.116 210.074 192.437 212.023 166.718C214.004 141.019 199.582 119.027 179.844 117.628C160.101 116.206 142.519 135.925 140.543 161.609Z" fill="#1E1616"/>
<path d="M143.441 163.198C141.578 187.417 154.883 208.077 173.148 209.378C191.391 210.687 207.691 192.116 209.551 167.917C211.414 143.726 198.094 123.046 179.863 121.738C161.594 120.448 145.297 139.019 143.441 163.198Z" fill="#110C0C"/>
<mask id="mask9_2_3" style="mask-type:luminance" maskUnits="userSpaceOnUse" x="144" y="124" width="64" height="85">
<path d="M144.812 124.347H207.812V208.347H144.812V124.347Z" fill="white"/>
</mask>
<g mask="url(#mask9_2_3)">
<mask id="mask10_2_3" style="mask-type:luminance" maskUnits="userSpaceOnUse" x="145" y="125" width="63" height="84">
<path d="M174.23 208.308C173.406 208.308 172.578 208.269 171.766 208.167C154.941 206.366 143.258 186.308 145.726 163.456C147.98 142.648 161.355 126.206 176.844 125.226C177.312 125.198 177.793 125.187 178.273 125.187C179.094 125.187 179.914 125.226 180.742 125.327C188.851 126.198 196.051 131.327 200.973 139.757C205.891 148.218 207.961 158.976 206.754 170.038C204.523 190.847 191.141 207.277 175.664 208.269C175.183 208.296 174.707 208.308 174.23 208.308ZM158.277 149.359C154.812 154.269 152.277 160.488 151.219 167.456C148.437 185.667 156.805 202.116 169.902 204.187C170.812 204.335 171.723 204.405 172.633 204.405C184.723 204.405 196.031 191.905 198.613 174.956C201.383 156.769 193.031 140.308 179.922 138.238C179.012 138.085 178.094 138.019 177.183 138.019C172.141 138.019 167.242 140.187 163.051 143.948C160.797 144.816 158.98 146.796 158.277 149.359Z" fill="white"/>
</mask>
<g mask="url(#mask10_2_3)">
<mask id="mask11_2_3" style="mask-type:luminance" maskUnits="userSpaceOnUse" x="145" y="125" width="63" height="84">
<path d="M174.23 208.308C173.406 208.308 172.578 208.269 171.766 208.167C154.941 206.366 143.258 186.308 145.726 163.456C147.98 142.648 161.355 126.206 176.844 125.226C177.312 125.198 177.793 125.187 178.273 125.187C179.094 125.187 179.914 125.226 180.742 125.327C188.851 126.198 196.051 131.327 200.973 139.757C205.891 148.218 207.961 158.976 206.754 170.038C204.523 190.847 191.141 207.277 175.664 208.269C175.183 208.296 174.707 208.308 174.23 208.308ZM158.277 149.359C154.812 154.269 152.277 160.488 151.219 167.456C148.437 185.667 156.805 202.116 169.902 204.187C170.812 204.335 171.723 204.405 172.633 204.405C184.723 204.405 196.031 191.905 198.613 174.956C201.383 156.769 193.031 140.308 179.922 138.238C179.012 138.085 178.094 138.019 177.183 138.019C172.141 138.019 167.242 140.187 163.051 143.948C160.797 144.816 158.98 146.796 158.277 149.359Z" fill="white"/>
</mask>
<g mask="url(#mask11_2_3)">
<path d="M144 118.304L134.375 207.351L207.219 215.191L216.844 126.144L144 118.304Z" fill="url(#paint3_radial_2_3)"/>
</g>
</g>
</g>
<path d="M176.844 125.226C161.355 126.206 147.98 142.648 145.727 163.456C143.258 186.308 154.941 206.366 171.766 208.167C173.051 208.327 174.367 208.347 175.664 208.269C191.141 207.277 204.523 190.847 206.754 170.038C207.961 158.976 205.891 148.218 200.973 139.757C196.051 131.327 188.852 126.198 180.742 125.327C179.434 125.167 178.133 125.155 176.844 125.226ZM175.723 209.745C174.363 209.827 172.953 209.796 171.613 209.655C154.027 207.757 141.801 186.956 144.359 163.308C146.68 141.777 160.625 124.788 176.773 123.757C178.141 123.655 179.531 123.698 180.891 123.835C189.414 124.757 196.953 130.109 202.102 138.886C207.234 147.655 209.383 158.769 208.152 170.187C205.812 191.718 191.883 208.718 175.723 209.745Z" fill="#4F2102"/>
<mask id="mask12_2_3" style="mask-type:luminance" maskUnits="userSpaceOnUse" x="149" y="137" width="51" height="69">
<path d="M149.812 137.347H199.812V205.347H149.812V137.347Z" fill="white"/>
</mask>
<g mask="url(#mask12_2_3)">
<mask id="mask13_2_3" style="mask-type:luminance" maskUnits="userSpaceOnUse" x="150" y="138" width="50" height="67">
<path d="M172.633 204.405C171.723 204.405 170.812 204.335 169.902 204.187C156.805 202.116 148.437 185.667 151.219 167.456C152.277 160.488 154.812 154.269 158.277 149.359C158.176 149.718 158.101 150.077 158.047 150.456C157.582 153.777 159.078 156.905 161.601 158.507C159.516 161.706 158.023 165.609 157.414 169.917C155.66 182.405 161.996 193.667 171.586 195.066C172.242 195.155 172.894 195.206 173.543 195.206C182.383 195.206 190.473 186.585 192.101 174.937C193.863 162.448 187.531 151.187 177.953 149.796C177.301 149.706 176.652 149.655 176.004 149.655C174.961 149.655 173.941 149.777 172.937 150.007C172.383 146.698 169.91 144.027 166.633 143.546C166.289 143.495 165.945 143.468 165.609 143.468C164.719 143.468 163.859 143.636 163.051 143.948C167.242 140.187 172.141 138.019 177.183 138.019C178.094 138.019 179.012 138.085 179.922 138.238C193.031 140.308 201.383 156.769 198.613 174.956C196.031 191.905 184.723 204.405 172.633 204.405Z" fill="white"/>
</mask>
<g mask="url(#mask13_2_3)">
<mask id="mask14_2_3" style="mask-type:luminance" maskUnits="userSpaceOnUse" x="150" y="138" width="50" height="67">
<path d="M172.633 204.405C171.723 204.405 170.812 204.335 169.902 204.187C156.805 202.116 148.437 185.667 151.219 167.456C152.277 160.488 154.812 154.269 158.277 149.359C158.176 149.718 158.101 150.077 158.047 150.456C157.582 153.777 159.078 156.905 161.601 158.507C159.516 161.706 158.023 165.609 157.414 169.917C155.66 182.405 161.996 193.667 171.586 195.066C172.242 195.155 172.894 195.206 173.543 195.206C182.383 195.206 190.473 186.585 192.101 174.937C193.863 162.448 187.531 151.187 177.953 149.796C177.301 149.706 176.652 149.655 176.004 149.655C174.961 149.655 173.941 149.777 172.937 150.007C172.383 146.698 169.91 144.027 166.633 143.546C166.289 143.495 165.945 143.468 165.609 143.468C164.719 143.468 163.859 143.636 163.051 143.948C167.242 140.187 172.141 138.019 177.183 138.019C178.094 138.019 179.012 138.085 179.922 138.238C193.031 140.308 201.383 156.769 198.613 174.956C196.031 191.905 184.723 204.405 172.633 204.405Z" fill="white"/>
</mask>
<g mask="url(#mask14_2_3)">
<path d="M212.332 139.976L199.82 213.601L137.488 202.448L150 128.823L212.332 139.976Z" fill="url(#paint4_radial_2_3)"/>
</g>
</g>
</g>
<path d="M157.414 169.917C155.66 182.405 161.996 193.667 171.586 195.066C181.164 196.456 190.363 187.448 192.101 174.937C193.863 162.448 187.531 151.187 177.953 149.796C168.359 148.417 159.176 157.417 157.414 169.917Z" fill="#231F20"/>
<mask id="mask15_2_3" style="mask-type:luminance" maskUnits="userSpaceOnUse" x="157" y="143" width="7" height="8">
<path d="M157.812 143.347H163.812V150.347H157.812V143.347Z" fill="white"/>
</mask>
<g mask="url(#mask15_2_3)">
<mask id="mask16_2_3" style="mask-type:luminance" maskUnits="userSpaceOnUse" x="158" y="143" width="6" height="7">
<path d="M158.277 149.359C158.98 146.796 160.797 144.816 163.051 143.948C161.324 145.495 159.719 147.316 158.277 149.359Z" fill="white"/>
</mask>
<g mask="url(#mask16_2_3)">
<mask id="mask17_2_3" style="mask-type:luminance" maskUnits="userSpaceOnUse" x="158" y="143" width="6" height="7">
<path d="M158.277 149.359C158.98 146.796 160.797 144.816 163.051 143.948C161.324 145.495 159.719 147.316 158.277 149.359Z" fill="white"/>
</mask>
<g mask="url(#mask17_2_3)">
<path d="M158.332 143.441L157.699 149.296L162.996 149.866L163.629 144.011L158.332 143.441Z" fill="url(#paint5_radial_2_3)"/>
</g>
</g>
</g>
<mask id="mask18_2_3" style="mask-type:luminance" maskUnits="userSpaceOnUse" x="157" y="143" width="17" height="17">
<path d="M157.812 143.347H173.812V159.347H157.812V143.347Z" fill="white"/>
</mask>
<g mask="url(#mask18_2_3)">
<mask id="mask19_2_3" style="mask-type:luminance" maskUnits="userSpaceOnUse" x="157" y="143" width="16" height="16">
<path d="M161.601 158.507C159.078 156.905 157.582 153.777 158.047 150.456C158.101 150.077 158.176 149.718 158.277 149.359C159.719 147.316 161.324 145.495 163.051 143.948C163.859 143.636 164.719 143.468 165.609 143.468C165.945 143.468 166.289 143.495 166.633 143.546C169.91 144.027 172.383 146.698 172.937 150.007C168.527 150.995 164.496 154.077 161.601 158.507Z" fill="white"/>
</mask>
<g mask="url(#mask19_2_3)">
<mask id="mask20_2_3" style="mask-type:luminance" maskUnits="userSpaceOnUse" x="157" y="143" width="16" height="16">
<path d="M161.601 158.507C159.078 156.905 157.582 153.777 158.047 150.456C158.101 150.077 158.176 149.718 158.277 149.359C159.719 147.316 161.324 145.495 163.051 143.948C163.859 143.636 164.719 143.468 165.609 143.468C165.945 143.468 166.289 143.495 166.633 143.546C169.91 144.027 172.383 146.698 172.937 150.007C168.527 150.995 164.496 154.077 161.601 158.507Z" fill="white"/>
</mask>
<g mask="url(#mask20_2_3)">
<path d="M175.418 143.909L172.484 161.175L155.101 158.062L158.035 140.8L175.418 143.909Z" fill="url(#paint6_radial_2_3)"/>
</g>
</g>
</g>
<path d="M165.383 159.609C165.055 159.609 164.723 159.585 164.391 159.546C163.371 159.398 162.433 159.038 161.601 158.507C164.496 154.077 168.527 150.995 172.937 150.007C173.078 150.847 173.098 151.726 172.973 152.616C172.394 156.687 169.094 159.609 165.383 159.609Z" fill="#918F90"/>
<path d="M295.891 71.1086C267.234 92.3781 256.793 170.448 312.324 205.976C255.031 235.277 168.84 235.366 154.726 234.077C183.953 200.187 235.933 141.878 157.199 93.257C207.672 50.8156 295.891 71.1086 295.891 71.1086Z" fill="#E8EAEC"/>
<path d="M295.891 71.1086C267.234 92.3781 256.793 170.448 312.324 205.976C255.031 235.277 168.84 235.366 154.726 234.077C198.293 193.226 236.734 136.538 157.199 93.2571C222.281 34.5774 295.891 71.1086 295.891 71.1086Z" fill="white"/>
<path d="M197.883 144.609C195.183 127.058 183.223 111.027 162.332 96.9172C162.512 96.8156 166.375 99.0383 168.016 100.277C185.734 113.527 195.953 128.378 198.441 144.527C203.582 177.898 175.031 210.976 156.144 232.866L155.305 233.847C170.41 235.027 255.062 234.738 311.773 205.948C298.953 197.655 289.023 186.687 282.211 173.347C276.203 161.558 272.773 147.905 272.281 133.866C271.754 118.628 274.633 103.816 279.992 91.8586C280.902 89.8274 283.402 85.9563 283.641 85.8977C276.324 98.6164 272.223 115.925 272.844 133.847C273.453 151.616 279.422 184.597 312.484 205.745L312.891 206.007L312.461 206.226C254.902 235.655 168.254 235.597 154.703 234.359L154.16 234.308L155.723 232.495C174.547 210.687 202.984 177.726 197.883 144.609Z" fill="#999898"/>
<path d="M145.945 248.226C147.933 285.566 194.262 313.448 249.441 310.507C304.601 307.577 347.722 274.925 345.734 237.597C343.742 200.257 297.414 172.366 242.234 175.308C187.062 178.245 143.961 210.886 145.945 248.226Z" fill="#E8EAEC"/>
<path d="M145.945 248.226C147.933 285.566 194.262 313.448 249.441 310.507C304.601 307.577 347.722 274.925 345.734 237.597C343.742 200.257 297.414 172.366 242.234 175.308C187.062 178.245 143.961 210.886 145.945 248.226Z" fill="#D9DADB"/>
<path d="M151.922 242.667C153.918 279.995 195.742 310.577 250.914 307.648C306.074 304.706 347.723 274.925 345.734 237.597C343.742 200.257 297.351 171.519 242.234 175.308C189.613 178.925 149.937 205.327 151.922 242.667Z" fill="#E8EAEC"/>
<path d="M145.808 250.058C148.668 287.335 203.543 320.827 250.961 317.066C306.043 312.698 347.723 274.925 345.734 237.597C343.742 200.257 297.414 172.366 242.234 175.308C187.062 178.245 142.805 210.796 145.808 250.058Z" fill="white"/>
<path d="M146.223 248.218C146.297 249.597 146.449 250.956 146.64 252.316C146.449 252.316 145.738 249.616 145.672 248.245C145.617 247.316 145.598 246.386 145.601 245.456C145.703 228.296 155.156 211.769 172.488 198.648C190.723 184.835 215.484 176.456 242.223 175.027C252.172 174.507 262.051 174.968 271.582 176.405C291.891 179.476 310.414 187.085 323.734 197.835C337.523 208.976 345.223 222.718 346.004 237.577C346.433 245.519 344.793 253.257 341.453 260.546C341.301 260.448 343.402 254.257 344.164 251.155C345.242 246.745 345.691 242.206 345.453 237.609C344.672 222.905 337.031 209.308 323.383 198.277C310.141 187.585 291.723 180.019 271.504 176.956C262.004 175.519 252.172 175.066 242.254 175.585C215.633 177.007 190.961 185.359 172.824 199.085C154.715 212.808 145.265 230.245 146.223 248.218Z" fill="#999898"/>
<path d="M188.172 267.206C200.281 269.507 210.641 323.835 250.562 319.456C290.461 315.066 298.762 267.155 298.402 261.335C256.371 266.878 188.172 267.206 188.172 267.206Z" fill="#541806"/>
<path d="M298.402 261.335C286.242 262.937 271.891 264.109 257.641 264.956C266.363 270.085 273.043 279.495 274.582 291.835C275.191 299.577 274.082 306.066 271.793 311.667C293.574 296.726 298.683 265.937 298.402 261.335Z" fill="#7C2512"/>
<path d="M247.363 300.558C240.332 295.675 224.293 298.757 215.551 304.425C223.973 313.988 235.023 321.167 250.562 319.456C261.773 318.218 270.504 313.546 277.242 307.327C272.812 294.488 252.051 296.796 247.363 300.558Z" fill="#ED4E4A"/>
<path d="M262.582 297.738C256.183 297.136 249.734 298.667 247.363 300.558C240.332 295.675 224.293 298.757 215.551 304.425C223.973 313.988 235.023 321.167 250.562 319.456C258.492 318.577 265.183 315.976 270.801 312.327C270.801 312.155 270.824 311.995 270.812 311.816C271.211 304.609 267.262 300.628 262.582 297.738Z" fill="#F7899B"/>
<path d="M256.191 314.378C243.594 314.038 233.543 311.269 223.664 303.648C227.473 314.488 244.113 314.058 256.191 314.378Z" fill="#F7BAC6"/>
<path d="M216.262 304.538C226.281 315.667 237.492 320.398 250.523 318.948C260.492 317.866 269.363 313.878 276.723 307.175C272.492 295.948 255.223 297.116 248.992 300.128C248.422 300.398 247.961 300.687 247.594 300.976L247.371 301.148L247.141 300.995C241.094 296.796 227.933 298.738 219.203 302.937C218.164 303.448 217.164 303.976 216.262 304.538ZM265.973 315.609C261.234 317.886 256.062 319.359 250.574 319.956C237.113 321.437 225.551 316.476 215.242 304.808L214.832 304.335L215.351 303.995C216.433 303.296 217.621 302.628 218.914 302.007C227.902 297.675 240.933 295.757 247.371 299.976C247.742 299.706 248.183 299.448 248.691 299.198C255.223 296.058 273.433 294.937 277.633 307.116L277.754 307.476L277.484 307.718C273.984 310.968 270.101 313.616 265.973 315.609Z" fill="#C62E2E"/>
<path d="M190.504 267.687C193.902 269.968 197.242 275.687 201.273 282.577C210.961 299.155 224.223 321.847 250.523 318.948C255.922 318.366 261.023 316.925 265.683 314.675C291.801 302.077 297.801 267.616 297.984 261.886C260.781 266.745 202.851 267.566 190.504 267.687ZM265.973 315.597V315.609C261.234 317.886 256.062 319.359 250.574 319.956C223.801 322.905 210.383 299.937 200.582 283.175C195.773 274.948 191.973 268.448 188.082 267.706L188.172 266.706C188.851 266.706 256.844 266.316 298.371 260.835L298.781 260.777L298.824 261.277C299.242 267.878 291.992 303.058 265.973 315.597Z" fill="#999898"/>
<path d="M315.191 245.109C317.523 267.308 273.844 302.566 247.012 272.495C224.402 298.027 177.211 280.116 175.324 254.077C222.043 251.359 315.191 245.109 315.191 245.109Z" fill="#D9DADB"/>
<path d="M315.191 245.109C317.523 267.308 274.883 300.667 248.043 270.585C225.433 296.116 177.211 280.116 175.324 254.077C222.043 251.359 315.191 245.109 315.191 245.109Z" fill="#E8EAEC"/>
<path d="M315.191 245.109C317.523 267.308 274.492 299.476 247.652 269.405C225.043 294.937 177.211 280.116 175.324 254.077C222.043 251.359 315.191 245.109 315.191 245.109Z" fill="white"/>
<path d="M175.793 255.769C177.851 269.288 192.523 281.269 210.801 284.027C225.164 286.198 238.281 281.925 246.801 272.308L247.012 272.077L247.223 272.308C252.824 278.585 259.453 282.335 266.933 283.476C278.734 285.257 292.133 280.269 302.742 270.116C309.953 263.238 314.402 255.116 314.941 248.198C315.141 248.077 315.332 247.937 315.523 247.808C315.133 254.956 310.582 263.405 303.133 270.527C292.391 280.788 278.824 285.835 266.844 284.027C259.332 282.886 252.664 279.148 247.012 272.905C238.363 282.507 225.152 286.757 210.723 284.577H210.711C192.164 281.769 177.254 269.527 175.234 255.726C175.422 255.745 175.601 255.757 175.793 255.769Z" fill="#999898"/>
<path d="M313.621 248.316C315.094 248.706 316.492 249.378 317.672 250.257C319.094 251.316 321.453 253.925 321.453 253.925C321.414 253.835 321.371 253.738 321.332 253.648C319.492 249.359 314.062 246.546 309.051 247.359C309.051 247.359 312.172 247.937 313.621 248.316Z" fill="#999898"/>
<path d="M173.68 257.206C175.234 255.898 177.113 254.976 178.992 254.648C180.004 254.468 182.094 253.948 182.094 253.948C181.992 253.925 181.891 253.905 181.793 253.886C177.183 253.198 171.922 256.327 169.976 261.019C169.976 261.019 172.363 258.316 173.68 257.206Z" fill="#999898"/>
<path d="M147.016 95.8274C150.105 79.0266 169.887 67.9758 179.601 80.425C153.223 82.9367 147.016 95.8274 147.016 95.8274Z" fill="#421302"/>
<path d="M167.035 75.507C158.191 76.5852 149.844 84.8156 147.457 94.5461C149.68 91.3664 157.746 82.3156 179.012 80.175C175.984 76.5774 171.746 74.9172 167.035 75.507ZM146.41 97.468L146.746 95.7258C148.68 85.2063 157.558 76.0578 166.961 74.9055C172.008 74.2766 176.523 76.1672 179.672 80.1985L180.051 80.675L179.562 80.718C153.601 83.175 147.187 95.8781 147.129 96.0188L146.41 97.468Z" fill="#230901"/>
<path d="M313.652 78.3781C311.101 61.886 291.734 51.5383 281.664 64.0656C307.871 65.8352 313.652 78.3781 313.652 78.3781Z" fill="#421302"/>
<path d="M282.183 63.8078C303.312 65.3469 311.074 74.0461 313.183 77.1164C311.113 67.5969 303.043 59.7063 294.293 58.8859C289.594 58.4367 285.324 60.1867 282.183 63.8078ZM313.461 78.5578C313.422 78.4367 307.422 66.0852 281.621 64.3664L281.141 64.3352L281.531 63.8586C284.801 59.7883 289.363 57.8078 294.371 58.2883C303.691 59.1672 312.262 67.9563 313.863 78.2766L314.133 79.9758L313.461 78.5578Z" fill="#230901"/>
<path d="M242.582 182.406C276.461 179.656 288.844 187.757 291.262 194.519C296.242 208.488 262.434 242.077 247.531 242.675C232.621 243.296 198.461 216.296 197.152 200.788C195.851 185.277 242.582 182.406 242.582 182.406Z" fill="#1D1D1B"/>
<path d="M242.582 182.406C276.461 179.656 288.844 187.757 291.262 194.519C293.844 201.738 270.133 227.085 245.301 228.648C222.101 230.109 197.793 208.277 197.152 200.788C195.851 185.277 242.582 182.406 242.582 182.406Z" fill="#2B251E"/>
<path d="M242.582 182.406C276.461 179.656 288.844 187.757 291.262 194.519C293.754 201.507 270.312 220.128 246.324 221.886C222.332 223.656 197.812 208.546 197.152 200.788C195.851 185.277 242.582 182.406 242.582 182.406Z" fill="#3A342C"/>
<path d="M242.601 182.675C242.254 182.706 208.262 184.905 199.461 195.077C197.953 196.827 197.262 198.745 197.433 200.769C197.984 207.347 204.754 216.777 215.531 225.988C225.742 234.718 237.172 241.085 244.672 242.226H244.683C245.691 242.378 246.652 242.437 247.523 242.405C256.933 242.019 275.344 227.558 285.402 212.648C290.484 205.128 292.461 198.718 291.004 194.609C290.062 191.976 286.101 185.577 269.754 183.109C262.254 181.968 253.113 181.827 242.601 182.675ZM196.871 200.808C196.691 198.636 197.422 196.585 199.043 194.718C207.984 184.359 241.152 182.206 242.562 182.128C253.113 181.269 262.281 181.405 269.832 182.558C286.492 185.077 290.543 191.687 291.523 194.417C293.484 199.917 289.531 207.538 285.863 212.956C276.742 226.476 258.023 242.527 247.543 242.968C246.641 242.995 245.652 242.937 244.594 242.777C228.383 240.327 198.121 215.655 196.871 200.808Z" fill="#474744"/>
<path d="M216.601 192.187C216.883 194.878 229.101 195.796 243.902 194.257C258.703 192.718 270.484 189.288 270.191 186.609C269.914 183.917 257.691 182.995 242.89 184.538C228.094 186.077 216.312 189.507 216.601 192.187Z" fill="#635A50"/>
<defs>
<radialGradient id="paint0_radial_2_3" cx="0" cy="0" r="1" gradientTransform="matrix(32.9046 -13.9926 12.2009 35.6036 298.992 155.277)" gradientUnits="userSpaceOnUse">
<stop stop-color="white"/>
<stop offset="0.5" stop-color="white"/>
<stop offset="0.625" stop-color="white"/>
<stop offset="0.648438" stop-color="white"/>
<stop offset="0.65625" stop-color="#FEFEFE"/>
<stop offset="0.664062" stop-color="#FDFDFD"/>
<stop offset="0.671875" stop-color="#FCFCFC"/>
<stop offset="0.679688" stop-color="#FBFBFB"/>
<stop offset="0.6875" stop-color="#FBFBFB"/>
<stop offset="0.695312" stop-color="#FAFAFA"/>
<stop offset="0.703125" stop-color="#F9F9F9"/>
<stop offset="0.710938" stop-color="#F8F8F8"/>
<stop offset="0.71875" stop-color="#F7F7F7"/>
<stop offset="0.726562" stop-color="#F7F7F7"/>
<stop offset="0.734375" stop-color="#F6F6F6"/>
<stop offset="0.742188" stop-color="#F5F5F5"/>
<stop offset="0.75" stop-color="#F4F4F4"/>
<stop offset="0.757812" stop-color="#F3F3F3"/>
<stop offset="0.761719" stop-color="#F3F3F3"/>
<stop offset="0.765625" stop-color="#F3F3F3"/>
<stop offset="0.769531" stop-color="#F2F2F2"/>
<stop offset="0.773438" stop-color="#F2F2F2"/>
<stop offset="0.777344" stop-color="#F1F1F1"/>
<stop offset="0.78125" stop-color="#F1F1F1"/>
<stop offset="0.785156" stop-color="#F1F1F1"/>
<stop offset="0.789062" stop-color="#F0F0F0"/>
<stop offset="0.792969" stop-color="#F0F0F0"/>
<stop offset="0.796875" stop-color="#EFEFEF"/>
<stop offset="0.800781" stop-color="#EFEFEF"/>
<stop offset="0.804688" stop-color="#EEEEEE"/>
<stop offset="0.808594" stop-color="#EEEEEE"/>
<stop offset="0.8125" stop-color="#EEEEEE"/>
<stop offset="0.816406" stop-color="#EDEDED"/>
<stop offset="0.824219" stop-color="#ECECEC"/>
<stop offset="0.832031" stop-color="#EBEBEB"/>
<stop offset="0.839844" stop-color="#EBEBEB"/>
<stop offset="0.847656" stop-color="#EAEAEA"/>
<stop offset="0.855469" stop-color="#E9E9E9"/>
<stop offset="0.863281" stop-color="#E8E8E8"/>
<stop offset="0.871094" stop-color="#E7E7E7"/>
<stop offset="0.878906" stop-color="#E7E7E7"/>
<stop offset="0.882812" stop-color="#E6E6E6"/>
<stop offset="0.886719" stop-color="#E6E6E6"/>
<stop offset="0.890625" stop-color="#E5E5E5"/>
<stop offset="0.894531" stop-color="#E5E5E5"/>
<stop offset="0.898438" stop-color="#E5E5E5"/>
<stop offset="0.902344" stop-color="#E4E4E4"/>
<stop offset="0.90625" stop-color="#E4E4E4"/>
<stop offset="0.910156" stop-color="#E3E3E3"/>
<stop offset="0.917969" stop-color="#E2E2E2"/>
<stop offset="0.925781" stop-color="#E1E1E1"/>
<stop offset="0.933594" stop-color="#E1E1E1"/>
<stop offset="0.941406" stop-color="#E0E0E0"/>
<stop offset="0.945312" stop-color="#E0E0E0"/>
<stop offset="0.949219" stop-color="#DFDFDF"/>
<stop offset="0.953125" stop-color="#DFDFDF"/>
<stop offset="0.957031" stop-color="#DEDEDE"/>
<stop offset="0.964844" stop-color="#DDDDDD"/>
<stop offset="0.972656" stop-color="#DDDDDD"/>
<stop offset="0.976562" stop-color="#DCDCDC"/>
<stop offset="0.980469" stop-color="#DCDCDC"/>
<stop offset="0.988281" stop-color="#DBDBDB"/>
<stop offset="0.992188" stop-color="#DADADA"/>
<stop offset="1" stop-color="#DADADA"/>
</radialGradient>
<radialGradient id="paint1_radial_2_3" cx="0" cy="0" r="1" gradientTransform="matrix(-26.1638 9.06485 7.80773 28.3474 299.452 157.697)" gradientUnits="userSpaceOnUse">
<stop stop-color="white"/>
<stop offset="0.125" stop-color="white"/>
<stop offset="0.152344" stop-color="white"/>
<stop offset="0.175781" stop-color="#FEFFFE"/>
<stop offset="0.179688" stop-color="#FEFEFD"/>
<stop offset="0.183594" stop-color="#FDFEFC"/>
<stop offset="0.1875" stop-color="#FDFEFB"/>
<stop offset="0.191406" stop-color="#FCFEFA"/>
<stop offset="0.195312" stop-color="#FCFDF9"/>
<stop offset="0.199219" stop-color="#FBFDF8"/>
<stop offset="0.203125" stop-color="#FAFDF7"/>
<stop offset="0.207031" stop-color="#FAFCF6"/>
<stop offset="0.210938" stop-color="#F9FCF5"/>
<stop offset="0.214844" stop-color="#F9FCF4"/>
<stop offset="0.21875" stop-color="#F8FCF3"/>
<stop offset="0.222656" stop-color="#F8FBF2"/>
<stop offset="0.226562" stop-color="#F7FBF2"/>
<stop offset="0.230469" stop-color="#F6FBF1"/>
<stop offset="0.234375" stop-color="#F6FAF0"/>
<stop offset="0.238281" stop-color="#F5FAEF"/>
<stop offset="0.242188" stop-color="#F5FAEE"/>
<stop offset="0.246094" stop-color="#F4FAED"/>
<stop offset="0.25" stop-color="#F4F9EC"/>
<stop offset="0.253906" stop-color="#F3F9EB"/>
<stop offset="0.257812" stop-color="#F2F9EA"/>
<stop offset="0.261719" stop-color="#F2F8E9"/>
<stop offset="0.265625" stop-color="#F1F8E8"/>
<stop offset="0.269531" stop-color="#F1F8E7"/>
<stop offset="0.273438" stop-color="#F0F8E6"/>
<stop offset="0.277344" stop-color="#F0F7E5"/>
<stop offset="0.28125" stop-color="#EFF7E4"/>
<stop offset="0.285156" stop-color="#EFF7E3"/>
<stop offset="0.289062" stop-color="#EEF6E2"/>
<stop offset="0.292969" stop-color="#EDF6E1"/>
<stop offset="0.296875" stop-color="#EDF6E0"/>
<stop offset="0.300781" stop-color="#ECF6DF"/>
<stop offset="0.304688" stop-color="#ECF5DE"/>
<stop offset="0.308594" stop-color="#EBF5DD"/>
<stop offset="0.3125" stop-color="#EBF5DD"/>
<stop offset="0.316406" stop-color="#EAF4DC"/>
<stop offset="0.320312" stop-color="#E9F4DB"/>
<stop offset="0.324219" stop-color="#E9F4DA"/>
<stop offset="0.328125" stop-color="#E8F4D9"/>
<stop offset="0.332031" stop-color="#E8F3D8"/>
<stop offset="0.335938" stop-color="#E7F3D7"/>
<stop offset="0.339844" stop-color="#E7F3D6"/>
<stop offset="0.34375" stop-color="#E6F3D5"/>
<stop offset="0.347656" stop-color="#E5F2D4"/>
<stop offset="0.351562" stop-color="#E5F2D3"/>
<stop offset="0.355469" stop-color="#E4F2D2"/>
<stop offset="0.359375" stop-color="#E4F1D1"/>
<stop offset="0.363281" stop-color="#E3F1D0"/>
<stop offset="0.367188" stop-color="#E3F1CF"/>
<stop offset="0.371094" stop-color="#E2F1CE"/>
<stop offset="0.375" stop-color="#E1F0CD"/>
<stop offset="0.378906" stop-color="#E1F0CC"/>
<stop offset="0.382812" stop-color="#E0F0CB"/>
<stop offset="0.386719" stop-color="#E0EFCA"/>
<stop offset="0.390625" stop-color="#DFEFC9"/>
<stop offset="0.394531" stop-color="#DFEFC8"/>
<stop offset="0.398438" stop-color="#DEEFC8"/>
<stop offset="0.402344" stop-color="#DEEEC7"/>
<stop offset="0.40625" stop-color="#DDEEC6"/>
<stop offset="0.410156" stop-color="#DCEEC5"/>
<stop offset="0.414062" stop-color="#DCEDC4"/>
<stop offset="0.417969" stop-color="#DBEDC3"/>
<stop offset="0.421875" stop-color="#DBEDC2"/>
<stop offset="0.425781" stop-color="#DAEDC1"/>
<stop offset="0.429688" stop-color="#DAECC0"/>
<stop offset="0.433594" stop-color="#D9ECBF"/>
<stop offset="0.4375" stop-color="#D8ECBE"/>
<stop offset="0.441406" stop-color="#D8EBBD"/>
<stop offset="0.445312" stop-color="#D7EBBC"/>
<stop offset="0.449219" stop-color="#D7EBBB"/>
<stop offset="0.453125" stop-color="#D6EBBA"/>
<stop offset="0.457031" stop-color="#D6EAB9"/>
<stop offset="0.460938" stop-color="#D5EAB8"/>
<stop offset="0.464844" stop-color="#D4EAB7"/>
<stop offset="0.46875" stop-color="#D4E9B6"/>
<stop offset="0.472656" stop-color="#D3E9B5"/>
<stop offset="0.476562" stop-color="#D3E9B4"/>
<stop offset="0.480469" stop-color="#D2E9B3"/>
<stop offset="0.484375" stop-color="#D2E8B3"/>
<stop offset="0.488281" stop-color="#D1E8B2"/>
<stop offset="0.492188" stop-color="#D0E8B1"/>
<stop offset="0.496094" stop-color="#D0E7B0"/>
<stop offset="0.5" stop-color="#CFE7AF"/>
<stop offset="0.503906" stop-color="#CFE7AE"/>
<stop offset="0.507812" stop-color="#CEE7AD"/>
<stop offset="0.511719" stop-color="#CEE6AC"/>
<stop offset="0.515625" stop-color="#CDE6AB"/>
<stop offset="0.519531" stop-color="#CDE6AA"/>
<stop offset="0.523438" stop-color="#CCE5A9"/>
<stop offset="0.527344" stop-color="#CBE5A8"/>
<stop offset="0.53125" stop-color="#CBE5A7"/>
<stop offset="0.535156" stop-color="#CAE5A6"/>
<stop offset="0.539062" stop-color="#CAE4A5"/>
<stop offset="0.542969" stop-color="#C9E4A4"/>
<stop offset="0.546875" stop-color="#C9E4A3"/>
<stop offset="0.550781" stop-color="#C8E3A2"/>
<stop offset="0.554688" stop-color="#C7E3A1"/>
<stop offset="0.558594" stop-color="#C7E3A0"/>
<stop offset="0.5625" stop-color="#C6E39F"/>
<stop offset="0.566406" stop-color="#C6E29E"/>
<stop offset="0.570312" stop-color="#C5E29E"/>
<stop offset="0.574219" stop-color="#C5E29D"/>
<stop offset="0.578125" stop-color="#C4E19C"/>
<stop offset="0.582031" stop-color="#C3E19B"/>
<stop offset="0.585938" stop-color="#C3E19A"/>
<stop offset="0.589844" stop-color="#C2E199"/>
<stop offset="0.59375" stop-color="#C2E098"/>
<stop offset="0.597656" stop-color="#C1E097"/>
<stop offset="0.601562" stop-color="#C1E096"/>
<stop offset="0.605469" stop-color="#C0E095"/>
<stop offset="0.609375" stop-color="#BFDF94"/>
<stop offset="0.613281" stop-color="#BFDF93"/>
<stop offset="0.617188" stop-color="#BEDF92"/>
<stop offset="0.621094" stop-color="#BEDE91"/>
<stop offset="0.625" stop-color="#BDDE90"/>
<stop offset="0.628906" stop-color="#BDDE8F"/>
<stop offset="0.632812" stop-color="#BCDE8E"/>
<stop offset="0.636719" stop-color="#BBDD8D"/>
<stop offset="0.640625" stop-color="#BBDD8C"/>
<stop offset="0.644531" stop-color="#BADD8B"/>
<stop offset="0.648438" stop-color="#BADC8A"/>
<stop offset="0.652344" stop-color="#B9DC89"/>
<stop offset="0.65625" stop-color="#B9DC89"/>
<stop offset="0.660156" stop-color="#B8DC88"/>
<stop offset="0.664062" stop-color="#B8DB87"/>
<stop offset="0.667969" stop-color="#B7DB86"/>
<stop offset="0.671875" stop-color="#B6DB85"/>
<stop offset="0.675781" stop-color="#B6DA84"/>
<stop offset="0.679688" stop-color="#B5DA83"/>
<stop offset="0.683594" stop-color="#B5DA82"/>
<stop offset="0.6875" stop-color="#B4DA81"/>
<stop offset="0.691406" stop-color="#B4D980"/>
<stop offset="0.695312" stop-color="#B3D97F"/>
<stop offset="0.699219" stop-color="#B2D97E"/>
<stop offset="0.703125" stop-color="#B2D87D"/>
<stop offset="0.707031" stop-color="#B1D87C"/>
<stop offset="0.710938" stop-color="#B1D87B"/>
<stop offset="0.714844" stop-color="#B0D87A"/>
<stop offset="0.71875" stop-color="#B0D779"/>
<stop offset="0.722656" stop-color="#AFD778"/>
<stop offset="0.726562" stop-color="#AED777"/>
<stop offset="0.730469" stop-color="#AED676"/>
<stop offset="0.734375" stop-color="#ADD675"/>
<stop offset="0.738281" stop-color="#ADD675"/>
<stop offset="0.742188" stop-color="#ACD674"/>
<stop offset="0.746094" stop-color="#ACD573"/>
<stop offset="0.75" stop-color="#ABD572"/>
<stop offset="0.753906" stop-color="#AAD571"/>
<stop offset="0.757812" stop-color="#AAD470"/>
<stop offset="0.761719" stop-color="#A9D46F"/>
<stop offset="0.765625" stop-color="#A9D46E"/>
<stop offset="0.769531" stop-color="#A8D46D"/>
<stop offset="0.773438" stop-color="#A8D36C"/>
<stop offset="0.777344" stop-color="#A7D36B"/>
<stop offset="0.78125" stop-color="#A7D36A"/>
<stop offset="0.785156" stop-color="#A6D269"/>
<stop offset="0.789062" stop-color="#A5D268"/>
<stop offset="0.792969" stop-color="#A5D267"/>
<stop offset="0.796875" stop-color="#A4D266"/>
<stop offset="0.800781" stop-color="#A4D165"/>
<stop offset="0.804688" stop-color="#A3D164"/>
<stop offset="0.808594" stop-color="#A3D163"/>
<stop offset="0.8125" stop-color="#A2D062"/>
<stop offset="0.816406" stop-color="#A1D061"/>
<stop offset="0.820312" stop-color="#A1D060"/>
<stop offset="0.824219" stop-color="#A0D060"/>
<stop offset="0.828125" stop-color="#A0CF5F"/>
<stop offset="0.832031" stop-color="#9FCF5E"/>
<stop offset="0.835938" stop-color="#9FCF5D"/>
<stop offset="0.839844" stop-color="#9ECF5C"/>
<stop offset="0.84375" stop-color="#9DCE5B"/>
<stop offset="0.847656" stop-color="#9DCE5A"/>
<stop offset="0.851562" stop-color="#9CCE59"/>
<stop offset="0.855469" stop-color="#9CCD58"/>
<stop offset="0.859375" stop-color="#9BCD57"/>
<stop offset="0.863281" stop-color="#9BCD56"/>
<stop offset="0.867188" stop-color="#9ACD55"/>
<stop offset="0.871094" stop-color="#99CC54"/>
<stop offset="0.875" stop-color="#99CC53"/>
<stop offset="0.878906" stop-color="#98CC52"/>
<stop offset="0.882812" stop-color="#98CB51"/>
<stop offset="0.886719" stop-color="#97CB50"/>
<stop offset="0.890625" stop-color="#97CB4F"/>
<stop offset="0.894531" stop-color="#96CB4E"/>
<stop offset="0.898438" stop-color="#96CA4D"/>
<stop offset="0.902344" stop-color="#95CA4C"/>
<stop offset="0.90625" stop-color="#94CA4B"/>
<stop offset="0.910156" stop-color="#94C94B"/>
<stop offset="0.914062" stop-color="#93C94A"/>
<stop offset="0.917969" stop-color="#93C949"/>
<stop offset="0.921875" stop-color="#92C948"/>
<stop offset="0.925781" stop-color="#92C847"/>
<stop offset="0.929688" stop-color="#91C846"/>
<stop offset="0.933594" stop-color="#90C845"/>
<stop offset="0.9375" stop-color="#90C744"/>
<stop offset="0.941406" stop-color="#8FC743"/>
<stop offset="0.945312" stop-color="#8FC742"/>
<stop offset="0.949219" stop-color="#8EC741"/>
<stop offset="0.953125" stop-color="#8EC640"/>
<stop offset="0.957031" stop-color="#8DC63F"/>
<stop offset="1" stop-color="#8DC63F"/>
</radialGradient>
<radialGradient id="paint2_radial_2_3" cx="0" cy="0" r="1" gradientTransform="matrix(-26.1638 9.06485 7.80773 28.3474 299.452 157.697)" gradientUnits="userSpaceOnUse">
<stop stop-color="white"/>
<stop offset="0.125" stop-color="white"/>
<stop offset="0.179688" stop-color="#FEFFFE"/>
<stop offset="0.183594" stop-color="#FEFFFE"/>
<stop offset="0.1875" stop-color="#FEFFFD"/>
<stop offset="0.191406" stop-color="#FDFEFD"/>
<stop offset="0.195312" stop-color="#FDFEFC"/>
<stop offset="0.199219" stop-color="#FDFEFB"/>
<stop offset="0.210938" stop-color="#FDFEFB"/>
<stop offset="0.214844" stop-color="#FDFEFA"/>
<stop offset="0.21875" stop-color="#FCFDF9"/>
<stop offset="0.222656" stop-color="#FCFDF9"/>
<stop offset="0.234375" stop-color="#FBFDF8"/>
<stop offset="0.238281" stop-color="#FBFDF7"/>
<stop offset="0.242188" stop-color="#FAFDF7"/>
<stop offset="0.246094" stop-color="#FAFDF6"/>
<stop offset="0.25" stop-color="#FAFDF6"/>
<stop offset="0.253906" stop-color="#F9FCF5"/>
<stop offset="0.261719" stop-color="#F9FCF5"/>
<stop offset="0.265625" stop-color="#F8FCF4"/>
<stop offset="0.269531" stop-color="#F8FCF3"/>
<stop offset="0.277344" stop-color="#F7FBF2"/>
<stop offset="0.285156" stop-color="#F7FBF2"/>
<stop offset="0.289062" stop-color="#F7FBF1"/>
<stop offset="0.292969" stop-color="#F6FBF1"/>
<stop offset="0.296875" stop-color="#F6FBF0"/>
<stop offset="0.300781" stop-color="#F6FBEF"/>
<stop offset="0.304688" stop-color="#F5FAEF"/>
<stop offset="0.308594" stop-color="#F5FAEE"/>
<stop offset="0.316406" stop-color="#F4FAED"/>
<stop offset="0.324219" stop-color="#F4FAED"/>
<stop offset="0.328125" stop-color="#F3F9EC"/>
<stop offset="0.332031" stop-color="#F3F9EB"/>
<stop offset="0.339844" stop-color="#F3F9EA"/>
<stop offset="0.347656" stop-color="#F3F9EA"/>
<stop offset="0.351562" stop-color="#F3F9E9"/>
<stop offset="0.355469" stop-color="#F2F8E8"/>
<stop offset="0.359375" stop-color="#F2F8E8"/>
<stop offset="0.367188" stop-color="#F1F8E7"/>
<stop offset="0.375" stop-color="#F1F8E6"/>
<stop offset="0.378906" stop-color="#F0F8E6"/>
<stop offset="0.382812" stop-color="#F0F8E5"/>
<stop offset="0.390625" stop-color="#EFF7E4"/>
<stop offset="0.398438" stop-color="#EFF7E4"/>
<stop offset="0.402344" stop-color="#EEF7E3"/>
<stop offset="0.40625" stop-color="#EEF7E2"/>
<stop offset="0.414062" stop-color="#EDF6E1"/>
<stop offset="0.421875" stop-color="#EDF6E1"/>
<stop offset="0.425781" stop-color="#EDF6E0"/>
<stop offset="0.429688" stop-color="#ECF6E0"/>
<stop offset="0.433594" stop-color="#ECF6DF"/>
<stop offset="0.441406" stop-color="#EBF5DE"/>
<stop offset="0.449219" stop-color="#EBF5DD"/>
<stop offset="0.453125" stop-color="#EAF5DD"/>
<stop offset="0.457031" stop-color="#EAF5DC"/>
<stop offset="0.464844" stop-color="#EAF4DB"/>
<stop offset="0.472656" stop-color="#EAF4DB"/>
<stop offset="0.476562" stop-color="#EAF4DA"/>
<stop offset="0.480469" stop-color="#E9F4D9"/>
<stop offset="0.484375" stop-color="#E9F4D9"/>
<stop offset="0.492188" stop-color="#E8F3D8"/>
<stop offset="0.5" stop-color="#E8F3D7"/>
<stop offset="0.503906" stop-color="#E7F3D7"/>
<stop offset="0.507812" stop-color="#E7F3D6"/>
<stop offset="0.511719" stop-color="#E7F3D6"/>
<stop offset="0.515625" stop-color="#E6F3D5"/>
<stop offset="0.519531" stop-color="#E6F3D5"/>
<stop offset="0.523438" stop-color="#E6F3D5"/>
<stop offset="0.527344" stop-color="#E5F2D4"/>
<stop offset="0.53125" stop-color="#E5F2D3"/>
<stop offset="0.535156" stop-color="#E5F2D3"/>
<stop offset="0.546875" stop-color="#E4F2D2"/>
<stop offset="0.550781" stop-color="#E4F2D1"/>
<stop offset="0.554688" stop-color="#E3F1D1"/>
<stop offset="0.558594" stop-color="#E3F1D0"/>
<stop offset="0.5625" stop-color="#E3F1CF"/>
<stop offset="0.566406" stop-color="#E2F1CF"/>
<stop offset="0.570312" stop-color="#E2F1CE"/>
<stop offset="0.574219" stop-color="#E2F1CE"/>
<stop offset="0.578125" stop-color="#E1F0CD"/>
<stop offset="0.582031" stop-color="#E1F0CD"/>
<stop offset="0.585938" stop-color="#E1F0CD"/>
<stop offset="0.589844" stop-color="#E0F0CC"/>
<stop offset="0.59375" stop-color="#E0F0CB"/>
<stop offset="0.597656" stop-color="#E0F0CB"/>
<stop offset="0.609375" stop-color="#E0EFCA"/>
<stop offset="0.613281" stop-color="#E0EFC9"/>
<stop offset="0.617188" stop-color="#DFEFC9"/>
<stop offset="0.621094" stop-color="#DFEFC8"/>
<stop offset="0.625" stop-color="#DFEFC8"/>
<stop offset="0.628906" stop-color="#DEEFC7"/>
<stop offset="0.636719" stop-color="#DEEFC6"/>
<stop offset="0.640625" stop-color="#DDEEC6"/>
<stop offset="0.644531" stop-color="#DDEEC5"/>
<stop offset="0.652344" stop-color="#DCEEC4"/>
<stop offset="0.660156" stop-color="#DCEEC4"/>
<stop offset="0.664062" stop-color="#DCEEC3"/>
<stop offset="0.667969" stop-color="#DBEDC2"/>
<stop offset="0.675781" stop-color="#DAEDC1"/>
<stop offset="0.683594" stop-color="#DAEDC1"/>
<stop offset="0.6875" stop-color="#DAEDC0"/>
<stop offset="0.691406" stop-color="#D9ECC0"/>
<stop offset="0.695312" stop-color="#D9ECBF"/>
<stop offset="0.703125" stop-color="#D8ECBE"/>
<stop offset="0.710938" stop-color="#D8ECBD"/>
<stop offset="0.714844" stop-color="#D7EBBD"/>
<stop offset="0.71875" stop-color="#D7EBBC"/>
<stop offset="0.726562" stop-color="#D7EBBB"/>
<stop offset="0.734375" stop-color="#D7EBBB"/>
<stop offset="0.738281" stop-color="#D7EBBA"/>
<stop offset="0.742188" stop-color="#D6EAB9"/>
<stop offset="0.746094" stop-color="#D6EAB9"/>
<stop offset="0.753906" stop-color="#D5EAB8"/>
<stop offset="0.757812" stop-color="#D5EAB8"/>
<stop offset="0.761719" stop-color="#D5EAB7"/>
<stop offset="0.765625" stop-color="#D4EAB7"/>
<stop offset="0.769531" stop-color="#D4EAB6"/>
<stop offset="0.773438" stop-color="#D3E9B5"/>
<stop offset="0.785156" stop-color="#D3E9B5"/>
<stop offset="0.789062" stop-color="#D2E9B4"/>
<stop offset="0.792969" stop-color="#D2E9B3"/>
<stop offset="0.796875" stop-color="#D2E9B3"/>
<stop offset="0.808594" stop-color="#D1E8B2"/>
<stop offset="0.8125" stop-color="#D1E8B1"/>
<stop offset="0.816406" stop-color="#D0E8B1"/>
<stop offset="0.820312" stop-color="#D0E8B0"/>
<stop offset="0.824219" stop-color="#D0E8AF"/>
<stop offset="0.828125" stop-color="#CFE7AF"/>
<stop offset="0.832031" stop-color="#CFE7AE"/>
<stop offset="0.839844" stop-color="#CEE7AD"/>
<stop offset="0.847656" stop-color="#CEE7AD"/>
<stop offset="0.851562" stop-color="#CDE6AC"/>
<stop offset="0.855469" stop-color="#CDE6AB"/>
<stop offset="0.863281" stop-color="#CDE6AA"/>
<stop offset="0.871094" stop-color="#CDE6AA"/>
<stop offset="0.875" stop-color="#CDE6A9"/>
<stop offset="0.878906" stop-color="#CCE5A9"/>
<stop offset="0.882812" stop-color="#CCE5A8"/>
<stop offset="0.886719" stop-color="#CCE5A8"/>
<stop offset="0.890625" stop-color="#CBE5A7"/>
<stop offset="0.894531" stop-color="#CBE5A7"/>
<stop offset="0.898438" stop-color="#CBE5A6"/>
<stop offset="0.902344" stop-color="#CAE5A6"/>
<stop offset="0.90625" stop-color="#CAE5A5"/>
<stop offset="0.910156" stop-color="#CAE5A5"/>
<stop offset="0.917969" stop-color="#C9E4A4"/>
<stop offset="0.925781" stop-color="#C9E4A3"/>
<stop offset="0.929688" stop-color="#C8E4A2"/>
<stop offset="0.9375" stop-color="#C7E3A1"/>
<stop offset="0.945312" stop-color="#C7E3A1"/>
<stop offset="0.949219" stop-color="#C7E3A0"/>
<stop offset="0.953125" stop-color="#C6E39F"/>
<stop offset="1" stop-color="#C6E39F"/>
</radialGradient>
<radialGradient id="paint3_radial_2_3" cx="0" cy="0" r="1" gradientTransform="matrix(35.4995 3.82063 -4.11538 38.076 176.252 166.747)" gradientUnits="userSpaceOnUse">
<stop stop-color="white"/>
<stop offset="0.5" stop-color="white"/>
<stop offset="0.625" stop-color="white"/>
<stop offset="0.648438" stop-color="white"/>
<stop offset="0.65625" stop-color="#FEFEFE"/>
<stop offset="0.664062" stop-color="#FDFDFD"/>
<stop offset="0.671875" stop-color="#FCFCFC"/>
<stop offset="0.679688" stop-color="#FBFBFB"/>
<stop offset="0.6875" stop-color="#FBFBFB"/>
<stop offset="0.695312" stop-color="#FAFAFA"/>
<stop offset="0.703125" stop-color="#F9F9F9"/>
<stop offset="0.710938" stop-color="#F8F8F8"/>
<stop offset="0.71875" stop-color="#F7F7F7"/>
<stop offset="0.726562" stop-color="#F7F7F7"/>
<stop offset="0.734375" stop-color="#F6F6F6"/>
<stop offset="0.742188" stop-color="#F5F5F5"/>
<stop offset="0.75" stop-color="#F4F4F4"/>
<stop offset="0.757812" stop-color="#F3F3F3"/>
<stop offset="0.761719" stop-color="#F3F3F3"/>
<stop offset="0.765625" stop-color="#F3F3F3"/>
<stop offset="0.769531" stop-color="#F2F2F2"/>
<stop offset="0.773438" stop-color="#F2F2F2"/>
<stop offset="0.777344" stop-color="#F1F1F1"/>
<stop offset="0.78125" stop-color="#F1F1F1"/>
<stop offset="0.785156" stop-color="#F1F1F1"/>
<stop offset="0.789062" stop-color="#F0F0F0"/>
<stop offset="0.792969" stop-color="#F0F0F0"/>
<stop offset="0.796875" stop-color="#EFEFEF"/>
<stop offset="0.800781" stop-color="#EFEFEF"/>
<stop offset="0.804688" stop-color="#EEEEEE"/>
<stop offset="0.808594" stop-color="#EEEEEE"/>
<stop offset="0.8125" stop-color="#EEEEEE"/>
<stop offset="0.816406" stop-color="#EDEDED"/>
<stop offset="0.824219" stop-color="#ECECEC"/>
<stop offset="0.832031" stop-color="#EBEBEB"/>
<stop offset="0.839844" stop-color="#EBEBEB"/>
<stop offset="0.847656" stop-color="#EAEAEA"/>
<stop offset="0.855469" stop-color="#E9E9E9"/>
<stop offset="0.863281" stop-color="#E8E8E8"/>
<stop offset="0.871094" stop-color="#E7E7E7"/>
<stop offset="0.878906" stop-color="#E7E7E7"/>
<stop offset="0.882812" stop-color="#E6E6E6"/>
<stop offset="0.886719" stop-color="#E6E6E6"/>
<stop offset="0.890625" stop-color="#E5E5E5"/>
<stop offset="0.894531" stop-color="#E5E5E5"/>
<stop offset="0.898438" stop-color="#E5E5E5"/>
<stop offset="0.902344" stop-color="#E4E4E4"/>
<stop offset="0.90625" stop-color="#E4E4E4"/>
<stop offset="0.910156" stop-color="#E3E3E3"/>
<stop offset="0.917969" stop-color="#E2E2E2"/>
<stop offset="0.925781" stop-color="#E1E1E1"/>
<stop offset="0.933594" stop-color="#E1E1E1"/>
<stop offset="0.941406" stop-color="#E0E0E0"/>
<stop offset="0.945312" stop-color="#E0E0E0"/>
<stop offset="0.949219" stop-color="#DFDFDF"/>
<stop offset="0.953125" stop-color="#DFDFDF"/>
<stop offset="0.957031" stop-color="#DEDEDE"/>
<stop offset="0.964844" stop-color="#DDDDDD"/>
<stop offset="0.972656" stop-color="#DDDDDD"/>
<stop offset="0.976562" stop-color="#DCDCDC"/>
<stop offset="0.980469" stop-color="#DCDCDC"/>
<stop offset="0.988281" stop-color="#DBDBDB"/>
<stop offset="0.992188" stop-color="#DADADA"/>
<stop offset="1" stop-color="#DADADA"/>
</radialGradient>
<radialGradient id="paint4_radial_2_3" cx="0" cy="0" r="1" gradientTransform="matrix(-27.3512 -4.89467 -4.99001 29.3621 174.912 171.217)" gradientUnits="userSpaceOnUse">
<stop stop-color="white"/>
<stop offset="0.125" stop-color="white"/>
<stop offset="0.152344" stop-color="white"/>
<stop offset="0.175781" stop-color="#FEFFFE"/>
<stop offset="0.179688" stop-color="#FEFEFD"/>
<stop offset="0.183594" stop-color="#FDFEFC"/>
<stop offset="0.1875" stop-color="#FDFEFB"/>
<stop offset="0.191406" stop-color="#FCFEFA"/>
<stop offset="0.195312" stop-color="#FCFDF9"/>
<stop offset="0.199219" stop-color="#FBFDF8"/>
<stop offset="0.203125" stop-color="#FAFDF7"/>
<stop offset="0.207031" stop-color="#FAFCF6"/>
<stop offset="0.210938" stop-color="#F9FCF5"/>
<stop offset="0.214844" stop-color="#F9FCF4"/>
<stop offset="0.21875" stop-color="#F8FCF3"/>
<stop offset="0.222656" stop-color="#F8FBF2"/>
<stop offset="0.226562" stop-color="#F7FBF2"/>
<stop offset="0.230469" stop-color="#F6FBF1"/>
<stop offset="0.234375" stop-color="#F6FAF0"/>
<stop offset="0.238281" stop-color="#F5FAEF"/>
<stop offset="0.242188" stop-color="#F5FAEE"/>
<stop offset="0.246094" stop-color="#F4FAED"/>
<stop offset="0.25" stop-color="#F4F9EC"/>
<stop offset="0.253906" stop-color="#F3F9EB"/>
<stop offset="0.257812" stop-color="#F2F9EA"/>
<stop offset="0.261719" stop-color="#F2F8E9"/>
<stop offset="0.265625" stop-color="#F1F8E8"/>
<stop offset="0.269531" stop-color="#F1F8E7"/>
<stop offset="0.273438" stop-color="#F0F8E6"/>
<stop offset="0.277344" stop-color="#F0F7E5"/>
<stop offset="0.28125" stop-color="#EFF7E4"/>
<stop offset="0.285156" stop-color="#EFF7E3"/>
<stop offset="0.289062" stop-color="#EEF6E2"/>
<stop offset="0.292969" stop-color="#EDF6E1"/>
<stop offset="0.296875" stop-color="#EDF6E0"/>
<stop offset="0.300781" stop-color="#ECF6DF"/>
<stop offset="0.304688" stop-color="#ECF5DE"/>
<stop offset="0.308594" stop-color="#EBF5DD"/>
<stop offset="0.3125" stop-color="#EBF5DD"/>
<stop offset="0.316406" stop-color="#EAF4DC"/>
<stop offset="0.320312" stop-color="#E9F4DB"/>
<stop offset="0.324219" stop-color="#E9F4DA"/>
<stop offset="0.328125" stop-color="#E8F4D9"/>
<stop offset="0.332031" stop-color="#E8F3D8"/>
<stop offset="0.335938" stop-color="#E7F3D7"/>
<stop offset="0.339844" stop-color="#E7F3D6"/>
<stop offset="0.34375" stop-color="#E6F3D5"/>
<stop offset="0.347656" stop-color="#E5F2D4"/>
<stop offset="0.351562" stop-color="#E5F2D3"/>
<stop offset="0.355469" stop-color="#E4F2D2"/>
<stop offset="0.359375" stop-color="#E4F1D1"/>
<stop offset="0.363281" stop-color="#E3F1D0"/>
<stop offset="0.367188" stop-color="#E3F1CF"/>
<stop offset="0.371094" stop-color="#E2F1CE"/>
<stop offset="0.375" stop-color="#E1F0CD"/>
<stop offset="0.378906" stop-color="#E1F0CC"/>
<stop offset="0.382812" stop-color="#E0F0CB"/>
<stop offset="0.386719" stop-color="#E0EFCA"/>
<stop offset="0.390625" stop-color="#DFEFC9"/>
<stop offset="0.394531" stop-color="#DFEFC8"/>
<stop offset="0.398438" stop-color="#DEEFC8"/>
<stop offset="0.402344" stop-color="#DEEEC7"/>
<stop offset="0.40625" stop-color="#DDEEC6"/>
<stop offset="0.410156" stop-color="#DCEEC5"/>
<stop offset="0.414062" stop-color="#DCEDC4"/>
<stop offset="0.417969" stop-color="#DBEDC3"/>
<stop offset="0.421875" stop-color="#DBEDC2"/>
<stop offset="0.425781" stop-color="#DAEDC1"/>
<stop offset="0.429688" stop-color="#DAECC0"/>
<stop offset="0.433594" stop-color="#D9ECBF"/>
<stop offset="0.4375" stop-color="#D8ECBE"/>
<stop offset="0.441406" stop-color="#D8EBBD"/>
<stop offset="0.445312" stop-color="#D7EBBC"/>
<stop offset="0.449219" stop-color="#D7EBBB"/>
<stop offset="0.453125" stop-color="#D6EBBA"/>
<stop offset="0.457031" stop-color="#D6EAB9"/>
<stop offset="0.460938" stop-color="#D5EAB8"/>
<stop offset="0.464844" stop-color="#D4EAB7"/>
<stop offset="0.46875" stop-color="#D4E9B6"/>
<stop offset="0.472656" stop-color="#D3E9B5"/>
<stop offset="0.476562" stop-color="#D3E9B4"/>
<stop offset="0.480469" stop-color="#D2E9B3"/>
<stop offset="0.484375" stop-color="#D2E8B3"/>
<stop offset="0.488281" stop-color="#D1E8B2"/>
<stop offset="0.492188" stop-color="#D0E8B1"/>
<stop offset="0.496094" stop-color="#D0E7B0"/>
<stop offset="0.5" stop-color="#CFE7AF"/>
<stop offset="0.503906" stop-color="#CFE7AE"/>
<stop offset="0.507812" stop-color="#CEE7AD"/>
<stop offset="0.511719" stop-color="#CEE6AC"/>
<stop offset="0.515625" stop-color="#CDE6AB"/>
<stop offset="0.519531" stop-color="#CDE6AA"/>
<stop offset="0.523438" stop-color="#CCE5A9"/>
<stop offset="0.527344" stop-color="#CBE5A8"/>
<stop offset="0.53125" stop-color="#CBE5A7"/>
<stop offset="0.535156" stop-color="#CAE5A6"/>
<stop offset="0.539062" stop-color="#CAE4A5"/>
<stop offset="0.542969" stop-color="#C9E4A4"/>
<stop offset="0.546875" stop-color="#C9E4A3"/>
<stop offset="0.550781" stop-color="#C8E3A2"/>
<stop offset="0.554688" stop-color="#C7E3A1"/>
<stop offset="0.558594" stop-color="#C7E3A0"/>
<stop offset="0.5625" stop-color="#C6E39F"/>
<stop offset="0.566406" stop-color="#C6E29E"/>
<stop offset="0.570312" stop-color="#C5E29E"/>
<stop offset="0.574219" stop-color="#C5E29D"/>
<stop offset="0.578125" stop-color="#C4E19C"/>
<stop offset="0.582031" stop-color="#C3E19B"/>
<stop offset="0.585938" stop-color="#C3E19A"/>
<stop offset="0.589844" stop-color="#C2E199"/>
<stop offset="0.59375" stop-color="#C2E098"/>
<stop offset="0.597656" stop-color="#C1E097"/>
<stop offset="0.601562" stop-color="#C1E096"/>
<stop offset="0.605469" stop-color="#C0E095"/>
<stop offset="0.609375" stop-color="#BFDF94"/>
<stop offset="0.613281" stop-color="#BFDF93"/>
<stop offset="0.617188" stop-color="#BEDF92"/>
<stop offset="0.621094" stop-color="#BEDE91"/>
<stop offset="0.625" stop-color="#BDDE90"/>
<stop offset="0.628906" stop-color="#BDDE8F"/>
<stop offset="0.632812" stop-color="#BCDE8E"/>
<stop offset="0.636719" stop-color="#BBDD8D"/>
<stop offset="0.640625" stop-color="#BBDD8C"/>
<stop offset="0.644531" stop-color="#BADD8B"/>
<stop offset="0.648438" stop-color="#BADC8A"/>
<stop offset="0.652344" stop-color="#B9DC89"/>
<stop offset="0.65625" stop-color="#B9DC89"/>
<stop offset="0.660156" stop-color="#B8DC88"/>
<stop offset="0.664062" stop-color="#B8DB87"/>
<stop offset="0.667969" stop-color="#B7DB86"/>
<stop offset="0.671875" stop-color="#B6DB85"/>
<stop offset="0.675781" stop-color="#B6DA84"/>
<stop offset="0.679688" stop-color="#B5DA83"/>
<stop offset="0.683594" stop-color="#B5DA82"/>
<stop offset="0.6875" stop-color="#B4DA81"/>
<stop offset="0.691406" stop-color="#B4D980"/>
<stop offset="0.695312" stop-color="#B3D97F"/>
<stop offset="0.699219" stop-color="#B2D97E"/>
<stop offset="0.703125" stop-color="#B2D87D"/>
<stop offset="0.707031" stop-color="#B1D87C"/>
<stop offset="0.710938" stop-color="#B1D87B"/>
<stop offset="0.714844" stop-color="#B0D87A"/>
<stop offset="0.71875" stop-color="#B0D779"/>
<stop offset="0.722656" stop-color="#AFD778"/>
<stop offset="0.726562" stop-color="#AED777"/>
<stop offset="0.730469" stop-color="#AED676"/>
<stop offset="0.734375" stop-color="#ADD675"/>
<stop offset="0.738281" stop-color="#ADD675"/>
<stop offset="0.742188" stop-color="#ACD674"/>
<stop offset="0.746094" stop-color="#ACD573"/>
<stop offset="0.75" stop-color="#ABD572"/>
<stop offset="0.753906" stop-color="#AAD571"/>
<stop offset="0.757812" stop-color="#AAD470"/>
<stop offset="0.761719" stop-color="#A9D46F"/>
<stop offset="0.765625" stop-color="#A9D46E"/>
<stop offset="0.769531" stop-color="#A8D46D"/>
<stop offset="0.773438" stop-color="#A8D36C"/>
<stop offset="0.777344" stop-color="#A7D36B"/>
<stop offset="0.78125" stop-color="#A7D36A"/>
<stop offset="0.785156" stop-color="#A6D269"/>
<stop offset="0.789062" stop-color="#A5D268"/>
<stop offset="0.792969" stop-color="#A5D267"/>
<stop offset="0.796875" stop-color="#A4D266"/>
<stop offset="0.800781" stop-color="#A4D165"/>
<stop offset="0.804688" stop-color="#A3D164"/>
<stop offset="0.808594" stop-color="#A3D163"/>
<stop offset="0.8125" stop-color="#A2D062"/>
<stop offset="0.816406" stop-color="#A1D061"/>
<stop offset="0.820312" stop-color="#A1D060"/>
<stop offset="0.824219" stop-color="#A0D060"/>
<stop offset="0.828125" stop-color="#A0CF5F"/>
<stop offset="0.832031" stop-color="#9FCF5E"/>
<stop offset="0.835938" stop-color="#9FCF5D"/>
<stop offset="0.839844" stop-color="#9ECF5C"/>
<stop offset="0.84375" stop-color="#9DCE5B"/>
<stop offset="0.847656" stop-color="#9DCE5A"/>
<stop offset="0.851562" stop-color="#9CCE59"/>
<stop offset="0.855469" stop-color="#9CCD58"/>
<stop offset="0.859375" stop-color="#9BCD57"/>
<stop offset="0.863281" stop-color="#9BCD56"/>
<stop offset="0.867188" stop-color="#9ACD55"/>
<stop offset="0.871094" stop-color="#99CC54"/>
<stop offset="0.875" stop-color="#99CC53"/>
<stop offset="0.878906" stop-color="#98CC52"/>
<stop offset="0.882812" stop-color="#98CB51"/>
<stop offset="0.886719" stop-color="#97CB50"/>
<stop offset="0.890625" stop-color="#97CB4F"/>
<stop offset="0.894531" stop-color="#96CB4E"/>
<stop offset="0.898438" stop-color="#96CA4D"/>
<stop offset="0.902344" stop-color="#95CA4C"/>
<stop offset="0.90625" stop-color="#94CA4B"/>
<stop offset="0.910156" stop-color="#94C94B"/>
<stop offset="0.914062" stop-color="#93C94A"/>
<stop offset="0.917969" stop-color="#93C949"/>
<stop offset="0.921875" stop-color="#92C948"/>
<stop offset="0.925781" stop-color="#92C847"/>
<stop offset="0.929688" stop-color="#91C846"/>
<stop offset="0.933594" stop-color="#90C845"/>
<stop offset="0.9375" stop-color="#90C744"/>
<stop offset="0.941406" stop-color="#8FC743"/>
<stop offset="0.945312" stop-color="#8FC742"/>
<stop offset="0.949219" stop-color="#8EC741"/>
<stop offset="0.953125" stop-color="#8EC640"/>
<stop offset="0.957031" stop-color="#8DC63F"/>
<stop offset="1" stop-color="#8DC63F"/>
</radialGradient>
<radialGradient id="paint5_radial_2_3" cx="0" cy="0" r="1" gradientTransform="matrix(35.4995 3.82063 -4.11538 38.076 176.252 166.747)" gradientUnits="userSpaceOnUse">
<stop stop-color="white"/>
<stop offset="0.5" stop-color="white"/>
<stop offset="0.625" stop-color="white"/>
<stop offset="0.648438" stop-color="white"/>
<stop offset="0.65625" stop-color="white"/>
<stop offset="0.664062" stop-color="#FEFEFE"/>
<stop offset="0.671875" stop-color="#FEFEFE"/>
<stop offset="0.679688" stop-color="#FDFDFD"/>
<stop offset="0.699219" stop-color="#FDFDFD"/>
<stop offset="0.703125" stop-color="#FCFCFC"/>
<stop offset="0.71875" stop-color="#FBFBFB"/>
<stop offset="0.734375" stop-color="#FBFBFB"/>
<stop offset="0.742188" stop-color="#FAFAFA"/>
<stop offset="0.757812" stop-color="#F9F9F9"/>
<stop offset="0.769531" stop-color="#F9F9F9"/>
<stop offset="0.773438" stop-color="#F8F8F8"/>
<stop offset="0.785156" stop-color="#F8F8F8"/>
<stop offset="0.796875" stop-color="#F7F7F7"/>
<stop offset="0.808594" stop-color="#F7F7F7"/>
<stop offset="0.8125" stop-color="#F6F6F6"/>
<stop offset="0.824219" stop-color="#F6F6F6"/>
<stop offset="0.832031" stop-color="#F6F6F6"/>
<stop offset="0.835938" stop-color="#F5F5F5"/>
<stop offset="0.84375" stop-color="#F5F5F5"/>
<stop offset="0.851562" stop-color="#F4F4F4"/>
<stop offset="0.867188" stop-color="#F4F4F4"/>
<stop offset="0.875" stop-color="#F3F3F3"/>
<stop offset="0.890625" stop-color="#F2F2F2"/>
<stop offset="0.902344" stop-color="#F2F2F2"/>
<stop offset="0.90625" stop-color="#F1F1F1"/>
<stop offset="0.917969" stop-color="#F1F1F1"/>
<stop offset="0.925781" stop-color="#F1F1F1"/>
<stop offset="0.929688" stop-color="#F0F0F0"/>
<stop offset="0.945312" stop-color="#EFEFEF"/>
<stop offset="0.957031" stop-color="#EFEFEF"/>
<stop offset="0.964844" stop-color="#EFEFEF"/>
<stop offset="0.96875" stop-color="#EEEEEE"/>
<stop offset="0.984375" stop-color="#EDEDED"/>
<stop offset="1" stop-color="#EDEDED"/>
</radialGradient>
<radialGradient id="paint6_radial_2_3" cx="0" cy="0" r="1" gradientTransform="matrix(-27.3512 -4.89467 -4.99001 29.3621 174.912 171.217)" gradientUnits="userSpaceOnUse">
<stop stop-color="white"/>
<stop offset="0.125" stop-color="white"/>
<stop offset="0.179688" stop-color="#FEFFFE"/>
<stop offset="0.183594" stop-color="#FEFFFE"/>
<stop offset="0.1875" stop-color="#FEFFFD"/>
<stop offset="0.191406" stop-color="#FDFEFD"/>
<stop offset="0.195312" stop-color="#FDFEFC"/>
<stop offset="0.199219" stop-color="#FDFEFB"/>
<stop offset="0.210938" stop-color="#FDFEFB"/>
<stop offset="0.214844" stop-color="#FDFEFA"/>
<stop offset="0.21875" stop-color="#FCFDF9"/>
<stop offset="0.222656" stop-color="#FCFDF9"/>
<stop offset="0.234375" stop-color="#FBFDF8"/>
<stop offset="0.238281" stop-color="#FBFDF7"/>
<stop offset="0.242188" stop-color="#FAFDF7"/>
<stop offset="0.246094" stop-color="#FAFDF6"/>
<stop offset="0.25" stop-color="#FAFDF6"/>
<stop offset="0.253906" stop-color="#F9FCF5"/>
<stop offset="0.261719" stop-color="#F9FCF5"/>
<stop offset="0.265625" stop-color="#F8FCF4"/>
<stop offset="0.269531" stop-color="#F8FCF3"/>
<stop offset="0.277344" stop-color="#F7FBF2"/>
<stop offset="0.285156" stop-color="#F7FBF2"/>
<stop offset="0.289062" stop-color="#F7FBF1"/>
<stop offset="0.292969" stop-color="#F6FBF1"/>
<stop offset="0.296875" stop-color="#F6FBF0"/>
<stop offset="0.300781" stop-color="#F6FBEF"/>
<stop offset="0.304688" stop-color="#F5FAEF"/>
<stop offset="0.308594" stop-color="#F5FAEE"/>
<stop offset="0.316406" stop-color="#F4FAED"/>
<stop offset="0.324219" stop-color="#F4FAED"/>
<stop offset="0.328125" stop-color="#F3F9EC"/>
<stop offset="0.332031" stop-color="#F3F9EB"/>
<stop offset="0.339844" stop-color="#F3F9EA"/>
<stop offset="0.347656" stop-color="#F3F9EA"/>
<stop offset="0.351562" stop-color="#F3F9E9"/>
<stop offset="0.355469" stop-color="#F2F8E8"/>
<stop offset="0.359375" stop-color="#F2F8E8"/>
<stop offset="0.367188" stop-color="#F1F8E7"/>
<stop offset="0.375" stop-color="#F1F8E6"/>
<stop offset="0.378906" stop-color="#F0F8E6"/>
<stop offset="0.382812" stop-color="#F0F8E5"/>
<stop offset="0.390625" stop-color="#EFF7E4"/>
<stop offset="0.398438" stop-color="#EFF7E4"/>
<stop offset="0.402344" stop-color="#EEF7E3"/>
<stop offset="0.40625" stop-color="#EEF7E2"/>
<stop offset="0.414062" stop-color="#EDF6E1"/>
<stop offset="0.421875" stop-color="#EDF6E1"/>
<stop offset="0.425781" stop-color="#EDF6E0"/>
<stop offset="0.429688" stop-color="#ECF6E0"/>
<stop offset="0.433594" stop-color="#ECF6DF"/>
<stop offset="0.441406" stop-color="#EBF5DE"/>
<stop offset="0.449219" stop-color="#EBF5DD"/>
<stop offset="0.453125" stop-color="#EAF5DD"/>
<stop offset="0.457031" stop-color="#EAF5DC"/>
<stop offset="0.464844" stop-color="#EAF4DB"/>
<stop offset="0.472656" stop-color="#EAF4DB"/>
<stop offset="0.476562" stop-color="#EAF4DA"/>
<stop offset="0.480469" stop-color="#E9F4D9"/>
<stop offset="0.484375" stop-color="#E9F4D9"/>
<stop offset="0.492188" stop-color="#E8F3D8"/>
<stop offset="0.5" stop-color="#E8F3D7"/>
<stop offset="0.503906" stop-color="#E7F3D7"/>
<stop offset="0.507812" stop-color="#E7F3D6"/>
<stop offset="0.511719" stop-color="#E7F3D6"/>
<stop offset="0.515625" stop-color="#E6F3D5"/>
<stop offset="0.519531" stop-color="#E6F3D5"/>
<stop offset="0.523438" stop-color="#E6F3D5"/>
<stop offset="0.527344" stop-color="#E5F2D4"/>
<stop offset="0.53125" stop-color="#E5F2D3"/>
<stop offset="0.535156" stop-color="#E5F2D3"/>
<stop offset="0.546875" stop-color="#E4F2D2"/>
<stop offset="0.550781" stop-color="#E4F2D1"/>
<stop offset="0.554688" stop-color="#E3F1D1"/>
<stop offset="0.558594" stop-color="#E3F1D0"/>
<stop offset="0.5625" stop-color="#E3F1CF"/>
<stop offset="0.566406" stop-color="#E2F1CF"/>
<stop offset="0.570312" stop-color="#E2F1CE"/>
<stop offset="0.574219" stop-color="#E2F1CE"/>
<stop offset="0.578125" stop-color="#E1F0CD"/>
<stop offset="0.582031" stop-color="#E1F0CD"/>
<stop offset="0.585938" stop-color="#E1F0CD"/>
<stop offset="0.589844" stop-color="#E0F0CC"/>
<stop offset="0.59375" stop-color="#E0F0CB"/>
<stop offset="0.597656" stop-color="#E0F0CB"/>
<stop offset="0.609375" stop-color="#E0EFCA"/>
<stop offset="0.613281" stop-color="#E0EFC9"/>
<stop offset="0.617188" stop-color="#DFEFC9"/>
<stop offset="0.621094" stop-color="#DFEFC8"/>
<stop offset="0.625" stop-color="#DFEFC8"/>
<stop offset="0.628906" stop-color="#DEEFC7"/>
<stop offset="0.636719" stop-color="#DEEFC6"/>
<stop offset="0.640625" stop-color="#DDEEC6"/>
<stop offset="0.644531" stop-color="#DDEEC5"/>
<stop offset="0.652344" stop-color="#DCEEC4"/>
<stop offset="0.660156" stop-color="#DCEEC4"/>
<stop offset="0.664062" stop-color="#DCEEC3"/>
<stop offset="0.667969" stop-color="#DBEDC2"/>
<stop offset="0.675781" stop-color="#DAEDC1"/>
<stop offset="0.683594" stop-color="#DAEDC1"/>
<stop offset="0.6875" stop-color="#DAEDC0"/>
<stop offset="0.691406" stop-color="#D9ECC0"/>
<stop offset="0.695312" stop-color="#D9ECBF"/>
<stop offset="0.703125" stop-color="#D8ECBE"/>
<stop offset="0.710938" stop-color="#D8ECBD"/>
<stop offset="0.714844" stop-color="#D7EBBD"/>
<stop offset="0.71875" stop-color="#D7EBBC"/>
<stop offset="0.726562" stop-color="#D7EBBB"/>
<stop offset="0.734375" stop-color="#D7EBBB"/>
<stop offset="0.738281" stop-color="#D7EBBA"/>
<stop offset="0.742188" stop-color="#D6EAB9"/>
<stop offset="0.746094" stop-color="#D6EAB9"/>
<stop offset="0.753906" stop-color="#D5EAB8"/>
<stop offset="0.757812" stop-color="#D5EAB8"/>
<stop offset="0.761719" stop-color="#D5EAB7"/>
<stop offset="0.765625" stop-color="#D4EAB7"/>
<stop offset="0.769531" stop-color="#D4EAB6"/>
<stop offset="0.773438" stop-color="#D3E9B5"/>
<stop offset="0.785156" stop-color="#D3E9B5"/>
<stop offset="0.789062" stop-color="#D2E9B4"/>
<stop offset="0.792969" stop-color="#D2E9B3"/>
<stop offset="0.796875" stop-color="#D2E9B3"/>
<stop offset="0.808594" stop-color="#D1E8B2"/>
<stop offset="0.8125" stop-color="#D1E8B1"/>
<stop offset="0.816406" stop-color="#D0E8B1"/>
<stop offset="0.820312" stop-color="#D0E8B0"/>
<stop offset="0.824219" stop-color="#D0E8AF"/>
<stop offset="0.828125" stop-color="#CFE7AF"/>
<stop offset="0.832031" stop-color="#CFE7AE"/>
<stop offset="0.839844" stop-color="#CEE7AD"/>
<stop offset="0.847656" stop-color="#CEE7AD"/>
<stop offset="0.851562" stop-color="#CDE6AC"/>
<stop offset="0.855469" stop-color="#CDE6AB"/>
<stop offset="0.863281" stop-color="#CDE6AA"/>
<stop offset="0.871094" stop-color="#CDE6AA"/>
<stop offset="0.875" stop-color="#CDE6A9"/>
<stop offset="0.878906" stop-color="#CCE5A9"/>
<stop offset="0.882812" stop-color="#CCE5A8"/>
<stop offset="0.886719" stop-color="#CCE5A8"/>
<stop offset="0.890625" stop-color="#CBE5A7"/>
<stop offset="0.894531" stop-color="#CBE5A7"/>
<stop offset="0.898438" stop-color="#CBE5A6"/>
<stop offset="0.902344" stop-color="#CAE5A6"/>
<stop offset="0.90625" stop-color="#CAE5A5"/>
<stop offset="0.910156" stop-color="#CAE5A5"/>
<stop offset="0.917969" stop-color="#C9E4A4"/>
<stop offset="0.925781" stop-color="#C9E4A3"/>
<stop offset="0.929688" stop-color="#C8E4A2"/>
<stop offset="0.9375" stop-color="#C7E3A1"/>
<stop offset="0.945312" stop-color="#C7E3A1"/>
<stop offset="0.949219" stop-color="#C7E3A0"/>
<stop offset="0.953125" stop-color="#C6E39F"/>
<stop offset="1" stop-color="#C6E39F"/>
</radialGradient>
</defs>
</svg>
