<svg width="449" height="413" viewBox="0 0 449 413" fill="none" xmlns="http://www.w3.org/2000/svg">
<path d="M98.5256 177.713C82.6858 124.521 49.9123 98.0215 24.1037 114.553C-1.70878 131.072 7.6506 222.674 89.1897 190.143C94.385 184.232 98.5256 177.713 98.5256 177.713Z" fill="#B58A68"/>
<path d="M24.1037 114.553C15.217 120.24 10.4982 134.842 11.4631 150.213C16.7912 189.451 59.8068 195.693 64.2639 185.24C67.6857 177.201 41.3303 173.873 43.01 166.713C43.842 163.182 54.2834 165.084 55.0959 163.471C57.4045 158.932 16.9826 143.471 29.3264 132.854C53.6818 112.861 78.842 158.264 94.1975 183.924C96.8068 180.424 98.5256 177.713 98.5256 177.713C82.6857 124.521 49.9123 98.0215 24.1037 114.553Z" fill="#C39C79"/>
<path d="M24.1037 114.553C19.4514 117.521 15.9631 122.951 13.8068 129.631C17.0724 122.971 21.9748 117.682 29.5724 116.131C55.4553 110.361 72.0607 132.084 88.3342 151.432C70.9787 116.322 45.217 101.033 24.1037 114.553Z" fill="#D8BAA0"/>
<path d="M39.1857 110.322C34.049 110.502 29.0959 112.111 24.4436 115.084C13.0842 122.354 8.62715 144.99 14.7287 164.502C21.3029 185.572 37.674 197.193 59.6193 196.4C68.4592 196.084 78.2795 193.803 88.8147 189.604C93.3147 184.463 97.0373 178.842 97.8303 177.611C85.5256 136.533 61.9826 109.502 39.1857 110.322ZM59.674 197.674H59.6662C37.0959 198.482 20.2717 186.533 13.51 164.881C7.26387 144.873 11.9514 121.572 23.76 114.014C28.5998 110.912 33.7756 109.24 39.1428 109.053C62.5764 108.201 86.6857 135.721 99.135 177.533L99.217 177.811L99.0647 178.053C99.0217 178.123 94.8381 184.682 89.674 190.561L89.5686 190.674L89.424 190.732C78.7053 195.014 68.6897 197.354 59.674 197.674Z" fill="#87674C"/>
<path d="M86.131 189.103L84.506 187.572C84.3068 187.381 63.7951 168.084 54.9474 166.553C54.9474 166.553 61.756 167.853 65.7131 170.541C72.8342 175.361 80.4748 182.143 83.756 185.15C76.7951 159.932 65.4904 142.271 51.799 135.283C44.5607 131.592 29.3264 132.853 29.3264 132.853C36.9318 129.893 44.9045 130.342 52.3771 134.15C66.7756 141.502 78.5646 160.252 85.5607 186.951L86.131 189.103Z" fill="#87674C"/>
<path d="M345.709 170.291C357.666 116.092 388.436 87.3028 415.373 101.912C442.311 116.533 439.588 208.572 355.908 182.014C350.307 176.482 345.709 170.291 345.709 170.291Z" fill="#B58A68"/>
<path d="M415.373 101.912C424.651 106.951 430.412 121.174 430.553 136.572C428.076 176.092 385.623 185.424 380.424 175.311C376.428 167.553 402.471 162.322 400.279 155.303C399.197 151.842 388.92 154.49 387.99 152.951C385.365 148.584 424.565 130.24 411.483 120.541C385.756 102.361 363.932 149.471 350.467 176.162C347.619 172.861 345.709 170.291 345.709 170.291C357.666 116.092 388.436 87.3028 415.373 101.912Z" fill="#C39C79"/>
<path d="M415.373 101.912C420.229 104.541 424.108 109.701 426.733 116.221C422.998 109.811 417.725 104.881 410.033 103.893C383.807 100.002 368.811 122.861 353.975 143.334C368.748 107.061 393.342 89.9512 415.373 101.912Z" fill="#D8BAA0"/>
<path d="M346.389 170.131C347.272 171.303 351.393 176.643 356.248 181.451C367.057 184.861 377.014 186.432 385.854 186.111C407.815 185.322 423.295 172.541 428.334 151.061C433.006 131.162 426.932 108.9 415.072 102.471C410.221 99.8418 405.158 98.6035 400.029 98.7832C377.229 99.6113 355.697 128.264 346.389 170.131ZM355.717 182.611L355.576 182.572L355.467 182.463C349.885 176.963 345.24 170.732 345.194 170.662L345.022 170.432L345.084 170.15C354.487 127.553 376.541 98.3613 399.975 97.5137C405.342 97.3223 410.623 98.6113 415.678 101.354C428.002 108.041 434.369 130.943 429.572 151.354C424.389 173.432 408.475 186.572 385.901 187.393H385.897C376.873 187.713 366.721 186.104 355.717 182.611Z" fill="#87674C"/>
<path d="M358.901 180.752L360.397 179.111C360.588 178.9 379.651 158.162 388.365 156.014C388.365 156.014 381.67 157.803 377.92 160.764C371.162 166.092 364.029 173.4 360.967 176.631C366.096 150.982 376.096 132.553 389.252 124.592C396.205 120.381 411.483 120.541 411.483 120.541C403.686 118.143 395.772 119.174 388.588 123.514C374.76 131.881 364.354 151.432 359.303 178.561L358.901 180.752Z" fill="#87674C"/>
<path d="M210.28 2.09182C178.506 -0.998023 168.686 1.47073 170.885 3.5137C173.08 5.56057 196.526 8.9512 196.526 8.9512C150.701 8.49026 75.5295 83.7325 78.4865 185.432C29.424 209.272 -0.865025 268.9 0.658412 273.092C2.18576 277.272 14.3967 262.842 14.3967 262.842C6.67013 283.9 2.59982 301.014 5.74044 305.143C8.88497 309.283 20.3772 292.443 20.3772 292.443C31.7522 344.072 66.674 418.322 225.053 410.9C383.436 403.482 438.983 313.662 434.229 279.693C436.487 282.381 447.885 297.123 448.076 293.611C448.268 290.111 441.502 261.4 433.533 252.143C438.83 258.002 445.717 259.182 445.838 258.061C445.955 256.951 422.069 199.111 363.94 175.123C361.256 118.592 321.604 12.9239 210.28 2.09182Z" fill="#1A1A1A"/>
<path d="M445.838 258.061C445.955 256.951 422.069 199.111 363.94 175.123C361.256 118.592 321.604 12.9239 210.279 2.09182C178.506 -0.998023 168.686 1.47073 170.885 3.5137C173.08 5.56057 196.526 8.9512 196.526 8.9512C194.865 8.93167 193.19 9.02151 191.514 9.19338C181.487 16.7207 163.342 25.2403 167.279 34.4434C167.346 36.3223 185.19 23.7832 193.893 18.0918C182.58 30.334 174.807 39.834 172.225 46.4317C172.248 47.1309 172.276 47.834 172.303 48.6231C172.779 49.0606 173.252 49.4434 173.721 49.7715C182.233 48.7403 191.252 41.1231 193.358 32.5918C196.127 38.8535 195.041 43.9824 195.272 50.334C195.178 47.791 193.815 45.291 192.455 42.8028C187.803 46.5528 181.072 54.8809 173.721 49.7715C173.256 49.8223 172.807 49.8731 172.35 49.8926C172.334 49.4239 172.319 49.0137 172.303 48.6231C172.276 47.834 172.248 47.1309 172.225 46.4317C171.787 46.8418 171.373 47.1817 170.983 47.3926C97.6506 86.9512 103.529 159.061 104.186 181.674C59.674 197.674 19.6779 241.631 21.2053 245.822C22.7326 250.002 41.2014 235.764 41.2014 235.764C28.4592 247.041 11.2639 278.162 14.4006 282.291C17.5451 286.432 28.1623 262.342 28.1623 262.342C22.01 315.014 67.3615 395.162 225.737 387.74C384.119 380.322 432.061 301.604 427.311 267.623C429.561 270.311 441.572 283.752 441.76 280.252C441.955 276.74 431.256 247.752 423.287 238.49C428.588 244.354 445.717 259.182 445.838 258.061Z" fill="#262626"/>
<path d="M364.276 175.272C361.565 175.834 355.315 171.174 352.815 172.541C409.623 194.943 438.748 247.752 445.221 256.311C441.151 246.342 416.69 197.061 364.276 175.272Z" fill="#51504F"/>
<path d="M210.279 2.09176C181.287 -0.728555 170.584 1.08395 170.596 2.97066C216.944 -1.18949 262.002 15.4316 299.393 44.0332C322.705 62.5918 338.006 87.1035 350.053 113.463C330.221 62.7324 287.494 9.60348 210.279 2.09176Z" fill="#51504F"/>
<path d="M190.815 21.4629C190.338 21.9824 189.873 22.4902 189.416 23.002C189.955 22.5527 190.401 22.0215 190.815 21.4629Z" fill="#3D3D3D"/>
<path d="M192.936 18.7207C193.268 18.502 193.584 18.291 193.893 18.0918C192.834 19.2402 191.807 20.3613 190.815 21.4629C190.401 22.0215 189.955 22.5527 189.416 23.002C180.936 32.4512 175.01 40.0332 172.553 45.6504C172.612 46.6816 172.459 47.6504 172.303 48.623C172.643 48.9316 172.979 49.2012 173.311 49.4629C177.065 35.8027 190.092 29.0215 196.615 17.1934C194.912 17.2637 193.803 17.8809 192.936 18.7207Z" fill="#51504F"/>
<path d="M193.205 8.44336C193.713 8.52148 194.174 8.60352 194.592 8.66211C194.733 8.55273 194.881 8.45117 195.026 8.3418C194.471 8.37305 193.846 8.40039 193.205 8.44336Z" fill="#3D3D3D"/>
<path d="M195.248 46.8613C195.928 48.9512 196.631 51.0215 197.901 52.7832C198.51 47.6738 197.069 38.4004 195.518 30.8223C194.612 32.8105 195.268 33.8809 194.338 35.291C195.498 39.2637 195.299 42.8926 195.248 46.8613Z" fill="#51504F"/>
<path d="M191.514 9.19336C181.486 16.7207 163.342 25.2402 167.279 34.4434C167.287 34.623 167.44 34.6621 167.721 34.623C171.455 22.3926 191.826 13.6035 196.623 8.32227C195.76 8.36133 192.381 9.10352 191.514 9.19336Z" fill="#51504F"/>
<path d="M172.553 45.6504C172.44 45.9121 172.322 46.1816 172.225 46.4316C172.248 47.1309 172.276 47.834 172.303 48.623C172.459 47.6504 172.612 46.6816 172.553 45.6504Z" fill="#3D3D3D"/>
<path d="M173.721 49.7715C173.252 49.4434 172.779 49.0605 172.303 48.623C172.319 49.0137 172.334 49.4238 172.35 49.8926C172.807 49.873 173.256 49.8223 173.721 49.7715Z" fill="#262626"/>
<path d="M20.6818 290.873L20.9943 292.311C39.4357 376.002 104.471 414.65 219.819 410.482C221.545 410.424 223.268 410.354 225.026 410.264C336.303 405.053 389.35 360.354 411.069 334.182C430.088 311.264 435.178 291.053 433.604 279.783L433.299 277.584L434.717 279.283C435.037 279.662 435.541 280.283 436.17 281.061C442.342 288.713 446.123 292.873 447.428 293.451C447.346 289.283 440.826 261.592 433.053 252.561L434.006 251.721C438.264 256.424 443.326 257.861 444.983 257.803L445.131 257.791C443.666 254.033 420.635 199.201 363.697 175.713L363.326 175.561L363.303 175.15C360.291 111.533 317.029 13.1036 210.217 2.72076C198.244 1.5606 188.143 1.07232 181.026 1.34185C173.721 1.60357 171.526 2.57232 171.24 2.97076L171.315 3.05279C172.811 4.44341 187.631 7.02154 196.623 8.32232C196.623 8.32232 193.889 9.6231 192.533 9.73248C169.494 11.6231 140.737 31.3536 118.69 60.6231C91.8732 96.2208 77.8186 140.553 79.1232 185.424L79.1311 185.834L78.7639 186.014C28.6193 210.373 0.174024 269.74 1.25605 272.873C1.36934 273.174 1.50996 273.221 1.74434 273.213C4.0334 273.131 10.4162 266.553 13.9084 262.432L16.2287 259.682L14.9904 263.061C6.74824 285.533 3.48262 301.123 6.24434 304.764C6.46699 305.053 6.73262 305.174 7.0959 305.162C10.3186 305.041 17.3928 295.682 19.8498 292.084L20.6818 290.873ZM219.865 411.752C151.819 414.213 100.123 401.342 66.2014 373.514C43.01 354.471 27.9084 328.451 20.0725 293.99C17.635 297.4 10.9357 306.291 7.14277 306.432C6.36152 306.463 5.70527 306.15 5.23652 305.522C1.24434 300.272 8.33809 277.951 12.6584 265.764C9.63496 269.092 4.4084 274.393 1.79512 274.482C0.963086 274.522 0.353711 274.104 0.0646484 273.303C-1.5916 268.764 28.6897 209.143 77.842 185.053C75.2639 89.4434 142.783 14.3614 190.463 8.66216C183.237 7.49029 172.061 5.48248 170.447 3.98248C169.815 3.38092 169.944 2.79107 170.022 2.5606C170.553 1.15045 174.24 0.310603 180.979 0.072321C188.154 -0.19721 198.307 0.291071 210.342 1.46295C272.139 7.46295 308.639 42.6504 328.377 71.1036C352.998 106.611 363.197 147.803 364.557 174.693C421.209 198.272 446.733 255.693 446.467 258.131C446.432 258.463 446.201 259.033 445.029 259.072C443.295 259.131 440.108 258.174 436.904 255.943C443.604 267.674 448.908 290.092 448.709 293.643C448.67 294.463 448.166 294.772 447.709 294.783C446.205 294.842 442.924 291.451 435.178 281.861L435.072 281.732C435.819 293.584 430.197 313.123 412.049 334.99C390.201 361.334 336.846 406.303 225.084 411.533C223.319 411.623 221.592 411.693 219.865 411.752Z" fill="black"/>
<path d="M197.998 53.2324L197.772 53.2129C195.787 52.834 194.631 43.6113 193.994 35.291C190.69 39.3535 180.244 51.5527 174.737 51.5215C173.658 51.5137 172.783 51.0723 172.151 50.2324C168.967 45.9629 177.553 35.3926 184.209 28.2832C179.096 31.873 172.639 35.6816 168.92 35.1035C167.815 34.9316 166.979 34.4004 166.428 33.5215C165.768 32.4629 165.76 31.1426 166.401 29.5918C169.518 22.123 188.557 9.7207 194.592 8.35352C194.592 8.35352 190.03 11.4707 186.584 13.5215C179.022 18.002 169.588 25.2637 167.576 30.084C167.1 31.2207 167.08 32.1621 167.51 32.8535C167.854 33.4004 168.381 33.7324 169.115 33.8535C175.225 34.791 190.811 21.6113 190.967 21.4824C190.967 21.4824 187.518 26.6035 184.901 29.4316C178.166 36.7012 170.705 46.1621 173.174 49.4629C173.569 49.9902 174.065 50.2402 174.752 50.252L174.885 50.2402C179.842 50.0605 190.342 37.9434 194.002 33.2402L195.026 31.9238L195.135 33.584C195.709 41.6113 196.936 50.6934 197.987 51.9004C199.147 50.8535 201.373 42.2637 202.83 34.6113C202.83 34.6113 203.166 39.5527 202.291 43.1309C201.209 47.5723 199.819 52.2012 198.6 53.0332C198.381 53.1816 198.17 53.2207 197.998 53.2324Z" fill="black"/>
<path d="M210.951 72.6738C150.944 74.8418 112.576 145.881 122.381 199.123C24.7951 192.662 -35.7557 387.24 213.162 391.822C338.119 394.123 393.236 343.432 402.936 292.74C412.557 242.463 377.486 192.182 321.557 193.623C321.592 147.811 280.338 70.1738 210.951 72.6738Z" fill="#B58A68"/>
<path d="M210.951 72.6738C150.944 74.8418 117.76 148.553 127.569 201.791C29.9865 195.334 -22.1268 371.193 215.268 374.764C332.674 376.521 387.311 330.361 398.494 284.201C409.643 238.193 377.619 192.174 321.557 193.623C321.592 147.811 280.338 70.1738 210.951 72.6738Z" fill="#C39C79"/>
<path d="M219.94 310.322C219.455 297.092 219.022 284.99 218.549 271.893C215.002 283.99 214.854 297.771 219.94 310.322Z" fill="#D8BAA0"/>
<path d="M169.608 319.131C186.389 320.721 203.424 317.49 220.705 316.662C231.072 316.174 269.959 321.232 278.721 317.104C258.557 314.49 238.526 311.213 218.99 311.471C202.295 311.682 185.791 318.061 169.608 319.131Z" fill="#D8BAA0"/>
<path d="M322.936 193.604C320.615 194.061 318.268 194.123 316.303 194.854C338.037 197.881 358.604 203.502 375.725 219.432C395.608 238.811 401.928 263.924 403.444 289.752C411.084 240.9 376.959 193.033 322.936 193.604Z" fill="#D8BAA0"/>
<path d="M305.112 134.701C278.151 82.334 231.287 71.9434 210.951 72.6739C202.549 72.9825 194.565 74.6426 187.072 77.4004C211.498 71.2637 262.408 70.8223 305.112 134.701Z" fill="#D8BAA0"/>
<path d="M115.08 199.643C73.0139 201.174 37.8264 240.541 38.217 285.623C38.467 313.002 52.381 338.041 77.4045 356.111C108.112 378.291 153.791 390.104 213.174 391.182C220.944 391.322 228.639 391.264 236.045 391.002H236.08C292.108 388.971 337.342 374.881 366.893 350.24C391.623 329.631 404.752 302.342 403.862 273.4C402.643 234.041 373.389 192.924 321.572 194.264L320.92 194.272V193.623C320.936 168.533 307.819 128.834 278.959 100.971C259.287 81.9825 235.776 72.4122 210.975 73.3106C187.303 74.1622 164.963 86.2325 148.069 107.272C127.342 133.111 117.502 169.123 123.006 199.002L123.158 199.811L122.338 199.752C119.924 199.592 117.483 199.561 115.08 199.643ZM236.127 392.264C228.643 392.553 220.959 392.604 213.147 392.463C153.506 391.361 107.584 379.482 76.6662 357.143C51.299 338.822 37.1935 313.432 36.9475 285.643C36.5451 239.881 72.3029 199.924 115.033 198.373C117.217 198.303 119.424 198.322 121.615 198.443C116.358 168.361 126.311 132.361 147.084 106.482C164.209 85.1426 186.885 72.9004 210.932 72.0411C236.088 71.1231 259.912 80.8223 279.846 100.061C308.721 127.943 321.987 167.592 322.19 192.971C344.975 192.553 365.916 200.873 381.24 216.443C395.975 231.412 404.455 251.631 405.131 273.361C406.037 302.701 392.748 330.354 367.713 351.221C337.932 376.033 292.428 390.232 236.127 392.264Z" fill="#87674C"/>
<path d="M284.022 175.334C283.287 195.701 269.104 211.721 252.342 211.111C235.576 210.514 222.58 193.521 223.319 173.15C224.045 152.791 238.24 136.771 254.998 137.381C271.756 137.971 284.748 154.982 284.022 175.334Z" fill="#AF8A6B"/>
<path d="M281.436 176.334C280.748 195.514 267.615 210.584 252.119 210.033C236.623 209.482 224.612 193.482 225.299 174.322C225.983 155.15 239.115 140.053 254.604 140.611C270.112 141.174 282.112 157.174 281.436 176.334Z" fill="#8E6F59"/>
<mask id="mask0_2_10" style="mask-type:luminance" maskUnits="userSpaceOnUse" x="227" y="142" width="54" height="68">
<path d="M227.279 142.912H280.279V209.912H227.279V142.912Z" fill="white"/>
</mask>
<g mask="url(#mask0_2_10)">
<mask id="mask1_2_10" style="mask-type:luminance" maskUnits="userSpaceOnUse" x="227" y="143" width="53" height="67">
<path d="M253.279 209.201C252.221 209.201 251.143 209.111 250.096 208.943C237.147 206.822 227.404 192.752 227.451 176.221C227.467 167.424 230.213 159.162 235.147 152.932C240.072 146.752 246.592 143.354 253.494 143.354C253.502 143.354 253.514 143.354 253.526 143.354C254.643 143.354 255.74 143.443 256.826 143.611C269.776 145.721 279.518 159.791 279.483 176.334C279.436 194.471 267.76 209.201 253.436 209.201C253.42 209.201 253.401 209.201 253.381 209.201C253.35 209.201 253.315 209.201 253.279 209.201ZM253.717 153.541C253.483 153.541 253.252 153.553 253.014 153.561C241.783 154.053 233.217 166.264 233.854 180.791C234.483 195.033 243.725 206.252 254.631 206.252C254.861 206.252 255.096 206.24 255.33 206.232C266.553 205.74 275.135 193.541 274.479 179.002C274.236 173.432 272.678 168.334 270.221 164.182C269.869 162.104 268.522 160.381 266.697 159.514C263.115 155.771 258.584 153.541 253.717 153.541Z" fill="white"/>
</mask>
<g mask="url(#mask1_2_10)">
<mask id="mask2_2_10" style="mask-type:luminance" maskUnits="userSpaceOnUse" x="227" y="143" width="53" height="67">
<path d="M253.279 209.201C252.221 209.201 251.143 209.111 250.096 208.943C237.147 206.822 227.404 192.752 227.451 176.221C227.467 167.424 230.213 159.162 235.147 152.932C240.072 146.752 246.592 143.354 253.494 143.354C253.502 143.354 253.514 143.354 253.526 143.354C254.643 143.354 255.74 143.443 256.826 143.611C269.776 145.721 279.518 159.791 279.483 176.334C279.436 194.471 267.76 209.201 253.436 209.201C253.42 209.201 253.401 209.201 253.381 209.201C253.35 209.201 253.315 209.201 253.279 209.201ZM253.717 153.541C253.483 153.541 253.252 153.553 253.014 153.561C241.783 154.053 233.217 166.264 233.854 180.791C234.483 195.033 243.725 206.252 254.631 206.252C254.861 206.252 255.096 206.24 255.33 206.232C266.553 205.74 275.135 193.541 274.479 179.002C274.236 173.432 272.678 168.334 270.221 164.182C269.869 162.104 268.522 160.381 266.697 159.514C263.115 155.771 258.584 153.541 253.717 153.541Z" fill="white"/>
</mask>
<g mask="url(#mask2_2_10)">
<path d="M279.67 143.354L279.518 209.322L227.252 209.201L227.404 143.232L279.67 143.354Z" fill="url(#paint0_radial_2_10)"/>
</g>
</g>
</g>
<path d="M253.526 143.354C246.612 143.334 240.08 146.74 235.147 152.932C230.213 159.162 227.467 167.424 227.451 176.221C227.405 192.752 237.147 206.822 250.096 208.943C251.178 209.111 252.291 209.201 253.381 209.201C267.729 209.232 279.436 194.49 279.483 176.334C279.518 159.791 269.776 145.721 256.826 143.611C255.74 143.443 254.643 143.354 253.526 143.354ZM226.276 176.221C226.291 167.143 229.131 158.592 234.268 152.15C239.432 145.701 246.276 142.15 253.545 142.174C254.694 142.182 255.877 142.264 257.014 142.463C270.522 144.674 280.69 159.221 280.647 176.342C280.608 195.131 268.377 210.412 253.377 210.381C252.24 210.373 251.041 210.271 249.908 210.104C236.389 207.893 226.24 193.334 226.276 176.221Z" fill="#4F2102"/>
<mask id="mask3_2_10" style="mask-type:luminance" maskUnits="userSpaceOnUse" x="233" y="152" width="43" height="55">
<path d="M233.279 152.912H275.279V206.912H233.279V152.912Z" fill="white"/>
</mask>
<g mask="url(#mask3_2_10)">
<mask id="mask4_2_10" style="mask-type:luminance" maskUnits="userSpaceOnUse" x="233" y="153" width="42" height="54">
<path d="M254.631 206.252C243.725 206.252 234.483 195.033 233.854 180.791C233.217 166.264 241.783 154.053 253.014 153.561C253.252 153.553 253.483 153.541 253.717 153.541C258.584 153.541 263.115 155.771 266.697 159.514C265.861 159.104 264.924 158.881 263.936 158.881C263.865 158.881 263.795 158.881 263.725 158.881C260.912 158.982 258.584 160.861 257.811 163.412C256.588 163.021 255.307 162.811 253.99 162.811C253.861 162.811 253.729 162.811 253.6 162.822C245.397 163.072 239.022 171.373 239.346 181.342C239.647 191.15 246.342 198.932 254.369 198.932C254.498 198.932 254.627 198.924 254.76 198.924C262.967 198.662 269.35 190.354 269.037 180.4C268.924 176.951 268.029 173.764 266.565 171.072C268.842 170.033 270.393 167.701 270.307 165.053C270.299 164.752 270.268 164.463 270.221 164.182C272.678 168.334 274.236 173.432 274.479 179.002C275.135 193.541 266.553 205.74 255.33 206.232C255.096 206.24 254.861 206.252 254.631 206.252Z" fill="white"/>
</mask>
<g mask="url(#mask4_2_10)">
<mask id="mask5_2_10" style="mask-type:luminance" maskUnits="userSpaceOnUse" x="233" y="153" width="42" height="54">
<path d="M254.631 206.252C243.725 206.252 234.483 195.033 233.854 180.791C233.217 166.264 241.783 154.053 253.014 153.561C253.252 153.553 253.483 153.541 253.717 153.541C258.584 153.541 263.115 155.771 266.697 159.514C265.861 159.104 264.924 158.881 263.936 158.881C263.865 158.881 263.795 158.881 263.725 158.881C260.912 158.982 258.584 160.861 257.811 163.412C256.588 163.021 255.307 162.811 253.99 162.811C253.861 162.811 253.729 162.811 253.6 162.822C245.397 163.072 239.022 171.373 239.346 181.342C239.647 191.15 246.342 198.932 254.369 198.932C254.498 198.932 254.627 198.924 254.76 198.924C262.967 198.662 269.35 190.354 269.037 180.4C268.924 176.951 268.029 173.764 266.565 171.072C268.842 170.033 270.393 167.701 270.307 165.053C270.299 164.752 270.268 164.463 270.221 164.182C272.678 168.334 274.236 173.432 274.479 179.002C275.135 193.541 266.553 205.74 255.33 206.232C255.096 206.24 254.861 206.252 254.631 206.252Z" fill="white"/>
</mask>
<g mask="url(#mask5_2_10)">
<path d="M229.916 153.748L233.381 208.877L278.436 206.045L274.971 150.92L229.916 153.748Z" fill="url(#paint1_radial_2_10)"/>
</g>
</g>
</g>
<path d="M269.037 180.4C269.35 190.354 262.967 198.662 254.76 198.924C246.561 199.182 239.651 191.311 239.346 181.342C239.022 171.373 245.397 163.072 253.6 162.822C261.807 162.561 268.713 170.432 269.037 180.4Z" fill="#231F20"/>
<mask id="mask6_2_10" style="mask-type:luminance" maskUnits="userSpaceOnUse" x="266" y="159" width="5" height="6">
<path d="M266.697 159.514H266.979V159.611H266.697V159.514ZM266.779 159.611H267.178V159.713H266.779V159.611ZM266.881 159.713H267.279V159.811H266.881V159.713ZM266.979 159.811H267.479V159.912H266.979V159.811ZM266.979 159.912H267.58V160.014H266.979V159.912ZM267.08 160.014H267.678V160.111H267.08V160.014ZM267.178 160.111H267.881V160.213H267.178V160.111ZM267.279 160.213H267.979V160.311H267.279V160.213ZM267.381 160.311H268.08V160.412H267.381V160.311ZM267.479 160.412H268.178V160.514H267.479V160.412ZM267.479 160.514H268.279V160.611H267.479V160.514ZM267.58 160.611H268.381V160.713H267.58V160.611ZM267.678 160.713H268.479V160.811H267.678V160.713ZM267.779 160.811H268.58V160.912H267.779V160.811ZM267.881 160.912H268.678V161.014H267.881V160.912ZM267.979 161.014H268.779V161.111H267.979V161.014ZM267.979 161.111H268.881V161.213H267.979V161.111ZM268.08 161.213H268.979V161.311H268.08V161.213ZM268.178 161.311H269.08V161.412H268.178V161.311ZM268.279 161.412H269.178V161.514H268.279V161.412ZM268.381 161.514H269.178V161.611H268.381V161.514ZM268.479 161.611H269.279V161.811H268.479V161.611ZM268.58 161.811H269.381V161.912H268.58V161.811ZM268.678 161.912H269.381V162.014H268.678V161.912ZM268.678 162.014H269.479V162.111H268.678V162.014ZM268.779 162.111H269.58V162.213H268.779V162.111ZM268.881 162.213H269.58V162.311H268.881V162.213ZM268.979 162.311H269.678V162.514H268.979V162.311ZM269.08 162.514H269.779V162.611H269.08V162.514ZM269.178 162.611H269.881V162.811H269.178V162.611ZM269.279 162.811H269.881V162.912H269.279V162.811ZM269.381 162.912H269.979V163.111H269.381V162.912ZM269.479 163.111H269.979V163.213H269.479V163.111ZM269.58 163.213H270.08V163.412H269.58V163.213ZM269.678 163.412H270.08V163.514H269.678V163.412ZM269.779 163.514H270.178V163.713H269.779V163.514ZM269.881 163.713H270.178V163.811H269.881V163.713ZM269.979 163.811H270.178V163.912H269.979V163.811ZM269.979 163.912H270.221V164.014H269.979V163.912ZM270.08 164.014H270.221V164.182H270.08V164.014Z" fill="white"/>
</mask>
<g mask="url(#mask6_2_10)">
<mask id="mask7_2_10" style="mask-type:luminance" maskUnits="userSpaceOnUse" x="266" y="159" width="5" height="6">
<path d="M270.221 164.182C269.194 162.443 268.01 160.873 266.697 159.514C268.522 160.381 269.869 162.104 270.221 164.182Z" fill="white"/>
</mask>
<g mask="url(#mask7_2_10)">
<path d="M270.229 159.514L270.221 164.189L266.686 164.182L266.697 159.506L270.229 159.514Z" fill="url(#paint2_radial_2_10)"/>
</g>
</g>
<mask id="mask8_2_10" style="mask-type:luminance" maskUnits="userSpaceOnUse" x="257" y="157" width="15" height="15">
<path d="M257.279 157.912H271.279V171.912H257.279V157.912Z" fill="white"/>
</mask>
<g mask="url(#mask8_2_10)">
<mask id="mask9_2_10" style="mask-type:luminance" maskUnits="userSpaceOnUse" x="257" y="158" width="14" height="14">
<path d="M266.565 171.072C264.541 167.342 261.432 164.572 257.811 163.412C258.584 160.861 260.912 158.982 263.725 158.881C263.795 158.881 263.865 158.881 263.936 158.881C264.924 158.881 265.862 159.104 266.697 159.514C268.01 160.873 269.194 162.443 270.221 164.182C270.268 164.463 270.299 164.752 270.307 165.053C270.393 167.701 268.842 170.033 266.565 171.072Z" fill="white"/>
</mask>
<g mask="url(#mask9_2_10)">
<mask id="mask10_2_10" style="mask-type:luminance" maskUnits="userSpaceOnUse" x="257" y="158" width="14" height="14">
<path d="M266.565 171.072C264.541 167.342 261.432 164.572 257.811 163.412C258.584 160.861 260.912 158.982 263.725 158.881C263.795 158.881 263.865 158.881 263.936 158.881C264.924 158.881 265.862 159.104 266.697 159.514C268.01 160.873 269.194 162.443 270.221 164.182C270.268 164.463 270.299 164.752 270.307 165.053C270.393 167.701 268.842 170.033 266.565 171.072Z" fill="white"/>
</mask>
<g mask="url(#mask10_2_10)">
<path d="M257.049 158.932L257.862 171.861L271.154 171.025L270.346 158.096L257.049 158.932Z" fill="url(#paint3_radial_2_10)"/>
</g>
</g>
</g>
<path d="M263.932 171.643C260.502 171.643 257.654 168.932 257.541 165.471C257.518 164.752 257.615 164.061 257.811 163.412C261.432 164.572 264.541 167.342 266.565 171.072C265.819 171.412 264.994 171.611 264.123 171.643C264.061 171.643 263.994 171.643 263.932 171.643Z" fill="#918F90"/>
<path d="M278.49 131.24C275.194 118.092 258.01 110.123 250.291 120.311C272.713 121.291 278.49 131.24 278.49 131.24Z" fill="#421302"/>
<path d="M250.768 120.092C268.869 120.971 276.053 127.811 278.065 130.24C275.647 122.65 268.256 116.463 260.721 115.943C256.713 115.662 253.194 117.131 250.768 120.092ZM278.401 131.381C278.35 131.283 272.401 121.502 250.33 120.533L249.92 120.521L250.213 120.123C252.717 116.834 256.471 115.162 260.764 115.471C268.764 116.021 276.654 122.912 278.717 131.15L279.069 132.514L278.401 131.381Z" fill="#230901"/>
<path d="M196.686 176.674C196.729 197.06 183.166 213.603 166.401 213.631C149.615 213.674 135.983 197.193 135.94 176.822C135.889 156.451 149.467 139.893 166.24 139.861C183.002 139.822 196.639 156.322 196.686 176.674Z" fill="#AF8A6B"/>
<path d="M194.135 177.771C194.182 196.963 181.635 212.533 166.135 212.561C150.623 212.592 138.014 197.084 137.971 177.893C137.928 158.721 150.471 143.15 165.975 143.111C181.486 143.072 194.092 158.603 194.135 177.771Z" fill="#8E6F59"/>
<mask id="mask11_2_10" style="mask-type:luminance" maskUnits="userSpaceOnUse" x="139" y="144" width="54" height="68">
<path d="M139.279 144.912H192.279V211.912H139.279V144.912Z" fill="white"/>
</mask>
<g mask="url(#mask11_2_10)">
<mask id="mask12_2_10" style="mask-type:luminance" maskUnits="userSpaceOnUse" x="140" y="145" width="53" height="67">
<path d="M166.6 211.701C165.752 211.701 164.904 211.65 164.072 211.553C151.045 209.943 140.776 196.24 140.19 179.713C139.881 170.932 142.295 162.572 146.998 156.162C151.694 149.771 158.088 146.131 164.998 145.893C165.264 145.881 165.529 145.873 165.795 145.873C166.639 145.873 167.483 145.932 168.307 146.021C181.33 147.631 191.592 161.322 192.186 177.842C192.826 196.002 181.705 211.182 167.373 211.693C167.115 211.701 166.858 211.701 166.6 211.701ZM165.709 154.393C165.272 154.393 164.834 154.412 164.397 154.443C153.19 155.373 145.088 167.881 146.279 182.393C147.44 196.334 156.764 207.041 167.412 207.041C167.846 207.041 168.279 207.021 168.717 206.99C179.904 206.061 188.014 193.553 186.811 179.041C185.67 165.104 176.365 154.393 165.709 154.393Z" fill="white"/>
</mask>
<g mask="url(#mask12_2_10)">
<mask id="mask13_2_10" style="mask-type:luminance" maskUnits="userSpaceOnUse" x="140" y="145" width="53" height="67">
<path d="M166.6 211.701C165.752 211.701 164.904 211.65 164.072 211.553C151.045 209.943 140.776 196.24 140.19 179.713C139.881 170.932 142.295 162.572 146.998 156.162C151.694 149.771 158.088 146.131 164.998 145.893C165.264 145.881 165.529 145.873 165.795 145.873C166.639 145.873 167.483 145.932 168.307 146.021C181.33 147.631 191.592 161.322 192.186 177.842C192.826 196.002 181.705 211.182 167.373 211.693C167.115 211.701 166.858 211.701 166.6 211.701ZM165.709 154.393C165.272 154.393 164.834 154.412 164.397 154.443C153.19 155.373 145.088 167.881 146.279 182.393C147.44 196.334 156.764 207.041 167.412 207.041C167.846 207.041 168.279 207.021 168.717 206.99C179.904 206.061 188.014 193.553 186.811 179.041C185.67 165.104 176.365 154.393 165.709 154.393Z" fill="white"/>
</mask>
<g mask="url(#mask13_2_10)">
<path d="M192.76 143.979L195.182 211.619L139.947 213.596L137.526 145.955L192.76 143.979Z" fill="url(#paint4_radial_2_10)"/>
</g>
</g>
</g>
<path d="M164.998 145.893C158.088 146.131 151.694 149.771 146.998 156.162C142.295 162.572 139.881 170.932 140.19 179.713C140.776 196.24 151.045 209.943 164.072 211.553C165.158 211.682 166.272 211.732 167.373 211.693C181.705 211.182 192.826 196.002 192.186 177.842C191.592 161.322 181.33 147.631 168.307 146.021C167.225 145.9 166.108 145.842 164.998 145.893ZM139.014 179.764C138.69 170.693 141.201 162.033 146.096 155.424C150.998 148.771 157.705 144.971 164.967 144.713C166.123 144.662 167.299 144.713 168.451 144.861C182.029 146.553 192.744 160.713 193.35 177.803C194.029 196.592 182.393 212.334 167.404 212.873C166.26 212.912 165.072 212.853 163.924 212.713C150.334 211.021 139.623 196.861 139.014 179.764Z" fill="#4F2102"/>
<mask id="mask14_2_10" style="mask-type:luminance" maskUnits="userSpaceOnUse" x="145" y="153" width="43" height="55">
<path d="M145.279 153.912H187.279V207.912H145.279V153.912Z" fill="white"/>
</mask>
<g mask="url(#mask14_2_10)">
<mask id="mask15_2_10" style="mask-type:luminance" maskUnits="userSpaceOnUse" x="146" y="154" width="41" height="54">
<path d="M167.412 207.041C156.764 207.041 147.44 196.334 146.279 182.393C145.088 167.881 153.19 155.373 164.397 154.443C164.834 154.412 165.272 154.393 165.709 154.393C176.365 154.393 185.67 165.104 186.811 179.041C188.014 193.553 179.904 206.061 168.717 206.99C168.279 207.021 167.846 207.041 167.412 207.041ZM167.072 164.24C166.787 164.24 166.502 164.252 166.213 164.271C158.041 164.842 151.967 173.373 152.674 183.334C153.338 192.912 160.065 200.334 167.877 200.334C168.166 200.334 168.455 200.322 168.748 200.303C176.936 199.713 183.002 191.182 182.303 181.24C182.084 178.131 181.229 175.252 179.908 172.771C181.584 171.443 182.549 169.303 182.264 167.033C181.893 163.791 179.151 161.4 175.971 161.4C175.713 161.4 175.451 161.412 175.19 161.451C173.069 161.701 171.319 162.951 170.354 164.682C169.291 164.393 168.194 164.24 167.072 164.24Z" fill="white"/>
</mask>
<g mask="url(#mask15_2_10)">
<mask id="mask16_2_10" style="mask-type:luminance" maskUnits="userSpaceOnUse" x="146" y="154" width="41" height="54">
<path d="M167.412 207.041C156.764 207.041 147.44 196.334 146.279 182.393C145.088 167.881 153.19 155.373 164.397 154.443C164.834 154.412 165.272 154.393 165.709 154.393C176.365 154.393 185.67 165.104 186.811 179.041C188.014 193.553 179.904 206.061 168.717 206.99C168.279 207.021 167.846 207.041 167.412 207.041ZM167.072 164.24C166.787 164.24 166.502 164.252 166.213 164.271C158.041 164.842 151.967 173.373 152.674 183.334C153.338 192.912 160.065 200.334 167.877 200.334C168.166 200.334 168.455 200.322 168.748 200.303C176.936 199.713 183.002 191.182 182.303 181.24C182.084 178.131 181.229 175.252 179.908 172.771C181.584 171.443 182.549 169.303 182.264 167.033C181.893 163.791 179.151 161.4 175.971 161.4C175.713 161.4 175.451 161.412 175.19 161.451C173.069 161.701 171.319 162.951 170.354 164.682C169.291 164.393 168.194 164.24 167.072 164.24Z" fill="white"/>
</mask>
<g mask="url(#mask16_2_10)">
<path d="M139.815 154.928L145.526 211.342L193.287 206.51L187.576 150.092L139.815 154.928Z" fill="url(#paint5_radial_2_10)"/>
</g>
</g>
</g>
<path d="M182.303 181.24C183.002 191.182 176.936 199.713 168.748 200.303C160.569 200.873 153.362 193.264 152.674 183.334C151.967 173.373 158.041 164.842 166.213 164.271C174.401 163.701 181.608 171.303 182.303 181.24Z" fill="#231F20"/>
<mask id="mask17_2_10" style="mask-type:luminance" maskUnits="userSpaceOnUse" x="170" y="160" width="14" height="13">
<path d="M170.279 160.912H183.279V172.912H170.279V160.912Z" fill="white"/>
</mask>
<g mask="url(#mask17_2_10)">
<mask id="mask18_2_10" style="mask-type:luminance" maskUnits="userSpaceOnUse" x="170" y="161" width="13" height="12">
<path d="M179.908 172.771C177.737 168.713 174.303 165.752 170.354 164.682C171.319 162.951 173.069 161.701 175.19 161.451C175.451 161.412 175.713 161.4 175.971 161.4C179.151 161.4 181.893 163.791 182.264 167.033C182.549 169.303 181.584 171.443 179.908 172.771Z" fill="white"/>
</mask>
<g mask="url(#mask18_2_10)">
<mask id="mask19_2_10" style="mask-type:luminance" maskUnits="userSpaceOnUse" x="170" y="161" width="13" height="12">
<path d="M179.908 172.771C177.737 168.713 174.303 165.752 170.354 164.682C171.319 162.951 173.069 161.701 175.19 161.451C175.451 161.412 175.713 161.4 175.971 161.4C179.151 161.4 181.893 163.791 182.264 167.033C182.549 169.303 181.584 171.443 179.908 172.771Z" fill="white"/>
</mask>
<g mask="url(#mask19_2_10)">
<path d="M169.213 161.518L170.479 173.994L183.686 172.658L182.424 160.182L169.213 161.518Z" fill="url(#paint6_radial_2_10)"/>
</g>
</g>
</g>
<path d="M175.94 174.162C172.752 174.162 169.979 171.791 169.592 168.533C169.428 167.143 169.721 165.811 170.354 164.682C174.303 165.752 177.737 168.713 179.908 172.771C179.006 173.49 177.901 173.982 176.674 174.123C176.428 174.15 176.182 174.162 175.94 174.162Z" fill="#918F90"/>
<path d="M141.686 132.463C143.131 118.982 159.053 108.713 168.108 117.732C146.033 121.822 141.686 132.463 141.686 132.463Z" fill="#421302"/>
<path d="M157.217 114.861C149.846 116.412 143.369 123.561 142.029 131.412C143.678 128.732 149.862 120.971 167.658 117.584C164.846 114.99 161.158 114.021 157.217 114.861ZM141.35 133.803L141.506 132.412C142.412 123.971 149.268 116.053 157.115 114.381C161.33 113.49 165.268 114.623 168.213 117.541L168.553 117.893L168.154 117.971C146.428 121.982 141.889 132.49 141.85 132.592L141.35 133.803Z" fill="#230901"/>
<path d="M215.791 227.303C189.674 208.732 157.912 210.311 149.526 224.603C141.131 238.9 169.623 263.264 219.67 261.521C280.158 259.4 295.033 227.213 278.111 215.502C255.096 199.584 215.791 227.303 215.791 227.303Z" fill="#381905"/>
<path d="M240.885 256.123C205.697 264.041 158.635 251.131 149.588 224.514L149.526 224.604C141.131 238.9 169.623 263.264 219.67 261.521C266.276 259.893 285.783 240.412 284.549 226.201C274.432 241.451 258.959 251.99 240.885 256.123Z" fill="#56280F"/>
<path d="M276.455 242.732C267.303 251.771 249.319 259.811 219.862 260.873L219.651 260.881C189.901 261.924 168.143 253.803 157.026 244.143C156.838 244.541 159.881 248.021 161.936 249.334C174.276 257.182 194.092 263.053 219.694 262.15H219.908V262.143C243.651 261.291 260.088 255.893 270.526 249.041C272.944 247.451 276.545 243.193 276.455 242.732Z" fill="#87674C"/>
<path d="M278.112 215.502C255.096 199.584 215.791 227.303 215.791 227.303C189.674 208.732 157.912 210.311 149.526 224.603C145.53 231.412 149.908 240.49 160.975 247.951C157.877 233.103 166.733 215.842 211.768 261.572C214.338 261.623 216.967 261.611 219.67 261.521C221.619 261.443 223.518 261.353 225.369 261.221C265.42 210.861 276.944 229.533 275.006 244.861C287.084 234.471 287.377 221.924 278.112 215.502Z" fill="#C39C79"/>
<path d="M278.112 215.502C255.096 199.584 215.791 227.303 215.791 227.303C189.924 208.9 158.526 210.283 149.787 224.213C170.584 213.252 194.287 219.924 214.502 230.342C234.049 219.674 259.885 210.342 280.967 218.014C280.143 217.103 279.197 216.264 278.112 215.502Z" fill="#D8BAA0"/>
<path d="M280.795 218.783C281.143 218.533 276.244 213.561 275.049 212.971C270.526 210.764 265.264 209.752 259.334 209.963C239.897 210.662 218.842 224.463 215.803 226.533C202.854 217.432 187.44 212.521 173.447 213.021C167.483 213.24 162.24 214.424 158.01 216.443C154.135 218.303 150.104 224.072 150.561 224.182C154.502 218.271 162.783 214.682 173.494 214.291C187.346 213.791 202.627 218.721 215.432 227.822L215.791 228.084L216.166 227.822C216.385 227.662 238.846 211.982 259.385 211.24C266.596 210.971 272.772 212.584 277.744 216.033C278.928 216.842 279.936 217.771 280.795 218.783Z" fill="#87674C"/>
<path d="M276.444 242.674C276.229 242.881 276.018 243.092 275.791 243.303C276.135 238.084 274.901 233.443 272.369 230.674C270.518 228.643 268.069 227.662 265.1 227.783C255.74 228.111 241.897 239.463 225.049 260.611C223.295 260.732 221.545 260.811 219.85 260.881H219.651C217.221 260.971 214.725 260.982 212.041 260.943C192.647 241.283 177.623 231.072 168.569 231.4C165.822 231.502 163.662 232.533 162.139 234.471C160.041 237.162 159.315 241.463 160.061 246.451C160.463 247.174 160.783 247.951 161.002 248.74L161.92 249.361L161.6 247.834C160.502 242.592 161.084 237.9 163.143 235.264C164.424 233.623 166.264 232.764 168.612 232.674C174.694 232.451 187.033 237.361 211.315 262.014L211.494 262.201H211.756C214.561 262.264 217.162 262.24 219.694 262.15H219.897C221.697 262.084 223.549 261.99 225.416 261.853L225.694 261.834L225.865 261.623C246.951 235.103 258.862 229.271 265.143 229.041C267.725 228.951 269.834 229.791 271.436 231.533C273.936 234.271 275.061 239.353 274.369 244.783L274.166 246.432C274.166 246.432 276.533 243.15 276.444 242.674Z" fill="#87674C"/>
<path d="M282.705 317.412C271.592 317.811 257.764 316.014 245.1 314.354C235.42 313.092 226.276 311.9 219.572 311.854C213.83 311.803 205.252 313.74 196.186 315.791C174.576 320.674 147.678 326.752 140.885 310.033C134.209 293.611 121.776 282.74 113.467 280.861C111.115 280.322 109.299 280.572 108.209 281.561L107.35 280.623C108.764 279.334 110.975 278.99 113.752 279.623C122.584 281.623 135.151 292.553 142.061 309.553C148.447 325.271 174.76 319.322 195.908 314.553C205.049 312.482 213.682 310.533 219.584 310.572C226.358 310.623 235.541 311.822 245.264 313.092C263.576 315.482 284.326 318.201 295.408 314.061C303.115 311.193 308.041 301.361 312.799 291.842C318.522 280.424 324.432 268.604 335.451 267.451L335.588 268.721C325.26 269.791 319.502 281.291 313.94 292.412C309.061 302.143 304.029 312.213 295.85 315.264C292.287 316.584 287.776 317.221 282.705 317.412Z" fill="#442B19"/>
<path d="M335.651 269.432C331.631 265.342 324.916 261.631 324.916 261.631C328.49 261.514 339.639 268.521 342.174 277.721C342.174 277.721 338.006 271.834 335.651 269.432Z" fill="#442B19"/>
<path d="M105.404 288.24C105.6 285.854 106.467 282.24 107.998 279.002C109.529 275.752 111.725 272.873 114.58 271.943C114.58 271.943 111.588 275.334 110.346 277.322C109.526 278.631 108.838 280.111 108.287 281.592C107.358 284.092 105.404 288.24 105.404 288.24Z" fill="#442B19"/>
<path d="M218.99 311.471C214.889 302.002 215.518 288.643 216.471 277.014C216.58 275.623 216.701 274.264 216.815 272.932C216.936 271.49 218.432 268.881 218.432 268.881C218.326 270.213 218.209 271.604 218.08 273.041C217.022 285.342 215.694 300.662 220.158 310.963L218.99 311.471Z" fill="#442B19"/>
<path d="M221.631 327.99C214.287 328.264 207.041 328.412 200.873 328.393C193.248 328.381 185.057 326.24 185.057 326.24C195.619 328.912 260.174 325.021 263.42 323.443C263.42 323.443 256.627 325.912 248.35 326.541C240.658 327.123 231.065 327.65 221.631 327.99Z" fill="#442B19"/>
<defs>
<radialGradient id="paint0_radial_2_10" cx="0" cy="0" r="1" gradientUnits="userSpaceOnUse" gradientTransform="translate(253.459 176.282) rotate(-179.868) scale(30.2611)">
<stop stop-color="white"/>
<stop offset="0.5" stop-color="white"/>
<stop offset="0.625" stop-color="white"/>
<stop offset="0.648438" stop-color="white"/>
<stop offset="0.65625" stop-color="#FEFEFE"/>
<stop offset="0.664062" stop-color="#FDFDFD"/>
<stop offset="0.671875" stop-color="#FCFCFC"/>
<stop offset="0.679688" stop-color="#FBFBFB"/>
<stop offset="0.6875" stop-color="#FBFBFB"/>
<stop offset="0.695312" stop-color="#FAFAFA"/>
<stop offset="0.703125" stop-color="#F9F9F9"/>
<stop offset="0.710938" stop-color="#F8F8F8"/>
<stop offset="0.71875" stop-color="#F7F7F7"/>
<stop offset="0.726562" stop-color="#F7F7F7"/>
<stop offset="0.734375" stop-color="#F6F6F6"/>
<stop offset="0.742188" stop-color="#F5F5F5"/>
<stop offset="0.75" stop-color="#F4F4F4"/>
<stop offset="0.757812" stop-color="#F3F3F3"/>
<stop offset="0.761719" stop-color="#F3F3F3"/>
<stop offset="0.765625" stop-color="#F3F3F3"/>
<stop offset="0.769531" stop-color="#F2F2F2"/>
<stop offset="0.773438" stop-color="#F2F2F2"/>
<stop offset="0.777344" stop-color="#F1F1F1"/>
<stop offset="0.78125" stop-color="#F1F1F1"/>
<stop offset="0.785156" stop-color="#F1F1F1"/>
<stop offset="0.789062" stop-color="#F0F0F0"/>
<stop offset="0.792969" stop-color="#F0F0F0"/>
<stop offset="0.796875" stop-color="#EFEFEF"/>
<stop offset="0.800781" stop-color="#EFEFEF"/>
<stop offset="0.804688" stop-color="#EEEEEE"/>
<stop offset="0.808594" stop-color="#EEEEEE"/>
<stop offset="0.8125" stop-color="#EEEEEE"/>
<stop offset="0.816406" stop-color="#EDEDED"/>
<stop offset="0.824219" stop-color="#ECECEC"/>
<stop offset="0.832031" stop-color="#EBEBEB"/>
<stop offset="0.839844" stop-color="#EBEBEB"/>
<stop offset="0.847656" stop-color="#EAEAEA"/>
<stop offset="0.855469" stop-color="#E9E9E9"/>
<stop offset="0.863281" stop-color="#E8E8E8"/>
<stop offset="0.871094" stop-color="#E7E7E7"/>
<stop offset="0.878906" stop-color="#E7E7E7"/>
<stop offset="0.882812" stop-color="#E6E6E6"/>
<stop offset="0.886719" stop-color="#E6E6E6"/>
<stop offset="0.890625" stop-color="#E5E5E5"/>
<stop offset="0.894531" stop-color="#E5E5E5"/>
<stop offset="0.898438" stop-color="#E5E5E5"/>
<stop offset="0.902344" stop-color="#E4E4E4"/>
<stop offset="0.90625" stop-color="#E4E4E4"/>
<stop offset="0.910156" stop-color="#E3E3E3"/>
<stop offset="0.917969" stop-color="#E2E2E2"/>
<stop offset="0.925781" stop-color="#E1E1E1"/>
<stop offset="0.933594" stop-color="#E1E1E1"/>
<stop offset="0.941406" stop-color="#E0E0E0"/>
<stop offset="0.945312" stop-color="#E0E0E0"/>
<stop offset="0.949219" stop-color="#DFDFDF"/>
<stop offset="0.953125" stop-color="#DFDFDF"/>
<stop offset="0.957031" stop-color="#DEDEDE"/>
<stop offset="0.964844" stop-color="#DDDDDD"/>
<stop offset="0.972656" stop-color="#DDDDDD"/>
<stop offset="0.976562" stop-color="#DCDCDC"/>
<stop offset="0.980469" stop-color="#DCDCDC"/>
<stop offset="0.988281" stop-color="#DBDBDB"/>
<stop offset="0.992188" stop-color="#DADADA"/>
<stop offset="1" stop-color="#DADADA"/>
</radialGradient>
<radialGradient id="paint1_radial_2_10" cx="0" cy="0" r="1" gradientUnits="userSpaceOnUse" gradientTransform="translate(254.167 179.892) rotate(-3.59456) scale(23.5421)">
<stop stop-color="white"/>
<stop offset="0.125" stop-color="white"/>
<stop offset="0.152344" stop-color="white"/>
<stop offset="0.175781" stop-color="#FEFFFE"/>
<stop offset="0.179688" stop-color="#FEFEFD"/>
<stop offset="0.183594" stop-color="#FDFEFC"/>
<stop offset="0.1875" stop-color="#FDFEFB"/>
<stop offset="0.191406" stop-color="#FCFEFA"/>
<stop offset="0.195312" stop-color="#FCFDF9"/>
<stop offset="0.199219" stop-color="#FBFDF8"/>
<stop offset="0.203125" stop-color="#FAFDF7"/>
<stop offset="0.207031" stop-color="#FAFCF6"/>
<stop offset="0.210938" stop-color="#F9FCF5"/>
<stop offset="0.214844" stop-color="#F9FCF4"/>
<stop offset="0.21875" stop-color="#F8FCF3"/>
<stop offset="0.222656" stop-color="#F8FBF2"/>
<stop offset="0.226562" stop-color="#F7FBF2"/>
<stop offset="0.230469" stop-color="#F6FBF1"/>
<stop offset="0.234375" stop-color="#F6FAF0"/>
<stop offset="0.238281" stop-color="#F5FAEF"/>
<stop offset="0.242188" stop-color="#F5FAEE"/>
<stop offset="0.246094" stop-color="#F4FAED"/>
<stop offset="0.25" stop-color="#F4F9EC"/>
<stop offset="0.253906" stop-color="#F3F9EB"/>
<stop offset="0.257812" stop-color="#F2F9EA"/>
<stop offset="0.261719" stop-color="#F2F8E9"/>
<stop offset="0.265625" stop-color="#F1F8E8"/>
<stop offset="0.269531" stop-color="#F1F8E7"/>
<stop offset="0.273438" stop-color="#F0F8E6"/>
<stop offset="0.277344" stop-color="#F0F7E5"/>
<stop offset="0.28125" stop-color="#EFF7E4"/>
<stop offset="0.285156" stop-color="#EFF7E3"/>
<stop offset="0.289062" stop-color="#EEF6E2"/>
<stop offset="0.292969" stop-color="#EDF6E1"/>
<stop offset="0.296875" stop-color="#EDF6E0"/>
<stop offset="0.300781" stop-color="#ECF6DF"/>
<stop offset="0.304688" stop-color="#ECF5DE"/>
<stop offset="0.308594" stop-color="#EBF5DD"/>
<stop offset="0.3125" stop-color="#EBF5DD"/>
<stop offset="0.316406" stop-color="#EAF4DC"/>
<stop offset="0.320312" stop-color="#E9F4DB"/>
<stop offset="0.324219" stop-color="#E9F4DA"/>
<stop offset="0.328125" stop-color="#E8F4D9"/>
<stop offset="0.332031" stop-color="#E8F3D8"/>
<stop offset="0.335938" stop-color="#E7F3D7"/>
<stop offset="0.339844" stop-color="#E7F3D6"/>
<stop offset="0.34375" stop-color="#E6F3D5"/>
<stop offset="0.347656" stop-color="#E5F2D4"/>
<stop offset="0.351562" stop-color="#E5F2D3"/>
<stop offset="0.355469" stop-color="#E4F2D2"/>
<stop offset="0.359375" stop-color="#E4F1D1"/>
<stop offset="0.363281" stop-color="#E3F1D0"/>
<stop offset="0.367188" stop-color="#E3F1CF"/>
<stop offset="0.371094" stop-color="#E2F1CE"/>
<stop offset="0.375" stop-color="#E1F0CD"/>
<stop offset="0.378906" stop-color="#E1F0CC"/>
<stop offset="0.382812" stop-color="#E0F0CB"/>
<stop offset="0.386719" stop-color="#E0EFCA"/>
<stop offset="0.390625" stop-color="#DFEFC9"/>
<stop offset="0.394531" stop-color="#DFEFC8"/>
<stop offset="0.398438" stop-color="#DEEFC8"/>
<stop offset="0.402344" stop-color="#DEEEC7"/>
<stop offset="0.40625" stop-color="#DDEEC6"/>
<stop offset="0.410156" stop-color="#DCEEC5"/>
<stop offset="0.414062" stop-color="#DCEDC4"/>
<stop offset="0.417969" stop-color="#DBEDC3"/>
<stop offset="0.421875" stop-color="#DBEDC2"/>
<stop offset="0.425781" stop-color="#DAEDC1"/>
<stop offset="0.429688" stop-color="#DAECC0"/>
<stop offset="0.433594" stop-color="#D9ECBF"/>
<stop offset="0.4375" stop-color="#D8ECBE"/>
<stop offset="0.441406" stop-color="#D8EBBD"/>
<stop offset="0.445312" stop-color="#D7EBBC"/>
<stop offset="0.449219" stop-color="#D7EBBB"/>
<stop offset="0.453125" stop-color="#D6EBBA"/>
<stop offset="0.457031" stop-color="#D6EAB9"/>
<stop offset="0.460938" stop-color="#D5EAB8"/>
<stop offset="0.464844" stop-color="#D4EAB7"/>
<stop offset="0.46875" stop-color="#D4E9B6"/>
<stop offset="0.472656" stop-color="#D3E9B5"/>
<stop offset="0.476562" stop-color="#D3E9B4"/>
<stop offset="0.480469" stop-color="#D2E9B3"/>
<stop offset="0.484375" stop-color="#D2E8B3"/>
<stop offset="0.488281" stop-color="#D1E8B2"/>
<stop offset="0.492188" stop-color="#D0E8B1"/>
<stop offset="0.496094" stop-color="#D0E7B0"/>
<stop offset="0.5" stop-color="#CFE7AF"/>
<stop offset="0.503906" stop-color="#CFE7AE"/>
<stop offset="0.507812" stop-color="#CEE7AD"/>
<stop offset="0.511719" stop-color="#CEE6AC"/>
<stop offset="0.515625" stop-color="#CDE6AB"/>
<stop offset="0.519531" stop-color="#CDE6AA"/>
<stop offset="0.523438" stop-color="#CCE5A9"/>
<stop offset="0.527344" stop-color="#CBE5A8"/>
<stop offset="0.53125" stop-color="#CBE5A7"/>
<stop offset="0.535156" stop-color="#CAE5A6"/>
<stop offset="0.539062" stop-color="#CAE4A5"/>
<stop offset="0.542969" stop-color="#C9E4A4"/>
<stop offset="0.546875" stop-color="#C9E4A3"/>
<stop offset="0.550781" stop-color="#C8E3A2"/>
<stop offset="0.554688" stop-color="#C7E3A1"/>
<stop offset="0.558594" stop-color="#C7E3A0"/>
<stop offset="0.5625" stop-color="#C6E39F"/>
<stop offset="0.566406" stop-color="#C6E29E"/>
<stop offset="0.570312" stop-color="#C5E29E"/>
<stop offset="0.574219" stop-color="#C5E29D"/>
<stop offset="0.578125" stop-color="#C4E19C"/>
<stop offset="0.582031" stop-color="#C3E19B"/>
<stop offset="0.585938" stop-color="#C3E19A"/>
<stop offset="0.589844" stop-color="#C2E199"/>
<stop offset="0.59375" stop-color="#C2E098"/>
<stop offset="0.597656" stop-color="#C1E097"/>
<stop offset="0.601562" stop-color="#C1E096"/>
<stop offset="0.605469" stop-color="#C0E095"/>
<stop offset="0.609375" stop-color="#BFDF94"/>
<stop offset="0.613281" stop-color="#BFDF93"/>
<stop offset="0.617188" stop-color="#BEDF92"/>
<stop offset="0.621094" stop-color="#BEDE91"/>
<stop offset="0.625" stop-color="#BDDE90"/>
<stop offset="0.628906" stop-color="#BDDE8F"/>
<stop offset="0.632812" stop-color="#BCDE8E"/>
<stop offset="0.636719" stop-color="#BBDD8D"/>
<stop offset="0.640625" stop-color="#BBDD8C"/>
<stop offset="0.644531" stop-color="#BADD8B"/>
<stop offset="0.648438" stop-color="#BADC8A"/>
<stop offset="0.652344" stop-color="#B9DC89"/>
<stop offset="0.65625" stop-color="#B9DC89"/>
<stop offset="0.660156" stop-color="#B8DC88"/>
<stop offset="0.664062" stop-color="#B8DB87"/>
<stop offset="0.667969" stop-color="#B7DB86"/>
<stop offset="0.671875" stop-color="#B6DB85"/>
<stop offset="0.675781" stop-color="#B6DA84"/>
<stop offset="0.679688" stop-color="#B5DA83"/>
<stop offset="0.683594" stop-color="#B5DA82"/>
<stop offset="0.6875" stop-color="#B4DA81"/>
<stop offset="0.691406" stop-color="#B4D980"/>
<stop offset="0.695312" stop-color="#B3D97F"/>
<stop offset="0.699219" stop-color="#B2D97E"/>
<stop offset="0.703125" stop-color="#B2D87D"/>
<stop offset="0.707031" stop-color="#B1D87C"/>
<stop offset="0.710938" stop-color="#B1D87B"/>
<stop offset="0.714844" stop-color="#B0D87A"/>
<stop offset="0.71875" stop-color="#B0D779"/>
<stop offset="0.722656" stop-color="#AFD778"/>
<stop offset="0.726562" stop-color="#AED777"/>
<stop offset="0.730469" stop-color="#AED676"/>
<stop offset="0.734375" stop-color="#ADD675"/>
<stop offset="0.738281" stop-color="#ADD675"/>
<stop offset="0.742188" stop-color="#ACD674"/>
<stop offset="0.746094" stop-color="#ACD573"/>
<stop offset="0.75" stop-color="#ABD572"/>
<stop offset="0.753906" stop-color="#AAD571"/>
<stop offset="0.757812" stop-color="#AAD470"/>
<stop offset="0.761719" stop-color="#A9D46F"/>
<stop offset="0.765625" stop-color="#A9D46E"/>
<stop offset="0.769531" stop-color="#A8D46D"/>
<stop offset="0.773438" stop-color="#A8D36C"/>
<stop offset="0.777344" stop-color="#A7D36B"/>
<stop offset="0.78125" stop-color="#A7D36A"/>
<stop offset="0.785156" stop-color="#A6D269"/>
<stop offset="0.789062" stop-color="#A5D268"/>
<stop offset="0.792969" stop-color="#A5D267"/>
<stop offset="0.796875" stop-color="#A4D266"/>
<stop offset="0.800781" stop-color="#A4D165"/>
<stop offset="0.804688" stop-color="#A3D164"/>
<stop offset="0.808594" stop-color="#A3D163"/>
<stop offset="0.8125" stop-color="#A2D062"/>
<stop offset="0.816406" stop-color="#A1D061"/>
<stop offset="0.820312" stop-color="#A1D060"/>
<stop offset="0.824219" stop-color="#A0D060"/>
<stop offset="0.828125" stop-color="#A0CF5F"/>
<stop offset="0.832031" stop-color="#9FCF5E"/>
<stop offset="0.835938" stop-color="#9FCF5D"/>
<stop offset="0.839844" stop-color="#9ECF5C"/>
<stop offset="0.84375" stop-color="#9DCE5B"/>
<stop offset="0.847656" stop-color="#9DCE5A"/>
<stop offset="0.851562" stop-color="#9CCE59"/>
<stop offset="0.855469" stop-color="#9CCD58"/>
<stop offset="0.859375" stop-color="#9BCD57"/>
<stop offset="0.863281" stop-color="#9BCD56"/>
<stop offset="0.867188" stop-color="#9ACD55"/>
<stop offset="0.871094" stop-color="#99CC54"/>
<stop offset="0.875" stop-color="#99CC53"/>
<stop offset="0.878906" stop-color="#98CC52"/>
<stop offset="0.882812" stop-color="#98CB51"/>
<stop offset="0.886719" stop-color="#97CB50"/>
<stop offset="0.890625" stop-color="#97CB4F"/>
<stop offset="0.894531" stop-color="#96CB4E"/>
<stop offset="0.898438" stop-color="#96CA4D"/>
<stop offset="0.902344" stop-color="#95CA4C"/>
<stop offset="0.90625" stop-color="#94CA4B"/>
<stop offset="0.910156" stop-color="#94C94B"/>
<stop offset="0.914062" stop-color="#93C94A"/>
<stop offset="0.917969" stop-color="#93C949"/>
<stop offset="0.921875" stop-color="#92C948"/>
<stop offset="0.925781" stop-color="#92C847"/>
<stop offset="0.929688" stop-color="#91C846"/>
<stop offset="0.933594" stop-color="#90C845"/>
<stop offset="0.9375" stop-color="#90C744"/>
<stop offset="0.941406" stop-color="#8FC743"/>
<stop offset="0.945312" stop-color="#8FC742"/>
<stop offset="0.949219" stop-color="#8EC741"/>
<stop offset="0.953125" stop-color="#8EC640"/>
<stop offset="0.957031" stop-color="#8DC63F"/>
<stop offset="1" stop-color="#8DC63F"/>
</radialGradient>
<radialGradient id="paint2_radial_2_10" cx="0" cy="0" r="1" gradientUnits="userSpaceOnUse" gradientTransform="translate(253.459 176.282) rotate(-179.868) scale(30.2611)">
<stop stop-color="white"/>
<stop offset="0.5" stop-color="white"/>
<stop offset="0.625" stop-color="white"/>
<stop offset="0.648438" stop-color="white"/>
<stop offset="0.65625" stop-color="white"/>
<stop offset="0.664062" stop-color="#FEFEFE"/>
<stop offset="0.671875" stop-color="#FEFEFE"/>
<stop offset="0.679688" stop-color="#FDFDFD"/>
<stop offset="0.699219" stop-color="#FDFDFD"/>
<stop offset="0.703125" stop-color="#FCFCFC"/>
<stop offset="0.71875" stop-color="#FBFBFB"/>
<stop offset="0.734375" stop-color="#FBFBFB"/>
<stop offset="0.742188" stop-color="#FAFAFA"/>
<stop offset="0.757812" stop-color="#F9F9F9"/>
<stop offset="0.769531" stop-color="#F9F9F9"/>
<stop offset="0.773438" stop-color="#F8F8F8"/>
<stop offset="0.785156" stop-color="#F8F8F8"/>
<stop offset="0.796875" stop-color="#F7F7F7"/>
<stop offset="0.808594" stop-color="#F7F7F7"/>
<stop offset="0.8125" stop-color="#F6F6F6"/>
<stop offset="0.824219" stop-color="#F6F6F6"/>
<stop offset="0.832031" stop-color="#F6F6F6"/>
<stop offset="0.835938" stop-color="#F5F5F5"/>
<stop offset="0.84375" stop-color="#F5F5F5"/>
<stop offset="0.851562" stop-color="#F4F4F4"/>
<stop offset="0.867188" stop-color="#F4F4F4"/>
<stop offset="0.875" stop-color="#F3F3F3"/>
<stop offset="0.890625" stop-color="#F2F2F2"/>
<stop offset="0.902344" stop-color="#F2F2F2"/>
<stop offset="0.90625" stop-color="#F1F1F1"/>
<stop offset="0.917969" stop-color="#F1F1F1"/>
<stop offset="0.925781" stop-color="#F1F1F1"/>
<stop offset="0.929688" stop-color="#F0F0F0"/>
<stop offset="0.945312" stop-color="#EFEFEF"/>
<stop offset="0.957031" stop-color="#EFEFEF"/>
<stop offset="0.964844" stop-color="#EFEFEF"/>
<stop offset="0.96875" stop-color="#EEEEEE"/>
<stop offset="0.984375" stop-color="#EDEDED"/>
<stop offset="1" stop-color="#EDEDED"/>
</radialGradient>
<radialGradient id="paint3_radial_2_10" cx="0" cy="0" r="1" gradientUnits="userSpaceOnUse" gradientTransform="translate(254.167 179.892) rotate(-3.59456) scale(23.5421)">
<stop stop-color="white"/>
<stop offset="0.125" stop-color="white"/>
<stop offset="0.179688" stop-color="#FEFFFE"/>
<stop offset="0.183594" stop-color="#FEFFFE"/>
<stop offset="0.1875" stop-color="#FEFFFD"/>
<stop offset="0.191406" stop-color="#FDFEFD"/>
<stop offset="0.195312" stop-color="#FDFEFC"/>
<stop offset="0.199219" stop-color="#FDFEFB"/>
<stop offset="0.210938" stop-color="#FDFEFB"/>
<stop offset="0.214844" stop-color="#FDFEFA"/>
<stop offset="0.21875" stop-color="#FCFDF9"/>
<stop offset="0.222656" stop-color="#FCFDF9"/>
<stop offset="0.234375" stop-color="#FBFDF8"/>
<stop offset="0.238281" stop-color="#FBFDF7"/>
<stop offset="0.242188" stop-color="#FAFDF7"/>
<stop offset="0.246094" stop-color="#FAFDF6"/>
<stop offset="0.25" stop-color="#FAFDF6"/>
<stop offset="0.253906" stop-color="#F9FCF5"/>
<stop offset="0.261719" stop-color="#F9FCF5"/>
<stop offset="0.265625" stop-color="#F8FCF4"/>
<stop offset="0.269531" stop-color="#F8FCF3"/>
<stop offset="0.277344" stop-color="#F7FBF2"/>
<stop offset="0.285156" stop-color="#F7FBF2"/>
<stop offset="0.289062" stop-color="#F7FBF1"/>
<stop offset="0.292969" stop-color="#F6FBF1"/>
<stop offset="0.296875" stop-color="#F6FBF0"/>
<stop offset="0.300781" stop-color="#F6FBEF"/>
<stop offset="0.304688" stop-color="#F5FAEF"/>
<stop offset="0.308594" stop-color="#F5FAEE"/>
<stop offset="0.316406" stop-color="#F4FAED"/>
<stop offset="0.324219" stop-color="#F4FAED"/>
<stop offset="0.328125" stop-color="#F3F9EC"/>
<stop offset="0.332031" stop-color="#F3F9EB"/>
<stop offset="0.339844" stop-color="#F3F9EA"/>
<stop offset="0.347656" stop-color="#F3F9EA"/>
<stop offset="0.351562" stop-color="#F3F9E9"/>
<stop offset="0.355469" stop-color="#F2F8E8"/>
<stop offset="0.359375" stop-color="#F2F8E8"/>
<stop offset="0.367188" stop-color="#F1F8E7"/>
<stop offset="0.375" stop-color="#F1F8E6"/>
<stop offset="0.378906" stop-color="#F0F8E6"/>
<stop offset="0.382812" stop-color="#F0F8E5"/>
<stop offset="0.390625" stop-color="#EFF7E4"/>
<stop offset="0.398438" stop-color="#EFF7E4"/>
<stop offset="0.402344" stop-color="#EEF7E3"/>
<stop offset="0.40625" stop-color="#EEF7E2"/>
<stop offset="0.414062" stop-color="#EDF6E1"/>
<stop offset="0.421875" stop-color="#EDF6E1"/>
<stop offset="0.425781" stop-color="#EDF6E0"/>
<stop offset="0.429688" stop-color="#ECF6E0"/>
<stop offset="0.433594" stop-color="#ECF6DF"/>
<stop offset="0.441406" stop-color="#EBF5DE"/>
<stop offset="0.449219" stop-color="#EBF5DD"/>
<stop offset="0.453125" stop-color="#EAF5DD"/>
<stop offset="0.457031" stop-color="#EAF5DC"/>
<stop offset="0.464844" stop-color="#EAF4DB"/>
<stop offset="0.472656" stop-color="#EAF4DB"/>
<stop offset="0.476562" stop-color="#EAF4DA"/>
<stop offset="0.480469" stop-color="#E9F4D9"/>
<stop offset="0.484375" stop-color="#E9F4D9"/>
<stop offset="0.492188" stop-color="#E8F3D8"/>
<stop offset="0.5" stop-color="#E8F3D7"/>
<stop offset="0.503906" stop-color="#E7F3D7"/>
<stop offset="0.507812" stop-color="#E7F3D6"/>
<stop offset="0.511719" stop-color="#E7F3D6"/>
<stop offset="0.515625" stop-color="#E6F3D5"/>
<stop offset="0.519531" stop-color="#E6F3D5"/>
<stop offset="0.523438" stop-color="#E6F3D5"/>
<stop offset="0.527344" stop-color="#E5F2D4"/>
<stop offset="0.53125" stop-color="#E5F2D3"/>
<stop offset="0.535156" stop-color="#E5F2D3"/>
<stop offset="0.546875" stop-color="#E4F2D2"/>
<stop offset="0.550781" stop-color="#E4F2D1"/>
<stop offset="0.554688" stop-color="#E3F1D1"/>
<stop offset="0.558594" stop-color="#E3F1D0"/>
<stop offset="0.5625" stop-color="#E3F1CF"/>
<stop offset="0.566406" stop-color="#E2F1CF"/>
<stop offset="0.570312" stop-color="#E2F1CE"/>
<stop offset="0.574219" stop-color="#E2F1CE"/>
<stop offset="0.578125" stop-color="#E1F0CD"/>
<stop offset="0.582031" stop-color="#E1F0CD"/>
<stop offset="0.585938" stop-color="#E1F0CD"/>
<stop offset="0.589844" stop-color="#E0F0CC"/>
<stop offset="0.59375" stop-color="#E0F0CB"/>
<stop offset="0.597656" stop-color="#E0F0CB"/>
<stop offset="0.609375" stop-color="#E0EFCA"/>
<stop offset="0.613281" stop-color="#E0EFC9"/>
<stop offset="0.617188" stop-color="#DFEFC9"/>
<stop offset="0.621094" stop-color="#DFEFC8"/>
<stop offset="0.625" stop-color="#DFEFC8"/>
<stop offset="0.628906" stop-color="#DEEFC7"/>
<stop offset="0.636719" stop-color="#DEEFC6"/>
<stop offset="0.640625" stop-color="#DDEEC6"/>
<stop offset="0.644531" stop-color="#DDEEC5"/>
<stop offset="0.652344" stop-color="#DCEEC4"/>
<stop offset="0.660156" stop-color="#DCEEC4"/>
<stop offset="0.664062" stop-color="#DCEEC3"/>
<stop offset="0.667969" stop-color="#DBEDC2"/>
<stop offset="0.675781" stop-color="#DAEDC1"/>
<stop offset="0.683594" stop-color="#DAEDC1"/>
<stop offset="0.6875" stop-color="#DAEDC0"/>
<stop offset="0.691406" stop-color="#D9ECC0"/>
<stop offset="0.695312" stop-color="#D9ECBF"/>
<stop offset="0.703125" stop-color="#D8ECBE"/>
<stop offset="0.710938" stop-color="#D8ECBD"/>
<stop offset="0.714844" stop-color="#D7EBBD"/>
<stop offset="0.71875" stop-color="#D7EBBC"/>
<stop offset="0.726562" stop-color="#D7EBBB"/>
<stop offset="0.734375" stop-color="#D7EBBB"/>
<stop offset="0.738281" stop-color="#D7EBBA"/>
<stop offset="0.742188" stop-color="#D6EAB9"/>
<stop offset="0.746094" stop-color="#D6EAB9"/>
<stop offset="0.753906" stop-color="#D5EAB8"/>
<stop offset="0.757812" stop-color="#D5EAB8"/>
<stop offset="0.761719" stop-color="#D5EAB7"/>
<stop offset="0.765625" stop-color="#D4EAB7"/>
<stop offset="0.769531" stop-color="#D4EAB6"/>
<stop offset="0.773438" stop-color="#D3E9B5"/>
<stop offset="0.785156" stop-color="#D3E9B5"/>
<stop offset="0.789062" stop-color="#D2E9B4"/>
<stop offset="0.792969" stop-color="#D2E9B3"/>
<stop offset="0.796875" stop-color="#D2E9B3"/>
<stop offset="0.808594" stop-color="#D1E8B2"/>
<stop offset="0.8125" stop-color="#D1E8B1"/>
<stop offset="0.816406" stop-color="#D0E8B1"/>
<stop offset="0.820312" stop-color="#D0E8B0"/>
<stop offset="0.824219" stop-color="#D0E8AF"/>
<stop offset="0.828125" stop-color="#CFE7AF"/>
<stop offset="0.832031" stop-color="#CFE7AE"/>
<stop offset="0.839844" stop-color="#CEE7AD"/>
<stop offset="0.847656" stop-color="#CEE7AD"/>
<stop offset="0.851562" stop-color="#CDE6AC"/>
<stop offset="0.855469" stop-color="#CDE6AB"/>
<stop offset="0.863281" stop-color="#CDE6AA"/>
<stop offset="0.871094" stop-color="#CDE6AA"/>
<stop offset="0.875" stop-color="#CDE6A9"/>
<stop offset="0.878906" stop-color="#CCE5A9"/>
<stop offset="0.882812" stop-color="#CCE5A8"/>
<stop offset="0.886719" stop-color="#CCE5A8"/>
<stop offset="0.890625" stop-color="#CBE5A7"/>
<stop offset="0.894531" stop-color="#CBE5A7"/>
<stop offset="0.898438" stop-color="#CBE5A6"/>
<stop offset="0.902344" stop-color="#CAE5A6"/>
<stop offset="0.90625" stop-color="#CAE5A5"/>
<stop offset="0.910156" stop-color="#CAE5A5"/>
<stop offset="0.917969" stop-color="#C9E4A4"/>
<stop offset="0.925781" stop-color="#C9E4A3"/>
<stop offset="0.929688" stop-color="#C8E4A2"/>
<stop offset="0.9375" stop-color="#C7E3A1"/>
<stop offset="0.945312" stop-color="#C7E3A1"/>
<stop offset="0.949219" stop-color="#C7E3A0"/>
<stop offset="0.953125" stop-color="#C6E39F"/>
<stop offset="1" stop-color="#C6E39F"/>
</radialGradient>
<radialGradient id="paint4_radial_2_10" cx="0" cy="0" r="1" gradientUnits="userSpaceOnUse" gradientTransform="translate(166.178 178.782) rotate(177.949) scale(30.2601)">
<stop stop-color="white"/>
<stop offset="0.5" stop-color="white"/>
<stop offset="0.625" stop-color="white"/>
<stop offset="0.648438" stop-color="white"/>
<stop offset="0.65625" stop-color="#FEFEFE"/>
<stop offset="0.664062" stop-color="#FDFDFD"/>
<stop offset="0.671875" stop-color="#FCFCFC"/>
<stop offset="0.679688" stop-color="#FBFBFB"/>
<stop offset="0.6875" stop-color="#FBFBFB"/>
<stop offset="0.695312" stop-color="#FAFAFA"/>
<stop offset="0.703125" stop-color="#F9F9F9"/>
<stop offset="0.710938" stop-color="#F8F8F8"/>
<stop offset="0.71875" stop-color="#F7F7F7"/>
<stop offset="0.726562" stop-color="#F7F7F7"/>
<stop offset="0.734375" stop-color="#F6F6F6"/>
<stop offset="0.742188" stop-color="#F5F5F5"/>
<stop offset="0.75" stop-color="#F4F4F4"/>
<stop offset="0.757812" stop-color="#F3F3F3"/>
<stop offset="0.761719" stop-color="#F3F3F3"/>
<stop offset="0.765625" stop-color="#F3F3F3"/>
<stop offset="0.769531" stop-color="#F2F2F2"/>
<stop offset="0.773438" stop-color="#F2F2F2"/>
<stop offset="0.777344" stop-color="#F1F1F1"/>
<stop offset="0.78125" stop-color="#F1F1F1"/>
<stop offset="0.785156" stop-color="#F1F1F1"/>
<stop offset="0.789062" stop-color="#F0F0F0"/>
<stop offset="0.792969" stop-color="#F0F0F0"/>
<stop offset="0.796875" stop-color="#EFEFEF"/>
<stop offset="0.800781" stop-color="#EFEFEF"/>
<stop offset="0.804688" stop-color="#EEEEEE"/>
<stop offset="0.808594" stop-color="#EEEEEE"/>
<stop offset="0.8125" stop-color="#EEEEEE"/>
<stop offset="0.816406" stop-color="#EDEDED"/>
<stop offset="0.824219" stop-color="#ECECEC"/>
<stop offset="0.832031" stop-color="#EBEBEB"/>
<stop offset="0.839844" stop-color="#EBEBEB"/>
<stop offset="0.847656" stop-color="#EAEAEA"/>
<stop offset="0.855469" stop-color="#E9E9E9"/>
<stop offset="0.863281" stop-color="#E8E8E8"/>
<stop offset="0.871094" stop-color="#E7E7E7"/>
<stop offset="0.878906" stop-color="#E7E7E7"/>
<stop offset="0.882812" stop-color="#E6E6E6"/>
<stop offset="0.886719" stop-color="#E6E6E6"/>
<stop offset="0.890625" stop-color="#E5E5E5"/>
<stop offset="0.894531" stop-color="#E5E5E5"/>
<stop offset="0.898438" stop-color="#E5E5E5"/>
<stop offset="0.902344" stop-color="#E4E4E4"/>
<stop offset="0.90625" stop-color="#E4E4E4"/>
<stop offset="0.910156" stop-color="#E3E3E3"/>
<stop offset="0.917969" stop-color="#E2E2E2"/>
<stop offset="0.925781" stop-color="#E1E1E1"/>
<stop offset="0.933594" stop-color="#E1E1E1"/>
<stop offset="0.941406" stop-color="#E0E0E0"/>
<stop offset="0.945312" stop-color="#E0E0E0"/>
<stop offset="0.949219" stop-color="#DFDFDF"/>
<stop offset="0.953125" stop-color="#DFDFDF"/>
<stop offset="0.957031" stop-color="#DEDEDE"/>
<stop offset="0.964844" stop-color="#DDDDDD"/>
<stop offset="0.972656" stop-color="#DDDDDD"/>
<stop offset="0.976562" stop-color="#DCDCDC"/>
<stop offset="0.980469" stop-color="#DCDCDC"/>
<stop offset="0.988281" stop-color="#DBDBDB"/>
<stop offset="0.992188" stop-color="#DADADA"/>
<stop offset="1" stop-color="#DADADA"/>
</radialGradient>
<radialGradient id="paint5_radial_2_10" cx="0" cy="0" r="1" gradientUnits="userSpaceOnUse" gradientTransform="translate(166.546 180.722) rotate(-5.77959) scale(23.5415)">
<stop stop-color="white"/>
<stop offset="0.125" stop-color="white"/>
<stop offset="0.152344" stop-color="white"/>
<stop offset="0.175781" stop-color="#FEFFFE"/>
<stop offset="0.179688" stop-color="#FEFEFD"/>
<stop offset="0.183594" stop-color="#FDFEFC"/>
<stop offset="0.1875" stop-color="#FDFEFB"/>
<stop offset="0.191406" stop-color="#FCFEFA"/>
<stop offset="0.195312" stop-color="#FCFDF9"/>
<stop offset="0.199219" stop-color="#FBFDF8"/>
<stop offset="0.203125" stop-color="#FAFDF7"/>
<stop offset="0.207031" stop-color="#FAFCF6"/>
<stop offset="0.210938" stop-color="#F9FCF5"/>
<stop offset="0.214844" stop-color="#F9FCF4"/>
<stop offset="0.21875" stop-color="#F8FCF3"/>
<stop offset="0.222656" stop-color="#F8FBF2"/>
<stop offset="0.226562" stop-color="#F7FBF2"/>
<stop offset="0.230469" stop-color="#F6FBF1"/>
<stop offset="0.234375" stop-color="#F6FAF0"/>
<stop offset="0.238281" stop-color="#F5FAEF"/>
<stop offset="0.242188" stop-color="#F5FAEE"/>
<stop offset="0.246094" stop-color="#F4FAED"/>
<stop offset="0.25" stop-color="#F4F9EC"/>
<stop offset="0.253906" stop-color="#F3F9EB"/>
<stop offset="0.257812" stop-color="#F2F9EA"/>
<stop offset="0.261719" stop-color="#F2F8E9"/>
<stop offset="0.265625" stop-color="#F1F8E8"/>
<stop offset="0.269531" stop-color="#F1F8E7"/>
<stop offset="0.273438" stop-color="#F0F8E6"/>
<stop offset="0.277344" stop-color="#F0F7E5"/>
<stop offset="0.28125" stop-color="#EFF7E4"/>
<stop offset="0.285156" stop-color="#EFF7E3"/>
<stop offset="0.289062" stop-color="#EEF6E2"/>
<stop offset="0.292969" stop-color="#EDF6E1"/>
<stop offset="0.296875" stop-color="#EDF6E0"/>
<stop offset="0.300781" stop-color="#ECF6DF"/>
<stop offset="0.304688" stop-color="#ECF5DE"/>
<stop offset="0.308594" stop-color="#EBF5DD"/>
<stop offset="0.3125" stop-color="#EBF5DD"/>
<stop offset="0.316406" stop-color="#EAF4DC"/>
<stop offset="0.320312" stop-color="#E9F4DB"/>
<stop offset="0.324219" stop-color="#E9F4DA"/>
<stop offset="0.328125" stop-color="#E8F4D9"/>
<stop offset="0.332031" stop-color="#E8F3D8"/>
<stop offset="0.335938" stop-color="#E7F3D7"/>
<stop offset="0.339844" stop-color="#E7F3D6"/>
<stop offset="0.34375" stop-color="#E6F3D5"/>
<stop offset="0.347656" stop-color="#E5F2D4"/>
<stop offset="0.351562" stop-color="#E5F2D3"/>
<stop offset="0.355469" stop-color="#E4F2D2"/>
<stop offset="0.359375" stop-color="#E4F1D1"/>
<stop offset="0.363281" stop-color="#E3F1D0"/>
<stop offset="0.367188" stop-color="#E3F1CF"/>
<stop offset="0.371094" stop-color="#E2F1CE"/>
<stop offset="0.375" stop-color="#E1F0CD"/>
<stop offset="0.378906" stop-color="#E1F0CC"/>
<stop offset="0.382812" stop-color="#E0F0CB"/>
<stop offset="0.386719" stop-color="#E0EFCA"/>
<stop offset="0.390625" stop-color="#DFEFC9"/>
<stop offset="0.394531" stop-color="#DFEFC8"/>
<stop offset="0.398438" stop-color="#DEEFC8"/>
<stop offset="0.402344" stop-color="#DEEEC7"/>
<stop offset="0.40625" stop-color="#DDEEC6"/>
<stop offset="0.410156" stop-color="#DCEEC5"/>
<stop offset="0.414062" stop-color="#DCEDC4"/>
<stop offset="0.417969" stop-color="#DBEDC3"/>
<stop offset="0.421875" stop-color="#DBEDC2"/>
<stop offset="0.425781" stop-color="#DAEDC1"/>
<stop offset="0.429688" stop-color="#DAECC0"/>
<stop offset="0.433594" stop-color="#D9ECBF"/>
<stop offset="0.4375" stop-color="#D8ECBE"/>
<stop offset="0.441406" stop-color="#D8EBBD"/>
<stop offset="0.445312" stop-color="#D7EBBC"/>
<stop offset="0.449219" stop-color="#D7EBBB"/>
<stop offset="0.453125" stop-color="#D6EBBA"/>
<stop offset="0.457031" stop-color="#D6EAB9"/>
<stop offset="0.460938" stop-color="#D5EAB8"/>
<stop offset="0.464844" stop-color="#D4EAB7"/>
<stop offset="0.46875" stop-color="#D4E9B6"/>
<stop offset="0.472656" stop-color="#D3E9B5"/>
<stop offset="0.476562" stop-color="#D3E9B4"/>
<stop offset="0.480469" stop-color="#D2E9B3"/>
<stop offset="0.484375" stop-color="#D2E8B3"/>
<stop offset="0.488281" stop-color="#D1E8B2"/>
<stop offset="0.492188" stop-color="#D0E8B1"/>
<stop offset="0.496094" stop-color="#D0E7B0"/>
<stop offset="0.5" stop-color="#CFE7AF"/>
<stop offset="0.503906" stop-color="#CFE7AE"/>
<stop offset="0.507812" stop-color="#CEE7AD"/>
<stop offset="0.511719" stop-color="#CEE6AC"/>
<stop offset="0.515625" stop-color="#CDE6AB"/>
<stop offset="0.519531" stop-color="#CDE6AA"/>
<stop offset="0.523438" stop-color="#CCE5A9"/>
<stop offset="0.527344" stop-color="#CBE5A8"/>
<stop offset="0.53125" stop-color="#CBE5A7"/>
<stop offset="0.535156" stop-color="#CAE5A6"/>
<stop offset="0.539062" stop-color="#CAE4A5"/>
<stop offset="0.542969" stop-color="#C9E4A4"/>
<stop offset="0.546875" stop-color="#C9E4A3"/>
<stop offset="0.550781" stop-color="#C8E3A2"/>
<stop offset="0.554688" stop-color="#C7E3A1"/>
<stop offset="0.558594" stop-color="#C7E3A0"/>
<stop offset="0.5625" stop-color="#C6E39F"/>
<stop offset="0.566406" stop-color="#C6E29E"/>
<stop offset="0.570312" stop-color="#C5E29E"/>
<stop offset="0.574219" stop-color="#C5E29D"/>
<stop offset="0.578125" stop-color="#C4E19C"/>
<stop offset="0.582031" stop-color="#C3E19B"/>
<stop offset="0.585938" stop-color="#C3E19A"/>
<stop offset="0.589844" stop-color="#C2E199"/>
<stop offset="0.59375" stop-color="#C2E098"/>
<stop offset="0.597656" stop-color="#C1E097"/>
<stop offset="0.601562" stop-color="#C1E096"/>
<stop offset="0.605469" stop-color="#C0E095"/>
<stop offset="0.609375" stop-color="#BFDF94"/>
<stop offset="0.613281" stop-color="#BFDF93"/>
<stop offset="0.617188" stop-color="#BEDF92"/>
<stop offset="0.621094" stop-color="#BEDE91"/>
<stop offset="0.625" stop-color="#BDDE90"/>
<stop offset="0.628906" stop-color="#BDDE8F"/>
<stop offset="0.632812" stop-color="#BCDE8E"/>
<stop offset="0.636719" stop-color="#BBDD8D"/>
<stop offset="0.640625" stop-color="#BBDD8C"/>
<stop offset="0.644531" stop-color="#BADD8B"/>
<stop offset="0.648438" stop-color="#BADC8A"/>
<stop offset="0.652344" stop-color="#B9DC89"/>
<stop offset="0.65625" stop-color="#B9DC89"/>
<stop offset="0.660156" stop-color="#B8DC88"/>
<stop offset="0.664062" stop-color="#B8DB87"/>
<stop offset="0.667969" stop-color="#B7DB86"/>
<stop offset="0.671875" stop-color="#B6DB85"/>
<stop offset="0.675781" stop-color="#B6DA84"/>
<stop offset="0.679688" stop-color="#B5DA83"/>
<stop offset="0.683594" stop-color="#B5DA82"/>
<stop offset="0.6875" stop-color="#B4DA81"/>
<stop offset="0.691406" stop-color="#B4D980"/>
<stop offset="0.695312" stop-color="#B3D97F"/>
<stop offset="0.699219" stop-color="#B2D97E"/>
<stop offset="0.703125" stop-color="#B2D87D"/>
<stop offset="0.707031" stop-color="#B1D87C"/>
<stop offset="0.710938" stop-color="#B1D87B"/>
<stop offset="0.714844" stop-color="#B0D87A"/>
<stop offset="0.71875" stop-color="#B0D779"/>
<stop offset="0.722656" stop-color="#AFD778"/>
<stop offset="0.726562" stop-color="#AED777"/>
<stop offset="0.730469" stop-color="#AED676"/>
<stop offset="0.734375" stop-color="#ADD675"/>
<stop offset="0.738281" stop-color="#ADD675"/>
<stop offset="0.742188" stop-color="#ACD674"/>
<stop offset="0.746094" stop-color="#ACD573"/>
<stop offset="0.75" stop-color="#ABD572"/>
<stop offset="0.753906" stop-color="#AAD571"/>
<stop offset="0.757812" stop-color="#AAD470"/>
<stop offset="0.761719" stop-color="#A9D46F"/>
<stop offset="0.765625" stop-color="#A9D46E"/>
<stop offset="0.769531" stop-color="#A8D46D"/>
<stop offset="0.773438" stop-color="#A8D36C"/>
<stop offset="0.777344" stop-color="#A7D36B"/>
<stop offset="0.78125" stop-color="#A7D36A"/>
<stop offset="0.785156" stop-color="#A6D269"/>
<stop offset="0.789062" stop-color="#A5D268"/>
<stop offset="0.792969" stop-color="#A5D267"/>
<stop offset="0.796875" stop-color="#A4D266"/>
<stop offset="0.800781" stop-color="#A4D165"/>
<stop offset="0.804688" stop-color="#A3D164"/>
<stop offset="0.808594" stop-color="#A3D163"/>
<stop offset="0.8125" stop-color="#A2D062"/>
<stop offset="0.816406" stop-color="#A1D061"/>
<stop offset="0.820312" stop-color="#A1D060"/>
<stop offset="0.824219" stop-color="#A0D060"/>
<stop offset="0.828125" stop-color="#A0CF5F"/>
<stop offset="0.832031" stop-color="#9FCF5E"/>
<stop offset="0.835938" stop-color="#9FCF5D"/>
<stop offset="0.839844" stop-color="#9ECF5C"/>
<stop offset="0.84375" stop-color="#9DCE5B"/>
<stop offset="0.847656" stop-color="#9DCE5A"/>
<stop offset="0.851562" stop-color="#9CCE59"/>
<stop offset="0.855469" stop-color="#9CCD58"/>
<stop offset="0.859375" stop-color="#9BCD57"/>
<stop offset="0.863281" stop-color="#9BCD56"/>
<stop offset="0.867188" stop-color="#9ACD55"/>
<stop offset="0.871094" stop-color="#99CC54"/>
<stop offset="0.875" stop-color="#99CC53"/>
<stop offset="0.878906" stop-color="#98CC52"/>
<stop offset="0.882812" stop-color="#98CB51"/>
<stop offset="0.886719" stop-color="#97CB50"/>
<stop offset="0.890625" stop-color="#97CB4F"/>
<stop offset="0.894531" stop-color="#96CB4E"/>
<stop offset="0.898438" stop-color="#96CA4D"/>
<stop offset="0.902344" stop-color="#95CA4C"/>
<stop offset="0.90625" stop-color="#94CA4B"/>
<stop offset="0.910156" stop-color="#94C94B"/>
<stop offset="0.914062" stop-color="#93C94A"/>
<stop offset="0.917969" stop-color="#93C949"/>
<stop offset="0.921875" stop-color="#92C948"/>
<stop offset="0.925781" stop-color="#92C847"/>
<stop offset="0.929688" stop-color="#91C846"/>
<stop offset="0.933594" stop-color="#90C845"/>
<stop offset="0.9375" stop-color="#90C744"/>
<stop offset="0.941406" stop-color="#8FC743"/>
<stop offset="0.945312" stop-color="#8FC742"/>
<stop offset="0.949219" stop-color="#8EC741"/>
<stop offset="0.953125" stop-color="#8EC640"/>
<stop offset="0.957031" stop-color="#8DC63F"/>
<stop offset="1" stop-color="#8DC63F"/>
</radialGradient>
<radialGradient id="paint6_radial_2_10" cx="0" cy="0" r="1" gradientUnits="userSpaceOnUse" gradientTransform="translate(166.546 180.722) rotate(-5.77959) scale(23.5415 23.5415)">
<stop stop-color="white"/>
<stop offset="0.125" stop-color="white"/>
<stop offset="0.179688" stop-color="#FEFFFE"/>
<stop offset="0.183594" stop-color="#FEFFFE"/>
<stop offset="0.1875" stop-color="#FEFFFD"/>
<stop offset="0.191406" stop-color="#FDFEFD"/>
<stop offset="0.195312" stop-color="#FDFEFC"/>
<stop offset="0.199219" stop-color="#FDFEFB"/>
<stop offset="0.210938" stop-color="#FDFEFB"/>
<stop offset="0.214844" stop-color="#FDFEFA"/>
<stop offset="0.21875" stop-color="#FCFDF9"/>
<stop offset="0.222656" stop-color="#FCFDF9"/>
<stop offset="0.234375" stop-color="#FBFDF8"/>
<stop offset="0.238281" stop-color="#FBFDF7"/>
<stop offset="0.242188" stop-color="#FAFDF7"/>
<stop offset="0.246094" stop-color="#FAFDF6"/>
<stop offset="0.25" stop-color="#FAFDF6"/>
<stop offset="0.253906" stop-color="#F9FCF5"/>
<stop offset="0.261719" stop-color="#F9FCF5"/>
<stop offset="0.265625" stop-color="#F8FCF4"/>
<stop offset="0.269531" stop-color="#F8FCF3"/>
<stop offset="0.277344" stop-color="#F7FBF2"/>
<stop offset="0.285156" stop-color="#F7FBF2"/>
<stop offset="0.289062" stop-color="#F7FBF1"/>
<stop offset="0.292969" stop-color="#F6FBF1"/>
<stop offset="0.296875" stop-color="#F6FBF0"/>
<stop offset="0.300781" stop-color="#F6FBEF"/>
<stop offset="0.304688" stop-color="#F5FAEF"/>
<stop offset="0.308594" stop-color="#F5FAEE"/>
<stop offset="0.316406" stop-color="#F4FAED"/>
<stop offset="0.324219" stop-color="#F4FAED"/>
<stop offset="0.328125" stop-color="#F3F9EC"/>
<stop offset="0.332031" stop-color="#F3F9EB"/>
<stop offset="0.339844" stop-color="#F3F9EA"/>
<stop offset="0.347656" stop-color="#F3F9EA"/>
<stop offset="0.351562" stop-color="#F3F9E9"/>
<stop offset="0.355469" stop-color="#F2F8E8"/>
<stop offset="0.359375" stop-color="#F2F8E8"/>
<stop offset="0.367188" stop-color="#F1F8E7"/>
<stop offset="0.375" stop-color="#F1F8E6"/>
<stop offset="0.378906" stop-color="#F0F8E6"/>
<stop offset="0.382812" stop-color="#F0F8E5"/>
<stop offset="0.390625" stop-color="#EFF7E4"/>
<stop offset="0.398438" stop-color="#EFF7E4"/>
<stop offset="0.402344" stop-color="#EEF7E3"/>
<stop offset="0.40625" stop-color="#EEF7E2"/>
<stop offset="0.414062" stop-color="#EDF6E1"/>
<stop offset="0.421875" stop-color="#EDF6E1"/>
<stop offset="0.425781" stop-color="#EDF6E0"/>
<stop offset="0.429688" stop-color="#ECF6E0"/>
<stop offset="0.433594" stop-color="#ECF6DF"/>
<stop offset="0.441406" stop-color="#EBF5DE"/>
<stop offset="0.449219" stop-color="#EBF5DD"/>
<stop offset="0.453125" stop-color="#EAF5DD"/>
<stop offset="0.457031" stop-color="#EAF5DC"/>
<stop offset="0.464844" stop-color="#EAF4DB"/>
<stop offset="0.472656" stop-color="#EAF4DB"/>
<stop offset="0.476562" stop-color="#EAF4DA"/>
<stop offset="0.480469" stop-color="#E9F4D9"/>
<stop offset="0.484375" stop-color="#E9F4D9"/>
<stop offset="0.492188" stop-color="#E8F3D8"/>
<stop offset="0.5" stop-color="#E8F3D7"/>
<stop offset="0.503906" stop-color="#E7F3D7"/>
<stop offset="0.507812" stop-color="#E7F3D6"/>
<stop offset="0.511719" stop-color="#E7F3D6"/>
<stop offset="0.515625" stop-color="#E6F3D5"/>
<stop offset="0.519531" stop-color="#E6F3D5"/>
<stop offset="0.523438" stop-color="#E6F3D5"/>
<stop offset="0.527344" stop-color="#E5F2D4"/>
<stop offset="0.53125" stop-color="#E5F2D3"/>
<stop offset="0.535156" stop-color="#E5F2D3"/>
<stop offset="0.546875" stop-color="#E4F2D2"/>
<stop offset="0.550781" stop-color="#E4F2D1"/>
<stop offset="0.554688" stop-color="#E3F1D1"/>
<stop offset="0.558594" stop-color="#E3F1D0"/>
<stop offset="0.5625" stop-color="#E3F1CF"/>
<stop offset="0.566406" stop-color="#E2F1CF"/>
<stop offset="0.570312" stop-color="#E2F1CE"/>
<stop offset="0.574219" stop-color="#E2F1CE"/>
<stop offset="0.578125" stop-color="#E1F0CD"/>
<stop offset="0.582031" stop-color="#E1F0CD"/>
<stop offset="0.585938" stop-color="#E1F0CD"/>
<stop offset="0.589844" stop-color="#E0F0CC"/>
<stop offset="0.59375" stop-color="#E0F0CB"/>
<stop offset="0.597656" stop-color="#E0F0CB"/>
<stop offset="0.609375" stop-color="#E0EFCA"/>
<stop offset="0.613281" stop-color="#E0EFC9"/>
<stop offset="0.617188" stop-color="#DFEFC9"/>
<stop offset="0.621094" stop-color="#DFEFC8"/>
<stop offset="0.625" stop-color="#DFEFC8"/>
<stop offset="0.628906" stop-color="#DEEFC7"/>
<stop offset="0.636719" stop-color="#DEEFC6"/>
<stop offset="0.640625" stop-color="#DDEEC6"/>
<stop offset="0.644531" stop-color="#DDEEC5"/>
<stop offset="0.652344" stop-color="#DCEEC4"/>
<stop offset="0.660156" stop-color="#DCEEC4"/>
<stop offset="0.664062" stop-color="#DCEEC3"/>
<stop offset="0.667969" stop-color="#DBEDC2"/>
<stop offset="0.675781" stop-color="#DAEDC1"/>
<stop offset="0.683594" stop-color="#DAEDC1"/>
<stop offset="0.6875" stop-color="#DAEDC0"/>
<stop offset="0.691406" stop-color="#D9ECC0"/>
<stop offset="0.695312" stop-color="#D9ECBF"/>
<stop offset="0.703125" stop-color="#D8ECBE"/>
<stop offset="0.710938" stop-color="#D8ECBD"/>
<stop offset="0.714844" stop-color="#D7EBBD"/>
<stop offset="0.71875" stop-color="#D7EBBC"/>
<stop offset="0.726562" stop-color="#D7EBBB"/>
<stop offset="0.734375" stop-color="#D7EBBB"/>
<stop offset="0.738281" stop-color="#D7EBBA"/>
<stop offset="0.742188" stop-color="#D6EAB9"/>
<stop offset="0.746094" stop-color="#D6EAB9"/>
<stop offset="0.753906" stop-color="#D5EAB8"/>
<stop offset="0.757812" stop-color="#D5EAB8"/>
<stop offset="0.761719" stop-color="#D5EAB7"/>
<stop offset="0.765625" stop-color="#D4EAB7"/>
<stop offset="0.769531" stop-color="#D4EAB6"/>
<stop offset="0.773438" stop-color="#D3E9B5"/>
<stop offset="0.785156" stop-color="#D3E9B5"/>
<stop offset="0.789062" stop-color="#D2E9B4"/>
<stop offset="0.792969" stop-color="#D2E9B3"/>
<stop offset="0.796875" stop-color="#D2E9B3"/>
<stop offset="0.808594" stop-color="#D1E8B2"/>
<stop offset="0.8125" stop-color="#D1E8B1"/>
<stop offset="0.816406" stop-color="#D0E8B1"/>
<stop offset="0.820312" stop-color="#D0E8B0"/>
<stop offset="0.824219" stop-color="#D0E8AF"/>
<stop offset="0.828125" stop-color="#CFE7AF"/>
<stop offset="0.832031" stop-color="#CFE7AE"/>
<stop offset="0.839844" stop-color="#CEE7AD"/>
<stop offset="0.847656" stop-color="#CEE7AD"/>
<stop offset="0.851562" stop-color="#CDE6AC"/>
<stop offset="0.855469" stop-color="#CDE6AB"/>
<stop offset="0.863281" stop-color="#CDE6AA"/>
<stop offset="0.871094" stop-color="#CDE6AA"/>
<stop offset="0.875" stop-color="#CDE6A9"/>
<stop offset="0.878906" stop-color="#CCE5A9"/>
<stop offset="0.882812" stop-color="#CCE5A8"/>
<stop offset="0.886719" stop-color="#CCE5A8"/>
<stop offset="0.890625" stop-color="#CBE5A7"/>
<stop offset="0.894531" stop-color="#CBE5A7"/>
<stop offset="0.898438" stop-color="#CBE5A6"/>
<stop offset="0.902344" stop-color="#CAE5A6"/>
<stop offset="0.90625" stop-color="#CAE5A5"/>
<stop offset="0.910156" stop-color="#CAE5A5"/>
<stop offset="0.917969" stop-color="#C9E4A4"/>
<stop offset="0.925781" stop-color="#C9E4A3"/>
<stop offset="0.929688" stop-color="#C8E4A2"/>
<stop offset="0.9375" stop-color="#C7E3A1"/>
<stop offset="0.945312" stop-color="#C7E3A1"/>
<stop offset="0.949219" stop-color="#C7E3A0"/>
<stop offset="0.953125" stop-color="#C6E39F"/>
<stop offset="1" stop-color="#C6E39F"/>
</radialGradient>
</defs>
</svg>
