<svg width="655" height="382" viewBox="0 0 655 382" fill="none" xmlns="http://www.w3.org/2000/svg">
<path d="M443.432 125.059C476.796 109.738 469.51 87.9689 459.831 64.09C450.155 40.2111 487.647 -16.699 579.784 24.1604C671.921 65.0197 665.757 109.121 629.893 157.371C594.018 205.621 652.362 299.641 538.452 253.16C424.538 206.692 443.432 125.059 443.432 125.059Z" fill="#F282A3"/>
<path d="M636.823 119.41C626.128 103.469 597.053 107.149 580.233 97.7502C568.604 91.7892 576.569 44.3986 514.124 56.9299C496.8 60.4103 501.569 86.6994 494.784 103.738C503.792 115.238 501.921 129.328 506.764 141.809C510.514 139.871 512.96 137.078 514.136 134.328C521.331 121.41 534.897 109.199 553.893 107.668C536.522 120.008 520.807 144.059 546.565 154.981C554.292 158.34 563.264 160.758 572.288 164.988C560.753 161.75 546.514 163.031 542.03 171.418C524.487 204.281 554.721 226.008 557.893 228.82C565.737 235.801 589.987 239.531 594.616 225.801C599.12 208.449 594.721 190.5 608.198 175.57C611.803 171.899 617.589 169.258 623.753 167.891C625.409 164.211 627.425 160.692 629.893 157.371C635.276 150.129 639.983 142.981 643.792 135.918C642.292 130.231 640.108 124.692 636.823 119.41Z" fill="#F797AD"/>
<path d="M444.014 125.32C443.561 127.508 439.956 147.129 448.854 171.602C457.514 195.43 480.139 228.852 538.776 252.77C560.276 261.551 576.35 265.621 587.909 265.25C612.663 264.43 613.651 242.41 614.784 216.91C615.678 196.879 616.698 174.16 629.327 157.168C649.8 129.629 657.073 107.68 652.214 88.0783C646.354 64.4494 622.553 43.6681 579.436 24.5509C556.76 14.4884 535.893 9.69938 517.432 10.3088C493.968 11.0783 479.874 20.2892 472.182 27.8791C461.096 38.8205 456.268 53.6486 460.444 63.9611C469.042 85.1798 478.78 109.231 444.014 125.32ZM587.932 266.141C576.132 266.539 559.843 262.418 538.124 253.559C479.096 229.481 456.319 195.809 447.604 171.809C438.167 145.801 442.757 125.199 442.8 124.988L442.85 124.789L443.1 124.68C474.897 110.09 469.835 90.4181 459.218 64.2189C454.944 53.6681 459.85 38.508 471.155 27.3595C479.018 19.6095 493.421 10.1994 517.401 9.41032C536.124 8.78922 557.229 13.6213 580.12 23.7814C623.553 43.0314 647.542 64.008 653.464 87.9103C658.37 107.711 651.057 129.852 630.448 157.578C617.956 174.379 616.948 196.981 616.057 216.93C614.901 242.871 613.897 265.289 587.932 266.141Z" fill="#C6547A"/>
<path d="M496.034 160.102L495.553 159.27C516.382 152.84 522.288 139.66 527.491 128.031C531.136 119.86 534.456 112.461 542.483 109.141C546.128 107.621 556.643 108.34 556.643 108.34C538.249 106.871 534.046 116.32 528.698 128.281C523.405 140.102 517.409 153.508 496.034 160.102Z" fill="#C6547A"/>
<path d="M499.784 173.27L499.436 172.41C503.835 171.43 508.979 169.59 514.44 167.629C528.468 162.621 545.053 156.68 561.136 160.328C566.503 161.551 576.026 168.199 576.026 168.199C556.12 153.719 533.311 161.891 514.987 168.442C509.483 170.41 504.288 172.27 499.784 173.27Z" fill="#C6547A"/>
<path d="M579.784 24.1604C487.647 -16.699 450.155 40.2111 459.831 64.09C469.511 87.9689 476.796 109.738 443.432 125.059C443.432 125.059 441.007 135.551 443.132 151.149C490.214 152.469 509.475 140.918 500.803 112.758C491.553 82.7385 466.354 50.0783 486.124 33.59C505.893 17.09 574.753 25.6916 597.468 59.7893C620.182 93.8791 570.737 96.4182 595.225 107.371C619.721 118.328 629.71 139.719 606.218 155.442C586.413 168.692 632.315 244.918 599.143 263.391C627.253 251.031 603.968 192.25 629.893 157.371C665.757 109.121 671.921 65.0197 579.784 24.1604Z" fill="#8099A5"/>
<path d="M579.784 24.1604C487.647 -16.699 450.155 40.2111 459.831 64.09C469.511 87.9689 476.796 109.738 443.432 125.059C443.432 125.059 441.007 135.551 443.132 151.149C490.214 152.469 509.475 140.918 500.803 112.758C491.553 82.7385 464.538 45.4494 484.315 28.9494C504.089 12.4611 577.096 21.8205 599.803 55.9182C622.518 90.0197 569.202 98.34 595.225 107.371C626.303 118.18 637.003 137.961 613.507 153.668C593.694 166.918 632.315 244.918 599.143 263.391C627.253 251.031 603.968 192.25 629.893 157.371C665.757 109.121 671.921 65.0197 579.784 24.1604Z" fill="#98A8B3"/>
<path d="M579.784 24.1603C497.171 -12.4686 458.491 29.4884 458.354 55.7697C460.643 42.4494 470.241 29.8713 486.272 21.1994C506.214 9.67985 533.866 10.9416 556.077 19.8009C661.589 61.8791 652.593 104.692 651.143 119.008C661.862 85.4416 646.932 53.9416 579.784 24.1603Z" fill="#CBD0D3"/>
<path d="M514.741 25.0705C544.065 24.1017 582.096 35.6486 598.042 59.5783C610.964 78.9884 600.651 88.4611 593.831 94.7306C590.811 97.5002 588.432 99.6916 588.928 101.82C589.311 103.488 591.425 105.141 595.561 106.988C609.757 113.34 618.913 123.059 620.065 133C621.034 141.371 616.393 149.25 606.651 155.758C598.21 161.41 602.229 179.641 606.491 198.949C610.397 216.699 614.675 236.102 610.471 249.789C613.706 241.11 614.225 229.52 614.784 216.91C615.678 196.879 616.698 174.16 629.327 157.168C649.8 129.629 657.073 107.68 652.214 88.0783C646.354 64.4494 622.553 43.6681 579.436 24.5509C556.76 14.4884 535.893 9.69938 517.432 10.3088C493.968 11.0783 479.866 20.2892 472.171 27.8791C461.085 38.8205 456.268 53.6486 460.444 63.9611C469.042 85.1798 478.78 109.231 444.014 125.32C443.698 126.84 441.862 136.731 443.714 150.719C470.382 151.41 487.28 147.961 495.772 140.121C502.483 133.918 503.921 125.008 500.182 112.86C497.585 104.442 493.706 95.758 489.968 87.3595C480.307 65.758 471.206 45.3517 485.651 33.3009C491.499 28.4181 501.831 25.5002 514.741 25.0705ZM599.456 263.781L598.753 263.039C617.073 252.84 610.784 224.289 605.233 199.121C600.733 178.711 596.854 161.09 605.788 155.11C615.237 148.789 619.737 141.18 618.796 133.09C617.678 123.43 608.737 113.961 594.874 107.758C590.413 105.758 588.12 103.93 587.671 101.988C587.089 99.4611 589.62 97.1291 592.835 94.1798C599.858 87.7306 609.483 78.8908 596.885 59.9884C581.178 36.3986 543.682 25.0197 514.764 25.9806C502.218 26.3908 492.214 29.1994 486.608 33.8791C472.624 45.5392 481.635 65.7111 491.175 87.0705C494.932 95.4806 498.819 104.18 501.421 112.649C505.249 125.078 503.721 134.238 496.772 140.66C487.936 148.82 470.526 152.371 443.1 151.61L442.553 151.59L442.503 151.211C440.393 135.719 442.776 125.102 442.8 124.988L442.85 124.789L443.1 124.68C474.897 110.09 469.835 90.4181 459.218 64.2189C454.944 53.6681 459.846 38.508 471.155 27.3595C479.018 19.6095 493.421 10.1994 517.401 9.41032C536.124 8.78922 557.229 13.6213 580.12 23.7814C623.553 43.0314 647.542 64.008 653.464 87.9103C658.37 107.711 651.057 129.852 630.448 157.578C617.956 174.391 616.948 196.981 616.057 216.918C615.089 238.57 614.257 257.281 599.456 263.781Z" fill="#637075"/>
<path d="M211.218 122.649C178.022 106.981 185.55 85.2815 195.491 61.508C205.421 37.7307 168.561 -19.5701 75.9793 20.2697C-16.5989 60.1213 -10.9231 104.281 24.4168 152.918C59.7527 201.559 0.381607 294.942 114.796 249.711C229.214 204.488 211.218 122.649 211.218 122.649Z" fill="#F282A3"/>
<path d="M17.9011 114.891C28.7605 99.0705 57.7996 103.059 74.7254 93.84C86.409 88.0197 78.9715 40.5392 141.276 53.758C158.557 57.4299 153.495 83.6603 160.1 100.781C150.968 112.168 152.686 126.281 147.702 138.711C143.983 136.731 141.557 133.91 140.413 131.141C133.366 118.149 119.932 105.789 100.952 104.051C118.19 116.59 133.632 140.801 107.757 151.442C99.9949 154.719 90.9988 157.039 81.9246 161.168C93.4949 158.051 107.725 159.488 112.12 167.93C129.296 200.981 98.823 222.379 95.6277 225.16C87.7019 232.051 63.4129 235.508 58.9363 221.731C54.6199 204.34 59.2175 186.43 45.905 171.36C42.3347 167.649 36.5808 164.942 30.4363 163.508C28.8191 159.809 26.8386 156.258 24.4168 152.918C19.1121 145.621 14.4832 138.418 10.7449 131.32C12.3113 125.641 14.5574 120.129 17.9011 114.891Z" fill="#F797AD"/>
<path d="M194.882 61.3713C199.163 51.1096 194.503 36.2306 183.538 25.1681C175.925 17.5002 161.932 8.12909 138.483 7.10174C120.022 6.28924 99.1121 10.8517 76.3191 20.6603C33.0027 39.3088 8.96755 59.8205 2.85426 83.3908C-2.21995 102.942 4.8152 124.961 24.9715 152.719C37.4246 169.86 38.1902 192.59 38.866 212.629C39.7215 238.129 40.4597 260.16 65.2136 261.25C76.7683 261.75 92.8777 257.852 114.483 249.309C173.374 226.031 196.362 192.86 205.284 169.129C214.444 144.77 211.061 125.102 210.628 122.91C176.042 106.442 186.046 82.5002 194.882 61.3713ZM37.5925 212.621C36.9207 192.668 36.1629 170.059 23.8543 153.121C3.54567 125.168 -3.52074 102.949 1.60817 83.1994C7.79176 59.3713 32.0066 38.6603 75.6394 19.8791C98.6511 9.98065 119.807 5.37909 138.514 6.1994C162.483 7.25018 176.792 16.8205 184.561 24.6603C195.749 35.9416 200.487 51.1408 196.093 61.6486C185.19 87.7307 179.921 107.34 211.553 122.281L211.796 122.391L211.846 122.602C211.889 122.801 216.253 143.449 206.53 169.352C197.553 193.258 174.409 226.668 115.124 250.11C93.3074 258.731 76.9715 262.66 65.1746 262.149C39.2254 261.008 38.4675 238.59 37.5925 212.621Z" fill="#C6547A"/>
<path d="M158.229 157.121L158.725 156.289C137.956 149.641 132.206 136.391 127.136 124.699C123.573 116.488 120.335 109.051 112.346 105.649C108.718 104.102 98.1941 104.699 98.1941 104.699C116.604 103.43 120.702 112.918 125.921 124.942C131.081 136.82 136.928 150.289 158.229 157.121Z" fill="#C6547A"/>
<path d="M154.335 170.238L154.698 169.379C150.315 168.36 145.182 166.461 139.753 164.449C125.78 159.281 109.253 153.16 93.1277 156.641C87.7527 157.789 78.159 164.352 78.159 164.352C98.2215 150.078 120.94 158.488 139.19 165.25C144.667 167.281 149.846 169.192 154.335 170.238Z" fill="#C6547A"/>
<path d="M75.9793 20.2697C168.561 -19.5701 205.421 37.7307 195.491 61.508C185.55 85.2815 178.022 106.981 211.218 122.649C211.218 122.649 213.526 133.168 211.229 148.75C164.143 149.559 145.003 137.789 153.983 109.719C163.557 79.8088 189.116 47.4299 169.526 30.719C149.936 14.0197 80.991 21.8518 57.905 55.6994C34.8191 89.5393 84.2293 92.6213 59.6277 103.309C35.0183 114 24.7918 135.281 48.1121 151.25C67.7761 164.711 21.034 240.442 53.9988 259.27C26.0222 246.61 49.9558 188.078 24.4168 152.918C-10.9231 104.281 -16.5989 60.1213 75.9793 20.2697Z" fill="#8099A5"/>
<path d="M75.9793 20.2697C168.561 -19.5701 205.421 37.7307 195.491 61.508C185.55 85.2815 178.022 106.981 211.218 122.649C211.218 122.649 213.526 133.168 211.229 148.75C164.143 149.559 145.003 137.789 153.983 109.719C163.557 79.8088 190.983 42.8205 171.397 26.1096C151.807 9.39865 78.6941 17.9611 55.6121 51.801C32.53 85.6487 85.7488 94.551 59.6277 103.309C28.4363 113.77 17.5222 133.442 40.8347 149.399C60.4988 162.871 21.034 240.442 53.9988 259.27C26.0222 246.61 49.9558 188.078 24.4168 152.918C-10.9231 104.281 -16.5989 60.1213 75.9793 20.2697Z" fill="#98A8B3"/>
<path d="M75.9793 20.2697C158.999 -15.4608 197.202 26.9182 197.053 53.1994C194.913 39.8596 185.448 27.1799 169.511 18.3283C149.702 6.59003 122.03 7.55097 99.7371 16.1603C-6.23558 57.09 2.29567 99.9885 3.58473 114.328C-6.76683 80.6408 8.51051 49.3088 75.9793 20.2697Z" fill="#CBD0D3"/>
<path d="M170.011 30.4416C184.319 42.6408 174.987 62.9494 165.1 84.4494C161.264 92.8088 157.296 101.442 154.604 109.84C150.733 121.942 152.073 130.871 158.714 137.141C167.112 145.078 183.979 148.711 210.651 148.309C212.655 134.34 210.928 124.43 210.628 122.91C176.042 106.442 186.046 82.5002 194.882 61.3713C199.163 51.1096 194.503 36.2189 183.538 25.1681C175.932 17.5002 161.936 8.12909 138.483 7.10174C120.022 6.28924 99.1121 10.8517 76.3191 20.6603C33.0027 39.3088 8.96755 59.8205 2.85426 83.3908C-2.21995 102.942 4.8152 124.961 24.9715 152.719C37.4246 169.86 38.1902 192.578 38.8621 212.629C39.2879 225.238 39.6785 236.84 42.823 245.539C38.7644 231.809 43.2527 212.449 47.3582 194.75C51.8269 175.488 56.0457 157.301 47.6707 151.57C37.9988 144.949 33.4441 137.02 34.5105 128.66C35.7644 118.738 45.034 109.11 59.28 102.918C63.448 101.11 65.5808 99.4885 65.991 97.8283C66.5027 95.6994 64.1433 93.4807 61.159 90.6799C54.409 84.34 44.1941 74.7502 57.3386 55.4885C73.5379 31.7306 111.694 20.6017 141.014 21.8908C153.917 22.4611 164.214 25.5002 170.011 30.4416ZM37.5925 212.621C36.9207 192.668 36.1629 170.07 23.8543 153.121C3.54567 125.168 -3.52074 102.949 1.60817 83.1994C7.79176 59.3713 32.0066 38.6603 75.6394 19.8791C98.6511 9.98065 119.807 5.37909 138.514 6.1994C162.495 7.25018 176.792 16.8205 184.565 24.6603C195.749 35.9416 200.487 51.1408 196.093 61.6486C185.19 87.7307 179.921 107.34 211.565 122.281L211.796 122.391L211.846 122.602C211.866 122.699 214.147 133.352 211.858 148.809L211.8 149.199L211.261 149.211C183.827 149.668 166.452 145.918 157.718 137.668C150.823 131.168 149.401 121.988 153.37 109.61C156.069 101.18 160.046 92.5197 163.893 84.1408C173.663 62.8908 182.897 42.8205 169.046 31.008C163.479 26.258 153.518 23.3517 140.971 22.7892C112.061 21.5197 74.4519 32.4885 58.4832 55.9103C45.6863 74.6682 55.2136 83.6096 62.1629 90.1408C65.3386 93.1291 67.8465 95.4807 67.241 98.0002C66.7683 99.9416 64.4558 101.75 59.9636 103.699C46.0418 109.75 37.0027 119.121 35.7761 128.77C34.7449 136.84 39.1668 144.5 48.534 150.93C57.4129 157 53.3347 174.578 48.616 194.93C42.7879 220.051 36.1824 248.52 54.3894 258.93L53.6746 259.649C38.9558 252.988 38.3269 234.289 37.5925 212.621Z" fill="#637075"/>
<path d="M338.089 8.5783C302.792 7.75799 282.768 -1.85139 282.749 1.00018C282.733 3.85174 296.944 10.2502 296.944 10.2502C241.843 16.6017 141.159 25.8595 151.511 214.84C109.432 271.57 166.241 380.379 336.995 381.051C487.491 381.621 546.128 273.969 501.815 217.711C498.675 98.0705 479.843 11.8908 338.089 8.5783Z" fill="#8099A5"/>
<path d="M495.745 212.559C492.604 92.9299 479.374 11.9807 337.616 8.66816C302.319 7.85175 282.288 -1.76153 282.276 1.09003C282.26 3.9416 296.468 10.3518 296.468 10.3518C295.866 10.4299 295.272 10.508 294.667 10.59C294.839 10.6916 295.018 10.758 295.194 10.758C287.573 17.3596 269.518 20.1213 272.319 27.7189L272.425 27.9416C273.421 31.4103 295.593 25.0002 299.866 24.6682C295.112 27.4885 287.112 35.758 288.397 38.258C292.057 42.4299 300.749 36.4182 306.46 34.5588C305.483 38.3518 301.663 44.0197 304.499 45.9416C309.221 49.758 313.905 41.2385 319.616 37.4689C318.655 40.3205 321.061 44.9611 321.585 46.0314C325.37 48.8986 327.46 43.5197 327.479 39.7189C327.448 45.9494 325.374 47.9494 323.468 48.8908C319.659 51.7189 317.788 46.9611 317.807 43.1603C313.995 45.9885 311.112 51.6682 305.432 49.7385C301.643 47.8205 300.718 43.0705 301.69 39.2814C297.874 42.1018 293.124 43.0314 288.382 42.051C283.643 40.1291 283.678 34.4299 287.495 30.6603C282.741 31.5783 273.19 30.8713 271.901 28.6682C271.901 28.3791 272.003 28.3908 272.12 28.4103C272.257 28.4182 272.413 28.4416 272.425 27.9416L272.319 27.7189C269.518 20.1213 287.573 17.3596 295.194 10.758C295.018 10.758 294.839 10.6916 294.667 10.59C241.999 17.59 146.284 21.7502 156.518 208.59C114.44 265.32 162.483 361.481 333.245 362.149C483.733 362.731 540.061 268.82 495.745 212.559Z" fill="#98A8B3"/>
<path d="M295.987 10.3908C294.702 10.5588 293.401 10.7307 292.057 10.8986C286.835 18.2385 270.37 22.4807 271.835 28.5783C273.948 24.7189 289.956 14.4416 301.37 10.6994C299.573 10.6916 297.78 10.5705 295.987 10.3908Z" fill="#CBD0D3"/>
<path d="M288.874 38.1682C293.663 30.6017 302.237 25.8908 308.909 21.1799C307.331 21.6994 305.753 22.2111 304.182 22.5705C297.389 25.9416 290.589 29.8517 288.874 38.1682Z" fill="#CBD0D3"/>
<path d="M378.241 14.9181C402.901 19.801 424.69 28.4689 445.495 43.7697C454.382 49.8986 461.702 57.0705 467.979 65.051C446.323 30.5705 407.721 10.2111 338.089 8.5783C302.901 7.75799 282.897 -1.78107 282.749 0.980646C291.491 3.98846 318.483 10.3205 319.964 10.5197C336.589 12.7502 356.475 11.3088 378.241 14.9181Z" fill="#CBD0D3"/>
<path d="M193.87 50.2111C222.221 26.7697 256.928 19.008 292.733 12.7111C292.573 12.59 296.3 10.4611 296.143 10.3517C267.081 13.9416 224.428 16.6603 193.87 50.2111Z" fill="#CBD0D3"/>
<path d="M283.757 0.949379C283.311 0.949379 283.206 1.03141 283.206 1.03141C283.218 2.75016 291.354 7.21891 297.139 9.82047L298.702 10.5314L295.018 10.9611C267.155 14.1486 228.999 18.5197 198.901 45.3713C163.354 77.1017 147.565 134.11 151.991 214.809L151.999 214.981L151.889 215.129C135.721 236.93 134.366 266.57 148.284 294.399C160.272 318.391 182.151 338.988 211.55 353.981C245.636 371.36 287.628 380.301 336.35 380.57H337.003C432.163 380.942 486.952 338.25 506.491 298.192C520.409 269.66 518.518 239.68 501.448 218L501.346 217.879L501.343 217.719C498.397 105.57 484.081 12.4611 338.077 9.05094C316.034 8.53922 299.702 4.55094 290.932 2.41032C287.468 1.57047 284.971 0.949379 283.757 0.949379ZM336.346 381.52C287.468 381.25 245.339 372.27 211.112 354.82C181.538 339.738 159.518 319 147.44 294.828C133.386 266.719 134.733 236.781 151.03 214.699C148.655 171.121 152.132 134.168 161.35 104.879C169.28 79.7111 181.706 59.4494 198.272 44.6603C228.589 17.6095 266.913 13.2189 294.901 10.008L295.206 9.98063C291.159 8.07047 282.261 3.57829 282.276 1.00016C282.276 0.621254 282.471 -0.0115575 283.764 0.000160462C285.085 0.00797346 287.499 0.601723 291.155 1.48844C299.893 3.62125 316.163 7.60172 338.104 8.10954C372.776 8.91813 400.628 14.5705 423.237 25.3986C444.245 35.4611 460.307 49.8088 472.339 69.2697C496.225 107.918 500.858 163.36 502.284 217.539C519.499 239.5 521.401 269.789 507.354 298.602C495.94 321.981 475.565 342.051 448.405 356.629C417.757 373.078 379.229 381.692 336.995 381.52H336.346Z" fill="#637075"/>
<path d="M305.749 48.5314C305.296 48.5197 304.917 48.4182 304.593 48.2111C302.702 46.9807 303.261 42.5705 306.292 34.7307C299.038 39.508 292.971 41.3986 289.925 39.7892C288.85 39.2307 288.257 38.2307 288.261 36.9807C288.261 34.2307 291.186 29.5588 299.132 24.7385C275.429 30.8908 271.831 29.4494 271.245 27.7697C269.725 23.4103 292.37 11.7697 297.116 9.73065L297.495 10.6017C289.62 13.9885 271.124 24.5392 272.139 27.4611C272.487 28.4416 276.124 29.9611 302.491 22.8713L306.667 21.7385L302.827 23.7502C293.429 28.6603 289.206 33.9416 289.206 36.9807C289.206 37.8908 289.596 38.551 290.366 38.9611C292.503 40.0783 298.159 39.2189 307.034 33.09L308.339 32.1916L307.741 33.6603C303.276 44.7111 304.413 46.9611 305.108 47.4103C305.909 47.9299 308.925 47.9416 319.596 36.8596L320.292 36.1408L320.413 37.1291C321.202 43.6603 322.698 46.6603 323.827 46.7502C324.444 46.8088 326.221 45.9807 328.659 37.2697C328.659 37.2697 327.909 42.8596 327.081 44.5314C325.987 46.7307 324.893 47.7697 323.753 47.6994C321.327 47.508 320.139 42.0705 319.596 38.2307C312.854 45.1408 308.292 48.5392 305.749 48.5314Z" fill="#637075"/>
<path d="M150.514 217.051L149.737 216.5C151.124 214.539 157.737 207.09 160.53 205.711C160.53 205.711 157.276 209.449 155.069 211.77C153.1 213.84 151.28 215.969 150.514 217.051Z" fill="#637075"/>
<path d="M502.198 218.981C501.71 218.34 499.647 216.09 497.339 213.68C494.538 210.758 490.764 205.969 490.764 205.969C493.034 207.61 501.831 216.942 502.956 218.399L502.198 218.981Z" fill="#637075"/>
<path d="M199.647 108.43C204.792 91.1096 228.143 81.469 237.835 95.4807C207.909 95.508 199.647 108.43 199.647 108.43Z" fill="#421302"/>
<path d="M224.182 89.0783C214.124 89.34 203.921 97.1486 200.268 107.129C203.085 104.008 213.053 95.3088 237.214 95.1486C234.147 91.0783 229.542 88.9299 224.182 89.0783ZM198.803 110.09L199.354 108.301C202.573 97.4494 213.468 88.7189 224.167 88.4416C229.905 88.2814 234.796 90.7111 237.948 95.2385L238.315 95.7814H237.776C208.319 95.8088 199.831 108.5 199.764 108.641L198.803 110.09Z" fill="#230901"/>
<path d="M260.311 187.711C260.194 210.738 245.925 229.539 228.436 229.692C210.925 229.852 196.843 211.328 196.96 188.301C197.077 165.281 211.366 146.469 228.866 146.321C246.339 146.149 260.425 164.699 260.311 187.711Z" fill="#7C8B93"/>
<path d="M257.643 188.969C257.538 210.66 244.331 228.34 228.163 228.488C211.983 228.629 198.964 211.192 199.069 189.508C199.175 167.821 212.393 150.141 228.55 149.988C244.741 149.84 257.749 167.301 257.643 188.969Z" fill="#65757C"/>
<mask id="mask0_2_5" style="mask-type:luminance" maskUnits="userSpaceOnUse" x="200" y="151" width="57" height="78">
<path d="M200.346 151.68H256.346V228.68H200.346V151.68Z" fill="white"/>
</mask>
<g mask="url(#mask0_2_5)">
<mask id="mask1_2_5" style="mask-type:luminance" maskUnits="userSpaceOnUse" x="200" y="152" width="57" height="77">
<path d="M228.514 228.18C213.635 228.18 201.296 212.039 200.749 191.578C200.214 170.668 212.19 153.168 227.507 152.461C227.823 152.442 228.139 152.442 228.452 152.442C243.339 152.442 255.69 168.578 256.225 189.051C256.76 209.961 244.788 227.469 229.464 228.16C229.147 228.168 228.831 228.18 228.514 228.18ZM230.913 161.008C230.425 161.008 229.936 161.039 229.444 161.078C217.757 162.211 209.206 176.41 210.331 192.789C211.421 208.488 220.991 220.508 232.053 220.508C232.542 220.508 233.034 220.488 233.526 220.442C245.202 219.32 253.757 205.121 252.612 188.731C251.546 173.031 241.975 161.008 230.913 161.008Z" fill="white"/>
</mask>
<g mask="url(#mask1_2_5)">
<mask id="mask2_2_5" style="mask-type:luminance" maskUnits="userSpaceOnUse" x="200" y="152" width="57" height="77">
<path d="M228.514 228.18C213.635 228.18 201.296 212.039 200.749 191.578C200.214 170.668 212.19 153.168 227.507 152.461C227.823 152.442 228.139 152.442 228.452 152.442C243.339 152.442 255.69 168.578 256.225 189.051C256.76 209.961 244.788 227.469 229.464 228.16C229.147 228.168 228.831 228.18 228.514 228.18ZM230.913 161.008C230.425 161.008 229.936 161.039 229.444 161.078C217.757 162.211 209.206 176.41 210.331 192.789C211.421 208.488 220.991 220.508 232.053 220.508C232.542 220.508 233.034 220.488 233.526 220.442C245.202 219.32 253.757 205.121 252.612 188.731C251.546 173.031 241.975 161.008 230.913 161.008Z" fill="white"/>
</mask>
<g mask="url(#mask2_2_5)">
<path d="M256.694 149.867L258.714 228.09L200.28 230.754L198.261 152.528L256.694 149.867Z" fill="url(#paint0_radial_2_5)"/>
</g>
</g>
</g>
<path d="M227.522 153.129C220.307 153.461 213.612 157.621 208.667 164.879C203.706 172.149 201.124 181.621 201.374 191.551C201.854 210.219 212.452 225.641 226.022 227.36C227.151 227.5 228.307 227.551 229.46 227.488C244.413 226.809 256.143 209.578 255.604 189.07C255.124 170.391 244.53 154.988 230.96 153.27C229.831 153.141 228.671 153.078 227.522 153.129ZM200.147 191.61C199.878 181.36 202.565 171.559 207.725 164.051C212.893 156.488 219.917 152.149 227.495 151.801C228.698 151.75 229.925 151.789 231.124 151.949C245.276 153.77 256.331 169.699 256.823 189.008C257.378 210.238 245.116 228.11 229.487 228.828C228.288 228.879 227.053 228.828 225.862 228.68C211.702 226.86 200.655 210.93 200.147 191.61Z" fill="#4F2102"/>
<mask id="mask3_2_5" style="mask-type:luminance" maskUnits="userSpaceOnUse" x="209" y="160" width="45" height="61">
<path d="M209.346 160.68H253.346V220.68H209.346V160.68Z" fill="white"/>
</mask>
<g mask="url(#mask3_2_5)">
<mask id="mask4_2_5" style="mask-type:luminance" maskUnits="userSpaceOnUse" x="210" y="161" width="43" height="60">
<path d="M232.053 220.508C220.991 220.508 211.421 208.488 210.331 192.789C209.206 176.41 217.757 162.211 229.444 161.078C229.936 161.039 230.425 161.008 230.913 161.008C241.975 161.008 251.546 173.031 252.612 188.731C253.757 205.121 245.202 219.32 233.526 220.442C233.034 220.488 232.542 220.508 232.053 220.508ZM231.276 173.629C230.952 173.629 230.624 173.641 230.292 173.668C221.761 174.36 215.366 184.059 216.022 195.301C216.632 206.102 223.546 214.41 231.659 214.41C231.983 214.41 232.311 214.399 232.639 214.371C241.19 213.641 247.585 203.969 246.932 192.738C246.745 189.488 245.991 186.469 244.807 183.828C247.163 182.449 248.643 179.621 248.319 176.602C247.96 172.961 245.136 170.281 241.835 170.281C241.553 170.281 241.268 170.301 240.979 170.34C238.608 170.66 236.667 172.289 235.706 174.469C234.296 173.918 232.807 173.629 231.276 173.629Z" fill="white"/>
</mask>
<g mask="url(#mask4_2_5)">
<mask id="mask5_2_5" style="mask-type:luminance" maskUnits="userSpaceOnUse" x="210" y="161" width="43" height="60">
<path d="M232.053 220.508C220.991 220.508 211.421 208.488 210.331 192.789C209.206 176.41 217.757 162.211 229.444 161.078C229.936 161.039 230.425 161.008 230.913 161.008C241.975 161.008 251.546 173.031 252.612 188.731C253.757 205.121 245.202 219.32 233.526 220.442C233.034 220.488 232.542 220.508 232.053 220.508ZM231.276 173.629C230.952 173.629 230.624 173.641 230.292 173.668C221.761 174.36 215.366 184.059 216.022 195.301C216.632 206.102 223.546 214.41 231.659 214.41C231.983 214.41 232.311 214.399 232.639 214.371C241.19 213.641 247.585 203.969 246.932 192.738C246.745 189.488 245.991 186.469 244.807 183.828C247.163 182.449 248.643 179.621 248.319 176.602C247.96 172.961 245.136 170.281 241.835 170.281C241.553 170.281 241.268 170.301 240.979 170.34C238.608 170.66 236.667 172.289 235.706 174.469C234.296 173.918 232.807 173.629 231.276 173.629Z" fill="white"/>
</mask>
<g mask="url(#mask5_2_5)">
<path d="M204.124 161.602L209.651 225.645L258.839 219.918L253.315 155.875L204.124 161.602Z" fill="url(#paint1_radial_2_5)"/>
</g>
</g>
</g>
<path d="M246.932 192.738C247.585 203.969 241.19 213.641 232.639 214.371C224.108 215.071 216.655 206.531 216.022 195.301C215.366 184.059 221.761 174.36 230.292 173.668C238.835 172.961 246.284 181.5 246.932 192.738Z" fill="#231F20"/>
<mask id="mask6_2_5" style="mask-type:luminance" maskUnits="userSpaceOnUse" x="235" y="169" width="15" height="16">
<path d="M235.346 169.68H249.346V184.68H235.346V169.68Z" fill="white"/>
</mask>
<g mask="url(#mask6_2_5)">
<mask id="mask7_2_5" style="mask-type:luminance" maskUnits="userSpaceOnUse" x="235" y="170" width="14" height="14">
<path d="M244.807 183.828C242.788 179.34 239.53 175.969 235.706 174.469C236.667 172.289 238.608 170.66 240.979 170.34C241.268 170.301 241.553 170.281 241.835 170.281C245.136 170.281 247.96 172.961 248.319 176.602C248.643 179.621 247.163 182.449 244.807 183.828Z" fill="white"/>
</mask>
<g mask="url(#mask7_2_5)">
<mask id="mask8_2_5" style="mask-type:luminance" maskUnits="userSpaceOnUse" x="235" y="170" width="14" height="14">
<path d="M244.807 183.828C242.788 179.34 239.53 175.969 235.706 174.469C236.667 172.289 238.608 170.66 240.979 170.34C241.268 170.301 241.553 170.281 241.835 170.281C245.136 170.281 247.96 172.961 248.319 176.602C248.643 179.621 247.163 182.449 244.807 183.828Z" fill="white"/>
</mask>
<g mask="url(#mask8_2_5)">
<path d="M234.55 170.414L235.835 185.32L249.8 183.695L248.514 168.789L234.55 170.414Z" fill="url(#paint2_radial_2_5)"/>
</g>
</g>
</g>
<path d="M241.632 184.711C238.323 184.711 235.464 182.051 235.089 178.379C234.952 176.988 235.186 175.649 235.706 174.469C239.53 175.969 242.788 179.34 244.807 183.828C244.089 184.25 243.288 184.539 242.436 184.66C242.167 184.692 241.897 184.711 241.632 184.711Z" fill="#918F90"/>
<path d="M405.003 104.16C399.1 87.09 375.346 78.4885 366.284 92.9103C396.178 91.6213 405.003 104.16 405.003 104.16Z" fill="#421302"/>
<path d="M366.893 92.5588C391.03 91.6408 401.374 99.8986 404.331 102.879C400.237 93.0783 389.694 85.7307 379.636 85.9104C374.276 86.0002 369.768 88.3596 366.893 92.5588ZM404.901 104.371C404.823 104.238 395.784 91.9299 366.358 93.2111L365.815 93.2385L366.159 92.6916C369.1 88.008 373.886 85.3713 379.628 85.2814C390.323 85.0783 401.6 93.3205 405.296 104.02L405.921 105.781L404.901 104.371Z" fill="#230901"/>
<path d="M414.839 191.211C414.44 214.238 399.932 232.86 382.44 232.801C364.94 232.738 351.093 214.039 351.491 191.008C351.893 167.988 366.421 149.36 383.909 149.43C401.389 149.481 415.241 168.211 414.839 191.211Z" fill="#7C8B93"/>
<path d="M412.163 192.442C411.784 214.121 398.346 231.641 382.182 231.59C366.003 231.52 353.202 213.918 353.585 192.25C353.964 170.57 367.397 153.051 383.565 153.102C399.741 153.149 412.534 170.77 412.163 192.442Z" fill="#65757C"/>
<mask id="mask9_2_5" style="mask-type:luminance" maskUnits="userSpaceOnUse" x="355" y="155" width="56" height="76">
<path d="M355.346 155.68H410.346V230.68H355.346V155.68Z" fill="white"/>
</mask>
<g mask="url(#mask9_2_5)">
<mask id="mask10_2_5" style="mask-type:luminance" maskUnits="userSpaceOnUse" x="355" y="156" width="56" height="75">
<path d="M382.823 230.621C381.897 230.621 380.964 230.559 380.057 230.43C366.514 228.531 356.1 212.988 355.87 194.309C355.733 184.391 358.436 174.949 363.483 167.738C368.518 160.551 375.272 156.469 382.487 156.231C382.698 156.219 382.913 156.219 383.124 156.219C384.061 156.219 384.999 156.289 385.925 156.399C399.475 158.301 409.874 173.84 410.124 192.508C410.397 213.031 398.452 230.121 383.495 230.61C383.272 230.621 383.046 230.621 382.823 230.621ZM379.261 166.231C378.839 166.231 378.409 166.25 377.983 166.289C366.276 167.258 357.557 181.36 358.471 197.758C359.378 213.559 368.909 225.75 380.053 225.75C380.475 225.75 380.901 225.731 381.327 225.692C393.011 224.711 401.745 210.621 400.807 194.219C400.608 190.621 399.96 187.211 398.948 184.078C399.764 182.738 400.175 181.102 400.014 179.391C399.694 175.719 396.862 172.988 393.526 172.988C393.3 172.988 393.073 173 392.843 173.031C389.1 168.77 384.35 166.231 379.261 166.231Z" fill="white"/>
</mask>
<g mask="url(#mask10_2_5)">
<mask id="mask11_2_5" style="mask-type:luminance" maskUnits="userSpaceOnUse" x="355" y="156" width="56" height="75">
<path d="M382.823 230.621C381.897 230.621 380.964 230.559 380.057 230.43C366.514 228.531 356.1 212.988 355.87 194.309C355.733 184.391 358.436 174.949 363.483 167.738C368.518 160.551 375.272 156.469 382.487 156.231C382.698 156.219 382.913 156.219 383.124 156.219C384.061 156.219 384.999 156.289 385.925 156.399C399.475 158.301 409.874 173.84 410.124 192.508C410.397 213.031 398.452 230.121 383.495 230.61C383.272 230.621 383.046 230.621 382.823 230.621ZM379.261 166.231C378.839 166.231 378.409 166.25 377.983 166.289C366.276 167.258 357.557 181.36 358.471 197.758C359.378 213.559 368.909 225.75 380.053 225.75C380.475 225.75 380.901 225.731 381.327 225.692C393.011 224.711 401.745 210.621 400.807 194.219C400.608 190.621 399.96 187.211 398.948 184.078C399.764 182.738 400.175 181.102 400.014 179.391C399.694 175.719 396.862 172.988 393.526 172.988C393.3 172.988 393.073 173 392.843 173.031C389.1 168.77 384.35 166.231 379.261 166.231Z" fill="white"/>
</mask>
<g mask="url(#mask11_2_5)">
<path d="M410.374 154.414L411.393 230.586L355.757 232.426L354.737 156.254L410.374 154.414Z" fill="url(#paint3_radial_2_5)"/>
</g>
</g>
</g>
<path d="M382.487 156.231C375.272 156.469 368.518 160.551 363.483 167.738C358.436 174.949 355.733 184.391 355.87 194.309C356.1 212.988 366.514 228.531 380.057 230.43C381.186 230.59 382.35 230.649 383.495 230.61C398.452 230.121 410.397 213.031 410.124 192.508C409.874 173.84 399.475 158.301 385.925 156.399C384.792 156.258 383.636 156.192 382.487 156.231ZM354.636 194.36C354.499 184.11 357.307 174.34 362.557 166.891C367.815 159.399 374.897 155.149 382.475 154.899C383.682 154.86 384.913 154.91 386.104 155.09C400.229 157.09 411.085 173.149 411.343 192.469C411.632 213.711 399.143 231.418 383.499 231.942C382.315 231.981 381.069 231.91 379.878 231.75C365.749 229.758 354.893 213.68 354.636 194.36Z" fill="#4F2102"/>
<mask id="mask12_2_5" style="mask-type:luminance" maskUnits="userSpaceOnUse" x="358" y="165" width="44" height="62">
<path d="M358.346 165.68H401.346V226.68H358.346V165.68Z" fill="white"/>
</mask>
<g mask="url(#mask12_2_5)">
<mask id="mask13_2_5" style="mask-type:luminance" maskUnits="userSpaceOnUse" x="358" y="166" width="43" height="60">
<path d="M380.053 225.75C368.909 225.75 359.378 213.559 358.471 197.758C357.557 181.36 366.276 167.258 377.983 166.289C378.409 166.25 378.839 166.231 379.261 166.231C384.35 166.231 389.1 168.77 392.843 173.031C392.811 173.031 392.78 173.039 392.749 173.039C390.069 173.371 387.909 175.379 387.089 177.981C385.303 177.051 383.362 176.539 381.343 176.539C381.069 176.539 380.788 176.539 380.507 176.559C371.964 177.149 365.448 186.77 365.956 198.02C366.444 208.891 373.323 217.32 381.507 217.32C381.784 217.32 382.065 217.309 382.346 217.289C390.897 216.68 397.413 207.07 396.909 195.84C396.764 192.699 396.089 189.758 395.003 187.18C396.659 186.699 398.046 185.57 398.948 184.078C399.96 187.211 400.608 190.621 400.807 194.219C401.745 210.621 393.011 224.711 381.327 225.692C380.901 225.731 380.475 225.75 380.053 225.75Z" fill="white"/>
</mask>
<g mask="url(#mask13_2_5)">
<mask id="mask14_2_5" style="mask-type:luminance" maskUnits="userSpaceOnUse" x="358" y="166" width="43" height="60">
<path d="M380.053 225.75C368.909 225.75 359.378 213.559 358.471 197.758C357.557 181.36 366.276 167.258 377.983 166.289C378.409 166.25 378.839 166.231 379.261 166.231C384.35 166.231 389.1 168.77 392.843 173.031C392.811 173.031 392.78 173.039 392.749 173.039C390.069 173.371 387.909 175.379 387.089 177.981C385.303 177.051 383.362 176.539 381.343 176.539C381.069 176.539 380.788 176.539 380.507 176.559C371.964 177.149 365.448 186.77 365.956 198.02C366.444 208.891 373.323 217.32 381.507 217.32C381.784 217.32 382.065 217.309 382.346 217.289C390.897 216.68 397.413 207.07 396.909 195.84C396.764 192.699 396.089 189.758 395.003 187.18C396.659 186.699 398.046 185.57 398.948 184.078C399.96 187.211 400.608 190.621 400.807 194.219C401.745 210.621 393.011 224.711 381.327 225.692C380.901 225.731 380.475 225.75 380.053 225.75Z" fill="white"/>
</mask>
<g mask="url(#mask14_2_5)">
<path d="M353.21 166.68L357.893 230.297L406.096 225.297L401.413 161.68L353.21 166.68Z" fill="url(#paint4_radial_2_5)"/>
</g>
</g>
</g>
<path d="M396.909 195.84C397.413 207.07 390.897 216.68 382.346 217.289C373.8 217.891 366.46 209.258 365.956 198.02C365.448 186.77 371.964 177.149 380.507 176.559C389.053 175.969 396.397 184.59 396.909 195.84Z" fill="#231F20"/>
<mask id="mask15_2_5" style="mask-type:luminance" maskUnits="userSpaceOnUse" x="392" y="172" width="9" height="13">
<path d="M392.346 172.68H400.346V184.68H392.346V172.68Z" fill="white"/>
</mask>
<g mask="url(#mask15_2_5)">
<mask id="mask16_2_5" style="mask-type:luminance" maskUnits="userSpaceOnUse" x="392" y="172" width="9" height="13">
<path d="M398.948 184.078C397.542 179.75 395.432 175.981 392.843 173.031C393.073 173 393.3 172.988 393.526 172.988C396.862 172.988 399.694 175.719 400.014 179.391C400.175 181.102 399.764 182.738 398.948 184.078Z" fill="white"/>
</mask>
<g mask="url(#mask16_2_5)">
<mask id="mask17_2_5" style="mask-type:luminance" maskUnits="userSpaceOnUse" x="392" y="172" width="9" height="13">
<path d="M398.948 184.078C397.542 179.75 395.432 175.981 392.843 173.031C393.073 173 393.3 172.988 393.526 172.988C396.862 172.988 399.694 175.719 400.014 179.391C400.175 181.102 399.764 182.738 398.948 184.078Z" fill="white"/>
</mask>
<g mask="url(#mask17_2_5)">
<path d="M400.175 172.746L400.323 184.074L392.846 184.32L392.694 172.996L400.175 172.746Z" fill="url(#paint5_radial_2_5)"/>
</g>
</g>
</g>
<mask id="mask18_2_5" style="mask-type:luminance" maskUnits="userSpaceOnUse" x="386" y="172" width="14" height="16">
<path d="M386.346 172.68H399.346V187.68H386.346V172.68Z" fill="white"/>
</mask>
<g mask="url(#mask18_2_5)">
<mask id="mask19_2_5" style="mask-type:luminance" maskUnits="userSpaceOnUse" x="387" y="173" width="12" height="15">
<path d="M395.003 187.18C393.257 183.008 390.448 179.75 387.089 177.981C387.909 175.379 390.069 173.371 392.749 173.039C392.78 173.039 392.811 173.031 392.843 173.031C395.432 175.981 397.542 179.75 398.948 184.078C398.046 185.57 396.659 186.699 395.003 187.18Z" fill="white"/>
</mask>
<g mask="url(#mask19_2_5)">
<mask id="mask20_2_5" style="mask-type:luminance" maskUnits="userSpaceOnUse" x="387" y="173" width="12" height="15">
<path d="M395.003 187.18C393.257 183.008 390.448 179.75 387.089 177.981C387.909 175.379 390.069 173.371 392.749 173.039C392.78 173.039 392.811 173.031 392.843 173.031C395.432 175.981 397.542 179.75 398.948 184.078C398.046 185.57 396.659 186.699 395.003 187.18Z" fill="white"/>
</mask>
<g mask="url(#mask20_2_5)">
<path d="M386.053 173.137L387.178 188.403L399.983 187.074L398.858 171.809L386.053 173.137Z" fill="url(#paint6_radial_2_5)"/>
</g>
</g>
</g>
<path d="M393.292 187.418C389.956 187.418 387.1 184.719 386.761 181.008C386.667 179.961 386.788 178.93 387.089 177.981C390.448 179.75 393.257 183.008 395.003 187.18C394.686 187.27 394.362 187.34 394.026 187.379C393.78 187.41 393.534 187.418 393.292 187.418Z" fill="#918F90"/>
<path d="M269.538 237.871C288.823 254.539 284.319 286.031 314.882 288.879C345.444 291.719 362.839 249.371 362.589 247.219C322.124 238.551 269.538 237.871 269.538 237.871Z" fill="#63240C"/>
<path d="M341.034 243.43C342.069 263.899 329.968 280.629 312.772 288.621C313.46 288.711 314.151 288.82 314.882 288.879C345.444 291.719 362.839 249.371 362.589 247.219C355.647 245.731 348.362 244.481 341.034 243.43Z" fill="#87351D"/>
<path d="M316.444 273.621C311.909 264.301 296.815 266.192 290.483 273.219C295.315 281.36 301.968 287.68 314.882 288.879C326.011 289.918 335.397 284.949 342.819 278.121C337.264 269.719 318.639 269.879 316.444 273.621Z" fill="#F282A3"/>
<path d="M328.811 283.68C332.612 282.75 336.444 277.078 333.616 273.27C333.296 272.781 332.901 272.36 332.475 271.989C325.507 270.36 317.811 271.289 316.444 273.621C311.909 264.301 296.815 266.192 290.483 273.219C293.401 278.129 296.987 282.371 302.202 285.239C311.093 287.16 320.245 287.371 328.811 283.68Z" fill="#FCA2C0"/>
<path d="M291.077 273.281C296.854 282.86 304.003 287.391 314.925 288.41C324.444 289.289 333.655 285.789 342.194 278.051C338.807 273.379 331.124 271.668 325.475 271.641C321.182 271.621 317.636 272.531 316.854 273.871L316.405 274.629L316.022 273.828C314.155 270 310.116 267.781 304.928 267.75C299.69 267.719 294.3 269.891 291.077 273.281ZM317.632 289.488C316.706 289.488 315.768 289.43 314.835 289.352C300.452 288.02 294.042 280.149 290.073 273.461L289.901 273.16L290.132 272.899C293.499 269.16 299.311 266.77 304.94 266.809C310.206 266.828 314.389 269 316.538 272.781C317.968 271.469 321.327 270.668 325.475 270.699C331.499 270.731 339.757 272.621 343.218 277.852L343.436 278.192L343.143 278.469C335.143 285.828 326.561 289.539 317.632 289.488Z" fill="#CC567E"/>
<path d="M270.807 238.36C277.753 244.809 281.495 253.168 285.124 261.27C290.975 274.34 296.514 286.699 314.925 288.41C325.569 289.391 335.753 284.942 345.085 275.238C355.819 264.07 361.479 250.07 362.069 247.59C325.651 239.86 279.061 238.539 270.807 238.36ZM317.636 289.488C316.706 289.488 315.768 289.43 314.835 289.352C295.866 287.59 290.229 274.988 284.257 261.66C280.507 253.281 276.636 244.629 269.221 238.219L268.237 237.371L269.538 237.391C270.069 237.391 322.643 238.18 362.686 246.75L363.018 246.82L363.061 247.16C363.249 248.77 357.405 262.93 347.409 274.129C338.249 284.371 328.237 289.551 317.636 289.488Z" fill="#637075"/>
<path d="M338.514 204.25C328.436 199.391 316.487 198.871 316.487 198.871C312.225 174.988 315.003 152.25 343.846 121.078C372.686 89.9181 324.069 99.4103 315.061 96.7502C311.925 95.8205 301.632 71.1798 284.729 84.3986C267.831 97.6291 199.132 250.91 315.678 265.168C444.78 280.969 338.514 204.25 338.514 204.25Z" fill="#8099A5"/>
<path d="M338.514 204.25C328.436 199.391 316.487 198.871 316.487 198.871C312.225 174.988 309.569 153.82 338.409 122.649C367.261 91.4806 324.069 99.4103 315.061 96.7502C311.925 95.8205 301.632 71.1798 284.729 84.3986C279.386 88.59 268.393 106.621 260.655 130.149C220.3 252.82 331.261 273.852 373.108 259.828C375.409 259.16 377.323 257.961 378.96 256.43C385.788 238.379 338.514 204.25 338.514 204.25Z" fill="#98A8B3"/>
<path d="M335.71 203.02C327.518 199.77 318.956 199.031 316.932 198.891C319.007 204.828 328.093 202.34 335.71 203.02Z" fill="#AAB5BC"/>
<path d="M302.143 82.9807C297.468 79.9182 291.659 78.9885 284.729 84.3986C279.386 88.5901 268.393 106.621 260.655 130.149C253.788 151.008 251.307 168.93 252.108 184.231C255.261 152.59 277.339 78.9299 302.143 82.9807Z" fill="#AAB5BC"/>
<path d="M382.241 260.91C381.022 253.211 373.577 250.918 369.819 250.801C369.819 250.801 372.05 250.051 373.346 250.41C376.225 251.211 379.499 252.942 381.507 256.16C382.303 257.449 382.241 260.91 382.241 260.91Z" fill="#637075"/>
<path d="M379.124 253.602C379.05 254.379 378.913 255.129 378.671 255.852C376.257 263.25 364.971 266.949 345.116 266.84C336.843 266.789 326.96 266.071 315.741 264.699C281.862 260.551 260.749 244.301 252.991 216.399C244.94 187.418 253.632 152.918 259.526 134.942C267.764 109.84 279.175 89.3596 285.03 84.7815C288.261 82.2385 291.487 80.969 294.596 80.9885C302.178 81.0315 307.917 88.719 311.35 93.3205C313.116 95.6994 314.085 96.9494 314.925 97.1994C316.257 97.6018 318.335 97.758 322.12 97.7893C323.354 97.7893 324.675 97.7815 326.05 97.7697C327.542 97.758 329.096 97.7502 330.682 97.758C340.003 97.8088 349.831 98.5315 351.979 103.469C353.569 107.141 350.714 112.961 343.495 120.758C314.667 151.918 311.663 174.551 316.014 198.961L316.085 199.328L316.468 199.352C316.53 199.352 320.667 199.551 326.042 200.668C328.897 201.258 335.659 202.821 335.901 202.602C327.573 199.289 318.796 198.551 316.886 198.418C312.675 174.43 315.772 152.121 344.194 121.41C351.796 113.192 354.628 107.199 352.843 103.09C350.483 97.6486 340.315 96.8713 330.682 96.8088C329.108 96.801 327.538 96.8088 326.042 96.8205C324.675 96.8283 323.354 96.8401 322.124 96.8283C319.557 96.8205 316.729 96.7385 315.198 96.2893C314.62 96.1213 313.401 94.4885 312.108 92.758C308.573 88.0197 302.655 80.0783 294.596 80.0393C291.268 80.0197 287.854 81.3596 284.44 84.0315C272.561 93.3283 237.999 166.02 252.077 216.649C259.94 244.961 281.327 261.449 315.62 265.641C326.882 267.02 336.796 267.738 345.112 267.789H345.116C363.909 267.891 375.237 264.539 378.85 257.828C379.143 257.289 379.428 253.692 379.124 253.602Z" fill="#637075"/>
<path d="M317.218 204.031C316.53 201.668 316.069 199.27 315.835 197.91L316.761 197.699L316.772 197.75C317.112 199.738 318.382 206.418 320.425 209.102C320.425 209.102 317.843 206.199 317.218 204.031Z" fill="#637075"/>
<path d="M279.163 95.8986C278.534 93.3986 278.483 91.2307 279.112 90.2892L279.905 90.8088C278.956 92.2385 280.304 98.6486 283.417 102.981C283.417 102.981 279.796 98.3986 279.163 95.8986Z" fill="#637075"/>
<path d="M265.022 121.289C264.749 119.77 264.612 118.41 264.823 117.918L265.702 118.289C265.37 119.09 266.862 125.789 267.397 126.578C267.397 126.578 265.475 123.75 265.022 121.289Z" fill="#637075"/>
<path d="M255.428 145.258L256.339 145.508C255.628 148.16 257.694 154.281 257.718 154.34C257.718 154.34 254.636 148.199 255.428 145.258Z" fill="#637075"/>
<defs>
<radialGradient id="paint0_radial_2_5" cx="0" cy="0" r="1" gradientTransform="matrix(-31.5437 1.43782 0.882871 34.1734 228.487 190.31)" gradientUnits="userSpaceOnUse">
<stop stop-color="white"/>
<stop offset="0.5" stop-color="white"/>
<stop offset="0.625" stop-color="white"/>
<stop offset="0.648438" stop-color="white"/>
<stop offset="0.65625" stop-color="#FEFEFE"/>
<stop offset="0.664062" stop-color="#FDFDFD"/>
<stop offset="0.671875" stop-color="#FCFCFC"/>
<stop offset="0.679688" stop-color="#FBFBFB"/>
<stop offset="0.6875" stop-color="#FBFBFB"/>
<stop offset="0.695312" stop-color="#FAFAFA"/>
<stop offset="0.703125" stop-color="#F9F9F9"/>
<stop offset="0.710938" stop-color="#F8F8F8"/>
<stop offset="0.71875" stop-color="#F7F7F7"/>
<stop offset="0.726562" stop-color="#F7F7F7"/>
<stop offset="0.734375" stop-color="#F6F6F6"/>
<stop offset="0.742188" stop-color="#F5F5F5"/>
<stop offset="0.75" stop-color="#F4F4F4"/>
<stop offset="0.757812" stop-color="#F3F3F3"/>
<stop offset="0.761719" stop-color="#F3F3F3"/>
<stop offset="0.765625" stop-color="#F3F3F3"/>
<stop offset="0.769531" stop-color="#F2F2F2"/>
<stop offset="0.773438" stop-color="#F2F2F2"/>
<stop offset="0.777344" stop-color="#F1F1F1"/>
<stop offset="0.78125" stop-color="#F1F1F1"/>
<stop offset="0.785156" stop-color="#F1F1F1"/>
<stop offset="0.789062" stop-color="#F0F0F0"/>
<stop offset="0.792969" stop-color="#F0F0F0"/>
<stop offset="0.796875" stop-color="#EFEFEF"/>
<stop offset="0.800781" stop-color="#EFEFEF"/>
<stop offset="0.804688" stop-color="#EEEEEE"/>
<stop offset="0.808594" stop-color="#EEEEEE"/>
<stop offset="0.8125" stop-color="#EEEEEE"/>
<stop offset="0.816406" stop-color="#EDEDED"/>
<stop offset="0.824219" stop-color="#ECECEC"/>
<stop offset="0.832031" stop-color="#EBEBEB"/>
<stop offset="0.839844" stop-color="#EBEBEB"/>
<stop offset="0.847656" stop-color="#EAEAEA"/>
<stop offset="0.855469" stop-color="#E9E9E9"/>
<stop offset="0.863281" stop-color="#E8E8E8"/>
<stop offset="0.871094" stop-color="#E7E7E7"/>
<stop offset="0.878906" stop-color="#E7E7E7"/>
<stop offset="0.882812" stop-color="#E6E6E6"/>
<stop offset="0.886719" stop-color="#E6E6E6"/>
<stop offset="0.890625" stop-color="#E5E5E5"/>
<stop offset="0.894531" stop-color="#E5E5E5"/>
<stop offset="0.898438" stop-color="#E5E5E5"/>
<stop offset="0.902344" stop-color="#E4E4E4"/>
<stop offset="0.90625" stop-color="#E4E4E4"/>
<stop offset="0.910156" stop-color="#E3E3E3"/>
<stop offset="0.917969" stop-color="#E2E2E2"/>
<stop offset="0.925781" stop-color="#E1E1E1"/>
<stop offset="0.933594" stop-color="#E1E1E1"/>
<stop offset="0.941406" stop-color="#E0E0E0"/>
<stop offset="0.945312" stop-color="#E0E0E0"/>
<stop offset="0.949219" stop-color="#DFDFDF"/>
<stop offset="0.953125" stop-color="#DFDFDF"/>
<stop offset="0.957031" stop-color="#DEDEDE"/>
<stop offset="0.964844" stop-color="#DDDDDD"/>
<stop offset="0.972656" stop-color="#DDDDDD"/>
<stop offset="0.976562" stop-color="#DCDCDC"/>
<stop offset="0.980469" stop-color="#DCDCDC"/>
<stop offset="0.988281" stop-color="#DBDBDB"/>
<stop offset="0.992188" stop-color="#DADADA"/>
<stop offset="1" stop-color="#DADADA"/>
</radialGradient>
<radialGradient id="paint1_radial_2_5" cx="0" cy="0" r="1" gradientTransform="matrix(24.4438 -2.84572 2.28149 26.4505 231.472 190.76)" gradientUnits="userSpaceOnUse">
<stop stop-color="white"/>
<stop offset="0.125" stop-color="white"/>
<stop offset="0.152344" stop-color="white"/>
<stop offset="0.175781" stop-color="#FEFFFE"/>
<stop offset="0.179688" stop-color="#FEFEFD"/>
<stop offset="0.183594" stop-color="#FDFEFC"/>
<stop offset="0.1875" stop-color="#FDFEFB"/>
<stop offset="0.191406" stop-color="#FCFEFA"/>
<stop offset="0.195312" stop-color="#FCFDF9"/>
<stop offset="0.199219" stop-color="#FBFDF8"/>
<stop offset="0.203125" stop-color="#FAFDF7"/>
<stop offset="0.207031" stop-color="#FAFCF6"/>
<stop offset="0.210938" stop-color="#F9FCF5"/>
<stop offset="0.214844" stop-color="#F9FCF4"/>
<stop offset="0.21875" stop-color="#F8FCF3"/>
<stop offset="0.222656" stop-color="#F8FBF2"/>
<stop offset="0.226562" stop-color="#F7FBF2"/>
<stop offset="0.230469" stop-color="#F6FBF1"/>
<stop offset="0.234375" stop-color="#F6FAF0"/>
<stop offset="0.238281" stop-color="#F5FAEF"/>
<stop offset="0.242188" stop-color="#F5FAEE"/>
<stop offset="0.246094" stop-color="#F4FAED"/>
<stop offset="0.25" stop-color="#F4F9EC"/>
<stop offset="0.253906" stop-color="#F3F9EB"/>
<stop offset="0.257812" stop-color="#F2F9EA"/>
<stop offset="0.261719" stop-color="#F2F8E9"/>
<stop offset="0.265625" stop-color="#F1F8E8"/>
<stop offset="0.269531" stop-color="#F1F8E7"/>
<stop offset="0.273438" stop-color="#F0F8E6"/>
<stop offset="0.277344" stop-color="#F0F7E5"/>
<stop offset="0.28125" stop-color="#EFF7E4"/>
<stop offset="0.285156" stop-color="#EFF7E3"/>
<stop offset="0.289062" stop-color="#EEF6E2"/>
<stop offset="0.292969" stop-color="#EDF6E1"/>
<stop offset="0.296875" stop-color="#EDF6E0"/>
<stop offset="0.300781" stop-color="#ECF6DF"/>
<stop offset="0.304688" stop-color="#ECF5DE"/>
<stop offset="0.308594" stop-color="#EBF5DD"/>
<stop offset="0.3125" stop-color="#EBF5DD"/>
<stop offset="0.316406" stop-color="#EAF4DC"/>
<stop offset="0.320312" stop-color="#E9F4DB"/>
<stop offset="0.324219" stop-color="#E9F4DA"/>
<stop offset="0.328125" stop-color="#E8F4D9"/>
<stop offset="0.332031" stop-color="#E8F3D8"/>
<stop offset="0.335938" stop-color="#E7F3D7"/>
<stop offset="0.339844" stop-color="#E7F3D6"/>
<stop offset="0.34375" stop-color="#E6F3D5"/>
<stop offset="0.347656" stop-color="#E5F2D4"/>
<stop offset="0.351562" stop-color="#E5F2D3"/>
<stop offset="0.355469" stop-color="#E4F2D2"/>
<stop offset="0.359375" stop-color="#E4F1D1"/>
<stop offset="0.363281" stop-color="#E3F1D0"/>
<stop offset="0.367188" stop-color="#E3F1CF"/>
<stop offset="0.371094" stop-color="#E2F1CE"/>
<stop offset="0.375" stop-color="#E1F0CD"/>
<stop offset="0.378906" stop-color="#E1F0CC"/>
<stop offset="0.382812" stop-color="#E0F0CB"/>
<stop offset="0.386719" stop-color="#E0EFCA"/>
<stop offset="0.390625" stop-color="#DFEFC9"/>
<stop offset="0.394531" stop-color="#DFEFC8"/>
<stop offset="0.398438" stop-color="#DEEFC8"/>
<stop offset="0.402344" stop-color="#DEEEC7"/>
<stop offset="0.40625" stop-color="#DDEEC6"/>
<stop offset="0.410156" stop-color="#DCEEC5"/>
<stop offset="0.414062" stop-color="#DCEDC4"/>
<stop offset="0.417969" stop-color="#DBEDC3"/>
<stop offset="0.421875" stop-color="#DBEDC2"/>
<stop offset="0.425781" stop-color="#DAEDC1"/>
<stop offset="0.429688" stop-color="#DAECC0"/>
<stop offset="0.433594" stop-color="#D9ECBF"/>
<stop offset="0.4375" stop-color="#D8ECBE"/>
<stop offset="0.441406" stop-color="#D8EBBD"/>
<stop offset="0.445312" stop-color="#D7EBBC"/>
<stop offset="0.449219" stop-color="#D7EBBB"/>
<stop offset="0.453125" stop-color="#D6EBBA"/>
<stop offset="0.457031" stop-color="#D6EAB9"/>
<stop offset="0.460938" stop-color="#D5EAB8"/>
<stop offset="0.464844" stop-color="#D4EAB7"/>
<stop offset="0.46875" stop-color="#D4E9B6"/>
<stop offset="0.472656" stop-color="#D3E9B5"/>
<stop offset="0.476562" stop-color="#D3E9B4"/>
<stop offset="0.480469" stop-color="#D2E9B3"/>
<stop offset="0.484375" stop-color="#D2E8B3"/>
<stop offset="0.488281" stop-color="#D1E8B2"/>
<stop offset="0.492188" stop-color="#D0E8B1"/>
<stop offset="0.496094" stop-color="#D0E7B0"/>
<stop offset="0.5" stop-color="#CFE7AF"/>
<stop offset="0.503906" stop-color="#CFE7AE"/>
<stop offset="0.507812" stop-color="#CEE7AD"/>
<stop offset="0.511719" stop-color="#CEE6AC"/>
<stop offset="0.515625" stop-color="#CDE6AB"/>
<stop offset="0.519531" stop-color="#CDE6AA"/>
<stop offset="0.523438" stop-color="#CCE5A9"/>
<stop offset="0.527344" stop-color="#CBE5A8"/>
<stop offset="0.53125" stop-color="#CBE5A7"/>
<stop offset="0.535156" stop-color="#CAE5A6"/>
<stop offset="0.539062" stop-color="#CAE4A5"/>
<stop offset="0.542969" stop-color="#C9E4A4"/>
<stop offset="0.546875" stop-color="#C9E4A3"/>
<stop offset="0.550781" stop-color="#C8E3A2"/>
<stop offset="0.554688" stop-color="#C7E3A1"/>
<stop offset="0.558594" stop-color="#C7E3A0"/>
<stop offset="0.5625" stop-color="#C6E39F"/>
<stop offset="0.566406" stop-color="#C6E29E"/>
<stop offset="0.570312" stop-color="#C5E29E"/>
<stop offset="0.574219" stop-color="#C5E29D"/>
<stop offset="0.578125" stop-color="#C4E19C"/>
<stop offset="0.582031" stop-color="#C3E19B"/>
<stop offset="0.585938" stop-color="#C3E19A"/>
<stop offset="0.589844" stop-color="#C2E199"/>
<stop offset="0.59375" stop-color="#C2E098"/>
<stop offset="0.597656" stop-color="#C1E097"/>
<stop offset="0.601562" stop-color="#C1E096"/>
<stop offset="0.605469" stop-color="#C0E095"/>
<stop offset="0.609375" stop-color="#BFDF94"/>
<stop offset="0.613281" stop-color="#BFDF93"/>
<stop offset="0.617188" stop-color="#BEDF92"/>
<stop offset="0.621094" stop-color="#BEDE91"/>
<stop offset="0.625" stop-color="#BDDE90"/>
<stop offset="0.628906" stop-color="#BDDE8F"/>
<stop offset="0.632812" stop-color="#BCDE8E"/>
<stop offset="0.636719" stop-color="#BBDD8D"/>
<stop offset="0.640625" stop-color="#BBDD8C"/>
<stop offset="0.644531" stop-color="#BADD8B"/>
<stop offset="0.648438" stop-color="#BADC8A"/>
<stop offset="0.652344" stop-color="#B9DC89"/>
<stop offset="0.65625" stop-color="#B9DC89"/>
<stop offset="0.660156" stop-color="#B8DC88"/>
<stop offset="0.664062" stop-color="#B8DB87"/>
<stop offset="0.667969" stop-color="#B7DB86"/>
<stop offset="0.671875" stop-color="#B6DB85"/>
<stop offset="0.675781" stop-color="#B6DA84"/>
<stop offset="0.679688" stop-color="#B5DA83"/>
<stop offset="0.683594" stop-color="#B5DA82"/>
<stop offset="0.6875" stop-color="#B4DA81"/>
<stop offset="0.691406" stop-color="#B4D980"/>
<stop offset="0.695312" stop-color="#B3D97F"/>
<stop offset="0.699219" stop-color="#B2D97E"/>
<stop offset="0.703125" stop-color="#B2D87D"/>
<stop offset="0.707031" stop-color="#B1D87C"/>
<stop offset="0.710938" stop-color="#B1D87B"/>
<stop offset="0.714844" stop-color="#B0D87A"/>
<stop offset="0.71875" stop-color="#B0D779"/>
<stop offset="0.722656" stop-color="#AFD778"/>
<stop offset="0.726562" stop-color="#AED777"/>
<stop offset="0.730469" stop-color="#AED676"/>
<stop offset="0.734375" stop-color="#ADD675"/>
<stop offset="0.738281" stop-color="#ADD675"/>
<stop offset="0.742188" stop-color="#ACD674"/>
<stop offset="0.746094" stop-color="#ACD573"/>
<stop offset="0.75" stop-color="#ABD572"/>
<stop offset="0.753906" stop-color="#AAD571"/>
<stop offset="0.757812" stop-color="#AAD470"/>
<stop offset="0.761719" stop-color="#A9D46F"/>
<stop offset="0.765625" stop-color="#A9D46E"/>
<stop offset="0.769531" stop-color="#A8D46D"/>
<stop offset="0.773438" stop-color="#A8D36C"/>
<stop offset="0.777344" stop-color="#A7D36B"/>
<stop offset="0.78125" stop-color="#A7D36A"/>
<stop offset="0.785156" stop-color="#A6D269"/>
<stop offset="0.789062" stop-color="#A5D268"/>
<stop offset="0.792969" stop-color="#A5D267"/>
<stop offset="0.796875" stop-color="#A4D266"/>
<stop offset="0.800781" stop-color="#A4D165"/>
<stop offset="0.804688" stop-color="#A3D164"/>
<stop offset="0.808594" stop-color="#A3D163"/>
<stop offset="0.8125" stop-color="#A2D062"/>
<stop offset="0.816406" stop-color="#A1D061"/>
<stop offset="0.820312" stop-color="#A1D060"/>
<stop offset="0.824219" stop-color="#A0D060"/>
<stop offset="0.828125" stop-color="#A0CF5F"/>
<stop offset="0.832031" stop-color="#9FCF5E"/>
<stop offset="0.835938" stop-color="#9FCF5D"/>
<stop offset="0.839844" stop-color="#9ECF5C"/>
<stop offset="0.84375" stop-color="#9DCE5B"/>
<stop offset="0.847656" stop-color="#9DCE5A"/>
<stop offset="0.851562" stop-color="#9CCE59"/>
<stop offset="0.855469" stop-color="#9CCD58"/>
<stop offset="0.859375" stop-color="#9BCD57"/>
<stop offset="0.863281" stop-color="#9BCD56"/>
<stop offset="0.867188" stop-color="#9ACD55"/>
<stop offset="0.871094" stop-color="#99CC54"/>
<stop offset="0.875" stop-color="#99CC53"/>
<stop offset="0.878906" stop-color="#98CC52"/>
<stop offset="0.882812" stop-color="#98CB51"/>
<stop offset="0.886719" stop-color="#97CB50"/>
<stop offset="0.890625" stop-color="#97CB4F"/>
<stop offset="0.894531" stop-color="#96CB4E"/>
<stop offset="0.898438" stop-color="#96CA4D"/>
<stop offset="0.902344" stop-color="#95CA4C"/>
<stop offset="0.90625" stop-color="#94CA4B"/>
<stop offset="0.910156" stop-color="#94C94B"/>
<stop offset="0.914062" stop-color="#93C94A"/>
<stop offset="0.917969" stop-color="#93C949"/>
<stop offset="0.921875" stop-color="#92C948"/>
<stop offset="0.925781" stop-color="#92C847"/>
<stop offset="0.929688" stop-color="#91C846"/>
<stop offset="0.933594" stop-color="#90C845"/>
<stop offset="0.9375" stop-color="#90C744"/>
<stop offset="0.941406" stop-color="#8FC743"/>
<stop offset="0.945312" stop-color="#8FC742"/>
<stop offset="0.949219" stop-color="#8EC741"/>
<stop offset="0.953125" stop-color="#8EC640"/>
<stop offset="0.957031" stop-color="#8DC63F"/>
<stop offset="1" stop-color="#8DC63F"/>
</radialGradient>
<radialGradient id="paint2_radial_2_5" cx="0" cy="0" r="1" gradientTransform="matrix(24.4438 -2.84572 2.28149 26.4505 231.472 190.76)" gradientUnits="userSpaceOnUse">
<stop stop-color="white"/>
<stop offset="0.125" stop-color="white"/>
<stop offset="0.179688" stop-color="#FEFFFE"/>
<stop offset="0.183594" stop-color="#FEFFFE"/>
<stop offset="0.1875" stop-color="#FEFFFD"/>
<stop offset="0.191406" stop-color="#FDFEFD"/>
<stop offset="0.195312" stop-color="#FDFEFC"/>
<stop offset="0.199219" stop-color="#FDFEFB"/>
<stop offset="0.210938" stop-color="#FDFEFB"/>
<stop offset="0.214844" stop-color="#FDFEFA"/>
<stop offset="0.21875" stop-color="#FCFDF9"/>
<stop offset="0.222656" stop-color="#FCFDF9"/>
<stop offset="0.234375" stop-color="#FBFDF8"/>
<stop offset="0.238281" stop-color="#FBFDF7"/>
<stop offset="0.242188" stop-color="#FAFDF7"/>
<stop offset="0.246094" stop-color="#FAFDF6"/>
<stop offset="0.25" stop-color="#FAFDF6"/>
<stop offset="0.253906" stop-color="#F9FCF5"/>
<stop offset="0.261719" stop-color="#F9FCF5"/>
<stop offset="0.265625" stop-color="#F8FCF4"/>
<stop offset="0.269531" stop-color="#F8FCF3"/>
<stop offset="0.277344" stop-color="#F7FBF2"/>
<stop offset="0.285156" stop-color="#F7FBF2"/>
<stop offset="0.289062" stop-color="#F7FBF1"/>
<stop offset="0.292969" stop-color="#F6FBF1"/>
<stop offset="0.296875" stop-color="#F6FBF0"/>
<stop offset="0.300781" stop-color="#F6FBEF"/>
<stop offset="0.304688" stop-color="#F5FAEF"/>
<stop offset="0.308594" stop-color="#F5FAEE"/>
<stop offset="0.316406" stop-color="#F4FAED"/>
<stop offset="0.324219" stop-color="#F4FAED"/>
<stop offset="0.328125" stop-color="#F3F9EC"/>
<stop offset="0.332031" stop-color="#F3F9EB"/>
<stop offset="0.339844" stop-color="#F3F9EA"/>
<stop offset="0.347656" stop-color="#F3F9EA"/>
<stop offset="0.351562" stop-color="#F3F9E9"/>
<stop offset="0.355469" stop-color="#F2F8E8"/>
<stop offset="0.359375" stop-color="#F2F8E8"/>
<stop offset="0.367188" stop-color="#F1F8E7"/>
<stop offset="0.375" stop-color="#F1F8E6"/>
<stop offset="0.378906" stop-color="#F0F8E6"/>
<stop offset="0.382812" stop-color="#F0F8E5"/>
<stop offset="0.390625" stop-color="#EFF7E4"/>
<stop offset="0.398438" stop-color="#EFF7E4"/>
<stop offset="0.402344" stop-color="#EEF7E3"/>
<stop offset="0.40625" stop-color="#EEF7E2"/>
<stop offset="0.414062" stop-color="#EDF6E1"/>
<stop offset="0.421875" stop-color="#EDF6E1"/>
<stop offset="0.425781" stop-color="#EDF6E0"/>
<stop offset="0.429688" stop-color="#ECF6E0"/>
<stop offset="0.433594" stop-color="#ECF6DF"/>
<stop offset="0.441406" stop-color="#EBF5DE"/>
<stop offset="0.449219" stop-color="#EBF5DD"/>
<stop offset="0.453125" stop-color="#EAF5DD"/>
<stop offset="0.457031" stop-color="#EAF5DC"/>
<stop offset="0.464844" stop-color="#EAF4DB"/>
<stop offset="0.472656" stop-color="#EAF4DB"/>
<stop offset="0.476562" stop-color="#EAF4DA"/>
<stop offset="0.480469" stop-color="#E9F4D9"/>
<stop offset="0.484375" stop-color="#E9F4D9"/>
<stop offset="0.492188" stop-color="#E8F3D8"/>
<stop offset="0.5" stop-color="#E8F3D7"/>
<stop offset="0.503906" stop-color="#E7F3D7"/>
<stop offset="0.507812" stop-color="#E7F3D6"/>
<stop offset="0.511719" stop-color="#E7F3D6"/>
<stop offset="0.515625" stop-color="#E6F3D5"/>
<stop offset="0.519531" stop-color="#E6F3D5"/>
<stop offset="0.523438" stop-color="#E6F3D5"/>
<stop offset="0.527344" stop-color="#E5F2D4"/>
<stop offset="0.53125" stop-color="#E5F2D3"/>
<stop offset="0.535156" stop-color="#E5F2D3"/>
<stop offset="0.546875" stop-color="#E4F2D2"/>
<stop offset="0.550781" stop-color="#E4F2D1"/>
<stop offset="0.554688" stop-color="#E3F1D1"/>
<stop offset="0.558594" stop-color="#E3F1D0"/>
<stop offset="0.5625" stop-color="#E3F1CF"/>
<stop offset="0.566406" stop-color="#E2F1CF"/>
<stop offset="0.570312" stop-color="#E2F1CE"/>
<stop offset="0.574219" stop-color="#E2F1CE"/>
<stop offset="0.578125" stop-color="#E1F0CD"/>
<stop offset="0.582031" stop-color="#E1F0CD"/>
<stop offset="0.585938" stop-color="#E1F0CD"/>
<stop offset="0.589844" stop-color="#E0F0CC"/>
<stop offset="0.59375" stop-color="#E0F0CB"/>
<stop offset="0.597656" stop-color="#E0F0CB"/>
<stop offset="0.609375" stop-color="#E0EFCA"/>
<stop offset="0.613281" stop-color="#E0EFC9"/>
<stop offset="0.617188" stop-color="#DFEFC9"/>
<stop offset="0.621094" stop-color="#DFEFC8"/>
<stop offset="0.625" stop-color="#DFEFC8"/>
<stop offset="0.628906" stop-color="#DEEFC7"/>
<stop offset="0.636719" stop-color="#DEEFC6"/>
<stop offset="0.640625" stop-color="#DDEEC6"/>
<stop offset="0.644531" stop-color="#DDEEC5"/>
<stop offset="0.652344" stop-color="#DCEEC4"/>
<stop offset="0.660156" stop-color="#DCEEC4"/>
<stop offset="0.664062" stop-color="#DCEEC3"/>
<stop offset="0.667969" stop-color="#DBEDC2"/>
<stop offset="0.675781" stop-color="#DAEDC1"/>
<stop offset="0.683594" stop-color="#DAEDC1"/>
<stop offset="0.6875" stop-color="#DAEDC0"/>
<stop offset="0.691406" stop-color="#D9ECC0"/>
<stop offset="0.695312" stop-color="#D9ECBF"/>
<stop offset="0.703125" stop-color="#D8ECBE"/>
<stop offset="0.710938" stop-color="#D8ECBD"/>
<stop offset="0.714844" stop-color="#D7EBBD"/>
<stop offset="0.71875" stop-color="#D7EBBC"/>
<stop offset="0.726562" stop-color="#D7EBBB"/>
<stop offset="0.734375" stop-color="#D7EBBB"/>
<stop offset="0.738281" stop-color="#D7EBBA"/>
<stop offset="0.742188" stop-color="#D6EAB9"/>
<stop offset="0.746094" stop-color="#D6EAB9"/>
<stop offset="0.753906" stop-color="#D5EAB8"/>
<stop offset="0.757812" stop-color="#D5EAB8"/>
<stop offset="0.761719" stop-color="#D5EAB7"/>
<stop offset="0.765625" stop-color="#D4EAB7"/>
<stop offset="0.769531" stop-color="#D4EAB6"/>
<stop offset="0.773438" stop-color="#D3E9B5"/>
<stop offset="0.785156" stop-color="#D3E9B5"/>
<stop offset="0.789062" stop-color="#D2E9B4"/>
<stop offset="0.792969" stop-color="#D2E9B3"/>
<stop offset="0.796875" stop-color="#D2E9B3"/>
<stop offset="0.808594" stop-color="#D1E8B2"/>
<stop offset="0.8125" stop-color="#D1E8B1"/>
<stop offset="0.816406" stop-color="#D0E8B1"/>
<stop offset="0.820312" stop-color="#D0E8B0"/>
<stop offset="0.824219" stop-color="#D0E8AF"/>
<stop offset="0.828125" stop-color="#CFE7AF"/>
<stop offset="0.832031" stop-color="#CFE7AE"/>
<stop offset="0.839844" stop-color="#CEE7AD"/>
<stop offset="0.847656" stop-color="#CEE7AD"/>
<stop offset="0.851562" stop-color="#CDE6AC"/>
<stop offset="0.855469" stop-color="#CDE6AB"/>
<stop offset="0.863281" stop-color="#CDE6AA"/>
<stop offset="0.871094" stop-color="#CDE6AA"/>
<stop offset="0.875" stop-color="#CDE6A9"/>
<stop offset="0.878906" stop-color="#CCE5A9"/>
<stop offset="0.882812" stop-color="#CCE5A8"/>
<stop offset="0.886719" stop-color="#CCE5A8"/>
<stop offset="0.890625" stop-color="#CBE5A7"/>
<stop offset="0.894531" stop-color="#CBE5A7"/>
<stop offset="0.898438" stop-color="#CBE5A6"/>
<stop offset="0.902344" stop-color="#CAE5A6"/>
<stop offset="0.90625" stop-color="#CAE5A5"/>
<stop offset="0.910156" stop-color="#CAE5A5"/>
<stop offset="0.917969" stop-color="#C9E4A4"/>
<stop offset="0.925781" stop-color="#C9E4A3"/>
<stop offset="0.929688" stop-color="#C8E4A2"/>
<stop offset="0.9375" stop-color="#C7E3A1"/>
<stop offset="0.945312" stop-color="#C7E3A1"/>
<stop offset="0.949219" stop-color="#C7E3A0"/>
<stop offset="0.953125" stop-color="#C6E39F"/>
<stop offset="1" stop-color="#C6E39F"/>
</radialGradient>
<radialGradient id="paint3_radial_2_5" cx="0" cy="0" r="1" gradientTransform="matrix(-31.5579 1.04352 0.457131 34.1809 382.983 193.41)" gradientUnits="userSpaceOnUse">
<stop stop-color="white"/>
<stop offset="0.5" stop-color="white"/>
<stop offset="0.625" stop-color="white"/>
<stop offset="0.648438" stop-color="white"/>
<stop offset="0.65625" stop-color="#FEFEFE"/>
<stop offset="0.664062" stop-color="#FDFDFD"/>
<stop offset="0.671875" stop-color="#FCFCFC"/>
<stop offset="0.679688" stop-color="#FBFBFB"/>
<stop offset="0.6875" stop-color="#FBFBFB"/>
<stop offset="0.695312" stop-color="#FAFAFA"/>
<stop offset="0.703125" stop-color="#F9F9F9"/>
<stop offset="0.710938" stop-color="#F8F8F8"/>
<stop offset="0.71875" stop-color="#F7F7F7"/>
<stop offset="0.726562" stop-color="#F7F7F7"/>
<stop offset="0.734375" stop-color="#F6F6F6"/>
<stop offset="0.742188" stop-color="#F5F5F5"/>
<stop offset="0.75" stop-color="#F4F4F4"/>
<stop offset="0.757812" stop-color="#F3F3F3"/>
<stop offset="0.761719" stop-color="#F3F3F3"/>
<stop offset="0.765625" stop-color="#F3F3F3"/>
<stop offset="0.769531" stop-color="#F2F2F2"/>
<stop offset="0.773438" stop-color="#F2F2F2"/>
<stop offset="0.777344" stop-color="#F1F1F1"/>
<stop offset="0.78125" stop-color="#F1F1F1"/>
<stop offset="0.785156" stop-color="#F1F1F1"/>
<stop offset="0.789062" stop-color="#F0F0F0"/>
<stop offset="0.792969" stop-color="#F0F0F0"/>
<stop offset="0.796875" stop-color="#EFEFEF"/>
<stop offset="0.800781" stop-color="#EFEFEF"/>
<stop offset="0.804688" stop-color="#EEEEEE"/>
<stop offset="0.808594" stop-color="#EEEEEE"/>
<stop offset="0.8125" stop-color="#EEEEEE"/>
<stop offset="0.816406" stop-color="#EDEDED"/>
<stop offset="0.824219" stop-color="#ECECEC"/>
<stop offset="0.832031" stop-color="#EBEBEB"/>
<stop offset="0.839844" stop-color="#EBEBEB"/>
<stop offset="0.847656" stop-color="#EAEAEA"/>
<stop offset="0.855469" stop-color="#E9E9E9"/>
<stop offset="0.863281" stop-color="#E8E8E8"/>
<stop offset="0.871094" stop-color="#E7E7E7"/>
<stop offset="0.878906" stop-color="#E7E7E7"/>
<stop offset="0.882812" stop-color="#E6E6E6"/>
<stop offset="0.886719" stop-color="#E6E6E6"/>
<stop offset="0.890625" stop-color="#E5E5E5"/>
<stop offset="0.894531" stop-color="#E5E5E5"/>
<stop offset="0.898438" stop-color="#E5E5E5"/>
<stop offset="0.902344" stop-color="#E4E4E4"/>
<stop offset="0.90625" stop-color="#E4E4E4"/>
<stop offset="0.910156" stop-color="#E3E3E3"/>
<stop offset="0.917969" stop-color="#E2E2E2"/>
<stop offset="0.925781" stop-color="#E1E1E1"/>
<stop offset="0.933594" stop-color="#E1E1E1"/>
<stop offset="0.941406" stop-color="#E0E0E0"/>
<stop offset="0.945312" stop-color="#E0E0E0"/>
<stop offset="0.949219" stop-color="#DFDFDF"/>
<stop offset="0.953125" stop-color="#DFDFDF"/>
<stop offset="0.957031" stop-color="#DEDEDE"/>
<stop offset="0.964844" stop-color="#DDDDDD"/>
<stop offset="0.972656" stop-color="#DDDDDD"/>
<stop offset="0.976562" stop-color="#DCDCDC"/>
<stop offset="0.980469" stop-color="#DCDCDC"/>
<stop offset="0.988281" stop-color="#DBDBDB"/>
<stop offset="0.992188" stop-color="#DADADA"/>
<stop offset="1" stop-color="#DADADA"/>
</radialGradient>
<radialGradient id="paint4_radial_2_5" cx="0" cy="0" r="1" gradientTransform="matrix(24.4786 -2.53912 1.95034 26.4805 379.64 195.99)" gradientUnits="userSpaceOnUse">
<stop stop-color="white"/>
<stop offset="0.125" stop-color="white"/>
<stop offset="0.152344" stop-color="white"/>
<stop offset="0.175781" stop-color="#FEFFFE"/>
<stop offset="0.179688" stop-color="#FEFEFD"/>
<stop offset="0.183594" stop-color="#FDFEFC"/>
<stop offset="0.1875" stop-color="#FDFEFB"/>
<stop offset="0.191406" stop-color="#FCFEFA"/>
<stop offset="0.195312" stop-color="#FCFDF9"/>
<stop offset="0.199219" stop-color="#FBFDF8"/>
<stop offset="0.203125" stop-color="#FAFDF7"/>
<stop offset="0.207031" stop-color="#FAFCF6"/>
<stop offset="0.210938" stop-color="#F9FCF5"/>
<stop offset="0.214844" stop-color="#F9FCF4"/>
<stop offset="0.21875" stop-color="#F8FCF3"/>
<stop offset="0.222656" stop-color="#F8FBF2"/>
<stop offset="0.226562" stop-color="#F7FBF2"/>
<stop offset="0.230469" stop-color="#F6FBF1"/>
<stop offset="0.234375" stop-color="#F6FAF0"/>
<stop offset="0.238281" stop-color="#F5FAEF"/>
<stop offset="0.242188" stop-color="#F5FAEE"/>
<stop offset="0.246094" stop-color="#F4FAED"/>
<stop offset="0.25" stop-color="#F4F9EC"/>
<stop offset="0.253906" stop-color="#F3F9EB"/>
<stop offset="0.257812" stop-color="#F2F9EA"/>
<stop offset="0.261719" stop-color="#F2F8E9"/>
<stop offset="0.265625" stop-color="#F1F8E8"/>
<stop offset="0.269531" stop-color="#F1F8E7"/>
<stop offset="0.273438" stop-color="#F0F8E6"/>
<stop offset="0.277344" stop-color="#F0F7E5"/>
<stop offset="0.28125" stop-color="#EFF7E4"/>
<stop offset="0.285156" stop-color="#EFF7E3"/>
<stop offset="0.289062" stop-color="#EEF6E2"/>
<stop offset="0.292969" stop-color="#EDF6E1"/>
<stop offset="0.296875" stop-color="#EDF6E0"/>
<stop offset="0.300781" stop-color="#ECF6DF"/>
<stop offset="0.304688" stop-color="#ECF5DE"/>
<stop offset="0.308594" stop-color="#EBF5DD"/>
<stop offset="0.3125" stop-color="#EBF5DD"/>
<stop offset="0.316406" stop-color="#EAF4DC"/>
<stop offset="0.320312" stop-color="#E9F4DB"/>
<stop offset="0.324219" stop-color="#E9F4DA"/>
<stop offset="0.328125" stop-color="#E8F4D9"/>
<stop offset="0.332031" stop-color="#E8F3D8"/>
<stop offset="0.335938" stop-color="#E7F3D7"/>
<stop offset="0.339844" stop-color="#E7F3D6"/>
<stop offset="0.34375" stop-color="#E6F3D5"/>
<stop offset="0.347656" stop-color="#E5F2D4"/>
<stop offset="0.351562" stop-color="#E5F2D3"/>
<stop offset="0.355469" stop-color="#E4F2D2"/>
<stop offset="0.359375" stop-color="#E4F1D1"/>
<stop offset="0.363281" stop-color="#E3F1D0"/>
<stop offset="0.367188" stop-color="#E3F1CF"/>
<stop offset="0.371094" stop-color="#E2F1CE"/>
<stop offset="0.375" stop-color="#E1F0CD"/>
<stop offset="0.378906" stop-color="#E1F0CC"/>
<stop offset="0.382812" stop-color="#E0F0CB"/>
<stop offset="0.386719" stop-color="#E0EFCA"/>
<stop offset="0.390625" stop-color="#DFEFC9"/>
<stop offset="0.394531" stop-color="#DFEFC8"/>
<stop offset="0.398438" stop-color="#DEEFC8"/>
<stop offset="0.402344" stop-color="#DEEEC7"/>
<stop offset="0.40625" stop-color="#DDEEC6"/>
<stop offset="0.410156" stop-color="#DCEEC5"/>
<stop offset="0.414062" stop-color="#DCEDC4"/>
<stop offset="0.417969" stop-color="#DBEDC3"/>
<stop offset="0.421875" stop-color="#DBEDC2"/>
<stop offset="0.425781" stop-color="#DAEDC1"/>
<stop offset="0.429688" stop-color="#DAECC0"/>
<stop offset="0.433594" stop-color="#D9ECBF"/>
<stop offset="0.4375" stop-color="#D8ECBE"/>
<stop offset="0.441406" stop-color="#D8EBBD"/>
<stop offset="0.445312" stop-color="#D7EBBC"/>
<stop offset="0.449219" stop-color="#D7EBBB"/>
<stop offset="0.453125" stop-color="#D6EBBA"/>
<stop offset="0.457031" stop-color="#D6EAB9"/>
<stop offset="0.460938" stop-color="#D5EAB8"/>
<stop offset="0.464844" stop-color="#D4EAB7"/>
<stop offset="0.46875" stop-color="#D4E9B6"/>
<stop offset="0.472656" stop-color="#D3E9B5"/>
<stop offset="0.476562" stop-color="#D3E9B4"/>
<stop offset="0.480469" stop-color="#D2E9B3"/>
<stop offset="0.484375" stop-color="#D2E8B3"/>
<stop offset="0.488281" stop-color="#D1E8B2"/>
<stop offset="0.492188" stop-color="#D0E8B1"/>
<stop offset="0.496094" stop-color="#D0E7B0"/>
<stop offset="0.5" stop-color="#CFE7AF"/>
<stop offset="0.503906" stop-color="#CFE7AE"/>
<stop offset="0.507812" stop-color="#CEE7AD"/>
<stop offset="0.511719" stop-color="#CEE6AC"/>
<stop offset="0.515625" stop-color="#CDE6AB"/>
<stop offset="0.519531" stop-color="#CDE6AA"/>
<stop offset="0.523438" stop-color="#CCE5A9"/>
<stop offset="0.527344" stop-color="#CBE5A8"/>
<stop offset="0.53125" stop-color="#CBE5A7"/>
<stop offset="0.535156" stop-color="#CAE5A6"/>
<stop offset="0.539062" stop-color="#CAE4A5"/>
<stop offset="0.542969" stop-color="#C9E4A4"/>
<stop offset="0.546875" stop-color="#C9E4A3"/>
<stop offset="0.550781" stop-color="#C8E3A2"/>
<stop offset="0.554688" stop-color="#C7E3A1"/>
<stop offset="0.558594" stop-color="#C7E3A0"/>
<stop offset="0.5625" stop-color="#C6E39F"/>
<stop offset="0.566406" stop-color="#C6E29E"/>
<stop offset="0.570312" stop-color="#C5E29E"/>
<stop offset="0.574219" stop-color="#C5E29D"/>
<stop offset="0.578125" stop-color="#C4E19C"/>
<stop offset="0.582031" stop-color="#C3E19B"/>
<stop offset="0.585938" stop-color="#C3E19A"/>
<stop offset="0.589844" stop-color="#C2E199"/>
<stop offset="0.59375" stop-color="#C2E098"/>
<stop offset="0.597656" stop-color="#C1E097"/>
<stop offset="0.601562" stop-color="#C1E096"/>
<stop offset="0.605469" stop-color="#C0E095"/>
<stop offset="0.609375" stop-color="#BFDF94"/>
<stop offset="0.613281" stop-color="#BFDF93"/>
<stop offset="0.617188" stop-color="#BEDF92"/>
<stop offset="0.621094" stop-color="#BEDE91"/>
<stop offset="0.625" stop-color="#BDDE90"/>
<stop offset="0.628906" stop-color="#BDDE8F"/>
<stop offset="0.632812" stop-color="#BCDE8E"/>
<stop offset="0.636719" stop-color="#BBDD8D"/>
<stop offset="0.640625" stop-color="#BBDD8C"/>
<stop offset="0.644531" stop-color="#BADD8B"/>
<stop offset="0.648438" stop-color="#BADC8A"/>
<stop offset="0.652344" stop-color="#B9DC89"/>
<stop offset="0.65625" stop-color="#B9DC89"/>
<stop offset="0.660156" stop-color="#B8DC88"/>
<stop offset="0.664062" stop-color="#B8DB87"/>
<stop offset="0.667969" stop-color="#B7DB86"/>
<stop offset="0.671875" stop-color="#B6DB85"/>
<stop offset="0.675781" stop-color="#B6DA84"/>
<stop offset="0.679688" stop-color="#B5DA83"/>
<stop offset="0.683594" stop-color="#B5DA82"/>
<stop offset="0.6875" stop-color="#B4DA81"/>
<stop offset="0.691406" stop-color="#B4D980"/>
<stop offset="0.695312" stop-color="#B3D97F"/>
<stop offset="0.699219" stop-color="#B2D97E"/>
<stop offset="0.703125" stop-color="#B2D87D"/>
<stop offset="0.707031" stop-color="#B1D87C"/>
<stop offset="0.710938" stop-color="#B1D87B"/>
<stop offset="0.714844" stop-color="#B0D87A"/>
<stop offset="0.71875" stop-color="#B0D779"/>
<stop offset="0.722656" stop-color="#AFD778"/>
<stop offset="0.726562" stop-color="#AED777"/>
<stop offset="0.730469" stop-color="#AED676"/>
<stop offset="0.734375" stop-color="#ADD675"/>
<stop offset="0.738281" stop-color="#ADD675"/>
<stop offset="0.742188" stop-color="#ACD674"/>
<stop offset="0.746094" stop-color="#ACD573"/>
<stop offset="0.75" stop-color="#ABD572"/>
<stop offset="0.753906" stop-color="#AAD571"/>
<stop offset="0.757812" stop-color="#AAD470"/>
<stop offset="0.761719" stop-color="#A9D46F"/>
<stop offset="0.765625" stop-color="#A9D46E"/>
<stop offset="0.769531" stop-color="#A8D46D"/>
<stop offset="0.773438" stop-color="#A8D36C"/>
<stop offset="0.777344" stop-color="#A7D36B"/>
<stop offset="0.78125" stop-color="#A7D36A"/>
<stop offset="0.785156" stop-color="#A6D269"/>
<stop offset="0.789062" stop-color="#A5D268"/>
<stop offset="0.792969" stop-color="#A5D267"/>
<stop offset="0.796875" stop-color="#A4D266"/>
<stop offset="0.800781" stop-color="#A4D165"/>
<stop offset="0.804688" stop-color="#A3D164"/>
<stop offset="0.808594" stop-color="#A3D163"/>
<stop offset="0.8125" stop-color="#A2D062"/>
<stop offset="0.816406" stop-color="#A1D061"/>
<stop offset="0.820312" stop-color="#A1D060"/>
<stop offset="0.824219" stop-color="#A0D060"/>
<stop offset="0.828125" stop-color="#A0CF5F"/>
<stop offset="0.832031" stop-color="#9FCF5E"/>
<stop offset="0.835938" stop-color="#9FCF5D"/>
<stop offset="0.839844" stop-color="#9ECF5C"/>
<stop offset="0.84375" stop-color="#9DCE5B"/>
<stop offset="0.847656" stop-color="#9DCE5A"/>
<stop offset="0.851562" stop-color="#9CCE59"/>
<stop offset="0.855469" stop-color="#9CCD58"/>
<stop offset="0.859375" stop-color="#9BCD57"/>
<stop offset="0.863281" stop-color="#9BCD56"/>
<stop offset="0.867188" stop-color="#9ACD55"/>
<stop offset="0.871094" stop-color="#99CC54"/>
<stop offset="0.875" stop-color="#99CC53"/>
<stop offset="0.878906" stop-color="#98CC52"/>
<stop offset="0.882812" stop-color="#98CB51"/>
<stop offset="0.886719" stop-color="#97CB50"/>
<stop offset="0.890625" stop-color="#97CB4F"/>
<stop offset="0.894531" stop-color="#96CB4E"/>
<stop offset="0.898438" stop-color="#96CA4D"/>
<stop offset="0.902344" stop-color="#95CA4C"/>
<stop offset="0.90625" stop-color="#94CA4B"/>
<stop offset="0.910156" stop-color="#94C94B"/>
<stop offset="0.914062" stop-color="#93C94A"/>
<stop offset="0.917969" stop-color="#93C949"/>
<stop offset="0.921875" stop-color="#92C948"/>
<stop offset="0.925781" stop-color="#92C847"/>
<stop offset="0.929688" stop-color="#91C846"/>
<stop offset="0.933594" stop-color="#90C845"/>
<stop offset="0.9375" stop-color="#90C744"/>
<stop offset="0.941406" stop-color="#8FC743"/>
<stop offset="0.945312" stop-color="#8FC742"/>
<stop offset="0.949219" stop-color="#8EC741"/>
<stop offset="0.953125" stop-color="#8EC640"/>
<stop offset="0.957031" stop-color="#8DC63F"/>
<stop offset="1" stop-color="#8DC63F"/>
</radialGradient>
<radialGradient id="paint5_radial_2_5" cx="0" cy="0" r="1" gradientTransform="matrix(-31.5579 1.04352 0.457131 34.1809 382.983 193.41)" gradientUnits="userSpaceOnUse">
<stop stop-color="white"/>
<stop offset="0.5" stop-color="white"/>
<stop offset="0.625" stop-color="white"/>
<stop offset="0.648438" stop-color="white"/>
<stop offset="0.65625" stop-color="white"/>
<stop offset="0.664062" stop-color="#FEFEFE"/>
<stop offset="0.671875" stop-color="#FEFEFE"/>
<stop offset="0.679688" stop-color="#FDFDFD"/>
<stop offset="0.699219" stop-color="#FDFDFD"/>
<stop offset="0.703125" stop-color="#FCFCFC"/>
<stop offset="0.71875" stop-color="#FBFBFB"/>
<stop offset="0.734375" stop-color="#FBFBFB"/>
<stop offset="0.742188" stop-color="#FAFAFA"/>
<stop offset="0.757812" stop-color="#F9F9F9"/>
<stop offset="0.769531" stop-color="#F9F9F9"/>
<stop offset="0.773438" stop-color="#F8F8F8"/>
<stop offset="0.785156" stop-color="#F8F8F8"/>
<stop offset="0.796875" stop-color="#F7F7F7"/>
<stop offset="0.808594" stop-color="#F7F7F7"/>
<stop offset="0.8125" stop-color="#F6F6F6"/>
<stop offset="0.824219" stop-color="#F6F6F6"/>
<stop offset="0.832031" stop-color="#F6F6F6"/>
<stop offset="0.835938" stop-color="#F5F5F5"/>
<stop offset="0.84375" stop-color="#F5F5F5"/>
<stop offset="0.851562" stop-color="#F4F4F4"/>
<stop offset="0.867188" stop-color="#F4F4F4"/>
<stop offset="0.875" stop-color="#F3F3F3"/>
<stop offset="0.890625" stop-color="#F2F2F2"/>
<stop offset="0.902344" stop-color="#F2F2F2"/>
<stop offset="0.90625" stop-color="#F1F1F1"/>
<stop offset="0.917969" stop-color="#F1F1F1"/>
<stop offset="0.925781" stop-color="#F1F1F1"/>
<stop offset="0.929688" stop-color="#F0F0F0"/>
<stop offset="0.945312" stop-color="#EFEFEF"/>
<stop offset="0.957031" stop-color="#EFEFEF"/>
<stop offset="0.964844" stop-color="#EFEFEF"/>
<stop offset="0.96875" stop-color="#EEEEEE"/>
<stop offset="0.984375" stop-color="#EDEDED"/>
<stop offset="1" stop-color="#EDEDED"/>
</radialGradient>
<radialGradient id="paint6_radial_2_5" cx="0" cy="0" r="1" gradientTransform="matrix(24.4786 -2.53912 1.95034 26.4805 379.64 195.99)" gradientUnits="userSpaceOnUse">
<stop stop-color="white"/>
<stop offset="0.125" stop-color="white"/>
<stop offset="0.179688" stop-color="#FEFFFE"/>
<stop offset="0.183594" stop-color="#FEFFFE"/>
<stop offset="0.1875" stop-color="#FEFFFD"/>
<stop offset="0.191406" stop-color="#FDFEFD"/>
<stop offset="0.195312" stop-color="#FDFEFC"/>
<stop offset="0.199219" stop-color="#FDFEFB"/>
<stop offset="0.210938" stop-color="#FDFEFB"/>
<stop offset="0.214844" stop-color="#FDFEFA"/>
<stop offset="0.21875" stop-color="#FCFDF9"/>
<stop offset="0.222656" stop-color="#FCFDF9"/>
<stop offset="0.234375" stop-color="#FBFDF8"/>
<stop offset="0.238281" stop-color="#FBFDF7"/>
<stop offset="0.242188" stop-color="#FAFDF7"/>
<stop offset="0.246094" stop-color="#FAFDF6"/>
<stop offset="0.25" stop-color="#FAFDF6"/>
<stop offset="0.253906" stop-color="#F9FCF5"/>
<stop offset="0.261719" stop-color="#F9FCF5"/>
<stop offset="0.265625" stop-color="#F8FCF4"/>
<stop offset="0.269531" stop-color="#F8FCF3"/>
<stop offset="0.277344" stop-color="#F7FBF2"/>
<stop offset="0.285156" stop-color="#F7FBF2"/>
<stop offset="0.289062" stop-color="#F7FBF1"/>
<stop offset="0.292969" stop-color="#F6FBF1"/>
<stop offset="0.296875" stop-color="#F6FBF0"/>
<stop offset="0.300781" stop-color="#F6FBEF"/>
<stop offset="0.304688" stop-color="#F5FAEF"/>
<stop offset="0.308594" stop-color="#F5FAEE"/>
<stop offset="0.316406" stop-color="#F4FAED"/>
<stop offset="0.324219" stop-color="#F4FAED"/>
<stop offset="0.328125" stop-color="#F3F9EC"/>
<stop offset="0.332031" stop-color="#F3F9EB"/>
<stop offset="0.339844" stop-color="#F3F9EA"/>
<stop offset="0.347656" stop-color="#F3F9EA"/>
<stop offset="0.351562" stop-color="#F3F9E9"/>
<stop offset="0.355469" stop-color="#F2F8E8"/>
<stop offset="0.359375" stop-color="#F2F8E8"/>
<stop offset="0.367188" stop-color="#F1F8E7"/>
<stop offset="0.375" stop-color="#F1F8E6"/>
<stop offset="0.378906" stop-color="#F0F8E6"/>
<stop offset="0.382812" stop-color="#F0F8E5"/>
<stop offset="0.390625" stop-color="#EFF7E4"/>
<stop offset="0.398438" stop-color="#EFF7E4"/>
<stop offset="0.402344" stop-color="#EEF7E3"/>
<stop offset="0.40625" stop-color="#EEF7E2"/>
<stop offset="0.414062" stop-color="#EDF6E1"/>
<stop offset="0.421875" stop-color="#EDF6E1"/>
<stop offset="0.425781" stop-color="#EDF6E0"/>
<stop offset="0.429688" stop-color="#ECF6E0"/>
<stop offset="0.433594" stop-color="#ECF6DF"/>
<stop offset="0.441406" stop-color="#EBF5DE"/>
<stop offset="0.449219" stop-color="#EBF5DD"/>
<stop offset="0.453125" stop-color="#EAF5DD"/>
<stop offset="0.457031" stop-color="#EAF5DC"/>
<stop offset="0.464844" stop-color="#EAF4DB"/>
<stop offset="0.472656" stop-color="#EAF4DB"/>
<stop offset="0.476562" stop-color="#EAF4DA"/>
<stop offset="0.480469" stop-color="#E9F4D9"/>
<stop offset="0.484375" stop-color="#E9F4D9"/>
<stop offset="0.492188" stop-color="#E8F3D8"/>
<stop offset="0.5" stop-color="#E8F3D7"/>
<stop offset="0.503906" stop-color="#E7F3D7"/>
<stop offset="0.507812" stop-color="#E7F3D6"/>
<stop offset="0.511719" stop-color="#E7F3D6"/>
<stop offset="0.515625" stop-color="#E6F3D5"/>
<stop offset="0.519531" stop-color="#E6F3D5"/>
<stop offset="0.523438" stop-color="#E6F3D5"/>
<stop offset="0.527344" stop-color="#E5F2D4"/>
<stop offset="0.53125" stop-color="#E5F2D3"/>
<stop offset="0.535156" stop-color="#E5F2D3"/>
<stop offset="0.546875" stop-color="#E4F2D2"/>
<stop offset="0.550781" stop-color="#E4F2D1"/>
<stop offset="0.554688" stop-color="#E3F1D1"/>
<stop offset="0.558594" stop-color="#E3F1D0"/>
<stop offset="0.5625" stop-color="#E3F1CF"/>
<stop offset="0.566406" stop-color="#E2F1CF"/>
<stop offset="0.570312" stop-color="#E2F1CE"/>
<stop offset="0.574219" stop-color="#E2F1CE"/>
<stop offset="0.578125" stop-color="#E1F0CD"/>
<stop offset="0.582031" stop-color="#E1F0CD"/>
<stop offset="0.585938" stop-color="#E1F0CD"/>
<stop offset="0.589844" stop-color="#E0F0CC"/>
<stop offset="0.59375" stop-color="#E0F0CB"/>
<stop offset="0.597656" stop-color="#E0F0CB"/>
<stop offset="0.609375" stop-color="#E0EFCA"/>
<stop offset="0.613281" stop-color="#E0EFC9"/>
<stop offset="0.617188" stop-color="#DFEFC9"/>
<stop offset="0.621094" stop-color="#DFEFC8"/>
<stop offset="0.625" stop-color="#DFEFC8"/>
<stop offset="0.628906" stop-color="#DEEFC7"/>
<stop offset="0.636719" stop-color="#DEEFC6"/>
<stop offset="0.640625" stop-color="#DDEEC6"/>
<stop offset="0.644531" stop-color="#DDEEC5"/>
<stop offset="0.652344" stop-color="#DCEEC4"/>
<stop offset="0.660156" stop-color="#DCEEC4"/>
<stop offset="0.664062" stop-color="#DCEEC3"/>
<stop offset="0.667969" stop-color="#DBEDC2"/>
<stop offset="0.675781" stop-color="#DAEDC1"/>
<stop offset="0.683594" stop-color="#DAEDC1"/>
<stop offset="0.6875" stop-color="#DAEDC0"/>
<stop offset="0.691406" stop-color="#D9ECC0"/>
<stop offset="0.695312" stop-color="#D9ECBF"/>
<stop offset="0.703125" stop-color="#D8ECBE"/>
<stop offset="0.710938" stop-color="#D8ECBD"/>
<stop offset="0.714844" stop-color="#D7EBBD"/>
<stop offset="0.71875" stop-color="#D7EBBC"/>
<stop offset="0.726562" stop-color="#D7EBBB"/>
<stop offset="0.734375" stop-color="#D7EBBB"/>
<stop offset="0.738281" stop-color="#D7EBBA"/>
<stop offset="0.742188" stop-color="#D6EAB9"/>
<stop offset="0.746094" stop-color="#D6EAB9"/>
<stop offset="0.753906" stop-color="#D5EAB8"/>
<stop offset="0.757812" stop-color="#D5EAB8"/>
<stop offset="0.761719" stop-color="#D5EAB7"/>
<stop offset="0.765625" stop-color="#D4EAB7"/>
<stop offset="0.769531" stop-color="#D4EAB6"/>
<stop offset="0.773438" stop-color="#D3E9B5"/>
<stop offset="0.785156" stop-color="#D3E9B5"/>
<stop offset="0.789062" stop-color="#D2E9B4"/>
<stop offset="0.792969" stop-color="#D2E9B3"/>
<stop offset="0.796875" stop-color="#D2E9B3"/>
<stop offset="0.808594" stop-color="#D1E8B2"/>
<stop offset="0.8125" stop-color="#D1E8B1"/>
<stop offset="0.816406" stop-color="#D0E8B1"/>
<stop offset="0.820312" stop-color="#D0E8B0"/>
<stop offset="0.824219" stop-color="#D0E8AF"/>
<stop offset="0.828125" stop-color="#CFE7AF"/>
<stop offset="0.832031" stop-color="#CFE7AE"/>
<stop offset="0.839844" stop-color="#CEE7AD"/>
<stop offset="0.847656" stop-color="#CEE7AD"/>
<stop offset="0.851562" stop-color="#CDE6AC"/>
<stop offset="0.855469" stop-color="#CDE6AB"/>
<stop offset="0.863281" stop-color="#CDE6AA"/>
<stop offset="0.871094" stop-color="#CDE6AA"/>
<stop offset="0.875" stop-color="#CDE6A9"/>
<stop offset="0.878906" stop-color="#CCE5A9"/>
<stop offset="0.882812" stop-color="#CCE5A8"/>
<stop offset="0.886719" stop-color="#CCE5A8"/>
<stop offset="0.890625" stop-color="#CBE5A7"/>
<stop offset="0.894531" stop-color="#CBE5A7"/>
<stop offset="0.898438" stop-color="#CBE5A6"/>
<stop offset="0.902344" stop-color="#CAE5A6"/>
<stop offset="0.90625" stop-color="#CAE5A5"/>
<stop offset="0.910156" stop-color="#CAE5A5"/>
<stop offset="0.917969" stop-color="#C9E4A4"/>
<stop offset="0.925781" stop-color="#C9E4A3"/>
<stop offset="0.929688" stop-color="#C8E4A2"/>
<stop offset="0.9375" stop-color="#C7E3A1"/>
<stop offset="0.945312" stop-color="#C7E3A1"/>
<stop offset="0.949219" stop-color="#C7E3A0"/>
<stop offset="0.953125" stop-color="#C6E39F"/>
<stop offset="1" stop-color="#C6E39F"/>
</radialGradient>
</defs>
</svg>
