<svg width="483" height="413" viewBox="0 0 483 413" fill="none" xmlns="http://www.w3.org/2000/svg">
<path d="M349.281 133.098C390.824 36.9687 498.539 69.8906 479.945 134.871C464.172 189.98 417.215 206.688 378.051 193.359C338.887 180.031 349.281 133.098 349.281 133.098Z" fill="#E2886F"/>
<path d="M349.281 133.098C349.281 133.098 352.629 154.43 355.18 168.168C399.602 115.91 397.586 104.328 432.871 99.6797C442.703 97.7812 453.918 109.109 453.809 120.5C453.547 138.16 427.098 142.371 408.613 142.359C419.465 147.32 419.602 162.66 410.246 170.031C399.055 179.969 386.234 186.551 372.598 191.141C374.297 191.949 376.109 192.699 378.051 193.359C417.215 206.688 464.172 189.98 479.945 134.871C498.539 69.8906 390.824 36.9687 349.281 133.098Z" fill="#FAA993"/>
<path d="M349.281 133.098C349.281 133.098 352.629 154.43 355.18 168.168C399.602 115.91 397.586 104.328 432.871 99.6797C436 99.0781 439.266 99.8203 442.266 101.469C454.203 103.48 466.492 125.699 457.207 137.687C447.563 148.789 428.586 167.969 435.82 175.469C442.067 181.949 459.977 166.98 466.152 159.871C470.488 154.391 474.231 148.84 477.207 143.211C478.203 140.531 479.117 137.75 479.945 134.871C498.539 69.8906 390.824 36.9687 349.281 133.098Z" fill="#F9B5A5"/>
<path d="M375.871 134.391C389.207 120.758 402.832 104.961 423.488 100.75C435.336 98.0391 445.586 100.098 455.223 106.52C461.77 111.09 477.301 108.938 477.551 100.668C458.289 61.9102 382.555 56.0898 349.281 133.098C349.281 133.098 348.922 134.711 348.598 137.418C357.594 142.008 369.324 141.539 375.871 134.391Z" fill="#F9CBB2"/>
<path d="M428.473 77.3281C448.672 78.5 464.477 88.3399 477.473 101.18C477.488 101.008 477.543 100.848 477.551 100.668C460.313 65.9688 397.82 57.6797 361.039 111.559C377.942 92.9688 401.207 75.75 428.473 77.3281Z" fill="#F9E4E1"/>
<path d="M401.059 78.5977C385.774 84.7695 364.465 99.2578 349.777 133.238C349.699 133.621 339.953 179.848 378.281 192.898C396.172 198.988 415.242 198.621 431.977 191.879C454.66 182.738 471.504 162.461 479.422 134.789C485.113 114.91 479.305 96.6797 463.484 84.7695C446.77 72.1797 422.848 69.8203 401.059 78.5977ZM432.344 192.77C415.332 199.621 395.973 200 377.82 193.82C338.731 180.508 348.649 133.52 348.754 133.039C363.621 98.6289 385.207 83.9688 400.703 77.7188C422.871 68.7813 447.199 71.1875 464.207 83.9883C480.336 96.1289 486.25 114.699 480.461 134.949C472.449 162.949 455.359 183.488 432.344 192.77Z" fill="#CC6750"/>
<path d="M427.039 169.539C427.317 156.48 421.91 147.168 412.199 144C400.996 140.34 386.215 145.199 373.637 156.68L372.074 158.109L372.777 156.238C388.734 113.23 416.586 97.0078 437.129 100.02C449.543 101.84 457.836 110.41 459.731 122.23C460.336 126 458.465 134.32 458.465 134.32C461.547 117.008 452.664 103.301 436.867 100.98C417.094 98.0898 390.313 113.609 374.477 154.641C387.027 143.871 401.5 139.437 412.641 143.078C420.055 145.488 425.07 151.309 427.098 159.539C427.84 162.551 427.039 169.539 427.039 169.539Z" fill="#CC6750"/>
<path d="M133.395 145.059C104.828 45.5586 -8.59362 68.2891 1.13294 134.648C9.37513 190.961 54.5001 211.949 95.9259 202.328C137.356 192.711 133.395 145.059 133.395 145.059Z" fill="#E2886F"/>
<path d="M133.395 145.059C133.395 145.059 127.039 165.969 122.547 179.398C84.9493 123.27 88.6056 111.938 53.5939 104.031C43.9376 101.23 31.0197 111.449 29.5431 122.789C27.3439 140.391 53.4806 147.039 72.1564 148.75C60.504 152.68 58.2267 167.918 66.6525 176.129C76.5783 187.059 88.6095 194.789 101.738 200.629C99.9064 201.281 97.9728 201.848 95.9259 202.328C54.5001 211.949 9.37513 190.961 1.13294 134.648C-8.59362 68.2891 104.828 45.5586 133.395 145.059Z" fill="#FAA993"/>
<path d="M133.395 145.059C133.395 145.059 127.039 165.969 122.547 179.398C84.9493 123.27 88.6056 111.938 53.5939 104.031C50.5236 103.141 47.1134 103.57 43.8595 104.938C31.5158 105.828 16.004 126.789 23.7072 139.578C31.9064 151.531 48.4103 172.371 40.047 179.16C32.8283 185.02 16.8283 168.461 11.5783 160.809C7.96888 154.961 4.95716 149.09 2.7306 143.211C2.09779 140.449 1.56263 137.598 1.13294 134.648C-8.59362 68.2891 104.828 45.5586 133.395 145.059Z" fill="#F9B5A5"/>
<path d="M106.348 143.859C94.7814 129.07 83.2189 112.07 62.9298 105.969C51.34 102.168 40.7033 103.258 30.0587 108.758C22.8087 112.688 7.42201 109.109 8.31654 100.859C33.1759 64.0898 110.508 65.3477 133.395 145.059C133.395 145.059 133.531 146.688 133.492 149.41C123.758 153.148 111.969 151.59 106.348 143.859Z" fill="#F9CBB2"/>
<path d="M61.1642 82.2109C40.5861 81.4883 23.2423 89.8086 8.32436 101.371C8.33217 101.199 8.30092 101.039 8.31654 100.859C30.5744 67.9492 94.8673 65.5078 124.52 122.539C110.035 102.469 88.9298 83.1797 61.1642 82.2109Z" fill="#F9E4E1"/>
<path d="M24.7501 86.3477C7.10951 96.7188 -1.31236 114.32 1.66811 134.629C5.80483 162.891 20.0001 184.629 41.6369 195.84C57.6056 204.109 76.8283 206.238 95.7579 201.848C136.301 192.438 132.899 145.531 132.871 145.148C122.774 109.969 103.266 93.5781 88.672 86.0312C67.8829 75.2578 43.3908 75.3789 24.7501 86.3477ZM0.597796 134.688C-2.42955 114.008 6.13686 96.0781 24.1251 85.5078C43.0861 74.3477 68.0119 74.2188 89.1603 85.1797C103.949 92.8281 123.715 109.43 133.93 145.051C133.973 145.531 137.445 193.211 96.0939 202.801C76.8908 207.27 57.379 205.09 41.1564 196.688C19.1915 185.309 4.78139 163.289 0.597796 134.688Z" fill="#CC6750"/>
<path d="M49.754 174.078C51.2853 161.059 58.047 152.289 68.3048 150.051C80.1369 147.449 94.3869 153.66 105.492 166.25L106.875 167.82L106.438 165.891C96.3048 121.621 70.4181 102.891 49.2501 103.98C36.4533 104.621 26.8751 112.379 23.3165 123.969C22.1798 127.648 22.9142 136.109 22.9142 136.109C22.2111 118.598 33.0939 105.789 49.3869 104.961C69.7619 103.918 94.6564 121.848 104.934 164.148C93.754 152.258 79.7462 146.508 67.9884 149.09C60.1564 150.801 54.2853 156.121 51.0783 164.121C49.9103 167.039 49.754 174.078 49.754 174.078Z" fill="#CC6750"/>
<path d="M230.719 29.8906C224.356 26.6094 162.645 0.199212 154.961 0.359368C147.277 0.507806 192.981 30.168 192.981 30.168C185.891 31.2891 172.152 30.8594 158.797 30.4297C141.32 29.8594 124.508 29.2891 124.168 32.2109C123.574 37.3594 167.813 46.8476 167.813 46.8476C118.961 50.7383 55.0548 103.559 79.34 195.789C54.0939 225.449 44.0822 281.578 44.1368 284.379C44.1993 287.168 57.7892 268.719 57.7892 268.719C54.5744 282.059 58.8595 324.438 61.6173 330.938C63.6603 328.281 68.7462 307.98 69.0079 308.238C69.6681 314.781 80.1408 351.781 168.735 351.25C257.324 350.719 361.188 353.27 395.516 315.07C392.625 327.188 385.867 338.078 386.234 339.121C386.602 340.16 413.133 317.59 420.184 291.23C423.047 302.961 422.551 316.609 424.649 316.82C426.75 317.039 459.832 231.418 397.922 178.969C394.625 -4.62891 230.719 29.8906 230.719 29.8906Z" fill="#945212"/>
<path d="M230.719 29.8906C224.356 26.6094 162.645 0.199212 154.961 0.359368C147.277 0.507806 192.981 30.168 192.981 30.168C185.891 31.2891 172.152 30.8594 158.797 30.4297C141.32 29.8594 124.508 29.2891 124.168 32.2109C123.574 37.3594 167.813 46.8476 167.813 46.8476C118.961 50.7383 55.0548 103.559 79.34 195.789C54.0939 225.449 44.0822 281.578 44.1368 284.379C44.1993 287.168 61.6369 249.449 61.6369 249.449C58.4181 262.801 58.5939 303.469 61.3556 309.969C63.3986 307.309 67.379 279.949 67.6486 280.211C68.3087 286.738 80.1408 351.781 168.735 351.25C257.324 350.719 361.188 353.27 395.516 315.07C392.625 327.188 385.867 338.078 386.234 339.121C386.602 340.16 411.77 278.801 418.824 252.438C421.688 264.18 422.551 316.609 424.649 316.82C426.75 317.039 459.832 231.418 397.922 178.969C394.625 -4.62891 230.719 29.8906 230.719 29.8906Z" fill="#AC6E2C"/>
<path d="M89.9845 127.918C90.8595 126.621 91.6759 125.289 92.3986 123.898C91.5079 125.211 90.7072 126.559 89.9845 127.918Z" fill="#A16122"/>
<path d="M230.719 29.8906C224.356 26.6094 162.645 0.199212 154.961 0.359368C154.231 0.371087 153.985 0.660149 154.137 1.14843C175.024 10.4492 195.258 21.1211 216.293 30.1094C220.344 32.0312 224.402 33.9297 228.707 33.7305C229.059 33.7695 229.238 33.7891 229.418 33.8086C275.008 28.5195 323.57 34.2812 356.324 71C377.742 93.8203 389.988 120.551 397.164 162.508C384.613 -2.53125 230.719 29.8906 230.719 29.8906Z" fill="#C49269"/>
<path d="M188.902 30.6094C169.375 31.9883 124.715 27.4297 124.168 32.2109C124.152 32.3789 124.184 32.5586 124.262 32.75C147.707 35.4687 153.699 31.25 194.762 31.1289C192.797 31.0508 190.844 30.8711 188.902 30.6094Z" fill="#C49269"/>
<path d="M69.0509 307.891L69.1642 307.898L69.3556 308.07L69.3634 308.211C69.5001 309.57 73.4689 341.688 137.574 349.301C147.074 350.43 157.555 350.961 168.735 350.898C175.039 350.859 181.418 350.84 187.852 350.82C270.172 350.52 363.465 350.188 395.254 314.828L396.184 313.801L395.863 315.16C393.985 323.008 390.457 330.418 388.356 334.84C387.61 336.418 386.891 337.918 386.656 338.641C390.086 336.59 413.375 315.309 419.84 291.129L420.199 289.801L420.535 291.141C421.895 296.73 422.492 302.719 422.981 307.531C423.402 311.73 423.836 316.078 424.61 316.449C426.078 315.031 433.617 295.809 434.828 270.418C436.082 244.23 430.656 207.16 397.695 179.238L397.574 179.129V178.98C395.539 66.0391 333.453 35.0195 281.731 28.8789C253.594 25.5391 231.02 30.1875 230.793 30.2305L230.672 30.2578L230.563 30.1992C224.442 27.0508 165.793 1.94922 155.664 0.75C155.395 0.71875 155.16 0.710938 154.965 0.710938C154.645 0.71875 154.465 0.789063 154.445 0.847656C153.836 2.98828 173.949 17.3984 193.176 29.8789L193.953 30.3789L193.039 30.5312C185.848 31.6602 171.895 31.2109 158.406 30.7695C142.656 30.2578 124.813 29.6797 124.52 32.25C124.117 35.7695 150.902 42.8594 167.883 46.5L170.25 47.0078L167.84 47.1992C140.227 49.3984 112.137 66.1797 94.5392 90.9883C80.4181 110.891 66.3869 145.211 79.6798 195.699L79.7267 195.879L79.6134 196.02C54.8673 225.098 44.6408 280.34 44.4923 284.258C45.8673 283.59 52.0626 275.891 57.508 268.5L58.5509 267.09L58.1369 268.801C55.0353 281.68 58.9142 321.77 61.6915 330.129C63.0978 327.41 65.5314 318.809 67.0353 313.488C68.6408 307.828 68.6408 307.828 69.0509 307.891ZM137.492 350C79.4806 343.121 70.2697 316.109 68.883 309.629C68.5861 310.629 68.1564 312.129 67.7228 313.688C65.9533 319.918 63.2853 329.34 61.8986 331.148L61.5314 331.629L61.2931 331.078C58.5861 324.688 54.5353 285.051 57.1251 270.211C53.5744 274.969 45.7853 285.188 44.2697 285.02C44.0431 284.988 43.7892 284.809 43.7814 284.391C43.715 281.488 53.9103 225.258 78.9494 195.699C65.6681 145.051 79.7736 110.578 93.965 90.5781C111.192 66.2812 138.43 49.6406 165.508 46.6992C155.875 44.5703 123.266 36.9688 123.817 32.168C124.168 29.0977 137.195 29.3711 158.426 30.0586C171.328 30.4805 184.641 30.9102 192 29.9609C183.82 24.6289 152.777 4.14062 153.77 0.660156C153.883 0.238281 154.289 0.019531 154.949 0C155.176 0 155.445 0.00781325 155.746 0.0507812C165.879 1.25 224.074 26.1289 230.766 29.5195C232.617 29.1484 254.633 24.9492 281.805 28.1797C312.797 31.8477 338.258 43.3398 357.469 62.3281C383.602 88.1289 397.32 127.32 398.277 178.801C421.711 198.711 434.266 225.371 435.59 258.059C436.613 283.289 430.461 305.09 426.656 313.988C425.274 317.238 424.86 317.199 424.613 317.18C423.274 317.02 422.93 314.121 422.266 307.598C421.824 303.188 421.285 297.801 420.156 292.648C412.723 317.961 387.824 339.688 386.242 339.5L386.027 339.48L385.906 339.238C385.731 338.75 386.203 337.719 387.715 334.539C389.684 330.391 392.914 323.621 394.832 316.328C380.262 331.668 352.891 341.598 311.238 346.668C273.774 351.219 230.098 351.371 187.863 351.52C181.426 351.539 175.043 351.57 168.735 351.598C157.531 351.668 147.012 351.129 137.492 350Z" fill="#823F08"/>
<path d="M228.809 97.8906C193.102 43.4102 120.621 52.9375 108.914 108.371C97.2072 163.809 104.883 212.598 104.883 212.598C26.5392 248.199 68.5861 393.668 226.578 410.469C384.555 427.258 480.336 267.41 372.168 216.371C367.453 125.77 357.07 75.5508 310.617 65.3711C264.156 55.1992 228.809 97.8906 228.809 97.8906Z" fill="#FAA993"/>
<path d="M228.809 97.8906C193.102 43.4102 120.621 52.9375 108.914 108.371C97.2072 163.809 104.883 212.598 104.883 212.598C26.5392 248.199 69.4181 387.668 227.406 404.43C364.492 418.98 464.395 270.34 362.793 212.09C358.082 121.488 357.07 75.5508 310.617 65.3711C264.156 55.1992 228.809 97.8906 228.809 97.8906Z" fill="#F9B5A5"/>
<path d="M228.809 97.8906C193.102 43.4102 120.621 52.9375 108.914 108.371C97.2071 163.809 104.883 212.598 104.883 212.598C26.5392 248.199 68.5861 378.141 226.457 396.07C360.902 411.328 455.106 264.598 359.633 216.32C354.914 125.719 352.692 80.918 306.234 70.75C259.777 60.5703 228.809 97.8906 228.809 97.8906Z" fill="#F9CBB2"/>
<path d="M100.934 214.551C75.5704 228 64.2696 253.809 66.8556 282.449C70.0782 256.648 80.2189 232.609 100.934 214.551Z" fill="#F9E4E1"/>
<path d="M203.664 72.6875C166.465 49.0898 118.27 64.0586 108.914 108.371C101.18 145 101.91 178.711 103.285 197.379C108.012 157.77 101.219 113.73 129.848 82.0977C147.606 61.8906 178.824 61.5195 203.664 72.6875Z" fill="#F9E4E1"/>
<path d="M168.934 62.0391C139.379 60.8984 115.422 79.5508 109.324 108.461C97.7736 163.18 105.223 212.051 105.297 212.539L105.344 212.848L105.055 212.988C76.3361 226.031 62.5197 254.43 68.0939 288.918C72.5783 316.598 88.922 343.66 114.137 365.098C143.137 389.77 182.035 405.309 226.617 410.051C231.504 410.57 236.457 410.93 241.328 411.121H241.344C332.817 414.668 401.688 358.668 415.422 302.488C424.512 265.32 408.68 234.059 371.988 216.75L371.762 216.641L371.754 216.391C366.961 124.348 356.176 75.7891 310.524 65.7891C306.656 64.9375 302.688 64.4297 298.762 64.2812C258.945 62.7383 229.418 97.8086 229.129 98.1601L228.766 98.5976L228.449 98.1211C214.016 76.0976 192.324 62.9492 168.934 62.0391ZM241.317 411.961H241.297C236.399 411.77 231.438 411.41 226.531 410.891C181.785 406.129 142.731 390.52 113.59 365.73C88.2306 344.168 71.7814 316.93 67.2775 289.051C64.5978 272.508 66.4415 256.758 72.6095 243.508C79.0119 229.75 90.0158 218.98 104.418 212.359C103.801 208.059 97.4064 160.871 108.504 108.289C114.699 78.9687 138.992 60.0391 168.965 61.1992C192.465 62.1094 214.266 75.2187 228.848 97.1992C232.387 93.1601 260.969 61.9805 298.793 63.4375C302.777 63.5898 306.777 64.1094 310.707 64.9687C356.84 75.0703 367.758 123.801 372.578 216.098C391.602 225.129 405.008 237.738 412.41 253.59C419.199 268.148 420.524 285.129 416.231 302.688C402.414 359.187 333.207 415.508 241.317 411.961Z" fill="#CC6750"/>
<path d="M267.637 171.937C268.672 197.031 286.266 216.68 306.922 215.82C327.59 214.961 343.485 193.93 342.445 168.828C341.406 143.75 323.813 124.098 303.149 124.949C282.488 125.82 266.594 146.848 267.637 171.937Z" fill="#E2A6A1"/>
<path d="M269.059 172C270.063 196.289 287.027 215.32 306.953 214.488C326.887 213.668 342.223 193.301 341.215 169C340.211 144.719 323.238 125.68 303.317 126.52C283.379 127.34 268.047 147.711 269.059 172Z" fill="#D69A96"/>
<path d="M270.832 173.148C271.809 196.781 288.094 215.27 307.203 214.48C326.293 213.687 340.988 193.898 340.004 170.27C339.024 146.648 322.75 128.16 303.652 128.937C284.547 129.73 269.859 149.531 270.832 173.148Z" fill="#C98C8B"/>
<mask id="mask0_2_2" style="mask-type:luminance" maskUnits="userSpaceOnUse" x="272" y="131" width="66" height="84">
<path d="M272.434 131.359H337.434V214.359H272.434V131.359Z" fill="white"/>
</mask>
<g mask="url(#mask0_2_2)">
<mask id="mask1_2_2" style="mask-type:luminance" maskUnits="userSpaceOnUse" x="273" y="132" width="65" height="82">
<path d="M305.426 213.48C287.828 213.48 273.422 195.438 273.238 173.141C273.07 152.75 284.988 135.348 300.93 132.66C302.266 132.43 303.633 132.32 304.996 132.301C305.07 132.301 305.145 132.301 305.219 132.301C313.668 132.301 321.649 136.449 327.715 143.988C333.848 151.629 337.289 161.801 337.375 172.629C337.531 193.02 325.633 210.43 309.68 213.129C308.336 213.348 306.981 213.469 305.625 213.48C305.559 213.48 305.496 213.48 305.426 213.48ZM284.176 163.66C283.024 167.438 282.406 171.57 282.438 175.891C282.582 193.77 293.836 208.18 307.598 208.18C307.652 208.18 307.703 208.18 307.758 208.18C321.606 208.07 332.699 193.449 332.567 175.5C332.418 157.609 321.168 143.199 307.387 143.199C307.344 143.199 307.297 143.199 307.254 143.199C299.692 143.258 292.945 147.66 288.406 154.551C285.731 155.828 283.895 158.57 283.922 161.73C283.926 162.398 284.016 163.039 284.176 163.66Z" fill="white"/>
</mask>
<g mask="url(#mask1_2_2)">
<mask id="mask2_2_2" style="mask-type:luminance" maskUnits="userSpaceOnUse" x="273" y="132" width="65" height="82">
<path d="M305.426 213.48C287.828 213.48 273.422 195.438 273.238 173.141C273.07 152.75 284.988 135.348 300.93 132.66C302.266 132.43 303.633 132.32 304.996 132.301C305.07 132.301 305.145 132.301 305.219 132.301C313.668 132.301 321.649 136.449 327.715 143.988C333.848 151.629 337.289 161.801 337.375 172.629C337.531 193.02 325.633 210.43 309.68 213.129C308.336 213.348 306.981 213.469 305.625 213.48C305.559 213.48 305.496 213.48 305.426 213.48ZM284.176 163.66C283.024 167.438 282.406 171.57 282.438 175.891C282.582 193.77 293.836 208.18 307.598 208.18C307.652 208.18 307.703 208.18 307.758 208.18C321.606 208.07 332.699 193.449 332.567 175.5C332.418 157.609 321.168 143.199 307.387 143.199C307.344 143.199 307.297 143.199 307.254 143.199C299.692 143.258 292.945 147.66 288.406 154.551C285.731 155.828 283.895 158.57 283.922 161.73C283.926 162.398 284.016 163.039 284.176 163.66Z" fill="white"/>
</mask>
<g mask="url(#mask2_2_2)">
<path d="M272.43 132.305L273.074 213.988L338.172 213.473L337.527 131.789L272.43 132.305Z" fill="url(#paint0_radial_2_2)"/>
</g>
</g>
</g>
<path d="M300.93 132.66C284.988 135.348 273.07 152.75 273.238 173.141C273.422 195.52 287.938 213.621 305.625 213.48C306.981 213.469 308.336 213.348 309.68 213.129C325.633 210.43 337.531 193.02 337.375 172.629C337.289 161.801 333.848 151.629 327.715 143.988C321.594 136.391 313.527 132.23 304.996 132.301C303.633 132.32 302.266 132.43 300.93 132.66ZM309.926 214.551C308.512 214.789 307.074 214.91 305.633 214.93C287.152 215.07 271.981 196.328 271.801 173.148C271.637 152.059 284.051 134.039 300.692 131.23C302.098 130.988 303.547 130.859 304.969 130.859C313.938 130.781 322.395 135.109 328.793 143.031C335.168 150.918 338.731 161.43 338.813 172.629C338.981 193.719 326.563 211.738 309.926 214.551Z" fill="#7A2918"/>
<mask id="mask3_2_2" style="mask-type:luminance" maskUnits="userSpaceOnUse" x="282" y="142" width="52" height="67">
<path d="M282.434 142.359H333.434V208.359H282.434V142.359Z" fill="white"/>
</mask>
<g mask="url(#mask3_2_2)">
<mask id="mask4_2_2" style="mask-type:luminance" maskUnits="userSpaceOnUse" x="282" y="143" width="51" height="66">
<path d="M307.598 208.18C293.836 208.18 282.582 193.77 282.438 175.891C282.406 171.57 283.024 167.438 284.176 163.66C285.016 166.848 287.797 169.238 291.168 169.5C290.168 172.289 289.625 175.371 289.652 178.598C289.742 190.84 297.957 200.719 308.016 200.719C308.055 200.719 308.094 200.719 308.137 200.719C318.258 200.641 326.375 190.609 326.274 178.309C326.184 166.078 317.965 156.199 307.902 156.199C307.863 156.199 307.824 156.199 307.785 156.199C304.66 156.23 301.723 157.199 299.16 158.91C298.043 155.918 295.164 153.789 291.793 153.789C291.77 153.789 291.75 153.789 291.727 153.789C290.535 153.801 289.41 154.07 288.406 154.551C292.945 147.66 299.692 143.258 307.254 143.199C307.297 143.199 307.344 143.199 307.387 143.199C321.168 143.199 332.418 157.609 332.567 175.5C332.699 193.449 321.606 208.07 307.758 208.18C307.703 208.18 307.652 208.18 307.598 208.18Z" fill="white"/>
</mask>
<g mask="url(#mask4_2_2)">
<mask id="mask5_2_2" style="mask-type:luminance" maskUnits="userSpaceOnUse" x="282" y="143" width="51" height="66">
<path d="M307.598 208.18C293.836 208.18 282.582 193.77 282.438 175.891C282.406 171.57 283.024 167.438 284.176 163.66C285.016 166.848 287.797 169.238 291.168 169.5C290.168 172.289 289.625 175.371 289.652 178.598C289.742 190.84 297.957 200.719 308.016 200.719C308.055 200.719 308.094 200.719 308.137 200.719C318.258 200.641 326.375 190.609 326.274 178.309C326.184 166.078 317.965 156.199 307.902 156.199C307.863 156.199 307.824 156.199 307.785 156.199C304.66 156.23 301.723 157.199 299.16 158.91C298.043 155.918 295.164 153.789 291.793 153.789C291.77 153.789 291.75 153.789 291.727 153.789C290.535 153.801 289.41 154.07 288.406 154.551C292.945 147.66 299.692 143.258 307.254 143.199C307.297 143.199 307.344 143.199 307.387 143.199C321.168 143.199 332.418 157.609 332.567 175.5C332.699 193.449 321.606 208.07 307.758 208.18C307.703 208.18 307.652 208.18 307.598 208.18Z" fill="white"/>
</mask>
<g mask="url(#mask5_2_2)">
<path d="M280.692 143.246L282.442 209.508L334.414 208.133L332.664 141.871L280.692 143.246Z" fill="url(#paint1_radial_2_2)"/>
</g>
</g>
</g>
<path d="M326.274 178.309C326.375 190.609 318.258 200.641 308.137 200.719C298.028 200.801 289.742 190.891 289.653 178.598C289.547 166.309 297.692 156.281 307.785 156.199C317.899 156.129 326.184 166.031 326.274 178.309Z" fill="#231F20"/>
<mask id="mask6_2_2" style="mask-type:luminance" maskUnits="userSpaceOnUse" x="283" y="154" width="6" height="11">
<path d="M283.434 154.359H288.434V164.359H283.434V154.359Z" fill="white"/>
</mask>
<g mask="url(#mask6_2_2)">
<mask id="mask7_2_2" style="mask-type:luminance" maskUnits="userSpaceOnUse" x="283" y="154" width="6" height="10">
<path d="M284.176 163.66C284.016 163.039 283.926 162.398 283.922 161.73C283.895 158.57 285.731 155.828 288.406 154.551C286.633 157.238 285.199 160.32 284.176 163.66Z" fill="white"/>
</mask>
<g mask="url(#mask7_2_2)">
<mask id="mask8_2_2" style="mask-type:luminance" maskUnits="userSpaceOnUse" x="283" y="154" width="6" height="10">
<path d="M284.176 163.66C284.016 163.039 283.926 162.398 283.922 161.73C283.895 158.57 285.731 155.828 288.406 154.551C286.633 157.238 285.199 160.32 284.176 163.66Z" fill="white"/>
</mask>
<g mask="url(#mask8_2_2)">
<path d="M283.82 154.551L283.895 163.695L288.477 163.66L288.406 154.516L283.82 154.551Z" fill="url(#paint2_radial_2_2)"/>
</g>
</g>
</g>
<mask id="mask9_2_2" style="mask-type:luminance" maskUnits="userSpaceOnUse" x="283" y="153" width="17" height="18">
<path d="M283.434 153.359H299.434V170.359H283.434V153.359Z" fill="white"/>
</mask>
<g mask="url(#mask9_2_2)">
<mask id="mask10_2_2" style="mask-type:luminance" maskUnits="userSpaceOnUse" x="284" y="153" width="16" height="17">
<path d="M291.168 169.5C287.797 169.238 285.016 166.848 284.176 163.66C285.199 160.32 286.633 157.238 288.406 154.551C289.41 154.07 290.535 153.801 291.727 153.789C291.75 153.789 291.77 153.789 291.793 153.789C295.164 153.789 298.043 155.918 299.16 158.91C295.621 161.258 292.793 164.988 291.168 169.5Z" fill="white"/>
</mask>
<g mask="url(#mask10_2_2)">
<mask id="mask11_2_2" style="mask-type:luminance" maskUnits="userSpaceOnUse" x="284" y="153" width="16" height="17">
<path d="M291.168 169.5C287.797 169.238 285.016 166.848 284.176 163.66C285.199 160.32 286.633 157.238 288.406 154.551C289.41 154.07 290.535 153.801 291.727 153.789C291.75 153.789 291.77 153.789 291.793 153.789C295.164 153.789 298.043 155.918 299.16 158.91C295.621 161.258 292.793 164.988 291.168 169.5Z" fill="white"/>
</mask>
<g mask="url(#mask11_2_2)">
<path d="M283.762 153.801L284.188 169.895L299.574 169.488L299.149 153.395L283.762 153.801Z" fill="url(#paint3_radial_2_2)"/>
</g>
</g>
</g>
<path d="M291.797 169.531C291.586 169.531 291.375 169.52 291.168 169.5C292.793 164.988 295.621 161.258 299.16 158.91C299.473 159.738 299.645 160.648 299.652 161.598C299.695 165.938 296.195 169.488 291.84 169.531C291.828 169.531 291.813 169.531 291.797 169.531Z" fill="#918F90"/>
<path d="M127.77 175.73C128.797 200.82 146.399 220.469 167.063 219.598C187.723 218.75 203.633 197.719 202.57 172.621C201.543 147.531 183.945 127.891 163.285 128.738C142.629 129.598 126.731 150.641 127.77 175.73Z" fill="#E2A6A1"/>
<path d="M129.195 175.781C130.188 200.078 147.16 219.098 167.09 218.281C187.02 217.449 202.363 197.078 201.344 172.789C200.34 148.5 183.371 129.48 163.449 130.301C143.516 131.129 128.184 151.488 129.195 175.781Z" fill="#D69A96"/>
<path d="M130.965 176.938C131.949 200.57 148.219 219.059 167.332 218.27C186.426 217.469 201.121 197.688 200.141 174.059C199.16 150.438 182.883 131.938 163.789 132.73C144.672 133.52 129.988 153.32 130.965 176.938Z" fill="#C98C8B"/>
<mask id="mask12_2_2" style="mask-type:luminance" maskUnits="userSpaceOnUse" x="132" y="135" width="67" height="84">
<path d="M132.434 135.359H198.434V218.359H132.434V135.359Z" fill="white"/>
</mask>
<g mask="url(#mask12_2_2)">
<mask id="mask13_2_2" style="mask-type:luminance" maskUnits="userSpaceOnUse" x="132" y="135" width="67" height="83">
<path d="M165.555 217.988C147.535 217.988 132.828 199.668 132.652 176.938C132.473 154.121 147.012 135.508 165.117 135.359C165.184 135.359 165.25 135.359 165.32 135.359C183.332 135.359 198.047 153.688 198.227 176.418C198.402 199.23 183.867 217.848 165.762 217.988C165.695 217.988 165.625 217.988 165.555 217.988ZM144.25 167.648C143.137 171.379 142.543 175.438 142.578 179.68C142.719 197.559 153.965 211.969 167.723 211.969C167.777 211.969 167.832 211.969 167.883 211.969C181.734 211.859 192.828 197.23 192.699 179.289C192.555 161.398 181.313 146.988 167.535 146.988C167.488 146.988 167.438 146.988 167.391 146.988C159.832 147.051 153.09 151.438 148.551 158.32C145.817 159.57 143.926 162.34 143.949 165.539C143.953 166.281 144.059 166.98 144.25 167.648Z" fill="white"/>
</mask>
<g mask="url(#mask13_2_2)">
<mask id="mask14_2_2" style="mask-type:luminance" maskUnits="userSpaceOnUse" x="132" y="135" width="67" height="83">
<path d="M165.555 217.988C147.535 217.988 132.828 199.668 132.652 176.938C132.473 154.121 147.012 135.508 165.117 135.359C165.184 135.359 165.25 135.359 165.32 135.359C183.332 135.359 198.047 153.688 198.227 176.418C198.402 199.23 183.867 217.848 165.762 217.988C165.695 217.988 165.625 217.988 165.555 217.988ZM144.25 167.648C143.137 171.379 142.543 175.438 142.578 179.68C142.719 197.559 153.965 211.969 167.723 211.969C167.777 211.969 167.832 211.969 167.883 211.969C181.734 211.859 192.828 197.23 192.699 179.289C192.555 161.398 181.313 146.988 167.535 146.988C167.488 146.988 167.438 146.988 167.391 146.988C159.832 147.051 153.09 151.438 148.551 158.32C145.817 159.57 143.926 162.34 143.949 165.539C143.953 166.281 144.059 166.98 144.25 167.648Z" fill="white"/>
</mask>
<g mask="url(#mask14_2_2)">
<path d="M131.82 135.363L132.477 218.512L199.055 217.984L198.399 134.84L131.82 135.363Z" fill="url(#paint4_radial_2_2)"/>
</g>
</g>
</g>
<path d="M161.059 136.449C145.113 139.141 133.207 156.539 133.371 176.93C133.555 199.309 148.074 217.398 165.758 217.27C167.11 217.258 168.477 217.141 169.805 216.918C185.762 214.219 197.668 196.801 197.5 176.418C197.41 165.59 193.981 155.41 187.852 147.781C181.727 140.168 173.664 136.02 165.121 136.09C163.758 136.109 162.402 136.219 161.059 136.449ZM170.059 218.34C168.645 218.57 167.207 218.699 165.774 218.719C147.285 218.859 132.117 200.109 131.938 176.93C131.762 155.848 144.188 137.82 160.82 135.02C162.231 134.781 163.684 134.648 165.106 134.641C174.067 134.57 182.52 138.891 188.922 146.82C195.301 154.711 198.86 165.219 198.949 176.41C199.117 197.508 186.692 215.531 170.059 218.34Z" fill="#7A2918"/>
<mask id="mask15_2_2" style="mask-type:luminance" maskUnits="userSpaceOnUse" x="142" y="146" width="52" height="67">
<path d="M142.434 146.359H193.434V212.359H142.434V146.359Z" fill="white"/>
</mask>
<g mask="url(#mask15_2_2)">
<mask id="mask16_2_2" style="mask-type:luminance" maskUnits="userSpaceOnUse" x="142" y="146" width="51" height="66">
<path d="M167.723 211.969C153.965 211.969 142.719 197.559 142.578 179.68C142.543 175.438 143.137 171.379 144.25 167.648C145.141 170.75 147.891 173.07 151.195 173.328C150.195 176.109 149.652 179.188 149.68 182.43C149.774 194.66 157.996 204.539 168.047 204.539C168.086 204.539 168.129 204.539 168.168 204.539C178.289 204.469 186.406 194.43 186.297 182.129C186.215 169.891 177.996 160.02 167.922 160.02C167.887 160.02 167.848 160.02 167.813 160.02C164.688 160.051 161.754 161.02 159.192 162.73C158.074 159.738 155.199 157.621 151.832 157.621C151.805 157.621 151.781 157.621 151.758 157.621C150.613 157.621 149.527 157.879 148.551 158.32C153.09 151.437 159.832 147.051 167.391 146.988C167.438 146.988 167.488 146.988 167.535 146.988C181.313 146.988 192.555 161.398 192.699 179.289C192.828 197.23 181.735 211.859 167.883 211.969C167.832 211.969 167.777 211.969 167.723 211.969Z" fill="white"/>
</mask>
<g mask="url(#mask16_2_2)">
<mask id="mask17_2_2" style="mask-type:luminance" maskUnits="userSpaceOnUse" x="142" y="146" width="51" height="66">
<path d="M167.723 211.969C153.965 211.969 142.719 197.559 142.578 179.68C142.543 175.438 143.137 171.379 144.25 167.648C145.141 170.75 147.891 173.07 151.195 173.328C150.195 176.109 149.652 179.188 149.68 182.43C149.774 194.66 157.996 204.539 168.047 204.539C168.086 204.539 168.129 204.539 168.168 204.539C178.289 204.469 186.406 194.43 186.297 182.129C186.215 169.891 177.996 160.02 167.922 160.02C167.887 160.02 167.848 160.02 167.813 160.02C164.688 160.051 161.754 161.02 159.192 162.73C158.074 159.738 155.199 157.621 151.832 157.621C151.805 157.621 151.781 157.621 151.758 157.621C150.613 157.621 149.527 157.879 148.551 158.32C153.09 151.437 159.832 147.051 167.391 146.988C167.438 146.988 167.488 146.988 167.535 146.988C181.313 146.988 192.555 161.398 192.699 179.289C192.828 197.23 181.735 211.859 167.883 211.969C167.832 211.969 167.777 211.969 167.723 211.969Z" fill="white"/>
</mask>
<g mask="url(#mask17_2_2)">
<path d="M140.828 147.035L142.578 213.297L194.543 211.926L192.793 145.664L140.828 147.035Z" fill="url(#paint5_radial_2_2)"/>
</g>
</g>
</g>
<path d="M186.297 182.129C186.406 194.43 178.289 204.469 168.168 204.539C158.063 204.621 149.774 194.711 149.68 182.43C149.574 170.129 157.711 160.109 167.813 160.02C177.938 159.949 186.215 169.848 186.297 182.129Z" fill="#231F20"/>
<mask id="mask18_2_2" style="mask-type:luminance" maskUnits="userSpaceOnUse" x="143" y="157" width="7" height="12">
<path d="M143.434 157.359H149.434V168.359H143.434V157.359Z" fill="white"/>
</mask>
<g mask="url(#mask18_2_2)">
<mask id="mask19_2_2" style="mask-type:luminance" maskUnits="userSpaceOnUse" x="143" y="158" width="6" height="10">
<path d="M144.25 167.648C144.059 166.98 143.953 166.281 143.949 165.539C143.926 162.34 145.817 159.57 148.551 158.32C146.738 161.07 145.274 164.219 144.25 167.648Z" fill="white"/>
</mask>
<g mask="url(#mask19_2_2)">
<mask id="mask20_2_2" style="mask-type:luminance" maskUnits="userSpaceOnUse" x="143" y="158" width="6" height="10">
<path d="M144.25 167.648C144.059 166.98 143.953 166.281 143.949 165.539C143.926 162.34 145.817 159.57 148.551 158.32C146.738 161.07 145.274 164.219 144.25 167.648Z" fill="white"/>
</mask>
<g mask="url(#mask20_2_2)">
<path d="M143.852 158.32L143.926 167.688L148.625 167.648L148.551 158.281L143.852 158.32Z" fill="url(#paint6_radial_2_2)"/>
</g>
</g>
</g>
<mask id="mask21_2_2" style="mask-type:luminance" maskUnits="userSpaceOnUse" x="143" y="157" width="17" height="17">
<path d="M143.434 157.359H159.434V173.359H143.434V157.359Z" fill="white"/>
</mask>
<g mask="url(#mask21_2_2)">
<mask id="mask22_2_2" style="mask-type:luminance" maskUnits="userSpaceOnUse" x="144" y="157" width="16" height="17">
<path d="M151.195 173.328C147.891 173.07 145.141 170.75 144.25 167.648C145.274 164.219 146.738 161.07 148.551 158.32C149.527 157.879 150.613 157.621 151.758 157.621C151.781 157.621 151.805 157.621 151.832 157.621C155.199 157.621 158.074 159.738 159.192 162.73C155.649 165.078 152.82 168.809 151.195 173.328Z" fill="white"/>
</mask>
<g mask="url(#mask22_2_2)">
<mask id="mask23_2_2" style="mask-type:luminance" maskUnits="userSpaceOnUse" x="144" y="157" width="16" height="17">
<path d="M151.195 173.328C147.891 173.07 145.141 170.75 144.25 167.648C145.274 164.219 146.738 161.07 148.551 158.32C149.527 157.879 150.613 157.621 151.758 157.621C151.781 157.621 151.805 157.621 151.832 157.621C155.199 157.621 158.074 159.738 159.192 162.73C155.649 165.078 152.82 168.809 151.195 173.328Z" fill="white"/>
</mask>
<g mask="url(#mask23_2_2)">
<path d="M143.836 157.629L144.262 173.723L159.606 173.32L159.18 157.227L143.836 157.629Z" fill="url(#paint7_radial_2_2)"/>
</g>
</g>
</g>
<path d="M151.828 173.359C151.617 173.359 151.406 173.348 151.195 173.328C152.82 168.809 155.649 165.078 159.192 162.73C159.504 163.57 159.68 164.469 159.688 165.418C159.723 169.77 156.219 173.32 151.875 173.348C151.859 173.359 151.844 173.359 151.828 173.359Z" fill="#918F90"/>
<path d="M298.555 100.359C302.594 90.8906 327.863 82.8477 339.504 119.57C318.477 87.1797 298.555 100.359 298.555 100.359Z" fill="#992E14"/>
<path d="M305.281 97.3711C313.332 96.0781 325.438 98.5 338.125 116.719C329.238 92.2578 314.602 92.5195 310.195 93.2187C305.961 93.9102 302.047 96.1406 299.945 98.9375C301.145 98.3984 302.953 97.7383 305.281 97.3711ZM340.817 122.379L339.254 119.98C326.234 99.9297 313.699 97.2812 305.473 98.5977C301.324 99.2578 298.77 100.918 298.75 100.937L297.426 101.809L298.211 99.9687C299.879 96.0586 304.609 92.8594 309.992 91.9883C314.731 91.2383 330.856 90.9805 339.859 119.371L340.817 122.379Z" fill="#842310"/>
<path d="M171.465 90.7695C167.02 81.4688 141.422 74.5391 131.379 111.73C150.981 78.4609 171.465 90.7695 171.465 90.7695Z" fill="#992E14"/>
<path d="M170.004 89.4102C167.789 86.6992 163.781 84.6289 159.527 84.1406C155.086 83.6289 140.457 84 132.641 108.828C144.52 90.0703 156.508 87.1289 164.621 88.0703C166.949 88.3398 168.797 88.9297 170.004 89.4102ZM131.012 111.539C138.781 82.7891 154.906 82.3594 159.668 82.9102C165.082 83.5312 169.953 86.5312 171.785 90.3594L172.645 92.168L171.289 91.3477C171.266 91.3281 168.652 89.7891 164.473 89.3086C156.199 88.3476 143.781 91.5312 131.649 112.129L130.195 114.59L131.012 111.539Z" fill="#842310"/>
<path d="M360.68 260.949C326.504 280.348 309.055 357.449 240.035 358.848C171.008 360.23 140.012 281.5 124.336 270.891C210.414 334.828 360.68 260.949 360.68 260.949Z" fill="#992E14"/>
<path d="M160.031 289.09C169.25 307.961 181.121 325.328 199.129 337.301C221.942 352.348 253.637 347.379 274.352 332.73C297.543 317.141 314.57 294.148 333.027 272.578C350.141 266.141 360.68 260.949 360.68 260.949C326.504 280.348 309.055 357.449 240.035 358.848C171.008 360.23 140.012 281.5 124.336 270.891C135.34 279.059 147.387 284.98 160.031 289.09Z" fill="#AD3821"/>
<path d="M230.426 333.078C241.027 318.84 280.578 322.109 290.078 340.75C276.809 351.188 260.746 358.43 240.035 358.848C220.399 359.238 203.844 353.141 189.836 343.98C200.293 328.848 216.336 321.18 230.426 333.078Z" fill="#EF4351"/>
<path d="M230.426 333.078C237.25 323.93 256.004 322.008 271.07 326.75C293.238 349.121 249.789 360.629 232.387 358.66C216.063 357.559 201.988 351.93 189.836 343.98C200.293 328.848 216.336 321.18 230.426 333.078Z" fill="#FC6073"/>
<path d="M266.844 340.391C254.856 348.57 241.492 351.578 226.172 355.02C241.02 356.531 257.059 353.219 266.844 340.391Z" fill="#F4899B"/>
<path d="M245.867 325.398C238.887 326.688 233.668 329.418 230.762 333.32L230.496 333.668L230.164 333.391C224.535 328.641 218.399 326.828 211.93 328.008C204.242 329.418 196.613 335.051 190.418 343.871C205.867 353.891 222.551 358.789 240.027 358.43C244.731 358.34 249.344 357.891 253.758 357.07H253.762C266.731 354.699 278.445 349.32 289.555 340.629C282.813 327.969 261.617 322.531 245.867 325.398ZM240.035 359.258C222.274 359.609 205.301 354.59 189.617 344.328L189.266 344.098L189.504 343.75C195.859 334.551 203.781 328.668 211.781 327.199C218.371 326 224.625 327.77 230.363 332.488C233.438 328.598 238.734 325.879 245.727 324.598C261.883 321.641 283.703 327.348 290.445 340.559L290.602 340.848L290.328 341.07C279.035 349.961 267.117 355.469 253.906 357.879C249.449 358.699 244.789 359.16 240.035 359.258Z" fill="#C6283B"/>
<path d="M230.731 333.828C231.524 332.348 232.442 331.438 232.723 331.18L232.168 330.578C231.645 331.059 229.027 333.66 228.703 337.871C228.703 337.871 230.152 334.918 230.731 333.828Z" fill="#C6283B"/>
<path d="M263.699 292.539C207.426 302.828 162.109 296.801 128.902 274.621C132.082 278.23 135.754 283.48 140.074 289.66C158.32 315.77 188.859 359.449 240.027 358.43C244.731 358.34 249.356 357.879 253.77 357.07C289.363 350.559 309.531 322.148 327.324 297.078C336.703 283.848 345.641 271.25 355.824 263.648C342.84 269.48 306.281 284.75 263.699 292.539ZM240.035 359.258C188.445 360.289 157.742 316.371 139.402 290.129C133.426 281.59 128.707 274.828 124.887 271.809C124.629 271.609 124.356 271.418 124.106 271.219L124.57 270.551C124.84 270.73 125.113 270.93 125.387 271.148C158.731 295.48 205.219 302.398 263.555 291.73C316.465 282.051 360.074 260.801 360.508 260.578L360.891 261.309C348.871 268.129 338.731 282.418 327.988 297.551C310.109 322.75 289.848 351.309 253.914 357.879C249.453 358.699 244.789 359.16 240.035 359.258Z" fill="#CC6750"/>
<path d="M125.449 272.27L125.953 271.629C124.629 270.59 114.887 261.059 114.793 260.969L114.219 261.559C114.613 261.949 124.094 271.219 125.449 272.27Z" fill="#CC6750"/>
<path d="M100.945 268.258C114.059 264.09 119.453 258.781 122.598 254.641C123.254 253.77 124.477 250.539 124.477 250.539C124.211 250.918 123.926 251.328 123.645 251.758C120.117 256.891 114.238 265.488 88.8087 270.461C88.8087 270.461 97.5118 269.348 100.945 268.258Z" fill="#CC6750"/>
<path d="M381.164 270.801C364.992 266.258 353.824 256.039 352.289 250.711C352.289 250.711 353.363 254.73 355.504 257.02C359.149 260.898 365.012 265.23 372.43 268.52C375.078 269.699 381.164 270.801 381.164 270.801Z" fill="#CC6750"/>
<path d="M178.426 254.309C161.527 221.551 201.059 199.188 234.621 230.039C261.641 206.988 325.059 208.121 283.61 251.719C242.164 295.309 178.426 254.309 178.426 254.309Z" fill="#FAA993"/>
<path d="M178.426 254.309C161.527 221.551 201.059 199.188 234.621 230.039C261.641 206.988 325.059 208.121 283.61 251.719C242.164 295.309 178.426 254.309 178.426 254.309Z" fill="#F9CBB2"/>
<path d="M236.953 233.41C221.793 223.648 205.164 214.988 187.16 221.629C183.891 222.758 180.883 224.27 178.32 226.18C187.738 212.5 212.477 209.688 234.621 230.039C252.371 214.898 285.832 210.188 294.945 221.109C276.274 214.598 253.418 223.551 236.953 233.41Z" fill="#F9E4E1"/>
<path d="M177.067 229.109C173.664 236.031 174.141 244.559 178.352 253.23C178.141 253.437 175.578 248.879 174.938 246.398C173.317 240.051 173.762 233.961 176.328 228.75C179.707 221.879 186.531 217.039 195.055 215.48C207.86 213.141 222.262 218.25 234.625 229.488C242.426 222.949 253.617 217.969 265.41 215.82C280.543 213.051 292.723 215.699 296.445 222.57C298.488 226.359 298.828 232.871 291.137 243.43C289.422 245.801 284.125 250.949 283.828 250.879C295.035 238.937 299.145 229.289 295.715 222.961C292.172 216.398 280.336 213.918 265.559 216.621C253.77 218.781 242.582 223.781 234.883 230.348L234.606 230.59L234.34 230.34C222.106 219.098 207.84 213.969 195.203 216.289C186.942 217.801 180.336 222.469 177.067 229.109Z" fill="#CC6750"/>
<path d="M279.274 225.719C273.024 221.07 250.231 244.301 252.555 248.758C254.867 253.23 299.379 240.699 279.274 225.719Z" fill="#D6816E"/>
<path d="M281.375 229.461C281.637 228.84 281.637 228.219 281.469 227.609C295.238 241.289 257.281 252.328 252.871 249.121C264.977 246.48 276.77 241.43 281.375 229.461Z" fill="#E29386"/>
<path d="M253.508 245.66C252.844 247.008 252.641 248.039 252.914 248.57C253.285 249.281 255.715 249.621 260.324 248.781C269.156 247.16 282.309 241.809 283.906 234.98C284.602 231.988 282.961 228.988 279.035 226.059C278.344 225.551 277.375 225.398 276.164 225.629C269.164 226.898 256.578 239.398 253.508 245.66ZM252.18 248.949C251.77 248.16 251.973 246.93 252.777 245.301C255.981 238.75 268.676 226.16 276.016 224.82C277.469 224.551 278.645 224.75 279.516 225.398C283.746 228.539 285.484 231.828 284.703 235.16C283.027 242.359 269.524 247.93 260.465 249.578C257.754 250.078 253.07 250.66 252.18 248.949Z" fill="#CC6750"/>
<path d="M194.11 229.309C199.949 224.148 224.61 245.371 222.672 250.02C220.735 254.668 175.328 245.918 194.11 229.309Z" fill="#D6816E"/>
<path d="M194.11 229.309C194.645 228.84 195.332 228.59 196.152 228.531C193.195 230.738 191.875 234.23 194.965 236.918C202.438 245.109 212.379 248.148 222.731 249.77L222.672 250.02C220.735 254.668 175.328 245.918 194.11 229.309Z" fill="#E29386"/>
<path d="M194.383 229.621C190.352 233.188 189.082 236.598 190.613 239.77C194.449 247.66 214.258 251.82 220.61 250.648C221.543 250.48 222.164 250.188 222.297 249.871C222.465 249.449 222.57 248.121 219.832 244.719C214.246 237.801 201.227 227.988 195.746 228.988C195.203 229.09 194.738 229.301 194.383 229.621ZM189.875 240.121C188.152 236.59 189.492 232.848 193.836 229C194.309 228.578 194.906 228.309 195.602 228.18C201.543 227.09 214.781 237.16 220.473 244.219C222.688 246.961 223.559 248.969 223.051 250.18C222.793 250.809 222.047 251.23 220.762 251.461C214.379 252.629 194.016 248.641 189.875 240.121Z" fill="#CC6750"/>
<path d="M234.781 261.449C234.766 273.859 233.266 282.52 234.508 294.77C230.438 284.781 232.278 273.891 234.781 261.449Z" fill="#F9E4E1"/>
<path d="M234.508 294.77C230.961 285.82 232.715 265.109 236.504 258.859C236.504 258.859 233.922 262.687 233.258 265.84C231.77 272.891 231.254 282.57 232.363 289.699C232.676 291.738 234.508 294.77 234.508 294.77Z" fill="#CC6750"/>
<defs>
<radialGradient id="paint0_radial_2_2" cx="0" cy="0" r="1" gradientUnits="userSpaceOnUse" gradientTransform="translate(305.31 172.889) rotate(-0.452627) scale(37.2973 37.2973)">
<stop stop-color="white"/>
<stop offset="0.5" stop-color="white"/>
<stop offset="0.625" stop-color="white"/>
<stop offset="0.648438" stop-color="white"/>
<stop offset="0.65625" stop-color="#FEFEFE"/>
<stop offset="0.664062" stop-color="#FDFDFD"/>
<stop offset="0.671875" stop-color="#FCFCFC"/>
<stop offset="0.679688" stop-color="#FBFBFB"/>
<stop offset="0.6875" stop-color="#FBFBFB"/>
<stop offset="0.695312" stop-color="#FAFAFA"/>
<stop offset="0.703125" stop-color="#F9F9F9"/>
<stop offset="0.710938" stop-color="#F8F8F8"/>
<stop offset="0.71875" stop-color="#F7F7F7"/>
<stop offset="0.726562" stop-color="#F7F7F7"/>
<stop offset="0.734375" stop-color="#F6F6F6"/>
<stop offset="0.742188" stop-color="#F5F5F5"/>
<stop offset="0.75" stop-color="#F4F4F4"/>
<stop offset="0.757812" stop-color="#F3F3F3"/>
<stop offset="0.761719" stop-color="#F3F3F3"/>
<stop offset="0.765625" stop-color="#F3F3F3"/>
<stop offset="0.769531" stop-color="#F2F2F2"/>
<stop offset="0.773438" stop-color="#F2F2F2"/>
<stop offset="0.777344" stop-color="#F1F1F1"/>
<stop offset="0.78125" stop-color="#F1F1F1"/>
<stop offset="0.785156" stop-color="#F1F1F1"/>
<stop offset="0.789062" stop-color="#F0F0F0"/>
<stop offset="0.792969" stop-color="#F0F0F0"/>
<stop offset="0.796875" stop-color="#EFEFEF"/>
<stop offset="0.800781" stop-color="#EFEFEF"/>
<stop offset="0.804688" stop-color="#EEEEEE"/>
<stop offset="0.808594" stop-color="#EEEEEE"/>
<stop offset="0.8125" stop-color="#EEEEEE"/>
<stop offset="0.816406" stop-color="#EDEDED"/>
<stop offset="0.824219" stop-color="#ECECEC"/>
<stop offset="0.832031" stop-color="#EBEBEB"/>
<stop offset="0.839844" stop-color="#EBEBEB"/>
<stop offset="0.847656" stop-color="#EAEAEA"/>
<stop offset="0.855469" stop-color="#E9E9E9"/>
<stop offset="0.863281" stop-color="#E8E8E8"/>
<stop offset="0.871094" stop-color="#E7E7E7"/>
<stop offset="0.878906" stop-color="#E7E7E7"/>
<stop offset="0.882812" stop-color="#E6E6E6"/>
<stop offset="0.886719" stop-color="#E6E6E6"/>
<stop offset="0.890625" stop-color="#E5E5E5"/>
<stop offset="0.894531" stop-color="#E5E5E5"/>
<stop offset="0.898438" stop-color="#E5E5E5"/>
<stop offset="0.902344" stop-color="#E4E4E4"/>
<stop offset="0.90625" stop-color="#E4E4E4"/>
<stop offset="0.910156" stop-color="#E3E3E3"/>
<stop offset="0.917969" stop-color="#E2E2E2"/>
<stop offset="0.925781" stop-color="#E1E1E1"/>
<stop offset="0.933594" stop-color="#E1E1E1"/>
<stop offset="0.941406" stop-color="#E0E0E0"/>
<stop offset="0.945312" stop-color="#E0E0E0"/>
<stop offset="0.949219" stop-color="#DFDFDF"/>
<stop offset="0.953125" stop-color="#DFDFDF"/>
<stop offset="0.957031" stop-color="#DEDEDE"/>
<stop offset="0.964844" stop-color="#DDDDDD"/>
<stop offset="0.972656" stop-color="#DDDDDD"/>
<stop offset="0.976562" stop-color="#DCDCDC"/>
<stop offset="0.980469" stop-color="#DCDCDC"/>
<stop offset="0.988281" stop-color="#DBDBDB"/>
<stop offset="0.992188" stop-color="#DADADA"/>
<stop offset="1" stop-color="#DADADA"/>
</radialGradient>
<radialGradient id="paint1_radial_2_2" cx="0" cy="0" r="1" gradientUnits="userSpaceOnUse" gradientTransform="translate(307.501 175.689) rotate(-1.51272) scale(29.0182 29.0182)">
<stop stop-color="white"/>
<stop offset="0.125" stop-color="white"/>
<stop offset="0.152344" stop-color="white"/>
<stop offset="0.175781" stop-color="#FEFFFE"/>
<stop offset="0.179688" stop-color="#FEFEFD"/>
<stop offset="0.183594" stop-color="#FDFEFC"/>
<stop offset="0.1875" stop-color="#FCFEFB"/>
<stop offset="0.191406" stop-color="#FCFDFA"/>
<stop offset="0.195312" stop-color="#FBFDF9"/>
<stop offset="0.199219" stop-color="#FBFDF8"/>
<stop offset="0.203125" stop-color="#FAFDF7"/>
<stop offset="0.207031" stop-color="#F9FCF6"/>
<stop offset="0.210938" stop-color="#F9FCF5"/>
<stop offset="0.214844" stop-color="#F8FCF4"/>
<stop offset="0.21875" stop-color="#F8FBF2"/>
<stop offset="0.222656" stop-color="#F7FBF1"/>
<stop offset="0.226562" stop-color="#F6FBF0"/>
<stop offset="0.230469" stop-color="#F6FAEF"/>
<stop offset="0.234375" stop-color="#F5FAEE"/>
<stop offset="0.238281" stop-color="#F4FAED"/>
<stop offset="0.242188" stop-color="#F4F9EC"/>
<stop offset="0.246094" stop-color="#F3F9EB"/>
<stop offset="0.25" stop-color="#F3F9EA"/>
<stop offset="0.253906" stop-color="#F2F9E9"/>
<stop offset="0.257812" stop-color="#F1F8E8"/>
<stop offset="0.261719" stop-color="#F1F8E7"/>
<stop offset="0.265625" stop-color="#F0F8E6"/>
<stop offset="0.269531" stop-color="#F0F7E5"/>
<stop offset="0.273438" stop-color="#EFF7E4"/>
<stop offset="0.277344" stop-color="#EEF7E3"/>
<stop offset="0.28125" stop-color="#EEF6E2"/>
<stop offset="0.285156" stop-color="#EDF6E1"/>
<stop offset="0.289062" stop-color="#EDF6E0"/>
<stop offset="0.292969" stop-color="#ECF5DF"/>
<stop offset="0.296875" stop-color="#EBF5DE"/>
<stop offset="0.300781" stop-color="#EBF5DD"/>
<stop offset="0.304688" stop-color="#EAF5DC"/>
<stop offset="0.308594" stop-color="#E9F4DB"/>
<stop offset="0.3125" stop-color="#E9F4DA"/>
<stop offset="0.316406" stop-color="#E8F4D9"/>
<stop offset="0.320312" stop-color="#E8F3D8"/>
<stop offset="0.324219" stop-color="#E7F3D7"/>
<stop offset="0.328125" stop-color="#E6F3D5"/>
<stop offset="0.332031" stop-color="#E6F2D4"/>
<stop offset="0.335938" stop-color="#E5F2D3"/>
<stop offset="0.339844" stop-color="#E5F2D2"/>
<stop offset="0.34375" stop-color="#E4F1D1"/>
<stop offset="0.347656" stop-color="#E3F1D0"/>
<stop offset="0.351562" stop-color="#E3F1CF"/>
<stop offset="0.355469" stop-color="#E2F1CE"/>
<stop offset="0.359375" stop-color="#E1F0CD"/>
<stop offset="0.363281" stop-color="#E1F0CC"/>
<stop offset="0.367188" stop-color="#E0F0CB"/>
<stop offset="0.371094" stop-color="#E0EFCA"/>
<stop offset="0.375" stop-color="#DFEFC9"/>
<stop offset="0.378906" stop-color="#DEEFC8"/>
<stop offset="0.382812" stop-color="#DEEEC7"/>
<stop offset="0.386719" stop-color="#DDEEC6"/>
<stop offset="0.390625" stop-color="#DDEEC5"/>
<stop offset="0.394531" stop-color="#DCEDC4"/>
<stop offset="0.398438" stop-color="#DBEDC3"/>
<stop offset="0.402344" stop-color="#DBEDC2"/>
<stop offset="0.40625" stop-color="#DAEDC1"/>
<stop offset="0.410156" stop-color="#D9ECC0"/>
<stop offset="0.414062" stop-color="#D9ECBF"/>
<stop offset="0.417969" stop-color="#D8ECBE"/>
<stop offset="0.421875" stop-color="#D8EBBD"/>
<stop offset="0.425781" stop-color="#D7EBBC"/>
<stop offset="0.429688" stop-color="#D6EBBB"/>
<stop offset="0.433594" stop-color="#D6EABA"/>
<stop offset="0.4375" stop-color="#D5EAB9"/>
<stop offset="0.441406" stop-color="#D5EAB7"/>
<stop offset="0.445312" stop-color="#D4E9B6"/>
<stop offset="0.449219" stop-color="#D3E9B5"/>
<stop offset="0.453125" stop-color="#D3E9B4"/>
<stop offset="0.457031" stop-color="#D2E9B3"/>
<stop offset="0.460938" stop-color="#D1E8B2"/>
<stop offset="0.464844" stop-color="#D1E8B1"/>
<stop offset="0.46875" stop-color="#D0E8B0"/>
<stop offset="0.472656" stop-color="#D0E7AF"/>
<stop offset="0.476562" stop-color="#CFE7AE"/>
<stop offset="0.480469" stop-color="#CEE7AD"/>
<stop offset="0.484375" stop-color="#CEE6AC"/>
<stop offset="0.488281" stop-color="#CDE6AB"/>
<stop offset="0.492188" stop-color="#CDE6AA"/>
<stop offset="0.496094" stop-color="#CCE5A9"/>
<stop offset="0.5" stop-color="#CBE5A8"/>
<stop offset="0.503906" stop-color="#CBE5A7"/>
<stop offset="0.507812" stop-color="#CAE5A6"/>
<stop offset="0.511719" stop-color="#C9E4A5"/>
<stop offset="0.515625" stop-color="#C9E4A4"/>
<stop offset="0.519531" stop-color="#C8E4A3"/>
<stop offset="0.523438" stop-color="#C8E3A2"/>
<stop offset="0.527344" stop-color="#C7E3A1"/>
<stop offset="0.53125" stop-color="#C6E3A0"/>
<stop offset="0.535156" stop-color="#C6E29F"/>
<stop offset="0.539062" stop-color="#C5E29E"/>
<stop offset="0.542969" stop-color="#C5E29D"/>
<stop offset="0.546875" stop-color="#C4E19C"/>
<stop offset="0.550781" stop-color="#C3E19A"/>
<stop offset="0.554688" stop-color="#C3E199"/>
<stop offset="0.558594" stop-color="#C2E198"/>
<stop offset="0.5625" stop-color="#C1E097"/>
<stop offset="0.566406" stop-color="#C1E096"/>
<stop offset="0.570312" stop-color="#C0E095"/>
<stop offset="0.574219" stop-color="#C0DF94"/>
<stop offset="0.578125" stop-color="#BFDF93"/>
<stop offset="0.582031" stop-color="#BEDF92"/>
<stop offset="0.585938" stop-color="#BEDE91"/>
<stop offset="0.589844" stop-color="#BDDE90"/>
<stop offset="0.59375" stop-color="#BDDE8F"/>
<stop offset="0.597656" stop-color="#BCDD8E"/>
<stop offset="0.601562" stop-color="#BBDD8D"/>
<stop offset="0.605469" stop-color="#BBDD8C"/>
<stop offset="0.609375" stop-color="#BADD8B"/>
<stop offset="0.613281" stop-color="#B9DC8A"/>
<stop offset="0.617188" stop-color="#B9DC89"/>
<stop offset="0.621094" stop-color="#B8DC88"/>
<stop offset="0.625" stop-color="#B8DB87"/>
<stop offset="0.628906" stop-color="#B7DB86"/>
<stop offset="0.632812" stop-color="#B6DB85"/>
<stop offset="0.636719" stop-color="#B6DA84"/>
<stop offset="0.640625" stop-color="#B5DA83"/>
<stop offset="0.644531" stop-color="#B5DA82"/>
<stop offset="0.648438" stop-color="#B4D981"/>
<stop offset="0.652344" stop-color="#B3D980"/>
<stop offset="0.65625" stop-color="#B3D97F"/>
<stop offset="0.660156" stop-color="#B2D97E"/>
<stop offset="0.664062" stop-color="#B1D87C"/>
<stop offset="0.667969" stop-color="#B1D87B"/>
<stop offset="0.671875" stop-color="#B0D87A"/>
<stop offset="0.675781" stop-color="#B0D779"/>
<stop offset="0.679688" stop-color="#AFD778"/>
<stop offset="0.683594" stop-color="#AED777"/>
<stop offset="0.6875" stop-color="#AED676"/>
<stop offset="0.691406" stop-color="#ADD675"/>
<stop offset="0.695312" stop-color="#ADD674"/>
<stop offset="0.699219" stop-color="#ACD573"/>
<stop offset="0.703125" stop-color="#ABD572"/>
<stop offset="0.707031" stop-color="#ABD571"/>
<stop offset="0.710938" stop-color="#AAD570"/>
<stop offset="0.714844" stop-color="#AAD46F"/>
<stop offset="0.71875" stop-color="#A9D46E"/>
<stop offset="0.722656" stop-color="#A8D46D"/>
<stop offset="0.726562" stop-color="#A8D36C"/>
<stop offset="0.730469" stop-color="#A7D36B"/>
<stop offset="0.734375" stop-color="#A6D36A"/>
<stop offset="0.738281" stop-color="#A6D269"/>
<stop offset="0.742188" stop-color="#A5D268"/>
<stop offset="0.746094" stop-color="#A5D267"/>
<stop offset="0.75" stop-color="#A4D166"/>
<stop offset="0.753906" stop-color="#A3D165"/>
<stop offset="0.757812" stop-color="#A3D164"/>
<stop offset="0.761719" stop-color="#A2D163"/>
<stop offset="0.765625" stop-color="#A2D062"/>
<stop offset="0.769531" stop-color="#A1D061"/>
<stop offset="0.773438" stop-color="#A0D05F"/>
<stop offset="0.777344" stop-color="#A0CF5E"/>
<stop offset="0.78125" stop-color="#9FCF5D"/>
<stop offset="0.785156" stop-color="#9ECF5C"/>
<stop offset="0.789062" stop-color="#9ECE5B"/>
<stop offset="0.792969" stop-color="#9DCE5A"/>
<stop offset="0.796875" stop-color="#9DCE59"/>
<stop offset="0.800781" stop-color="#9CCD58"/>
<stop offset="0.804688" stop-color="#9BCD57"/>
<stop offset="0.808594" stop-color="#9BCD56"/>
<stop offset="0.8125" stop-color="#9ACD55"/>
<stop offset="0.816406" stop-color="#9ACC54"/>
<stop offset="0.820312" stop-color="#99CC53"/>
<stop offset="0.824219" stop-color="#98CC52"/>
<stop offset="0.828125" stop-color="#98CB51"/>
<stop offset="0.832031" stop-color="#97CB50"/>
<stop offset="0.835938" stop-color="#96CB4F"/>
<stop offset="0.839844" stop-color="#96CA4E"/>
<stop offset="0.84375" stop-color="#95CA4D"/>
<stop offset="0.847656" stop-color="#95CA4C"/>
<stop offset="0.851562" stop-color="#94C94B"/>
<stop offset="0.855469" stop-color="#93C94A"/>
<stop offset="0.859375" stop-color="#93C949"/>
<stop offset="0.863281" stop-color="#92C948"/>
<stop offset="0.867188" stop-color="#92C847"/>
<stop offset="0.871094" stop-color="#91C846"/>
<stop offset="0.875" stop-color="#90C845"/>
<stop offset="0.878906" stop-color="#90C744"/>
<stop offset="0.882812" stop-color="#8FC742"/>
<stop offset="0.886719" stop-color="#8EC741"/>
<stop offset="0.890625" stop-color="#8EC640"/>
<stop offset="0.894531" stop-color="#8DC63F"/>
<stop offset="1" stop-color="#8DC63F"/>
</radialGradient>
<radialGradient id="paint2_radial_2_2" cx="0" cy="0" r="1" gradientUnits="userSpaceOnUse" gradientTransform="translate(305.31 172.889) rotate(-0.452627) scale(37.2973 37.2973)">
<stop stop-color="white"/>
<stop offset="0.5" stop-color="white"/>
<stop offset="0.625" stop-color="white"/>
<stop offset="0.648438" stop-color="white"/>
<stop offset="0.65625" stop-color="white"/>
<stop offset="0.664062" stop-color="#FEFEFE"/>
<stop offset="0.671875" stop-color="#FEFEFE"/>
<stop offset="0.679688" stop-color="#FDFDFD"/>
<stop offset="0.699219" stop-color="#FDFDFD"/>
<stop offset="0.703125" stop-color="#FCFCFC"/>
<stop offset="0.71875" stop-color="#FBFBFB"/>
<stop offset="0.734375" stop-color="#FBFBFB"/>
<stop offset="0.742188" stop-color="#FAFAFA"/>
<stop offset="0.757812" stop-color="#F9F9F9"/>
<stop offset="0.769531" stop-color="#F9F9F9"/>
<stop offset="0.773438" stop-color="#F8F8F8"/>
<stop offset="0.785156" stop-color="#F8F8F8"/>
<stop offset="0.796875" stop-color="#F7F7F7"/>
<stop offset="0.808594" stop-color="#F7F7F7"/>
<stop offset="0.8125" stop-color="#F6F6F6"/>
<stop offset="0.824219" stop-color="#F6F6F6"/>
<stop offset="0.832031" stop-color="#F6F6F6"/>
<stop offset="0.835938" stop-color="#F5F5F5"/>
<stop offset="0.84375" stop-color="#F5F5F5"/>
<stop offset="0.851562" stop-color="#F4F4F4"/>
<stop offset="0.867188" stop-color="#F4F4F4"/>
<stop offset="0.875" stop-color="#F3F3F3"/>
<stop offset="0.890625" stop-color="#F2F2F2"/>
<stop offset="0.902344" stop-color="#F2F2F2"/>
<stop offset="0.90625" stop-color="#F1F1F1"/>
<stop offset="0.917969" stop-color="#F1F1F1"/>
<stop offset="0.925781" stop-color="#F1F1F1"/>
<stop offset="0.929688" stop-color="#F0F0F0"/>
<stop offset="0.945312" stop-color="#EFEFEF"/>
<stop offset="0.957031" stop-color="#EFEFEF"/>
<stop offset="0.964844" stop-color="#EFEFEF"/>
<stop offset="0.96875" stop-color="#EEEEEE"/>
<stop offset="0.984375" stop-color="#EDEDED"/>
<stop offset="1" stop-color="#EDEDED"/>
</radialGradient>
<radialGradient id="paint3_radial_2_2" cx="0" cy="0" r="1" gradientUnits="userSpaceOnUse" gradientTransform="translate(307.501 175.689) rotate(-1.51272) scale(29.0182)">
<stop stop-color="white"/>
<stop offset="0.125" stop-color="white"/>
<stop offset="0.179688" stop-color="#FEFFFE"/>
<stop offset="0.183594" stop-color="#FEFFFE"/>
<stop offset="0.1875" stop-color="#FEFFFD"/>
<stop offset="0.191406" stop-color="#FDFEFD"/>
<stop offset="0.195312" stop-color="#FDFEFC"/>
<stop offset="0.199219" stop-color="#FDFEFC"/>
<stop offset="0.203125" stop-color="#FDFEFB"/>
<stop offset="0.207031" stop-color="#FDFEFB"/>
<stop offset="0.210938" stop-color="#FDFEFA"/>
<stop offset="0.214844" stop-color="#FCFDF9"/>
<stop offset="0.21875" stop-color="#FCFDF9"/>
<stop offset="0.222656" stop-color="#FCFDF9"/>
<stop offset="0.226562" stop-color="#FBFDF8"/>
<stop offset="0.230469" stop-color="#FBFDF8"/>
<stop offset="0.234375" stop-color="#FBFDF7"/>
<stop offset="0.238281" stop-color="#FAFDF6"/>
<stop offset="0.242188" stop-color="#FAFDF6"/>
<stop offset="0.246094" stop-color="#FAFDF6"/>
<stop offset="0.25" stop-color="#F9FCF5"/>
<stop offset="0.253906" stop-color="#F9FCF5"/>
<stop offset="0.257812" stop-color="#F8FCF4"/>
<stop offset="0.261719" stop-color="#F8FCF3"/>
<stop offset="0.265625" stop-color="#F8FCF3"/>
<stop offset="0.273438" stop-color="#F7FBF2"/>
<stop offset="0.277344" stop-color="#F7FBF2"/>
<stop offset="0.28125" stop-color="#F6FBF1"/>
<stop offset="0.285156" stop-color="#F6FBF0"/>
<stop offset="0.289062" stop-color="#F6FBF0"/>
<stop offset="0.292969" stop-color="#F5FAEF"/>
<stop offset="0.296875" stop-color="#F5FAEE"/>
<stop offset="0.304688" stop-color="#F4FAED"/>
<stop offset="0.3125" stop-color="#F4FAEC"/>
<stop offset="0.316406" stop-color="#F3F9EC"/>
<stop offset="0.320312" stop-color="#F3F9EB"/>
<stop offset="0.328125" stop-color="#F3F9EA"/>
<stop offset="0.335938" stop-color="#F3F9E9"/>
<stop offset="0.339844" stop-color="#F2F8E9"/>
<stop offset="0.34375" stop-color="#F2F8E8"/>
<stop offset="0.351562" stop-color="#F1F8E7"/>
<stop offset="0.359375" stop-color="#F1F8E6"/>
<stop offset="0.363281" stop-color="#F0F8E6"/>
<stop offset="0.367188" stop-color="#F0F8E5"/>
<stop offset="0.375" stop-color="#EFF7E4"/>
<stop offset="0.382812" stop-color="#EFF7E3"/>
<stop offset="0.386719" stop-color="#EEF7E3"/>
<stop offset="0.390625" stop-color="#EEF7E2"/>
<stop offset="0.398438" stop-color="#EDF6E1"/>
<stop offset="0.40625" stop-color="#EDF6E0"/>
<stop offset="0.410156" stop-color="#ECF6DF"/>
<stop offset="0.414062" stop-color="#ECF6DF"/>
<stop offset="0.421875" stop-color="#EBF5DE"/>
<stop offset="0.429688" stop-color="#EBF5DD"/>
<stop offset="0.433594" stop-color="#EAF5DC"/>
<stop offset="0.4375" stop-color="#EAF5DC"/>
<stop offset="0.445312" stop-color="#EAF4DB"/>
<stop offset="0.453125" stop-color="#EAF4DA"/>
<stop offset="0.457031" stop-color="#E9F4D9"/>
<stop offset="0.460938" stop-color="#E9F4D9"/>
<stop offset="0.46875" stop-color="#E8F3D8"/>
<stop offset="0.472656" stop-color="#E8F3D8"/>
<stop offset="0.476562" stop-color="#E7F3D7"/>
<stop offset="0.480469" stop-color="#E7F3D6"/>
<stop offset="0.488281" stop-color="#E6F3D5"/>
<stop offset="0.496094" stop-color="#E6F3D5"/>
<stop offset="0.5" stop-color="#E5F2D4"/>
<stop offset="0.503906" stop-color="#E5F2D3"/>
<stop offset="0.507812" stop-color="#E5F2D3"/>
<stop offset="0.511719" stop-color="#E4F2D2"/>
<stop offset="0.515625" stop-color="#E4F2D2"/>
<stop offset="0.519531" stop-color="#E4F2D1"/>
<stop offset="0.523438" stop-color="#E3F1D1"/>
<stop offset="0.527344" stop-color="#E3F1D0"/>
<stop offset="0.53125" stop-color="#E3F1CF"/>
<stop offset="0.535156" stop-color="#E2F1CF"/>
<stop offset="0.539062" stop-color="#E2F1CE"/>
<stop offset="0.542969" stop-color="#E2F1CE"/>
<stop offset="0.546875" stop-color="#E1F0CD"/>
<stop offset="0.550781" stop-color="#E1F0CD"/>
<stop offset="0.554688" stop-color="#E1F0CC"/>
<stop offset="0.558594" stop-color="#E0F0CC"/>
<stop offset="0.5625" stop-color="#E0F0CB"/>
<stop offset="0.566406" stop-color="#E0F0CB"/>
<stop offset="0.570312" stop-color="#E0EFCA"/>
<stop offset="0.574219" stop-color="#E0EFCA"/>
<stop offset="0.578125" stop-color="#E0EFC9"/>
<stop offset="0.582031" stop-color="#DFEFC9"/>
<stop offset="0.585938" stop-color="#DFEFC8"/>
<stop offset="0.589844" stop-color="#DFEFC8"/>
<stop offset="0.59375" stop-color="#DEEFC7"/>
<stop offset="0.597656" stop-color="#DEEFC7"/>
<stop offset="0.601562" stop-color="#DEEFC6"/>
<stop offset="0.605469" stop-color="#DDEEC6"/>
<stop offset="0.609375" stop-color="#DDEEC5"/>
<stop offset="0.613281" stop-color="#DDEEC5"/>
<stop offset="0.617188" stop-color="#DCEEC4"/>
<stop offset="0.621094" stop-color="#DCEEC4"/>
<stop offset="0.625" stop-color="#DCEEC3"/>
<stop offset="0.628906" stop-color="#DBEDC2"/>
<stop offset="0.632812" stop-color="#DBEDC2"/>
<stop offset="0.640625" stop-color="#DAEDC1"/>
<stop offset="0.648438" stop-color="#DAEDC0"/>
<stop offset="0.652344" stop-color="#D9ECBF"/>
<stop offset="0.65625" stop-color="#D9ECBF"/>
<stop offset="0.664062" stop-color="#D8ECBE"/>
<stop offset="0.667969" stop-color="#D8ECBE"/>
<stop offset="0.671875" stop-color="#D7EBBD"/>
<stop offset="0.675781" stop-color="#D7EBBC"/>
<stop offset="0.679688" stop-color="#D7EBBC"/>
<stop offset="0.6875" stop-color="#D7EBBB"/>
<stop offset="0.691406" stop-color="#D7EBBB"/>
<stop offset="0.695312" stop-color="#D6EABA"/>
<stop offset="0.699219" stop-color="#D6EAB9"/>
<stop offset="0.707031" stop-color="#D5EAB8"/>
<stop offset="0.714844" stop-color="#D5EAB8"/>
<stop offset="0.71875" stop-color="#D4EAB7"/>
<stop offset="0.722656" stop-color="#D4EAB6"/>
<stop offset="0.730469" stop-color="#D3E9B5"/>
<stop offset="0.738281" stop-color="#D3E9B4"/>
<stop offset="0.742188" stop-color="#D2E9B4"/>
<stop offset="0.746094" stop-color="#D2E9B3"/>
<stop offset="0.753906" stop-color="#D1E8B2"/>
<stop offset="0.757812" stop-color="#D1E8B2"/>
<stop offset="0.761719" stop-color="#D1E8B1"/>
<stop offset="0.765625" stop-color="#D0E8B1"/>
<stop offset="0.769531" stop-color="#D0E8B0"/>
<stop offset="0.773438" stop-color="#D0E8AF"/>
<stop offset="0.777344" stop-color="#CFE7AF"/>
<stop offset="0.78125" stop-color="#CFE7AE"/>
<stop offset="0.785156" stop-color="#CFE7AE"/>
<stop offset="0.789062" stop-color="#CEE7AD"/>
<stop offset="0.792969" stop-color="#CEE7AD"/>
<stop offset="0.796875" stop-color="#CEE7AC"/>
<stop offset="0.800781" stop-color="#CDE6AC"/>
<stop offset="0.804688" stop-color="#CDE6AB"/>
<stop offset="0.808594" stop-color="#CDE6AB"/>
<stop offset="0.8125" stop-color="#CDE6AA"/>
<stop offset="0.816406" stop-color="#CDE6AA"/>
<stop offset="0.820312" stop-color="#CDE6A9"/>
<stop offset="0.824219" stop-color="#CCE5A8"/>
<stop offset="0.828125" stop-color="#CCE5A8"/>
<stop offset="0.835938" stop-color="#CBE5A7"/>
<stop offset="0.84375" stop-color="#CBE5A6"/>
<stop offset="0.847656" stop-color="#CAE5A5"/>
<stop offset="0.851562" stop-color="#CAE5A5"/>
<stop offset="0.859375" stop-color="#C9E4A4"/>
<stop offset="0.863281" stop-color="#C9E4A4"/>
<stop offset="0.867188" stop-color="#C9E4A3"/>
<stop offset="0.871094" stop-color="#C8E4A2"/>
<stop offset="0.875" stop-color="#C8E4A2"/>
<stop offset="0.882812" stop-color="#C7E3A1"/>
<stop offset="0.886719" stop-color="#C7E3A1"/>
<stop offset="0.890625" stop-color="#C6E3A0"/>
<stop offset="0.894531" stop-color="#C6E39F"/>
<stop offset="1" stop-color="#C6E39F"/>
</radialGradient>
<radialGradient id="paint4_radial_2_2" cx="0" cy="0" r="1" gradientUnits="userSpaceOnUse" gradientTransform="translate(165.438 176.679) rotate(-0.452627) scale(37.2968 37.2968)">
<stop stop-color="white"/>
<stop offset="0.5" stop-color="white"/>
<stop offset="0.625" stop-color="white"/>
<stop offset="0.648438" stop-color="white"/>
<stop offset="0.65625" stop-color="#FEFEFE"/>
<stop offset="0.664062" stop-color="#FDFDFD"/>
<stop offset="0.671875" stop-color="#FCFCFC"/>
<stop offset="0.679688" stop-color="#FBFBFB"/>
<stop offset="0.6875" stop-color="#FBFBFB"/>
<stop offset="0.695312" stop-color="#FAFAFA"/>
<stop offset="0.703125" stop-color="#F9F9F9"/>
<stop offset="0.710938" stop-color="#F8F8F8"/>
<stop offset="0.71875" stop-color="#F7F7F7"/>
<stop offset="0.726562" stop-color="#F7F7F7"/>
<stop offset="0.734375" stop-color="#F6F6F6"/>
<stop offset="0.742188" stop-color="#F5F5F5"/>
<stop offset="0.75" stop-color="#F4F4F4"/>
<stop offset="0.757812" stop-color="#F3F3F3"/>
<stop offset="0.761719" stop-color="#F3F3F3"/>
<stop offset="0.765625" stop-color="#F3F3F3"/>
<stop offset="0.769531" stop-color="#F2F2F2"/>
<stop offset="0.773438" stop-color="#F2F2F2"/>
<stop offset="0.777344" stop-color="#F1F1F1"/>
<stop offset="0.78125" stop-color="#F1F1F1"/>
<stop offset="0.785156" stop-color="#F1F1F1"/>
<stop offset="0.789062" stop-color="#F0F0F0"/>
<stop offset="0.792969" stop-color="#F0F0F0"/>
<stop offset="0.796875" stop-color="#EFEFEF"/>
<stop offset="0.800781" stop-color="#EFEFEF"/>
<stop offset="0.804688" stop-color="#EEEEEE"/>
<stop offset="0.808594" stop-color="#EEEEEE"/>
<stop offset="0.8125" stop-color="#EEEEEE"/>
<stop offset="0.816406" stop-color="#EDEDED"/>
<stop offset="0.824219" stop-color="#ECECEC"/>
<stop offset="0.832031" stop-color="#EBEBEB"/>
<stop offset="0.839844" stop-color="#EBEBEB"/>
<stop offset="0.847656" stop-color="#EAEAEA"/>
<stop offset="0.855469" stop-color="#E9E9E9"/>
<stop offset="0.863281" stop-color="#E8E8E8"/>
<stop offset="0.871094" stop-color="#E7E7E7"/>
<stop offset="0.878906" stop-color="#E7E7E7"/>
<stop offset="0.882812" stop-color="#E6E6E6"/>
<stop offset="0.886719" stop-color="#E6E6E6"/>
<stop offset="0.890625" stop-color="#E5E5E5"/>
<stop offset="0.894531" stop-color="#E5E5E5"/>
<stop offset="0.898438" stop-color="#E5E5E5"/>
<stop offset="0.902344" stop-color="#E4E4E4"/>
<stop offset="0.90625" stop-color="#E4E4E4"/>
<stop offset="0.910156" stop-color="#E3E3E3"/>
<stop offset="0.917969" stop-color="#E2E2E2"/>
<stop offset="0.925781" stop-color="#E1E1E1"/>
<stop offset="0.933594" stop-color="#E1E1E1"/>
<stop offset="0.941406" stop-color="#E0E0E0"/>
<stop offset="0.945312" stop-color="#E0E0E0"/>
<stop offset="0.949219" stop-color="#DFDFDF"/>
<stop offset="0.953125" stop-color="#DFDFDF"/>
<stop offset="0.957031" stop-color="#DEDEDE"/>
<stop offset="0.964844" stop-color="#DDDDDD"/>
<stop offset="0.972656" stop-color="#DDDDDD"/>
<stop offset="0.976562" stop-color="#DCDCDC"/>
<stop offset="0.980469" stop-color="#DCDCDC"/>
<stop offset="0.988281" stop-color="#DBDBDB"/>
<stop offset="0.992188" stop-color="#DADADA"/>
<stop offset="1" stop-color="#DADADA"/>
</radialGradient>
<radialGradient id="paint5_radial_2_2" cx="0" cy="0" r="1" gradientUnits="userSpaceOnUse" gradientTransform="translate(167.638 179.479) rotate(-1.51271) scale(29.016 29.016)">
<stop stop-color="white"/>
<stop offset="0.125" stop-color="white"/>
<stop offset="0.152344" stop-color="white"/>
<stop offset="0.175781" stop-color="#FEFFFE"/>
<stop offset="0.179688" stop-color="#FEFEFD"/>
<stop offset="0.183594" stop-color="#FDFEFC"/>
<stop offset="0.1875" stop-color="#FCFEFB"/>
<stop offset="0.191406" stop-color="#FCFDFA"/>
<stop offset="0.195312" stop-color="#FBFDF9"/>
<stop offset="0.199219" stop-color="#FBFDF8"/>
<stop offset="0.203125" stop-color="#FAFDF7"/>
<stop offset="0.207031" stop-color="#F9FCF6"/>
<stop offset="0.210938" stop-color="#F9FCF5"/>
<stop offset="0.214844" stop-color="#F8FCF4"/>
<stop offset="0.21875" stop-color="#F8FBF2"/>
<stop offset="0.222656" stop-color="#F7FBF1"/>
<stop offset="0.226562" stop-color="#F6FBF0"/>
<stop offset="0.230469" stop-color="#F6FAEF"/>
<stop offset="0.234375" stop-color="#F5FAEE"/>
<stop offset="0.238281" stop-color="#F4FAED"/>
<stop offset="0.242188" stop-color="#F4F9EC"/>
<stop offset="0.246094" stop-color="#F3F9EB"/>
<stop offset="0.25" stop-color="#F3F9EA"/>
<stop offset="0.253906" stop-color="#F2F9E9"/>
<stop offset="0.257812" stop-color="#F1F8E8"/>
<stop offset="0.261719" stop-color="#F1F8E7"/>
<stop offset="0.265625" stop-color="#F0F8E6"/>
<stop offset="0.269531" stop-color="#F0F7E5"/>
<stop offset="0.273438" stop-color="#EFF7E4"/>
<stop offset="0.277344" stop-color="#EEF7E3"/>
<stop offset="0.28125" stop-color="#EEF6E2"/>
<stop offset="0.285156" stop-color="#EDF6E1"/>
<stop offset="0.289062" stop-color="#EDF6E0"/>
<stop offset="0.292969" stop-color="#ECF5DF"/>
<stop offset="0.296875" stop-color="#EBF5DE"/>
<stop offset="0.300781" stop-color="#EBF5DD"/>
<stop offset="0.304688" stop-color="#EAF5DC"/>
<stop offset="0.308594" stop-color="#E9F4DB"/>
<stop offset="0.3125" stop-color="#E9F4DA"/>
<stop offset="0.316406" stop-color="#E8F4D9"/>
<stop offset="0.320312" stop-color="#E8F3D8"/>
<stop offset="0.324219" stop-color="#E7F3D7"/>
<stop offset="0.328125" stop-color="#E6F3D5"/>
<stop offset="0.332031" stop-color="#E6F2D4"/>
<stop offset="0.335938" stop-color="#E5F2D3"/>
<stop offset="0.339844" stop-color="#E5F2D2"/>
<stop offset="0.34375" stop-color="#E4F1D1"/>
<stop offset="0.347656" stop-color="#E3F1D0"/>
<stop offset="0.351562" stop-color="#E3F1CF"/>
<stop offset="0.355469" stop-color="#E2F1CE"/>
<stop offset="0.359375" stop-color="#E1F0CD"/>
<stop offset="0.363281" stop-color="#E1F0CC"/>
<stop offset="0.367188" stop-color="#E0F0CB"/>
<stop offset="0.371094" stop-color="#E0EFCA"/>
<stop offset="0.375" stop-color="#DFEFC9"/>
<stop offset="0.378906" stop-color="#DEEFC8"/>
<stop offset="0.382812" stop-color="#DEEEC7"/>
<stop offset="0.386719" stop-color="#DDEEC6"/>
<stop offset="0.390625" stop-color="#DDEEC5"/>
<stop offset="0.394531" stop-color="#DCEDC4"/>
<stop offset="0.398438" stop-color="#DBEDC3"/>
<stop offset="0.402344" stop-color="#DBEDC2"/>
<stop offset="0.40625" stop-color="#DAEDC1"/>
<stop offset="0.410156" stop-color="#D9ECC0"/>
<stop offset="0.414062" stop-color="#D9ECBF"/>
<stop offset="0.417969" stop-color="#D8ECBE"/>
<stop offset="0.421875" stop-color="#D8EBBD"/>
<stop offset="0.425781" stop-color="#D7EBBC"/>
<stop offset="0.429688" stop-color="#D6EBBB"/>
<stop offset="0.433594" stop-color="#D6EABA"/>
<stop offset="0.4375" stop-color="#D5EAB9"/>
<stop offset="0.441406" stop-color="#D5EAB7"/>
<stop offset="0.445312" stop-color="#D4E9B6"/>
<stop offset="0.449219" stop-color="#D3E9B5"/>
<stop offset="0.453125" stop-color="#D3E9B4"/>
<stop offset="0.457031" stop-color="#D2E9B3"/>
<stop offset="0.460938" stop-color="#D1E8B2"/>
<stop offset="0.464844" stop-color="#D1E8B1"/>
<stop offset="0.46875" stop-color="#D0E8B0"/>
<stop offset="0.472656" stop-color="#D0E7AF"/>
<stop offset="0.476562" stop-color="#CFE7AE"/>
<stop offset="0.480469" stop-color="#CEE7AD"/>
<stop offset="0.484375" stop-color="#CEE6AC"/>
<stop offset="0.488281" stop-color="#CDE6AB"/>
<stop offset="0.492188" stop-color="#CDE6AA"/>
<stop offset="0.496094" stop-color="#CCE5A9"/>
<stop offset="0.5" stop-color="#CBE5A8"/>
<stop offset="0.503906" stop-color="#CBE5A7"/>
<stop offset="0.507812" stop-color="#CAE5A6"/>
<stop offset="0.511719" stop-color="#C9E4A5"/>
<stop offset="0.515625" stop-color="#C9E4A4"/>
<stop offset="0.519531" stop-color="#C8E4A3"/>
<stop offset="0.523438" stop-color="#C8E3A2"/>
<stop offset="0.527344" stop-color="#C7E3A1"/>
<stop offset="0.53125" stop-color="#C6E3A0"/>
<stop offset="0.535156" stop-color="#C6E29F"/>
<stop offset="0.539062" stop-color="#C5E29E"/>
<stop offset="0.542969" stop-color="#C5E29D"/>
<stop offset="0.546875" stop-color="#C4E19C"/>
<stop offset="0.550781" stop-color="#C3E19A"/>
<stop offset="0.554688" stop-color="#C3E199"/>
<stop offset="0.558594" stop-color="#C2E198"/>
<stop offset="0.5625" stop-color="#C1E097"/>
<stop offset="0.566406" stop-color="#C1E096"/>
<stop offset="0.570312" stop-color="#C0E095"/>
<stop offset="0.574219" stop-color="#C0DF94"/>
<stop offset="0.578125" stop-color="#BFDF93"/>
<stop offset="0.582031" stop-color="#BEDF92"/>
<stop offset="0.585938" stop-color="#BEDE91"/>
<stop offset="0.589844" stop-color="#BDDE90"/>
<stop offset="0.59375" stop-color="#BDDE8F"/>
<stop offset="0.597656" stop-color="#BCDD8E"/>
<stop offset="0.601562" stop-color="#BBDD8D"/>
<stop offset="0.605469" stop-color="#BBDD8C"/>
<stop offset="0.609375" stop-color="#BADD8B"/>
<stop offset="0.613281" stop-color="#B9DC8A"/>
<stop offset="0.617188" stop-color="#B9DC89"/>
<stop offset="0.621094" stop-color="#B8DC88"/>
<stop offset="0.625" stop-color="#B8DB87"/>
<stop offset="0.628906" stop-color="#B7DB86"/>
<stop offset="0.632812" stop-color="#B6DB85"/>
<stop offset="0.636719" stop-color="#B6DA84"/>
<stop offset="0.640625" stop-color="#B5DA83"/>
<stop offset="0.644531" stop-color="#B5DA82"/>
<stop offset="0.648438" stop-color="#B4D981"/>
<stop offset="0.652344" stop-color="#B3D980"/>
<stop offset="0.65625" stop-color="#B3D97F"/>
<stop offset="0.660156" stop-color="#B2D97E"/>
<stop offset="0.664062" stop-color="#B1D87C"/>
<stop offset="0.667969" stop-color="#B1D87B"/>
<stop offset="0.671875" stop-color="#B0D87A"/>
<stop offset="0.675781" stop-color="#B0D779"/>
<stop offset="0.679688" stop-color="#AFD778"/>
<stop offset="0.683594" stop-color="#AED777"/>
<stop offset="0.6875" stop-color="#AED676"/>
<stop offset="0.691406" stop-color="#ADD675"/>
<stop offset="0.695312" stop-color="#ADD674"/>
<stop offset="0.699219" stop-color="#ACD573"/>
<stop offset="0.703125" stop-color="#ABD572"/>
<stop offset="0.707031" stop-color="#ABD571"/>
<stop offset="0.710938" stop-color="#AAD570"/>
<stop offset="0.714844" stop-color="#AAD46F"/>
<stop offset="0.71875" stop-color="#A9D46E"/>
<stop offset="0.722656" stop-color="#A8D46D"/>
<stop offset="0.726562" stop-color="#A8D36C"/>
<stop offset="0.730469" stop-color="#A7D36B"/>
<stop offset="0.734375" stop-color="#A6D36A"/>
<stop offset="0.738281" stop-color="#A6D269"/>
<stop offset="0.742188" stop-color="#A5D268"/>
<stop offset="0.746094" stop-color="#A5D267"/>
<stop offset="0.75" stop-color="#A4D166"/>
<stop offset="0.753906" stop-color="#A3D165"/>
<stop offset="0.757812" stop-color="#A3D164"/>
<stop offset="0.761719" stop-color="#A2D163"/>
<stop offset="0.765625" stop-color="#A2D062"/>
<stop offset="0.769531" stop-color="#A1D061"/>
<stop offset="0.773438" stop-color="#A0D05F"/>
<stop offset="0.777344" stop-color="#A0CF5E"/>
<stop offset="0.78125" stop-color="#9FCF5D"/>
<stop offset="0.785156" stop-color="#9ECF5C"/>
<stop offset="0.789062" stop-color="#9ECE5B"/>
<stop offset="0.792969" stop-color="#9DCE5A"/>
<stop offset="0.796875" stop-color="#9DCE59"/>
<stop offset="0.800781" stop-color="#9CCD58"/>
<stop offset="0.804688" stop-color="#9BCD57"/>
<stop offset="0.808594" stop-color="#9BCD56"/>
<stop offset="0.8125" stop-color="#9ACD55"/>
<stop offset="0.816406" stop-color="#9ACC54"/>
<stop offset="0.820312" stop-color="#99CC53"/>
<stop offset="0.824219" stop-color="#98CC52"/>
<stop offset="0.828125" stop-color="#98CB51"/>
<stop offset="0.832031" stop-color="#97CB50"/>
<stop offset="0.835938" stop-color="#96CB4F"/>
<stop offset="0.839844" stop-color="#96CA4E"/>
<stop offset="0.84375" stop-color="#95CA4D"/>
<stop offset="0.847656" stop-color="#95CA4C"/>
<stop offset="0.851562" stop-color="#94C94B"/>
<stop offset="0.855469" stop-color="#93C94A"/>
<stop offset="0.859375" stop-color="#93C949"/>
<stop offset="0.863281" stop-color="#92C948"/>
<stop offset="0.867188" stop-color="#92C847"/>
<stop offset="0.871094" stop-color="#91C846"/>
<stop offset="0.875" stop-color="#90C845"/>
<stop offset="0.878906" stop-color="#90C744"/>
<stop offset="0.882812" stop-color="#8FC742"/>
<stop offset="0.886719" stop-color="#8EC741"/>
<stop offset="0.890625" stop-color="#8EC640"/>
<stop offset="0.894531" stop-color="#8DC63F"/>
<stop offset="1" stop-color="#8DC63F"/>
</radialGradient>
<radialGradient id="paint6_radial_2_2" cx="0" cy="0" r="1" gradientUnits="userSpaceOnUse" gradientTransform="translate(165.438 176.679) rotate(-0.452627) scale(37.2968 37.2968)">
<stop stop-color="white"/>
<stop offset="0.5" stop-color="white"/>
<stop offset="0.625" stop-color="white"/>
<stop offset="0.648438" stop-color="white"/>
<stop offset="0.65625" stop-color="white"/>
<stop offset="0.664062" stop-color="#FEFEFE"/>
<stop offset="0.671875" stop-color="#FEFEFE"/>
<stop offset="0.679688" stop-color="#FDFDFD"/>
<stop offset="0.699219" stop-color="#FDFDFD"/>
<stop offset="0.703125" stop-color="#FCFCFC"/>
<stop offset="0.71875" stop-color="#FBFBFB"/>
<stop offset="0.734375" stop-color="#FBFBFB"/>
<stop offset="0.742188" stop-color="#FAFAFA"/>
<stop offset="0.757812" stop-color="#F9F9F9"/>
<stop offset="0.769531" stop-color="#F9F9F9"/>
<stop offset="0.773438" stop-color="#F8F8F8"/>
<stop offset="0.785156" stop-color="#F8F8F8"/>
<stop offset="0.796875" stop-color="#F7F7F7"/>
<stop offset="0.808594" stop-color="#F7F7F7"/>
<stop offset="0.8125" stop-color="#F6F6F6"/>
<stop offset="0.824219" stop-color="#F6F6F6"/>
<stop offset="0.832031" stop-color="#F6F6F6"/>
<stop offset="0.835938" stop-color="#F5F5F5"/>
<stop offset="0.84375" stop-color="#F5F5F5"/>
<stop offset="0.851562" stop-color="#F4F4F4"/>
<stop offset="0.867188" stop-color="#F4F4F4"/>
<stop offset="0.875" stop-color="#F3F3F3"/>
<stop offset="0.890625" stop-color="#F2F2F2"/>
<stop offset="0.902344" stop-color="#F2F2F2"/>
<stop offset="0.90625" stop-color="#F1F1F1"/>
<stop offset="0.917969" stop-color="#F1F1F1"/>
<stop offset="0.925781" stop-color="#F1F1F1"/>
<stop offset="0.929688" stop-color="#F0F0F0"/>
<stop offset="0.945312" stop-color="#EFEFEF"/>
<stop offset="0.957031" stop-color="#EFEFEF"/>
<stop offset="0.964844" stop-color="#EFEFEF"/>
<stop offset="0.96875" stop-color="#EEEEEE"/>
<stop offset="0.984375" stop-color="#EDEDED"/>
<stop offset="1" stop-color="#EDEDED"/>
</radialGradient>
<radialGradient id="paint7_radial_2_2" cx="0" cy="0" r="1" gradientUnits="userSpaceOnUse" gradientTransform="translate(167.638 179.479) rotate(-1.51271) scale(29.016)">
<stop stop-color="white"/>
<stop offset="0.125" stop-color="white"/>
<stop offset="0.179688" stop-color="#FEFFFE"/>
<stop offset="0.183594" stop-color="#FEFFFE"/>
<stop offset="0.1875" stop-color="#FEFFFD"/>
<stop offset="0.191406" stop-color="#FDFEFD"/>
<stop offset="0.195312" stop-color="#FDFEFC"/>
<stop offset="0.199219" stop-color="#FDFEFC"/>
<stop offset="0.203125" stop-color="#FDFEFB"/>
<stop offset="0.207031" stop-color="#FDFEFB"/>
<stop offset="0.210938" stop-color="#FDFEFA"/>
<stop offset="0.214844" stop-color="#FCFDF9"/>
<stop offset="0.21875" stop-color="#FCFDF9"/>
<stop offset="0.222656" stop-color="#FCFDF9"/>
<stop offset="0.226562" stop-color="#FBFDF8"/>
<stop offset="0.230469" stop-color="#FBFDF8"/>
<stop offset="0.234375" stop-color="#FBFDF7"/>
<stop offset="0.238281" stop-color="#FAFDF6"/>
<stop offset="0.242188" stop-color="#FAFDF6"/>
<stop offset="0.246094" stop-color="#FAFDF6"/>
<stop offset="0.25" stop-color="#F9FCF5"/>
<stop offset="0.253906" stop-color="#F9FCF5"/>
<stop offset="0.257812" stop-color="#F8FCF4"/>
<stop offset="0.261719" stop-color="#F8FCF3"/>
<stop offset="0.265625" stop-color="#F8FCF3"/>
<stop offset="0.273438" stop-color="#F7FBF2"/>
<stop offset="0.277344" stop-color="#F7FBF2"/>
<stop offset="0.28125" stop-color="#F6FBF1"/>
<stop offset="0.285156" stop-color="#F6FBF0"/>
<stop offset="0.289062" stop-color="#F6FBF0"/>
<stop offset="0.292969" stop-color="#F5FAEF"/>
<stop offset="0.296875" stop-color="#F5FAEE"/>
<stop offset="0.304688" stop-color="#F4FAED"/>
<stop offset="0.3125" stop-color="#F4FAEC"/>
<stop offset="0.316406" stop-color="#F3F9EC"/>
<stop offset="0.320312" stop-color="#F3F9EB"/>
<stop offset="0.328125" stop-color="#F3F9EA"/>
<stop offset="0.335938" stop-color="#F3F9E9"/>
<stop offset="0.339844" stop-color="#F2F8E9"/>
<stop offset="0.34375" stop-color="#F2F8E8"/>
<stop offset="0.351562" stop-color="#F1F8E7"/>
<stop offset="0.359375" stop-color="#F1F8E6"/>
<stop offset="0.363281" stop-color="#F0F8E6"/>
<stop offset="0.367188" stop-color="#F0F8E5"/>
<stop offset="0.375" stop-color="#EFF7E4"/>
<stop offset="0.382812" stop-color="#EFF7E3"/>
<stop offset="0.386719" stop-color="#EEF7E3"/>
<stop offset="0.390625" stop-color="#EEF7E2"/>
<stop offset="0.398438" stop-color="#EDF6E1"/>
<stop offset="0.40625" stop-color="#EDF6E0"/>
<stop offset="0.410156" stop-color="#ECF6DF"/>
<stop offset="0.414062" stop-color="#ECF6DF"/>
<stop offset="0.421875" stop-color="#EBF5DE"/>
<stop offset="0.429688" stop-color="#EBF5DD"/>
<stop offset="0.433594" stop-color="#EAF5DC"/>
<stop offset="0.4375" stop-color="#EAF5DC"/>
<stop offset="0.445312" stop-color="#EAF4DB"/>
<stop offset="0.453125" stop-color="#EAF4DA"/>
<stop offset="0.457031" stop-color="#E9F4D9"/>
<stop offset="0.460938" stop-color="#E9F4D9"/>
<stop offset="0.46875" stop-color="#E8F3D8"/>
<stop offset="0.472656" stop-color="#E8F3D8"/>
<stop offset="0.476562" stop-color="#E7F3D7"/>
<stop offset="0.480469" stop-color="#E7F3D6"/>
<stop offset="0.488281" stop-color="#E6F3D5"/>
<stop offset="0.496094" stop-color="#E6F3D5"/>
<stop offset="0.5" stop-color="#E5F2D4"/>
<stop offset="0.503906" stop-color="#E5F2D3"/>
<stop offset="0.507812" stop-color="#E5F2D3"/>
<stop offset="0.511719" stop-color="#E4F2D2"/>
<stop offset="0.515625" stop-color="#E4F2D2"/>
<stop offset="0.519531" stop-color="#E4F2D1"/>
<stop offset="0.523438" stop-color="#E3F1D1"/>
<stop offset="0.527344" stop-color="#E3F1D0"/>
<stop offset="0.53125" stop-color="#E3F1CF"/>
<stop offset="0.535156" stop-color="#E2F1CF"/>
<stop offset="0.539062" stop-color="#E2F1CE"/>
<stop offset="0.542969" stop-color="#E2F1CE"/>
<stop offset="0.546875" stop-color="#E1F0CD"/>
<stop offset="0.550781" stop-color="#E1F0CD"/>
<stop offset="0.554688" stop-color="#E1F0CC"/>
<stop offset="0.558594" stop-color="#E0F0CC"/>
<stop offset="0.5625" stop-color="#E0F0CB"/>
<stop offset="0.566406" stop-color="#E0F0CB"/>
<stop offset="0.570312" stop-color="#E0EFCA"/>
<stop offset="0.574219" stop-color="#E0EFCA"/>
<stop offset="0.578125" stop-color="#E0EFC9"/>
<stop offset="0.582031" stop-color="#DFEFC9"/>
<stop offset="0.585938" stop-color="#DFEFC8"/>
<stop offset="0.589844" stop-color="#DFEFC8"/>
<stop offset="0.59375" stop-color="#DEEFC7"/>
<stop offset="0.597656" stop-color="#DEEFC7"/>
<stop offset="0.601562" stop-color="#DEEFC6"/>
<stop offset="0.605469" stop-color="#DDEEC6"/>
<stop offset="0.609375" stop-color="#DDEEC5"/>
<stop offset="0.613281" stop-color="#DDEEC5"/>
<stop offset="0.617188" stop-color="#DCEEC4"/>
<stop offset="0.621094" stop-color="#DCEEC4"/>
<stop offset="0.625" stop-color="#DCEEC3"/>
<stop offset="0.628906" stop-color="#DBEDC2"/>
<stop offset="0.632812" stop-color="#DBEDC2"/>
<stop offset="0.640625" stop-color="#DAEDC1"/>
<stop offset="0.648438" stop-color="#DAEDC0"/>
<stop offset="0.652344" stop-color="#D9ECBF"/>
<stop offset="0.65625" stop-color="#D9ECBF"/>
<stop offset="0.664062" stop-color="#D8ECBE"/>
<stop offset="0.667969" stop-color="#D8ECBE"/>
<stop offset="0.671875" stop-color="#D7EBBD"/>
<stop offset="0.675781" stop-color="#D7EBBC"/>
<stop offset="0.679688" stop-color="#D7EBBC"/>
<stop offset="0.6875" stop-color="#D7EBBB"/>
<stop offset="0.691406" stop-color="#D7EBBB"/>
<stop offset="0.695312" stop-color="#D6EABA"/>
<stop offset="0.699219" stop-color="#D6EAB9"/>
<stop offset="0.707031" stop-color="#D5EAB8"/>
<stop offset="0.714844" stop-color="#D5EAB8"/>
<stop offset="0.71875" stop-color="#D4EAB7"/>
<stop offset="0.722656" stop-color="#D4EAB6"/>
<stop offset="0.730469" stop-color="#D3E9B5"/>
<stop offset="0.738281" stop-color="#D3E9B4"/>
<stop offset="0.742188" stop-color="#D2E9B4"/>
<stop offset="0.746094" stop-color="#D2E9B3"/>
<stop offset="0.753906" stop-color="#D1E8B2"/>
<stop offset="0.757812" stop-color="#D1E8B2"/>
<stop offset="0.761719" stop-color="#D1E8B1"/>
<stop offset="0.765625" stop-color="#D0E8B1"/>
<stop offset="0.769531" stop-color="#D0E8B0"/>
<stop offset="0.773438" stop-color="#D0E8AF"/>
<stop offset="0.777344" stop-color="#CFE7AF"/>
<stop offset="0.78125" stop-color="#CFE7AE"/>
<stop offset="0.785156" stop-color="#CFE7AE"/>
<stop offset="0.789062" stop-color="#CEE7AD"/>
<stop offset="0.792969" stop-color="#CEE7AD"/>
<stop offset="0.796875" stop-color="#CEE7AC"/>
<stop offset="0.800781" stop-color="#CDE6AC"/>
<stop offset="0.804688" stop-color="#CDE6AB"/>
<stop offset="0.808594" stop-color="#CDE6AB"/>
<stop offset="0.8125" stop-color="#CDE6AA"/>
<stop offset="0.816406" stop-color="#CDE6AA"/>
<stop offset="0.820312" stop-color="#CDE6A9"/>
<stop offset="0.824219" stop-color="#CCE5A8"/>
<stop offset="0.828125" stop-color="#CCE5A8"/>
<stop offset="0.835938" stop-color="#CBE5A7"/>
<stop offset="0.84375" stop-color="#CBE5A6"/>
<stop offset="0.847656" stop-color="#CAE5A5"/>
<stop offset="0.851562" stop-color="#CAE5A5"/>
<stop offset="0.859375" stop-color="#C9E4A4"/>
<stop offset="0.863281" stop-color="#C9E4A4"/>
<stop offset="0.867188" stop-color="#C9E4A3"/>
<stop offset="0.871094" stop-color="#C8E4A2"/>
<stop offset="0.875" stop-color="#C8E4A2"/>
<stop offset="0.882812" stop-color="#C7E3A1"/>
<stop offset="0.886719" stop-color="#C7E3A1"/>
<stop offset="0.890625" stop-color="#C6E3A0"/>
<stop offset="0.894531" stop-color="#C6E39F"/>
<stop offset="1" stop-color="#C6E39F"/>
</radialGradient>
</defs>
</svg>
