<svg width="459" height="433" viewBox="0 0 459 433" fill="none" xmlns="http://www.w3.org/2000/svg">
<path d="M303.973 63.3838C291.024 0.653374 362.262 -10.4365 398.633 9.44243C388.801 7.78228 382.801 7.34478 382.801 7.34478C403.332 13.2745 430.934 29.4932 431.691 54.9151C427.953 45.4659 424.383 40.0948 424.383 40.0948C431.332 61.3526 455.524 140.575 333.004 126.814C320.992 93.5752 303.973 63.3838 303.973 63.3838Z" fill="#B86624"/>
<path d="M384.633 82.544C403.953 77.7159 405.961 55.5127 398.742 38.3956C388.902 16.2159 360.063 12.4932 343.024 26.0948C321.992 43.6221 325.203 71.1338 320.211 95.7627C311.582 76.8838 303.973 63.3838 303.973 63.3838C291.024 0.653374 362.262 -10.4365 398.633 9.44243C388.801 7.78228 382.801 7.34478 382.801 7.34478C403.332 13.2745 430.934 29.4932 431.691 54.9151C427.953 45.4659 424.383 40.0948 424.383 40.0948C431.332 61.3526 440.973 133.966 328.633 115.353C327.223 111.485 330.133 119.103 328.633 115.353C344.172 100.114 362.453 87.8135 384.633 82.544Z" fill="#CC7337"/>
<path d="M392.703 6.61429C374.203 2.85257 354.942 3.2432 336.074 10.7549C311.984 19.9854 306.063 46.4346 307.754 68.9737C307.402 68.8135 307.063 68.6338 306.734 68.4541C305.012 65.2159 303.973 63.3838 303.973 63.3838C291.692 3.90335 355.102 -9.13571 392.703 6.61429Z" fill="#E59B6A"/>
<path d="M424.762 39.8447C424.781 39.8955 427.742 44.3642 431.051 52.165C428.332 27.4541 399.723 12.7041 382.684 7.78221L378.543 6.58299L382.832 6.90331C382.891 6.90331 387.813 7.26268 395.902 8.54393C382.121 1.81346 364.402 -0.674819 347.883 1.89549C331.371 4.46581 318.102 11.8955 310.531 22.8252C303.141 33.4736 301.082 47.0752 304.402 63.2353C305.274 64.7822 321.703 94.3135 333.324 126.395C351.961 128.474 368.172 128.474 381.524 126.395H381.531C401.774 123.235 415.942 115.274 423.641 102.724C437.184 80.6533 427.223 50.2353 423.953 40.2353L422.922 37.083L424.762 39.8447ZM332.953 127.255L332.672 127.224L332.582 126.966C320.711 94.1455 303.754 63.915 303.582 63.6142L303.531 63.4736C300.141 47.0322 302.254 33.1846 309.781 22.3135C317.504 11.1846 330.984 3.61424 347.742 1.00487C365.473 -1.75685 384.582 1.25487 398.844 9.04393L401.211 10.333L398.563 9.88377C393.723 9.07518 389.801 8.55565 387.074 8.23534C405.164 14.4931 431.402 29.9853 432.152 54.9033L432.234 57.4658L431.274 55.0752C429.332 50.1846 427.434 46.3642 426.051 43.8447C429.973 56.4931 436.703 83.1533 424.414 103.192C416.574 115.985 402.192 124.083 381.672 127.282H381.664C368.172 129.384 351.774 129.372 332.953 127.255Z" fill="#893F0C"/>
<path d="M328.742 81.872C332.602 33.4033 353.461 15.1025 379.442 23.833C405.422 32.5556 441.813 113.985 345.074 98.9424C332.453 88.1338 328.742 81.872 328.742 81.872Z" fill="#F09B82"/>
<path d="M368.672 38.5127C378.344 36.0557 388.984 36.4658 397.844 40.1729C415.203 65.8955 418.754 110.396 345.074 98.9424C340.914 95.3838 337.742 92.3252 335.332 89.8135C333.871 67.7236 345.781 45.1651 368.672 38.5127Z" fill="#FCB3A2"/>
<path d="M329.203 81.7627C329.781 82.6728 333.871 88.7548 345.274 98.5126C358.574 100.575 370.004 100.895 379.254 99.4541H379.262C401.254 96.0244 406.863 83.5556 407.692 73.6923C409.402 53.7158 393.133 28.9033 379.301 24.2548C373.512 22.3134 367.992 21.7353 362.891 22.5244C343.992 25.4658 332.043 46.5048 329.203 81.7627ZM345.012 99.3837L344.883 99.3642L344.793 99.2822C332.242 88.5556 328.504 82.3642 328.363 82.1025L328.281 81.9853L328.293 81.8447C331.141 46.0322 343.371 24.6533 362.754 21.6337C367.992 20.8134 373.664 21.415 379.582 23.4033C393.723 28.1455 410.324 53.4228 408.602 73.7744C407.734 83.9541 401.961 96.8251 379.402 100.345H379.391C370.024 101.806 358.453 101.474 345.012 99.3837Z" fill="#893F0C"/>
<path d="M139.129 65.9228C132.402 2.2236 61.172 13.3056 32.5548 43.2939C41.422 38.7236 46.9962 36.4931 46.9962 36.4931C29.2384 48.372 7.87511 72.2158 14.8673 96.665C15.5743 86.5244 17.34 80.3134 17.34 80.3134C17.172 102.685 18.2071 185.513 130.754 135.173C132.094 99.8525 139.129 65.9228 139.129 65.9228Z" fill="#B86624"/>
<path d="M68.1017 108.685C48.2345 109.954 39.5626 89.415 41.2462 70.915C43.8751 46.7939 70.2306 34.4853 90.5939 42.2627C115.957 52.5634 121.258 79.7549 133.5 101.704C135.984 81.0947 139.129 65.9228 139.129 65.9228C132.402 2.2236 61.172 13.3056 32.5548 43.2939C41.422 38.7236 46.9962 36.4931 46.9962 36.4931C29.2384 48.372 7.87511 72.2158 14.8673 96.665C15.5743 86.5244 17.34 80.3134 17.34 80.3134C17.172 102.685 30.0509 174.794 131.438 122.935C131.145 126.954 131.59 118.813 131.438 122.935C111.996 113.134 90.84 106.966 68.1017 108.685Z" fill="#CC7337"/>
<path d="M37.3361 38.8057C53.8282 29.5947 72.2892 24.1143 92.547 25.5439C118.313 27.0049 131.988 50.4033 137.238 72.3955C137.516 72.1338 137.785 71.8643 138.039 71.583C138.699 67.9853 139.129 65.9228 139.129 65.9228C132.754 5.52441 68.3868 12.3643 37.3361 38.8057Z" fill="#E59B6A"/>
<path d="M17.8165 77.0127L17.7931 80.3252C17.7111 90.8448 17.4728 122.853 37.0704 139.763C48.2189 149.384 64.1368 152.665 84.3868 149.513H84.3947C97.7462 147.435 113.192 142.513 130.313 134.872C131.637 100.774 138.313 67.6534 138.676 65.9034C136.926 49.4932 130.836 37.1729 120.559 29.2745C110.016 21.1651 95.1251 18.1143 78.6134 20.6846C62.0939 23.2549 45.965 31.0049 34.8751 41.6143C42.1954 37.9346 46.7814 36.0948 46.8322 36.0752L50.8283 34.4737L47.2462 36.8643C32.5079 46.7237 9.72278 69.4854 14.6447 93.8448C15.4415 85.4151 16.8908 80.2549 16.9103 80.1924L17.8165 77.0127ZM84.5353 150.403H84.5236C64.004 153.595 47.8439 150.243 36.4845 140.442C18.6915 125.095 16.9884 97.6456 16.8829 84.4034C16.34 87.2237 15.6798 91.4346 15.3165 96.6924L15.1408 99.2549L14.4337 96.7823C7.58216 72.8252 27.8634 50.0948 43.1954 38.6338C40.6915 39.7627 37.1173 41.4542 32.7618 43.6924L30.3751 44.9229L32.2267 42.9854C43.4533 31.2237 60.7423 22.5557 78.4767 19.794C95.2306 17.1846 110.371 20.3057 121.11 28.5557C131.602 36.6221 137.813 49.1846 139.578 65.8721L139.57 66.0245C139.496 66.3526 132.527 100.314 131.203 135.185L131.192 135.466L130.938 135.583C113.645 143.314 98.0275 148.306 84.5353 150.403Z" fill="#893F0C"/>
<path d="M121.152 91.0635C102.746 46.0557 77.3087 34.9658 55.211 51.1728C33.1095 67.3721 23.1915 156.013 110.774 112.294C119.524 98.165 121.152 91.0635 121.152 91.0635Z" fill="#F09B82"/>
<path d="M69.9376 61.8837C59.965 62.4853 49.965 66.1025 42.6447 72.333C33.9259 102.114 44.0626 145.595 110.774 112.294C113.652 107.634 115.754 103.755 117.285 100.622C111.965 79.1455 93.754 61.2627 69.9376 61.8837Z" fill="#FCB3A2"/>
<path d="M70.5821 44.8956C65.4806 45.6924 60.4025 47.9229 55.4767 51.5323C43.7032 60.1651 35.7501 88.7432 43.4415 107.263C47.2306 116.403 56.3712 126.575 78.3556 123.165L78.3634 123.153C87.6134 121.724 98.4142 117.942 110.457 111.942C118.348 99.1729 120.402 92.1338 120.676 91.0948C107.266 58.3643 89.4767 41.9542 70.5821 44.8956ZM78.504 124.056H78.4962C55.9337 127.564 46.5274 117.044 42.6056 107.614C34.7814 88.7549 42.922 59.6221 54.9454 50.8057C59.9845 47.1143 65.1954 44.8252 70.4454 44.0049C89.8165 40.9932 107.969 57.6456 121.567 90.8956L121.625 91.0245L121.59 91.1651C121.524 91.4659 119.844 98.4932 111.156 112.524L111.09 112.634L110.977 112.692C98.8009 118.774 87.8751 122.595 78.504 124.056Z" fill="#893F0C"/>
<path d="M214.602 39.915C248.582 37.9033 273.211 23.9424 270.254 31.2431C267.281 38.5439 248.793 39.8252 248.793 39.8252C316.824 46.3447 363.414 67.3642 371.891 174.563C382.141 199.415 458.723 228.532 457.692 289.345C453.711 281.306 448.613 266.122 448.613 266.122C451.524 284.825 453.664 313.224 449.832 317.923C446.762 307.005 443.762 290.595 443.961 291.935C442.863 346.372 324.504 426.806 226.754 431.524C129.004 436.243 27.211 338.853 24.0353 326.274C28.8439 343.466 31.7931 348.782 30.9493 349.216C30.1017 349.653 9.37901 329.774 14.4376 309.532C9.21886 317.024 10.8634 329.544 9.37902 329.774C7.89855 330.013 -10.6171 293.063 10.2345 268.845C31.09 244.622 69.0196 219.485 76.797 200.423C89.7814 168.614 84.1564 47.583 214.602 39.915Z" fill="#B86624"/>
<path d="M271.242 61.9931C264.863 62.9931 259.203 59.9658 255.582 57.665C256.793 59.6338 257.672 61.8134 258.324 64.0244C260.141 67.6338 261.754 71.0127 260.762 71.7236C255.102 74.2041 250.082 64.2627 246.961 59.2158C250.574 63.1845 258.664 74.0439 259.442 69.1923C259.192 67.5127 258.824 65.7627 258.324 64.0244C257.141 61.7041 255.883 59.2744 255.184 57.3955C255.301 57.4853 255.434 57.5752 255.582 57.665C254.734 56.2627 253.711 54.9736 252.504 53.8525C258.391 56.5947 266.043 63.8134 268.902 58.8056C269.664 57.5439 255.934 48.4931 254.203 47.2158C256.184 47.1845 259.332 47.6455 262.574 48.1025C268.594 48.9424 274.953 49.7939 274.914 47.583C270.973 43.2744 264.621 43.4345 259.781 41.083C256.192 40.6025 252.531 40.1845 248.793 39.8252C248.793 39.8252 267.281 38.5439 270.254 31.2431C273.211 23.9424 248.582 37.9033 214.602 39.915C84.1564 47.583 89.7814 168.614 76.797 200.423C69.0196 219.485 31.09 244.622 10.2345 268.845C-10.6171 293.063 7.89855 330.013 9.37902 329.774C10.8634 329.544 1.95714 312.024 15.9181 298.942C10.8634 319.185 17.0704 336.384 24.3243 336.845C25.2775 336.915 9.61339 317.524 27.297 294.403C21.4142 302.083 83.672 392.255 153.207 418.423C177.613 424.063 202.613 426.985 227.184 424.403C310.063 415.895 387.672 363.603 415.664 284.474C434.844 230.235 365.301 199.263 359.352 176.024C331.211 66.165 281.504 62.1533 271.242 61.9931Z" fill="#CC7337"/>
<path d="M11.4337 270.364C37.0783 244.122 67.8322 232.146 83.8673 195.845C92.3087 176.743 81.8908 67.7744 206.914 40.5127C84.379 52.415 89.5236 169.255 76.797 200.423C69.0197 219.485 31.09 244.622 10.2345 268.845C2.05873 278.333 -0.0662655 289.782 0.461078 300.185C1.79311 289.646 3.7892 278.216 11.4337 270.364Z" fill="#E59B6A"/>
<path d="M255.582 57.665C256.793 59.6338 257.672 61.8135 258.324 64.0244C257.141 61.7041 255.883 59.2744 255.184 57.3955C255.301 57.4854 255.434 57.5752 255.582 57.665Z" fill="#CC7337"/>
<path d="M259.961 50.9424C261.922 52.1221 263.852 53.2432 265.434 54.2822C263.262 53.1729 261.121 52.083 259.961 50.9424Z" fill="#CC7337"/>
<path d="M214.602 39.915C244.703 38.1337 267.461 26.9853 270.203 29.5439C263.043 31.5634 256.152 35.2158 248.984 37.083C218.852 44.9033 184.332 43.9228 155.133 54.5751C170.942 46.6533 190.434 41.333 214.602 39.915Z" fill="#E59B6A"/>
<path d="M444.402 291.825L444.414 291.884C444.473 292.114 444.531 292.466 444.633 292.954C445.391 296.782 447.633 308.153 449.985 316.794C452.942 310.353 450.934 283.942 448.172 266.204L449.043 265.985C449.082 266.122 453.485 279.153 457.254 287.353C456.844 248.692 425.192 223.403 399.652 203.013C386.442 192.466 375.024 183.345 371.473 174.735L371.453 174.673L371.442 174.595C363.442 73.4541 322.051 48.1729 253.192 40.7236C251.723 40.5635 247.563 40.1846 247.563 40.1846C247.582 40.1846 250.641 39.2432 253.254 38.833C258.602 38.0049 267.871 35.8838 269.832 31.0752C269.992 30.6729 270.141 30.1533 269.953 29.9033C269.801 29.7158 269.242 29.4346 267.235 29.7432C265.031 30.083 261.742 31.0127 257.582 32.1846C250.383 34.2236 240.512 37.0049 228.992 38.8057C224.113 39.5635 219.281 40.083 214.621 40.3526C208.383 40.7236 202.274 41.3721 196.485 42.2744C106.891 56.2158 92.2775 130.466 83.547 174.825C81.4494 185.454 79.6447 194.646 77.215 200.595C72.5705 211.985 57.4181 225.372 41.3751 239.556C30.4064 249.255 19.0626 259.282 10.5744 269.146C0.226711 281.153 -0.0311004 296.146 1.57437 306.603C3.44156 318.755 8.14859 327.825 9.32827 329.192C9.54312 328.634 9.67202 326.993 9.78531 325.524C10.133 321.005 10.6603 314.173 14.0705 309.274L15.4689 307.263L14.8791 309.646C10.2033 328.333 27.6056 346.216 30.6017 348.532C30.4611 347.833 29.9611 346.396 29.3556 344.673C28.1564 341.235 26.1486 335.493 23.6525 326.595L23.5978 326.396L24.4728 326.165L24.5158 326.325C26.5705 333.032 53.2502 360.532 90.6994 385.364C124.231 407.595 175.051 433.575 226.735 431.075C233.953 430.724 241.485 429.954 249.113 428.755C292.922 421.942 340.852 401.864 380.621 373.673C419.531 346.103 443.031 315.544 443.524 292.005L443.442 291.485L443.883 291.415C444.172 291.364 444.274 291.353 444.402 291.825ZM226.781 431.974C174.852 434.485 123.844 408.415 90.2033 386.114C57.3439 364.325 32.7111 340.384 25.6095 330.134C27.5939 336.896 29.1916 341.466 30.2072 344.372C31.5822 348.306 31.9064 349.235 31.1564 349.614L30.9962 349.665C30.1798 349.794 27.4064 346.833 26.5705 345.923C22.7931 341.782 11.2189 327.653 13.4728 312.114C11.383 316.524 10.9728 321.864 10.6798 325.595C10.4455 328.673 10.3361 330.083 9.45327 330.224H9.44546C9.17984 330.263 8.7814 330.314 7.48062 327.974C2.52359 319.056 -7.68735 288.974 9.89077 268.556C18.4181 258.653 29.7814 248.595 40.7775 238.884C56.7384 224.774 71.8127 211.442 76.383 200.255C78.7775 194.384 80.5822 185.243 82.6642 174.653C91.4377 130.056 106.129 55.4229 196.344 41.3838C202.164 40.4736 208.293 39.8252 214.574 39.4541C219.203 39.1846 224.004 38.6651 228.852 37.9151C240.332 36.1221 250.164 33.3447 257.344 31.3252C261.531 30.1455 264.832 29.2041 267.102 28.8526C269.051 28.5557 270.141 28.7041 270.664 29.3447C271.031 29.8252 271.043 30.5049 270.664 31.4151C268.652 36.3838 260.164 38.6729 253.391 39.7236C253.254 39.7549 253.102 39.7744 252.973 39.794C280.492 42.6924 310.871 48.8135 332.985 69.1026C355.793 90.044 368.301 123.524 372.344 174.454C375.832 182.833 387.141 191.864 400.223 202.313C426.332 223.173 458.824 249.122 458.141 289.353L458.113 291.204L457.293 289.544C454.684 284.274 451.574 275.884 449.742 270.743C452.211 288.813 453.852 313.692 450.184 318.204L449.633 318.884L449.391 318.044C447.293 310.556 445.242 300.595 444.192 295.353C441.672 318.735 418.442 347.974 381.141 374.415C341.262 402.673 293.192 422.814 249.254 429.653C241.582 430.845 234.031 431.634 226.781 431.974Z" fill="#893F0C"/>
<path d="M258.621 70.9033C258.914 70.8525 259.172 70.7158 259.363 70.4736C260.684 68.8955 259.234 63.1924 254.133 55.0635C257.711 57.7744 264.742 62.4541 268.344 60.4736C269.383 59.9033 269.883 59.2432 269.891 58.4736C269.922 56.3135 265.762 53.915 258.902 49.9346C257.781 49.2822 256.602 48.6025 255.363 47.8721C260.504 48.8057 270.633 49.9424 274.234 48.9658C275.051 48.7432 275.543 48.415 275.742 47.9658C275.844 47.7432 275.902 47.3955 275.664 46.9854C273.883 43.9229 254.594 39.9736 250.254 39.5127L250.152 40.415C251.031 40.5049 252.324 40.7041 253.863 40.9854C261.082 42.3057 273.692 45.3955 274.883 47.4346C274.942 47.5439 274.934 47.583 274.922 47.6025C274.891 47.6533 274.774 47.8447 274.192 48.0322C269.953 49.4033 254.012 46.9658 252.883 46.4033L252.832 46.3721C252.832 46.3721 256.594 49.6338 258.453 50.7158C264.352 54.1338 269.012 56.8252 268.992 58.4658C268.992 58.8838 268.633 59.2822 267.902 59.6846C264.344 61.6455 255.594 55.2549 252.524 52.6338L249.984 50.4658L251.852 53.2236C258.414 62.915 259.531 68.8643 258.672 69.8955C258.621 69.9541 258.492 70.1221 258.051 69.9229C255.922 68.9932 248.184 59.833 245.371 56.3838C245.371 56.3838 248.074 61.1221 251.301 64.7158C253.863 67.5557 256.461 70.2158 257.684 70.7549C258.024 70.8955 258.344 70.9424 258.621 70.9033Z" fill="#893F0C"/>
<path d="M37.8048 285.833C38.7423 299.673 43.8165 302.923 47.4767 305.005C84.1642 325.825 96.59 261.755 130.969 259.423C161.082 257.372 268.613 208.704 344.191 266.114C423.492 326.372 433.344 301.653 435.242 287.603C435.641 284.704 433.473 272.825 436.281 276.263C438.504 278.966 445.422 285.634 443.524 297.083C435.524 351.294 321.473 426.942 226.762 431.524C135.238 435.942 40.1798 350.864 25.8243 329.673C17.9259 309.774 32.7423 301.685 37.8048 285.833Z" fill="#F9C9AD"/>
<path d="M25.8243 329.673C17.9259 309.774 32.7423 301.685 37.8048 285.833C38.7423 299.673 43.8165 302.923 47.4767 305.005C84.1642 325.825 96.59 261.755 130.969 259.423C161.082 257.372 268.613 208.704 344.191 266.114C374.543 289.173 394.711 299.774 408.164 303.314C375.094 371.704 303.313 416.583 227.184 424.403C202.613 426.985 179.391 419.384 154.988 413.755C91.3946 389.814 36.2853 345.122 25.8243 329.673Z" fill="#F9D8C7"/>
<path d="M435.524 282.634C435.672 284.716 435.832 286.665 435.691 287.665C434.293 298.013 429.652 303.653 421.512 304.923C406.641 307.235 380.543 294.294 343.922 266.474C310.953 241.423 268.121 233.423 212.992 242.005C193.063 245.114 174.742 249.825 160.031 253.622C150.082 256.185 141.492 258.396 135.191 259.372C133.629 259.622 132.219 259.782 131 259.872C130.203 259.923 129.402 260.005 128.617 260.134C115.043 262.243 104.887 274.216 95.0587 285.794C85.5704 296.974 76.6056 307.532 64.9806 309.345C59.2931 310.224 53.4923 308.935 47.2501 305.396C44.086 303.583 38.8907 300.646 37.5352 287.954C35.8634 292.325 33.5196 296.114 31.2423 299.782C25.9806 308.282 21.0196 316.306 26.2227 329.466C33.5743 340.282 61.3009 366.903 97.5938 389.825C129.457 409.954 177.734 433.442 226.734 431.083C233.953 430.724 241.484 429.954 249.102 428.763L249.113 428.755C291.293 422.192 337.852 403.075 376.863 376.306C414.844 350.224 439.602 320.595 443.074 297.013C444.762 286.806 439.281 280.442 436.641 277.384C436.383 277.075 436.133 276.794 435.941 276.544C435.691 276.263 435.551 276.153 435.484 276.114C435.051 276.743 435.344 280.415 435.524 282.634ZM226.781 431.974C177.543 434.353 129.086 410.782 97.1134 390.583C60.6642 367.564 32.8048 340.782 25.4532 329.935L25.4063 329.845C20.004 316.224 25.0899 308.013 30.4727 299.325C33.0626 295.134 35.7423 290.814 37.379 285.692L38.0899 283.442L38.254 285.806C39.2032 299.782 44.5235 302.806 47.6993 304.614C53.754 308.044 59.3595 309.306 64.8399 308.454C76.1329 306.692 84.9923 296.255 94.3751 285.204C104.305 273.505 114.574 261.403 128.477 259.243C129.289 259.114 130.117 259.024 130.938 258.966C132.133 258.884 133.516 258.724 135.051 258.485C141.309 257.513 149.875 255.306 159.801 252.755C174.531 248.954 192.871 244.224 212.852 241.122C268.242 232.493 311.293 240.564 344.461 265.763C380.883 293.423 406.762 306.306 421.371 304.032C429.063 302.833 433.461 297.442 434.801 287.544C434.922 286.634 434.774 284.724 434.613 282.704C434.234 277.622 434.172 275.372 435.332 275.204C435.852 275.114 436.324 275.595 436.621 275.974C436.832 276.216 437.063 276.493 437.332 276.806C440.051 279.954 445.723 286.524 443.973 297.153C440.402 321.325 416.121 350.442 377.371 377.044C338.262 403.884 291.551 423.064 249.254 429.653H249.242C241.582 430.845 234.031 431.634 226.781 431.974Z" fill="#BC927D"/>
<path d="M334.094 328.185C284.781 335.556 288.672 413.372 229.234 412.294C169.781 411.204 169.813 348.884 142.895 336.056C208.871 308.763 334.094 328.185 334.094 328.185Z" fill="#541806"/>
<path d="M190.383 324.466C189.352 353.435 198.801 387.685 228.621 386.794C258.574 385.306 265.391 350.774 266.574 322.013C304.531 323.595 334.094 328.185 334.094 328.185C284.781 335.556 288.672 413.372 229.234 412.294C169.781 411.204 169.813 348.884 142.895 336.056C156.692 330.333 173.094 326.685 190.383 324.466Z" fill="#662212"/>
<path d="M229.324 375.513C245.891 358.513 267.684 366.192 284.524 374.895C272.152 394.575 258.234 412.825 229.234 412.294C200.262 411.763 185.414 396.692 174.692 379.884C189.281 369.743 219.391 368.466 229.324 375.513Z" fill="#ED4E4A"/>
<path d="M229.234 412.294C200.262 411.763 185.414 396.692 174.692 379.884C189.281 369.743 219.391 368.466 229.324 375.513C242.383 362.114 258.684 364.056 273.254 369.735C274.133 372.134 274.133 374.966 272.863 378.083C266.484 393.013 255.531 404.063 242.402 411.083C238.383 411.942 234.024 412.372 229.234 412.294Z" fill="#F98C8C"/>
<path d="M191.852 379.915C194.891 401.216 221.141 408.185 237.504 398.173C219.242 404.263 200.984 395.122 191.852 379.915Z" fill="#F7B2B2"/>
<path d="M247.711 366.255C240.883 367.313 234.801 370.532 229.641 375.825L229.363 376.103L229.063 375.872C223.332 371.806 210.063 370.415 196.801 372.474C188.141 373.825 180.531 376.493 175.301 380.005C185.262 395.505 199.504 411.306 229.242 411.845C232.801 411.903 236.242 411.685 239.484 411.173C261.484 407.755 273.512 391.513 283.883 375.063C274.473 370.243 260.664 364.224 247.711 366.255ZM229.223 412.743C198.652 412.185 183.824 395.013 174.313 380.122L174.082 379.755L174.442 379.513C179.781 375.794 187.672 372.985 196.664 371.583C210.113 369.493 223.121 370.833 229.262 374.923C234.504 369.653 240.664 366.435 247.574 365.353C260.992 363.274 275.211 369.575 284.734 374.485L285.172 374.716L284.914 375.134C274.363 391.895 262.184 408.556 239.621 412.075C236.332 412.583 232.832 412.813 229.223 412.743Z" fill="#BF3434"/>
<path d="M183.141 325.935C168.031 328.282 154.856 331.704 143.981 336.095C153.504 341.134 159.742 352.513 166.352 364.556C178.332 386.403 191.914 411.165 229.242 411.845C232.801 411.903 236.242 411.685 239.484 411.173C264.004 407.364 276.121 387.704 287.844 368.692C298.754 351.005 310.024 332.724 331.274 328.224C316.223 326.122 242.313 316.724 183.141 325.935ZM229.223 412.743C191.371 412.063 177.664 387.044 165.563 364.985C158.824 352.716 152.465 341.114 142.699 336.466L141.785 336.013L142.723 335.634C153.836 331.044 167.391 327.474 183.012 325.044C249.024 314.774 333.324 327.614 334.164 327.743L337.082 328.192L333.871 328.673C311.422 332.165 300.344 350.145 288.613 369.173C276.781 388.353 264.551 408.185 239.621 412.075C236.332 412.583 232.832 412.806 229.223 412.743Z" fill="#936957"/>
<path d="M279.543 341.954C282.012 345.083 280.801 366.235 283.902 366.923C287.012 367.622 297.492 355.114 295.043 343.173C289.332 341.146 279.543 341.954 279.543 341.954Z" fill="#CCCCCC"/>
<path d="M286.004 343.353C288.473 346.485 280.801 366.235 283.902 366.923C287.012 367.622 297.492 355.114 295.043 343.173C289.332 341.146 286.004 343.353 286.004 343.353Z" fill="white"/>
<path d="M280.293 342.353C281.203 344.435 281.524 349.103 281.852 354.005C282.192 359.146 282.664 366.185 284.004 366.485C284.934 366.692 287.484 364.993 290.094 361.235C291.563 359.114 296.192 351.646 294.652 343.513C289.953 341.942 282.594 342.224 280.293 342.353ZM283.813 367.364C281.902 366.942 281.484 362.032 280.953 354.064C280.602 348.903 280.242 343.564 279.192 342.235L278.672 341.575L279.512 341.505C279.902 341.466 289.453 340.704 295.192 342.743L295.434 342.833L295.484 343.083C296.672 348.872 294.934 355.845 290.832 361.743C288.641 364.915 286.152 367.122 284.492 367.372C284.254 367.423 284.024 367.415 283.813 367.364Z" fill="#999999"/>
<path d="M175.363 337.153C173.141 340.466 175.953 361.454 172.914 362.395C169.863 363.313 158.461 351.645 160.004 339.544C165.551 337.083 175.363 337.153 175.363 337.153Z" fill="#CCCCCC"/>
<path d="M166.723 340.646C164.504 343.954 175.953 361.454 172.914 362.396C169.863 363.313 158.461 351.646 160.004 339.544C165.551 337.083 166.723 340.646 166.723 340.646Z" fill="white"/>
<path d="M166.524 338.282C164.043 338.665 161.992 339.185 160.422 339.853C159.594 347.235 163.734 354.915 168.242 359.306C170.551 361.556 172.141 362.165 172.781 361.954C174.094 361.556 174.031 354.493 173.984 349.345C173.942 344.435 173.891 339.763 174.652 337.614C173.242 337.634 169.922 337.755 166.524 338.282ZM167.613 359.942C162.891 355.353 158.574 347.255 159.563 339.493L159.594 339.235L159.824 339.134C161.492 338.396 163.703 337.806 166.383 337.384C170.922 336.685 175.324 336.704 175.363 336.704H176.203L175.734 337.403C174.793 338.825 174.832 344.165 174.883 349.333C174.953 357.325 174.902 362.255 173.043 362.814L172.824 362.872C171.613 363.056 169.711 361.993 167.613 359.942Z" fill="#999999"/>
<path d="M238.922 237.204C297.613 235.415 354.141 233.415 365.461 276.794C376.774 320.173 339.692 383.532 234.914 330.013C194.703 354.435 91.4728 365.024 100.387 290.575C107.516 231.032 145.828 240.063 238.922 237.204Z" fill="#F9C9AD"/>
<path d="M100.387 290.575C105.777 245.575 128.981 239.735 180.164 238.345C182.352 259.505 194.063 279.372 214.883 286.794C230.242 291.692 248.184 289.813 260.434 280.603C275.473 270.282 280.301 253.755 280.774 236.524C322.453 237.134 356.902 243.966 365.461 276.794C376.774 320.173 340.711 375.044 235.942 321.524C195.723 345.942 91.4728 365.024 100.387 290.575Z" fill="#F9D8C7"/>
<path d="M234.774 330.685C236.594 329.325 237.613 324.603 237.301 319.165C237.133 316.192 234.652 310.313 234.652 310.313C237.652 318.743 236.543 328.224 234.234 329.966L234.774 330.685Z" fill="#BC927D"/>
<path d="M100.832 290.622C98.7306 308.216 102.785 322.083 112.899 331.845C127.344 345.782 154.09 350.915 186.281 345.903L186.293 345.895C204.742 343.032 222.371 337.102 234.684 329.622L234.891 329.485L235.121 329.602C267.422 346.102 295.402 352.685 318.262 349.122C335.274 346.474 348.832 338.114 357.461 324.966C366.473 311.243 369.293 293.274 365.024 276.903C353.871 234.145 298.563 235.833 240.024 237.622L238.934 237.653C226.031 238.056 213.961 238.224 203.313 238.372C179.871 238.704 161.363 238.966 146.594 241.255C116.996 245.864 104.594 259.243 100.832 290.622ZM234.934 330.524C222.543 337.993 204.883 343.923 186.434 346.794C153.953 351.852 126.922 346.634 112.274 332.493C101.945 322.524 97.797 308.403 99.9416 290.513C103.754 258.645 116.363 245.056 146.457 240.372C161.293 238.063 179.824 237.806 203.301 237.466C213.942 237.325 226.012 237.153 238.914 236.755L239.992 236.724C298.914 234.923 354.563 233.216 365.891 276.685C370.235 293.294 367.352 311.532 358.211 325.466C349.442 338.833 335.672 347.325 318.402 350.013C295.402 353.595 267.324 347.032 234.934 330.524Z" fill="#BC927D"/>
<path d="M235.324 220.364C281.594 221.622 285.141 235.173 283.203 243.384C281.184 251.903 266.141 285.563 231.754 283.622C197.352 281.673 177.434 253.263 177.774 241.763C178.102 230.255 207.453 219.614 235.324 220.364Z" fill="#791612"/>
<path d="M235.324 220.364C281.594 221.622 285.141 235.173 283.203 243.384C281.184 251.903 265.141 274.403 230.742 272.466C196.352 270.513 177.434 253.263 177.774 241.763C178.102 230.255 207.453 219.614 235.324 220.364Z" fill="#892222"/>
<path d="M236.184 223.743C261.051 224.415 262.961 231.704 261.922 236.114C260.832 240.692 249.512 244.282 231.024 243.243C212.531 242.192 205.074 241.423 205.254 235.243C205.434 229.056 221.203 223.333 236.184 223.743Z" fill="#AF5151"/>
<path d="M178.223 241.774C178.063 246.942 182.332 256.716 192.051 265.954C202.852 276.216 216.953 282.325 231.774 283.173C235.172 283.353 238.504 283.204 241.692 282.704C269.051 278.454 281.043 250.524 282.762 243.282C283.672 239.442 282.984 235.993 280.703 233.044C274.984 225.595 259.711 221.474 235.313 220.813C228.742 220.634 221.984 221.083 215.234 222.134C194.024 225.435 178.453 233.692 178.223 241.774ZM231.723 284.063C197.164 282.122 176.973 253.724 177.324 241.755C177.574 233.235 193.453 224.614 215.082 221.243C221.891 220.185 228.711 219.735 235.332 219.915C260.012 220.583 275.524 224.825 281.422 232.493C283.863 235.685 284.613 239.372 283.633 243.493C281.891 250.853 269.692 279.263 241.832 283.595C238.582 284.103 235.184 284.263 231.723 284.063Z" fill="#540B0B"/>
<path d="M145.914 187.845C148.402 211.485 166.192 228.985 185.633 226.923C205.102 224.884 218.852 204.083 216.352 180.442C213.883 156.825 196.082 139.325 176.633 141.372C157.192 143.415 143.445 164.235 145.914 187.845Z" fill="#B7642C"/>
<path d="M149.012 188.806C151.344 211.063 167.832 227.556 185.824 225.653C203.801 223.763 216.484 204.204 214.152 181.966C211.824 159.716 195.324 143.216 177.352 145.103C159.352 146.993 146.68 166.575 149.012 188.806Z" fill="#A35824"/>
<mask id="mask0_2_9" style="mask-type:luminance" maskUnits="userSpaceOnUse" x="151" y="148" width="62" height="78">
<path d="M151.063 148.044H212.063V225.044H151.063V148.044Z" fill="white"/>
</mask>
<g mask="url(#mask0_2_9)">
<mask id="mask1_2_9" style="mask-type:luminance" maskUnits="userSpaceOnUse" x="151" y="148" width="61" height="77">
<path d="M182.551 224.853C166.582 224.853 152.734 209.044 151.281 188.653C149.91 169.415 160.113 152.263 175.012 148.774C176.262 148.485 177.531 148.282 178.824 148.204C179.402 148.165 179.973 148.146 180.551 148.146C187.984 148.146 195.184 151.556 200.973 157.872C207.223 164.716 211.074 174.114 211.793 184.333C213.184 203.575 202.984 220.724 188.082 224.224C186.832 224.513 185.543 224.716 184.274 224.794C183.703 224.833 183.121 224.853 182.551 224.853ZM164.004 171.454C160.961 176.755 159.242 183.384 159.422 190.544C159.824 207.313 170.531 220.692 183.422 220.692C183.582 220.692 183.734 220.692 183.891 220.692C196.961 220.364 207.242 206.345 206.824 189.372C206.414 172.614 195.711 159.216 182.813 159.216C182.664 159.216 182.504 159.224 182.352 159.224C177.031 159.353 172.172 161.755 168.313 165.692C166.012 166.724 164.352 168.896 164.004 171.454Z" fill="white"/>
</mask>
<g mask="url(#mask1_2_9)">
<mask id="mask2_2_9" style="mask-type:luminance" maskUnits="userSpaceOnUse" x="151" y="148" width="61" height="77">
<path d="M182.551 224.853C166.582 224.853 152.734 209.044 151.281 188.653C149.91 169.415 160.113 152.263 175.012 148.774C176.262 148.485 177.531 148.282 178.824 148.204C179.402 148.165 179.973 148.146 180.551 148.146C187.984 148.146 195.184 151.556 200.973 157.872C207.223 164.716 211.074 174.114 211.793 184.333C213.184 203.575 202.984 220.724 188.082 224.224C186.832 224.513 185.543 224.716 184.274 224.794C183.703 224.833 183.121 224.853 182.551 224.853ZM164.004 171.454C160.961 176.755 159.242 183.384 159.422 190.544C159.824 207.313 170.531 220.692 183.422 220.692C183.582 220.692 183.734 220.692 183.891 220.692C196.961 220.364 207.242 206.345 206.824 189.372C206.414 172.614 195.711 159.216 182.813 159.216C182.664 159.216 182.504 159.224 182.352 159.224C177.031 159.353 172.172 161.755 168.313 165.692C166.012 166.724 164.352 168.896 164.004 171.454Z" fill="white"/>
</mask>
<g mask="url(#mask2_2_9)">
<path d="M144.461 148.532L150.231 229.345L218.629 224.466L212.863 143.653L144.461 148.532Z" fill="url(#paint0_radial_2_9)"/>
</g>
</g>
</g>
<path d="M175.012 148.774C160.113 152.263 149.91 169.415 151.281 188.653C152.789 209.774 167.582 225.985 184.274 224.794C185.543 224.716 186.832 224.513 188.082 224.224C202.985 220.724 213.184 203.575 211.793 184.333C211.074 174.114 207.223 164.716 200.973 157.872C194.735 151.063 186.871 147.634 178.824 148.204C177.531 148.282 176.262 148.485 175.012 148.774ZM188.391 225.563C187.082 225.852 185.711 226.075 184.383 226.165C166.934 227.403 151.481 210.614 149.922 188.755C148.5 168.845 159.164 151.102 174.703 147.442C176.004 147.122 177.371 146.935 178.711 146.833C187.164 146.235 195.414 149.806 201.934 156.895C208.434 163.974 212.422 173.692 213.172 184.243C214.582 204.145 203.942 221.915 188.391 225.563Z" fill="#4F2102"/>
<mask id="mask3_2_9" style="mask-type:luminance" maskUnits="userSpaceOnUse" x="159" y="159" width="49" height="63">
<path d="M159.063 159.044H207.063V221.044H159.063V159.044Z" fill="white"/>
</mask>
<g mask="url(#mask3_2_9)">
<mask id="mask4_2_9" style="mask-type:luminance" maskUnits="userSpaceOnUse" x="159" y="159" width="48" height="62">
<path d="M183.422 220.692C170.531 220.692 159.824 207.313 159.422 190.544C159.242 183.384 160.961 176.755 164.004 171.454C163.942 171.872 163.914 172.313 163.934 172.755C164.043 175.853 166.031 178.435 168.762 179.454C167.281 182.704 166.492 186.485 166.641 190.505C167.063 201.903 174.871 210.915 184.203 210.915C184.383 210.915 184.563 210.915 184.734 210.903C194.293 210.556 201.692 200.845 201.262 189.216C200.844 177.825 193.051 168.806 183.734 168.806C183.551 168.806 183.371 168.806 183.192 168.813C181.492 168.872 179.863 169.235 178.344 169.845C177.262 167.024 174.531 165.044 171.363 165.044C171.274 165.044 171.184 165.044 171.094 165.044C170.102 165.083 169.172 165.313 168.313 165.692C172.172 161.755 177.031 159.353 182.352 159.224C182.504 159.224 182.664 159.216 182.813 159.216C195.711 159.216 206.414 172.614 206.824 189.372C207.242 206.345 196.961 220.364 183.891 220.692C183.734 220.692 183.582 220.692 183.422 220.692Z" fill="white"/>
</mask>
<g mask="url(#mask4_2_9)">
<mask id="mask5_2_9" style="mask-type:luminance" maskUnits="userSpaceOnUse" x="159" y="159" width="48" height="62">
<path d="M183.422 220.692C170.531 220.692 159.824 207.313 159.422 190.544C159.242 183.384 160.961 176.755 164.004 171.454C163.942 171.872 163.914 172.313 163.934 172.755C164.043 175.853 166.031 178.435 168.762 179.454C167.281 182.704 166.492 186.485 166.641 190.505C167.063 201.903 174.871 210.915 184.203 210.915C184.383 210.915 184.563 210.915 184.734 210.903C194.293 210.556 201.692 200.845 201.262 189.216C200.844 177.825 193.051 168.806 183.734 168.806C183.551 168.806 183.371 168.806 183.192 168.813C181.492 168.872 179.863 169.235 178.344 169.845C177.262 167.024 174.531 165.044 171.363 165.044C171.274 165.044 171.184 165.044 171.094 165.044C170.102 165.083 169.172 165.313 168.313 165.692C172.172 161.755 177.031 159.353 182.352 159.224C182.504 159.224 182.664 159.216 182.813 159.216C195.711 159.216 206.414 172.614 206.824 189.372C207.242 206.345 196.961 220.364 183.891 220.692C183.734 220.692 183.582 220.692 183.422 220.692Z" fill="white"/>
</mask>
<g mask="url(#mask5_2_9)">
<path d="M207.242 158.915L207.625 220.692L159.246 220.993L158.863 159.216L207.242 158.915Z" fill="url(#paint1_radial_2_9)"/>
</g>
</g>
</g>
<path d="M166.641 190.505C167.074 202.114 175.172 211.255 184.735 210.903C194.293 210.556 201.692 200.845 201.262 189.216C200.832 177.595 192.742 168.454 183.192 168.813C173.613 169.173 166.223 178.884 166.641 190.505Z" fill="#231F20"/>
<mask id="mask6_2_9" style="mask-type:luminance" maskUnits="userSpaceOnUse" x="163" y="165" width="7" height="8">
<path d="M163.063 165.044H169.063V172.044H163.063V165.044Z" fill="white"/>
</mask>
<g mask="url(#mask6_2_9)">
<mask id="mask7_2_9" style="mask-type:luminance" maskUnits="userSpaceOnUse" x="164" y="165" width="5" height="7">
<path d="M164.004 171.454C164.352 168.896 166.012 166.724 168.313 165.692C166.684 167.353 165.234 169.294 164.004 171.454Z" fill="white"/>
</mask>
<g mask="url(#mask7_2_9)">
<mask id="mask8_2_9" style="mask-type:luminance" maskUnits="userSpaceOnUse" x="164" y="165" width="5" height="7">
<path d="M164.004 171.454C164.352 168.896 166.012 166.724 168.313 165.692C166.684 167.353 165.234 169.294 164.004 171.454Z" fill="white"/>
</mask>
<g mask="url(#mask8_2_9)">
<path d="M163.594 165.724L164.024 171.759L168.723 171.423L168.289 165.388L163.594 165.724Z" fill="url(#paint2_radial_2_9)"/>
</g>
</g>
</g>
<mask id="mask9_2_9" style="mask-type:luminance" maskUnits="userSpaceOnUse" x="163" y="165" width="17" height="16">
<path d="M163.063 165.044H179.063V180.044H163.063V165.044Z" fill="white"/>
</mask>
<g mask="url(#mask9_2_9)">
<mask id="mask10_2_9" style="mask-type:luminance" maskUnits="userSpaceOnUse" x="163" y="165" width="16" height="15">
<path d="M168.762 179.454C166.031 178.435 164.043 175.853 163.934 172.755C163.914 172.313 163.942 171.872 164.004 171.454C165.234 169.294 166.684 167.353 168.313 165.692C169.172 165.313 170.102 165.083 171.094 165.044C171.184 165.044 171.274 165.044 171.363 165.044C174.531 165.044 177.262 167.024 178.344 169.845C174.223 171.485 170.824 174.966 168.762 179.454Z" fill="white"/>
</mask>
<g mask="url(#mask10_2_9)">
<mask id="mask11_2_9" style="mask-type:luminance" maskUnits="userSpaceOnUse" x="163" y="165" width="16" height="15">
<path d="M168.762 179.454C166.031 178.435 164.043 175.853 163.934 172.755C163.914 172.313 163.942 171.872 164.004 171.454C165.234 169.294 166.684 167.353 168.313 165.692C169.172 165.313 170.102 165.083 171.094 165.044C171.184 165.044 171.274 165.044 171.363 165.044C174.531 165.044 177.262 167.024 178.344 169.845C174.223 171.485 170.824 174.966 168.762 179.454Z" fill="white"/>
</mask>
<g mask="url(#mask11_2_9)">
<path d="M178.344 164.954L178.434 179.454L163.914 179.544L163.824 165.044L178.344 164.954Z" fill="url(#paint3_radial_2_9)"/>
</g>
</g>
</g>
<path d="M171.371 179.923C170.461 179.923 169.582 179.763 168.762 179.454C170.824 174.966 174.223 171.485 178.344 169.845C178.621 170.583 178.781 171.372 178.824 172.204C178.973 176.325 175.742 179.763 171.652 179.923C171.563 179.923 171.461 179.923 171.371 179.923Z" fill="#918F90"/>
<path d="M148.817 136.103C151.594 120.556 170.953 109.896 180.742 121.134C154.738 124.075 148.817 136.103 148.817 136.103Z" fill="#421302"/>
<path d="M168.254 116.903C159.543 118.103 151.43 125.896 149.227 134.915C151.371 131.935 159.192 123.396 180.172 120.915C177.113 117.673 172.902 116.243 168.254 116.903ZM148.242 137.634L148.543 136.024C150.285 126.282 158.914 117.634 168.184 116.345C173.152 115.646 177.641 117.282 180.824 120.915L181.192 121.353L180.723 121.403C155.121 124.294 148.977 136.153 148.926 136.274L148.242 137.634Z" fill="#230901"/>
<path d="M247.621 182.415C249.211 206.122 266.313 224.282 285.824 222.966C305.344 221.665 319.883 201.403 318.301 177.692C316.723 153.993 299.602 135.825 280.082 137.134C260.582 138.435 246.043 158.716 247.621 182.415Z" fill="#B7642C"/>
<path d="M250.684 183.474C252.172 205.806 268.012 222.915 286.051 221.704C304.094 220.493 317.512 201.435 316.031 179.114C314.543 156.794 298.692 139.692 280.664 140.895C262.602 142.103 249.192 161.173 250.684 183.474Z" fill="#A35824"/>
<mask id="mask12_2_9" style="mask-type:luminance" maskUnits="userSpaceOnUse" x="252" y="143" width="63" height="79">
<path d="M252.063 143.044H314.063V221.044H252.063V143.044Z" fill="white"/>
</mask>
<g mask="url(#mask12_2_9)">
<mask id="mask13_2_9" style="mask-type:luminance" maskUnits="userSpaceOnUse" x="252" y="144" width="62" height="77">
<path d="M283.734 220.806C267.371 220.806 253.652 204.235 252.953 183.415C252.313 164.134 263.152 147.384 278.184 144.466C279.434 144.243 280.723 144.083 282.012 144.044C282.281 144.032 282.563 144.032 282.832 144.032C290.594 144.032 298.012 147.743 303.774 154.563C309.762 161.634 313.242 171.165 313.582 181.415C314.242 200.685 303.383 217.442 288.363 220.364C287.113 220.595 285.824 220.755 284.531 220.794C284.274 220.806 284.004 220.806 283.734 220.806ZM282.461 153.634C269.484 153.634 258.824 167.185 258.613 184.056C258.383 201.032 268.813 214.935 281.902 215.114C281.984 215.114 282.063 215.114 282.141 215.114C295.121 215.114 305.793 201.563 306.031 184.685C306.254 167.724 295.824 153.813 282.723 153.634C282.633 153.634 282.551 153.634 282.461 153.634Z" fill="white"/>
</mask>
<g mask="url(#mask13_2_9)">
<mask id="mask14_2_9" style="mask-type:luminance" maskUnits="userSpaceOnUse" x="252" y="144" width="62" height="77">
<path d="M283.734 220.806C267.371 220.806 253.652 204.235 252.953 183.415C252.313 164.134 263.152 147.384 278.184 144.466C279.434 144.243 280.723 144.083 282.012 144.044C282.281 144.032 282.563 144.032 282.832 144.032C290.594 144.032 298.012 147.743 303.774 154.563C309.762 161.634 313.242 171.165 313.582 181.415C314.242 200.685 303.383 217.442 288.363 220.364C287.113 220.595 285.824 220.755 284.531 220.794C284.274 220.806 284.004 220.806 283.734 220.806ZM282.461 153.634C269.484 153.634 258.824 167.185 258.613 184.056C258.383 201.032 268.813 214.935 281.902 215.114C281.984 215.114 282.063 215.114 282.141 215.114C295.121 215.114 305.793 201.563 306.031 184.685C306.254 167.724 295.824 153.813 282.723 153.634C282.633 153.634 282.551 153.634 282.461 153.634Z" fill="white"/>
</mask>
<g mask="url(#mask14_2_9)">
<path d="M249.774 144.118L252.379 222.853L316.781 220.72L314.176 141.985L249.774 144.118Z" fill="url(#paint4_radial_2_9)"/>
</g>
</g>
</g>
<path d="M278.184 144.466C263.152 147.384 252.313 164.134 252.953 183.415C253.664 204.575 267.824 221.345 284.531 220.794C285.824 220.755 287.113 220.595 288.363 220.364C303.383 217.442 314.242 200.685 313.582 181.415C313.242 171.165 309.762 161.634 303.774 154.563C297.801 147.505 290.074 143.774 282.012 144.044C280.723 144.083 279.434 144.243 278.184 144.466ZM288.621 221.704C287.301 221.954 285.922 222.114 284.594 222.165C267.113 222.735 252.313 205.364 251.594 183.454C250.934 163.524 262.254 146.192 277.922 143.134C279.242 142.864 280.613 142.724 281.953 142.673C290.434 142.395 298.531 146.274 304.774 153.622C311.004 160.923 314.613 170.794 314.953 181.372C315.613 201.306 304.293 218.646 288.621 221.704Z" fill="#4F2102"/>
<mask id="mask15_2_9" style="mask-type:luminance" maskUnits="userSpaceOnUse" x="258" y="153" width="49" height="64">
<path d="M258.063 153.044H306.063V216.044H258.063V153.044Z" fill="white"/>
</mask>
<g mask="url(#mask15_2_9)">
<mask id="mask16_2_9" style="mask-type:luminance" maskUnits="userSpaceOnUse" x="258" y="153" width="49" height="63">
<path d="M282.141 215.114C282.063 215.114 281.984 215.114 281.902 215.114C268.813 214.935 258.383 201.032 258.613 184.056C258.824 167.185 269.484 153.634 282.461 153.634C282.551 153.634 282.633 153.634 282.723 153.634C295.824 153.813 306.254 167.724 306.031 184.685C305.793 201.563 295.121 215.114 282.141 215.114ZM269.813 172.372C268.473 175.364 267.711 178.782 267.711 182.423C267.684 194.044 275.434 203.485 285.004 203.505C285.012 203.505 285.024 203.505 285.024 203.505C294.574 203.505 302.344 194.083 302.344 182.474C302.363 170.833 294.621 161.384 285.063 161.384C283.402 161.384 281.801 161.665 280.281 162.192C279.024 160.263 276.883 158.942 274.391 158.825C274.262 158.813 274.133 158.813 274.004 158.813C270.074 158.813 266.801 161.915 266.613 165.884C266.461 168.544 267.762 170.966 269.813 172.372Z" fill="white"/>
</mask>
<g mask="url(#mask16_2_9)">
<mask id="mask17_2_9" style="mask-type:luminance" maskUnits="userSpaceOnUse" x="258" y="153" width="49" height="63">
<path d="M282.141 215.114C282.063 215.114 281.984 215.114 281.902 215.114C268.813 214.935 258.383 201.032 258.613 184.056C258.824 167.185 269.484 153.634 282.461 153.634C282.551 153.634 282.633 153.634 282.723 153.634C295.824 153.813 306.254 167.724 306.031 184.685C305.793 201.563 295.121 215.114 282.141 215.114ZM269.813 172.372C268.473 175.364 267.711 178.782 267.711 182.423C267.684 194.044 275.434 203.485 285.004 203.505C285.012 203.505 285.024 203.505 285.024 203.505C294.574 203.505 302.344 194.083 302.344 182.474C302.363 170.833 294.621 161.384 285.063 161.384C283.402 161.384 281.801 161.665 280.281 162.192C279.024 160.263 276.883 158.942 274.391 158.825C274.262 158.813 274.133 158.813 274.004 158.813C270.074 158.813 266.801 161.915 266.613 165.884C266.461 168.544 267.762 170.966 269.813 172.372Z" fill="white"/>
</mask>
<g mask="url(#mask17_2_9)">
<path d="M308.211 153.696L306.203 216.642L256.422 215.052L258.43 152.106L308.211 153.696Z" fill="url(#paint5_radial_2_9)"/>
</g>
</g>
</g>
<path d="M267.711 182.423C267.684 194.044 275.434 203.485 285.004 203.505C294.563 203.513 302.344 194.095 302.344 182.474C302.363 170.833 294.621 161.384 285.063 161.384C275.492 161.384 267.723 170.794 267.711 182.423Z" fill="#231F20"/>
<mask id="mask18_2_9" style="mask-type:luminance" maskUnits="userSpaceOnUse" x="266" y="158" width="16" height="16">
<path d="M266.063 158.044H281.063V173.044H266.063V158.044Z" fill="white"/>
</mask>
<g mask="url(#mask18_2_9)">
<mask id="mask19_2_9" style="mask-type:luminance" maskUnits="userSpaceOnUse" x="266" y="158" width="15" height="15">
<path d="M269.813 172.372C267.762 170.966 266.461 168.544 266.613 165.884C266.801 161.915 270.074 158.813 274.004 158.813C274.133 158.813 274.262 158.813 274.391 158.825C276.883 158.942 279.024 160.263 280.281 162.192C275.774 163.755 272.024 167.474 269.813 172.372Z" fill="white"/>
</mask>
<g mask="url(#mask19_2_9)">
<mask id="mask20_2_9" style="mask-type:luminance" maskUnits="userSpaceOnUse" x="266" y="158" width="15" height="15">
<path d="M269.813 172.372C267.762 170.966 266.461 168.544 266.613 165.884C266.801 161.915 270.074 158.813 274.004 158.813C274.133 158.813 274.262 158.813 274.391 158.825C276.883 158.942 279.024 160.263 280.281 162.192C275.774 163.755 272.024 167.474 269.813 172.372Z" fill="white"/>
</mask>
<g mask="url(#mask20_2_9)">
<path d="M280.715 158.829L280.27 172.813L266.031 172.36L266.477 158.372L280.715 158.829Z" fill="url(#paint6_radial_2_9)"/>
</g>
</g>
</g>
<path d="M274.024 173.692C273.914 173.692 273.793 173.692 273.684 173.685C272.242 173.614 270.922 173.146 269.813 172.372C272.024 167.474 275.774 163.755 280.281 162.192C281.102 163.454 281.551 164.985 281.473 166.614C281.281 170.614 277.961 173.692 274.024 173.692Z" fill="#918F90"/>
<path d="M308.051 126.564C305.293 111.005 285.953 100.325 276.141 111.544C302.141 114.524 308.051 126.564 308.051 126.564Z" fill="#421302"/>
<path d="M276.652 111.333C297.633 113.845 305.442 122.384 307.574 125.364C305.391 116.345 297.281 108.556 288.582 107.333C283.934 106.673 279.711 108.103 276.652 111.333ZM307.871 126.724C307.824 126.614 301.703 114.743 276.102 111.825L275.633 111.774L276.004 111.333C279.192 107.704 283.692 106.075 288.664 106.774C297.922 108.075 306.531 116.735 308.262 126.485L308.551 128.095L307.871 126.724Z" fill="#230901"/>
<path d="M229.234 412.294C200.262 411.763 185.414 396.692 174.692 379.884C189.281 369.743 219.391 368.466 229.324 375.513C242.383 362.114 258.684 364.056 273.254 369.735C274.133 372.134 274.133 374.966 272.863 378.083C266.484 393.013 255.531 404.063 242.402 411.083C238.383 411.942 234.024 412.372 229.234 412.294Z" fill="#F98C8C"/>
<defs>
<radialGradient id="paint0_radial_2_9" cx="0" cy="0" r="1" gradientUnits="userSpaceOnUse" gradientTransform="translate(181.543 186.504) rotate(-4.08153) scale(35.2872 35.2872)">
<stop stop-color="white"/>
<stop offset="0.5" stop-color="white"/>
<stop offset="0.625" stop-color="white"/>
<stop offset="0.648438" stop-color="white"/>
<stop offset="0.65625" stop-color="#FEFEFE"/>
<stop offset="0.664062" stop-color="#FDFDFD"/>
<stop offset="0.671875" stop-color="#FCFCFC"/>
<stop offset="0.679688" stop-color="#FBFBFB"/>
<stop offset="0.6875" stop-color="#FBFBFB"/>
<stop offset="0.695312" stop-color="#FAFAFA"/>
<stop offset="0.703125" stop-color="#F9F9F9"/>
<stop offset="0.710938" stop-color="#F8F8F8"/>
<stop offset="0.71875" stop-color="#F7F7F7"/>
<stop offset="0.726562" stop-color="#F7F7F7"/>
<stop offset="0.734375" stop-color="#F6F6F6"/>
<stop offset="0.742188" stop-color="#F5F5F5"/>
<stop offset="0.75" stop-color="#F4F4F4"/>
<stop offset="0.757812" stop-color="#F3F3F3"/>
<stop offset="0.761719" stop-color="#F3F3F3"/>
<stop offset="0.765625" stop-color="#F3F3F3"/>
<stop offset="0.769531" stop-color="#F2F2F2"/>
<stop offset="0.773438" stop-color="#F2F2F2"/>
<stop offset="0.777344" stop-color="#F1F1F1"/>
<stop offset="0.78125" stop-color="#F1F1F1"/>
<stop offset="0.785156" stop-color="#F1F1F1"/>
<stop offset="0.789062" stop-color="#F0F0F0"/>
<stop offset="0.792969" stop-color="#F0F0F0"/>
<stop offset="0.796875" stop-color="#EFEFEF"/>
<stop offset="0.800781" stop-color="#EFEFEF"/>
<stop offset="0.804688" stop-color="#EEEEEE"/>
<stop offset="0.808594" stop-color="#EEEEEE"/>
<stop offset="0.8125" stop-color="#EEEEEE"/>
<stop offset="0.816406" stop-color="#EDEDED"/>
<stop offset="0.824219" stop-color="#ECECEC"/>
<stop offset="0.832031" stop-color="#EBEBEB"/>
<stop offset="0.839844" stop-color="#EBEBEB"/>
<stop offset="0.847656" stop-color="#EAEAEA"/>
<stop offset="0.855469" stop-color="#E9E9E9"/>
<stop offset="0.863281" stop-color="#E8E8E8"/>
<stop offset="0.871094" stop-color="#E7E7E7"/>
<stop offset="0.878906" stop-color="#E7E7E7"/>
<stop offset="0.882812" stop-color="#E6E6E6"/>
<stop offset="0.886719" stop-color="#E6E6E6"/>
<stop offset="0.890625" stop-color="#E5E5E5"/>
<stop offset="0.894531" stop-color="#E5E5E5"/>
<stop offset="0.898438" stop-color="#E5E5E5"/>
<stop offset="0.902344" stop-color="#E4E4E4"/>
<stop offset="0.90625" stop-color="#E4E4E4"/>
<stop offset="0.910156" stop-color="#E3E3E3"/>
<stop offset="0.917969" stop-color="#E2E2E2"/>
<stop offset="0.925781" stop-color="#E1E1E1"/>
<stop offset="0.933594" stop-color="#E1E1E1"/>
<stop offset="0.941406" stop-color="#E0E0E0"/>
<stop offset="0.945312" stop-color="#E0E0E0"/>
<stop offset="0.949219" stop-color="#DFDFDF"/>
<stop offset="0.953125" stop-color="#DFDFDF"/>
<stop offset="0.957031" stop-color="#DEDEDE"/>
<stop offset="0.964844" stop-color="#DDDDDD"/>
<stop offset="0.972656" stop-color="#DDDDDD"/>
<stop offset="0.976562" stop-color="#DCDCDC"/>
<stop offset="0.980469" stop-color="#DCDCDC"/>
<stop offset="0.988281" stop-color="#DBDBDB"/>
<stop offset="0.992188" stop-color="#DADADA"/>
<stop offset="1" stop-color="#DADADA"/>
</radialGradient>
<radialGradient id="paint1_radial_2_9" cx="0" cy="0" r="1" gradientUnits="userSpaceOnUse" gradientTransform="translate(183.123 189.954) rotate(179.645) scale(27.4528 27.4528)">
<stop stop-color="white"/>
<stop offset="0.125" stop-color="white"/>
<stop offset="0.152344" stop-color="white"/>
<stop offset="0.175781" stop-color="#FEFFFE"/>
<stop offset="0.179688" stop-color="#FEFEFD"/>
<stop offset="0.183594" stop-color="#FDFEFC"/>
<stop offset="0.1875" stop-color="#FDFEFB"/>
<stop offset="0.191406" stop-color="#FCFEFA"/>
<stop offset="0.195312" stop-color="#FCFDF9"/>
<stop offset="0.199219" stop-color="#FBFDF8"/>
<stop offset="0.203125" stop-color="#FAFDF7"/>
<stop offset="0.207031" stop-color="#FAFCF6"/>
<stop offset="0.210938" stop-color="#F9FCF5"/>
<stop offset="0.214844" stop-color="#F9FCF4"/>
<stop offset="0.21875" stop-color="#F8FCF3"/>
<stop offset="0.222656" stop-color="#F8FBF2"/>
<stop offset="0.226562" stop-color="#F7FBF2"/>
<stop offset="0.230469" stop-color="#F6FBF1"/>
<stop offset="0.234375" stop-color="#F6FAF0"/>
<stop offset="0.238281" stop-color="#F5FAEF"/>
<stop offset="0.242188" stop-color="#F5FAEE"/>
<stop offset="0.246094" stop-color="#F4FAED"/>
<stop offset="0.25" stop-color="#F4F9EC"/>
<stop offset="0.253906" stop-color="#F3F9EB"/>
<stop offset="0.257812" stop-color="#F2F9EA"/>
<stop offset="0.261719" stop-color="#F2F8E9"/>
<stop offset="0.265625" stop-color="#F1F8E8"/>
<stop offset="0.269531" stop-color="#F1F8E7"/>
<stop offset="0.273438" stop-color="#F0F8E6"/>
<stop offset="0.277344" stop-color="#F0F7E5"/>
<stop offset="0.28125" stop-color="#EFF7E4"/>
<stop offset="0.285156" stop-color="#EFF7E3"/>
<stop offset="0.289062" stop-color="#EEF6E2"/>
<stop offset="0.292969" stop-color="#EDF6E1"/>
<stop offset="0.296875" stop-color="#EDF6E0"/>
<stop offset="0.300781" stop-color="#ECF6DF"/>
<stop offset="0.304688" stop-color="#ECF5DE"/>
<stop offset="0.308594" stop-color="#EBF5DD"/>
<stop offset="0.3125" stop-color="#EBF5DD"/>
<stop offset="0.316406" stop-color="#EAF4DC"/>
<stop offset="0.320312" stop-color="#E9F4DB"/>
<stop offset="0.324219" stop-color="#E9F4DA"/>
<stop offset="0.328125" stop-color="#E8F4D9"/>
<stop offset="0.332031" stop-color="#E8F3D8"/>
<stop offset="0.335938" stop-color="#E7F3D7"/>
<stop offset="0.339844" stop-color="#E7F3D6"/>
<stop offset="0.34375" stop-color="#E6F3D5"/>
<stop offset="0.347656" stop-color="#E5F2D4"/>
<stop offset="0.351562" stop-color="#E5F2D3"/>
<stop offset="0.355469" stop-color="#E4F2D2"/>
<stop offset="0.359375" stop-color="#E4F1D1"/>
<stop offset="0.363281" stop-color="#E3F1D0"/>
<stop offset="0.367188" stop-color="#E3F1CF"/>
<stop offset="0.371094" stop-color="#E2F1CE"/>
<stop offset="0.375" stop-color="#E1F0CD"/>
<stop offset="0.378906" stop-color="#E1F0CC"/>
<stop offset="0.382812" stop-color="#E0F0CB"/>
<stop offset="0.386719" stop-color="#E0EFCA"/>
<stop offset="0.390625" stop-color="#DFEFC9"/>
<stop offset="0.394531" stop-color="#DFEFC8"/>
<stop offset="0.398438" stop-color="#DEEFC8"/>
<stop offset="0.402344" stop-color="#DEEEC7"/>
<stop offset="0.40625" stop-color="#DDEEC6"/>
<stop offset="0.410156" stop-color="#DCEEC5"/>
<stop offset="0.414062" stop-color="#DCEDC4"/>
<stop offset="0.417969" stop-color="#DBEDC3"/>
<stop offset="0.421875" stop-color="#DBEDC2"/>
<stop offset="0.425781" stop-color="#DAEDC1"/>
<stop offset="0.429688" stop-color="#DAECC0"/>
<stop offset="0.433594" stop-color="#D9ECBF"/>
<stop offset="0.4375" stop-color="#D8ECBE"/>
<stop offset="0.441406" stop-color="#D8EBBD"/>
<stop offset="0.445312" stop-color="#D7EBBC"/>
<stop offset="0.449219" stop-color="#D7EBBB"/>
<stop offset="0.453125" stop-color="#D6EBBA"/>
<stop offset="0.457031" stop-color="#D6EAB9"/>
<stop offset="0.460938" stop-color="#D5EAB8"/>
<stop offset="0.464844" stop-color="#D4EAB7"/>
<stop offset="0.46875" stop-color="#D4E9B6"/>
<stop offset="0.472656" stop-color="#D3E9B5"/>
<stop offset="0.476562" stop-color="#D3E9B4"/>
<stop offset="0.480469" stop-color="#D2E9B3"/>
<stop offset="0.484375" stop-color="#D2E8B3"/>
<stop offset="0.488281" stop-color="#D1E8B2"/>
<stop offset="0.492188" stop-color="#D0E8B1"/>
<stop offset="0.496094" stop-color="#D0E7B0"/>
<stop offset="0.5" stop-color="#CFE7AF"/>
<stop offset="0.503906" stop-color="#CFE7AE"/>
<stop offset="0.507812" stop-color="#CEE7AD"/>
<stop offset="0.511719" stop-color="#CEE6AC"/>
<stop offset="0.515625" stop-color="#CDE6AB"/>
<stop offset="0.519531" stop-color="#CDE6AA"/>
<stop offset="0.523438" stop-color="#CCE5A9"/>
<stop offset="0.527344" stop-color="#CBE5A8"/>
<stop offset="0.53125" stop-color="#CBE5A7"/>
<stop offset="0.535156" stop-color="#CAE5A6"/>
<stop offset="0.539062" stop-color="#CAE4A5"/>
<stop offset="0.542969" stop-color="#C9E4A4"/>
<stop offset="0.546875" stop-color="#C9E4A3"/>
<stop offset="0.550781" stop-color="#C8E3A2"/>
<stop offset="0.554688" stop-color="#C7E3A1"/>
<stop offset="0.558594" stop-color="#C7E3A0"/>
<stop offset="0.5625" stop-color="#C6E39F"/>
<stop offset="0.566406" stop-color="#C6E29E"/>
<stop offset="0.570312" stop-color="#C5E29E"/>
<stop offset="0.574219" stop-color="#C5E29D"/>
<stop offset="0.578125" stop-color="#C4E19C"/>
<stop offset="0.582031" stop-color="#C3E19B"/>
<stop offset="0.585938" stop-color="#C3E19A"/>
<stop offset="0.589844" stop-color="#C2E199"/>
<stop offset="0.59375" stop-color="#C2E098"/>
<stop offset="0.597656" stop-color="#C1E097"/>
<stop offset="0.601562" stop-color="#C1E096"/>
<stop offset="0.605469" stop-color="#C0E095"/>
<stop offset="0.609375" stop-color="#BFDF94"/>
<stop offset="0.613281" stop-color="#BFDF93"/>
<stop offset="0.617188" stop-color="#BEDF92"/>
<stop offset="0.621094" stop-color="#BEDE91"/>
<stop offset="0.625" stop-color="#BDDE90"/>
<stop offset="0.628906" stop-color="#BDDE8F"/>
<stop offset="0.632812" stop-color="#BCDE8E"/>
<stop offset="0.636719" stop-color="#BBDD8D"/>
<stop offset="0.640625" stop-color="#BBDD8C"/>
<stop offset="0.644531" stop-color="#BADD8B"/>
<stop offset="0.648438" stop-color="#BADC8A"/>
<stop offset="0.652344" stop-color="#B9DC89"/>
<stop offset="0.65625" stop-color="#B9DC89"/>
<stop offset="0.660156" stop-color="#B8DC88"/>
<stop offset="0.664062" stop-color="#B8DB87"/>
<stop offset="0.667969" stop-color="#B7DB86"/>
<stop offset="0.671875" stop-color="#B6DB85"/>
<stop offset="0.675781" stop-color="#B6DA84"/>
<stop offset="0.679688" stop-color="#B5DA83"/>
<stop offset="0.683594" stop-color="#B5DA82"/>
<stop offset="0.6875" stop-color="#B4DA81"/>
<stop offset="0.691406" stop-color="#B4D980"/>
<stop offset="0.695312" stop-color="#B3D97F"/>
<stop offset="0.699219" stop-color="#B2D97E"/>
<stop offset="0.703125" stop-color="#B2D87D"/>
<stop offset="0.707031" stop-color="#B1D87C"/>
<stop offset="0.710938" stop-color="#B1D87B"/>
<stop offset="0.714844" stop-color="#B0D87A"/>
<stop offset="0.71875" stop-color="#B0D779"/>
<stop offset="0.722656" stop-color="#AFD778"/>
<stop offset="0.726562" stop-color="#AED777"/>
<stop offset="0.730469" stop-color="#AED676"/>
<stop offset="0.734375" stop-color="#ADD675"/>
<stop offset="0.738281" stop-color="#ADD675"/>
<stop offset="0.742188" stop-color="#ACD674"/>
<stop offset="0.746094" stop-color="#ACD573"/>
<stop offset="0.75" stop-color="#ABD572"/>
<stop offset="0.753906" stop-color="#AAD571"/>
<stop offset="0.757812" stop-color="#AAD470"/>
<stop offset="0.761719" stop-color="#A9D46F"/>
<stop offset="0.765625" stop-color="#A9D46E"/>
<stop offset="0.769531" stop-color="#A8D46D"/>
<stop offset="0.773438" stop-color="#A8D36C"/>
<stop offset="0.777344" stop-color="#A7D36B"/>
<stop offset="0.78125" stop-color="#A7D36A"/>
<stop offset="0.785156" stop-color="#A6D269"/>
<stop offset="0.789062" stop-color="#A5D268"/>
<stop offset="0.792969" stop-color="#A5D267"/>
<stop offset="0.796875" stop-color="#A4D266"/>
<stop offset="0.800781" stop-color="#A4D165"/>
<stop offset="0.804688" stop-color="#A3D164"/>
<stop offset="0.808594" stop-color="#A3D163"/>
<stop offset="0.8125" stop-color="#A2D062"/>
<stop offset="0.816406" stop-color="#A1D061"/>
<stop offset="0.820312" stop-color="#A1D060"/>
<stop offset="0.824219" stop-color="#A0D060"/>
<stop offset="0.828125" stop-color="#A0CF5F"/>
<stop offset="0.832031" stop-color="#9FCF5E"/>
<stop offset="0.835938" stop-color="#9FCF5D"/>
<stop offset="0.839844" stop-color="#9ECF5C"/>
<stop offset="0.84375" stop-color="#9DCE5B"/>
<stop offset="0.847656" stop-color="#9DCE5A"/>
<stop offset="0.851562" stop-color="#9CCE59"/>
<stop offset="0.855469" stop-color="#9CCD58"/>
<stop offset="0.859375" stop-color="#9BCD57"/>
<stop offset="0.863281" stop-color="#9BCD56"/>
<stop offset="0.867188" stop-color="#9ACD55"/>
<stop offset="0.871094" stop-color="#99CC54"/>
<stop offset="0.875" stop-color="#99CC53"/>
<stop offset="0.878906" stop-color="#98CC52"/>
<stop offset="0.882812" stop-color="#98CB51"/>
<stop offset="0.886719" stop-color="#97CB50"/>
<stop offset="0.890625" stop-color="#97CB4F"/>
<stop offset="0.894531" stop-color="#96CB4E"/>
<stop offset="0.898438" stop-color="#96CA4D"/>
<stop offset="0.902344" stop-color="#95CA4C"/>
<stop offset="0.90625" stop-color="#94CA4B"/>
<stop offset="0.910156" stop-color="#94C94B"/>
<stop offset="0.914062" stop-color="#93C94A"/>
<stop offset="0.917969" stop-color="#93C949"/>
<stop offset="0.921875" stop-color="#92C948"/>
<stop offset="0.925781" stop-color="#92C847"/>
<stop offset="0.929688" stop-color="#91C846"/>
<stop offset="0.933594" stop-color="#90C845"/>
<stop offset="0.9375" stop-color="#90C744"/>
<stop offset="0.941406" stop-color="#8FC743"/>
<stop offset="0.945312" stop-color="#8FC742"/>
<stop offset="0.949219" stop-color="#8EC741"/>
<stop offset="0.953125" stop-color="#8EC640"/>
<stop offset="0.957031" stop-color="#8DC63F"/>
<stop offset="1" stop-color="#8DC63F"/>
</radialGradient>
<radialGradient id="paint2_radial_2_9" cx="0" cy="0" r="1" gradientUnits="userSpaceOnUse" gradientTransform="translate(181.543 186.504) rotate(-4.08153) scale(35.2872 35.2872)">
<stop stop-color="white"/>
<stop offset="0.5" stop-color="white"/>
<stop offset="0.625" stop-color="white"/>
<stop offset="0.648438" stop-color="white"/>
<stop offset="0.65625" stop-color="white"/>
<stop offset="0.664062" stop-color="#FEFEFE"/>
<stop offset="0.671875" stop-color="#FEFEFE"/>
<stop offset="0.679688" stop-color="#FDFDFD"/>
<stop offset="0.699219" stop-color="#FDFDFD"/>
<stop offset="0.703125" stop-color="#FCFCFC"/>
<stop offset="0.71875" stop-color="#FBFBFB"/>
<stop offset="0.734375" stop-color="#FBFBFB"/>
<stop offset="0.742188" stop-color="#FAFAFA"/>
<stop offset="0.757812" stop-color="#F9F9F9"/>
<stop offset="0.769531" stop-color="#F9F9F9"/>
<stop offset="0.773438" stop-color="#F8F8F8"/>
<stop offset="0.785156" stop-color="#F8F8F8"/>
<stop offset="0.796875" stop-color="#F7F7F7"/>
<stop offset="0.808594" stop-color="#F7F7F7"/>
<stop offset="0.8125" stop-color="#F6F6F6"/>
<stop offset="0.824219" stop-color="#F6F6F6"/>
<stop offset="0.832031" stop-color="#F6F6F6"/>
<stop offset="0.835938" stop-color="#F5F5F5"/>
<stop offset="0.84375" stop-color="#F5F5F5"/>
<stop offset="0.851562" stop-color="#F4F4F4"/>
<stop offset="0.867188" stop-color="#F4F4F4"/>
<stop offset="0.875" stop-color="#F3F3F3"/>
<stop offset="0.890625" stop-color="#F2F2F2"/>
<stop offset="0.902344" stop-color="#F2F2F2"/>
<stop offset="0.90625" stop-color="#F1F1F1"/>
<stop offset="0.917969" stop-color="#F1F1F1"/>
<stop offset="0.925781" stop-color="#F1F1F1"/>
<stop offset="0.929688" stop-color="#F0F0F0"/>
<stop offset="0.945312" stop-color="#EFEFEF"/>
<stop offset="0.957031" stop-color="#EFEFEF"/>
<stop offset="0.964844" stop-color="#EFEFEF"/>
<stop offset="0.96875" stop-color="#EEEEEE"/>
<stop offset="0.984375" stop-color="#EDEDED"/>
<stop offset="1" stop-color="#EDEDED"/>
</radialGradient>
<radialGradient id="paint3_radial_2_9" cx="0" cy="0" r="1" gradientUnits="userSpaceOnUse" gradientTransform="translate(183.123 189.954) rotate(179.645) scale(27.4528 27.4528)">
<stop stop-color="white"/>
<stop offset="0.125" stop-color="white"/>
<stop offset="0.179688" stop-color="#FEFFFE"/>
<stop offset="0.183594" stop-color="#FEFFFE"/>
<stop offset="0.1875" stop-color="#FEFFFD"/>
<stop offset="0.191406" stop-color="#FDFEFD"/>
<stop offset="0.195312" stop-color="#FDFEFC"/>
<stop offset="0.199219" stop-color="#FDFEFB"/>
<stop offset="0.210938" stop-color="#FDFEFB"/>
<stop offset="0.214844" stop-color="#FDFEFA"/>
<stop offset="0.21875" stop-color="#FCFDF9"/>
<stop offset="0.222656" stop-color="#FCFDF9"/>
<stop offset="0.234375" stop-color="#FBFDF8"/>
<stop offset="0.238281" stop-color="#FBFDF7"/>
<stop offset="0.242188" stop-color="#FAFDF7"/>
<stop offset="0.246094" stop-color="#FAFDF6"/>
<stop offset="0.25" stop-color="#FAFDF6"/>
<stop offset="0.253906" stop-color="#F9FCF5"/>
<stop offset="0.261719" stop-color="#F9FCF5"/>
<stop offset="0.265625" stop-color="#F8FCF4"/>
<stop offset="0.269531" stop-color="#F8FCF3"/>
<stop offset="0.277344" stop-color="#F7FBF2"/>
<stop offset="0.285156" stop-color="#F7FBF2"/>
<stop offset="0.289062" stop-color="#F7FBF1"/>
<stop offset="0.292969" stop-color="#F6FBF1"/>
<stop offset="0.296875" stop-color="#F6FBF0"/>
<stop offset="0.300781" stop-color="#F6FBEF"/>
<stop offset="0.304688" stop-color="#F5FAEF"/>
<stop offset="0.308594" stop-color="#F5FAEE"/>
<stop offset="0.316406" stop-color="#F4FAED"/>
<stop offset="0.324219" stop-color="#F4FAED"/>
<stop offset="0.328125" stop-color="#F3F9EC"/>
<stop offset="0.332031" stop-color="#F3F9EB"/>
<stop offset="0.339844" stop-color="#F3F9EA"/>
<stop offset="0.347656" stop-color="#F3F9EA"/>
<stop offset="0.351562" stop-color="#F3F9E9"/>
<stop offset="0.355469" stop-color="#F2F8E8"/>
<stop offset="0.359375" stop-color="#F2F8E8"/>
<stop offset="0.367188" stop-color="#F1F8E7"/>
<stop offset="0.375" stop-color="#F1F8E6"/>
<stop offset="0.378906" stop-color="#F0F8E6"/>
<stop offset="0.382812" stop-color="#F0F8E5"/>
<stop offset="0.390625" stop-color="#EFF7E4"/>
<stop offset="0.398438" stop-color="#EFF7E4"/>
<stop offset="0.402344" stop-color="#EEF7E3"/>
<stop offset="0.40625" stop-color="#EEF7E2"/>
<stop offset="0.414062" stop-color="#EDF6E1"/>
<stop offset="0.421875" stop-color="#EDF6E1"/>
<stop offset="0.425781" stop-color="#EDF6E0"/>
<stop offset="0.429688" stop-color="#ECF6E0"/>
<stop offset="0.433594" stop-color="#ECF6DF"/>
<stop offset="0.441406" stop-color="#EBF5DE"/>
<stop offset="0.449219" stop-color="#EBF5DD"/>
<stop offset="0.453125" stop-color="#EAF5DD"/>
<stop offset="0.457031" stop-color="#EAF5DC"/>
<stop offset="0.464844" stop-color="#EAF4DB"/>
<stop offset="0.472656" stop-color="#EAF4DB"/>
<stop offset="0.476562" stop-color="#EAF4DA"/>
<stop offset="0.480469" stop-color="#E9F4D9"/>
<stop offset="0.484375" stop-color="#E9F4D9"/>
<stop offset="0.492188" stop-color="#E8F3D8"/>
<stop offset="0.5" stop-color="#E8F3D7"/>
<stop offset="0.503906" stop-color="#E7F3D7"/>
<stop offset="0.507812" stop-color="#E7F3D6"/>
<stop offset="0.511719" stop-color="#E7F3D6"/>
<stop offset="0.515625" stop-color="#E6F3D5"/>
<stop offset="0.519531" stop-color="#E6F3D5"/>
<stop offset="0.523438" stop-color="#E6F3D5"/>
<stop offset="0.527344" stop-color="#E5F2D4"/>
<stop offset="0.53125" stop-color="#E5F2D3"/>
<stop offset="0.535156" stop-color="#E5F2D3"/>
<stop offset="0.546875" stop-color="#E4F2D2"/>
<stop offset="0.550781" stop-color="#E4F2D1"/>
<stop offset="0.554688" stop-color="#E3F1D1"/>
<stop offset="0.558594" stop-color="#E3F1D0"/>
<stop offset="0.5625" stop-color="#E3F1CF"/>
<stop offset="0.566406" stop-color="#E2F1CF"/>
<stop offset="0.570312" stop-color="#E2F1CE"/>
<stop offset="0.574219" stop-color="#E2F1CE"/>
<stop offset="0.578125" stop-color="#E1F0CD"/>
<stop offset="0.582031" stop-color="#E1F0CD"/>
<stop offset="0.585938" stop-color="#E1F0CD"/>
<stop offset="0.589844" stop-color="#E0F0CC"/>
<stop offset="0.59375" stop-color="#E0F0CB"/>
<stop offset="0.597656" stop-color="#E0F0CB"/>
<stop offset="0.609375" stop-color="#E0EFCA"/>
<stop offset="0.613281" stop-color="#E0EFC9"/>
<stop offset="0.617188" stop-color="#DFEFC9"/>
<stop offset="0.621094" stop-color="#DFEFC8"/>
<stop offset="0.625" stop-color="#DFEFC8"/>
<stop offset="0.628906" stop-color="#DEEFC7"/>
<stop offset="0.636719" stop-color="#DEEFC6"/>
<stop offset="0.640625" stop-color="#DDEEC6"/>
<stop offset="0.644531" stop-color="#DDEEC5"/>
<stop offset="0.652344" stop-color="#DCEEC4"/>
<stop offset="0.660156" stop-color="#DCEEC4"/>
<stop offset="0.664062" stop-color="#DCEEC3"/>
<stop offset="0.667969" stop-color="#DBEDC2"/>
<stop offset="0.675781" stop-color="#DAEDC1"/>
<stop offset="0.683594" stop-color="#DAEDC1"/>
<stop offset="0.6875" stop-color="#DAEDC0"/>
<stop offset="0.691406" stop-color="#D9ECC0"/>
<stop offset="0.695312" stop-color="#D9ECBF"/>
<stop offset="0.703125" stop-color="#D8ECBE"/>
<stop offset="0.710938" stop-color="#D8ECBD"/>
<stop offset="0.714844" stop-color="#D7EBBD"/>
<stop offset="0.71875" stop-color="#D7EBBC"/>
<stop offset="0.726562" stop-color="#D7EBBB"/>
<stop offset="0.734375" stop-color="#D7EBBB"/>
<stop offset="0.738281" stop-color="#D7EBBA"/>
<stop offset="0.742188" stop-color="#D6EAB9"/>
<stop offset="0.746094" stop-color="#D6EAB9"/>
<stop offset="0.753906" stop-color="#D5EAB8"/>
<stop offset="0.757812" stop-color="#D5EAB8"/>
<stop offset="0.761719" stop-color="#D5EAB7"/>
<stop offset="0.765625" stop-color="#D4EAB7"/>
<stop offset="0.769531" stop-color="#D4EAB6"/>
<stop offset="0.773438" stop-color="#D3E9B5"/>
<stop offset="0.785156" stop-color="#D3E9B5"/>
<stop offset="0.789062" stop-color="#D2E9B4"/>
<stop offset="0.792969" stop-color="#D2E9B3"/>
<stop offset="0.796875" stop-color="#D2E9B3"/>
<stop offset="0.808594" stop-color="#D1E8B2"/>
<stop offset="0.8125" stop-color="#D1E8B1"/>
<stop offset="0.816406" stop-color="#D0E8B1"/>
<stop offset="0.820312" stop-color="#D0E8B0"/>
<stop offset="0.824219" stop-color="#D0E8AF"/>
<stop offset="0.828125" stop-color="#CFE7AF"/>
<stop offset="0.832031" stop-color="#CFE7AE"/>
<stop offset="0.839844" stop-color="#CEE7AD"/>
<stop offset="0.847656" stop-color="#CEE7AD"/>
<stop offset="0.851562" stop-color="#CDE6AC"/>
<stop offset="0.855469" stop-color="#CDE6AB"/>
<stop offset="0.863281" stop-color="#CDE6AA"/>
<stop offset="0.871094" stop-color="#CDE6AA"/>
<stop offset="0.875" stop-color="#CDE6A9"/>
<stop offset="0.878906" stop-color="#CCE5A9"/>
<stop offset="0.882812" stop-color="#CCE5A8"/>
<stop offset="0.886719" stop-color="#CCE5A8"/>
<stop offset="0.890625" stop-color="#CBE5A7"/>
<stop offset="0.894531" stop-color="#CBE5A7"/>
<stop offset="0.898438" stop-color="#CBE5A6"/>
<stop offset="0.902344" stop-color="#CAE5A6"/>
<stop offset="0.90625" stop-color="#CAE5A5"/>
<stop offset="0.910156" stop-color="#CAE5A5"/>
<stop offset="0.917969" stop-color="#C9E4A4"/>
<stop offset="0.925781" stop-color="#C9E4A3"/>
<stop offset="0.929688" stop-color="#C8E4A2"/>
<stop offset="0.9375" stop-color="#C7E3A1"/>
<stop offset="0.945312" stop-color="#C7E3A1"/>
<stop offset="0.949219" stop-color="#C7E3A0"/>
<stop offset="0.953125" stop-color="#C6E39F"/>
<stop offset="1" stop-color="#C6E39F"/>
</radialGradient>
<radialGradient id="paint4_radial_2_9" cx="0" cy="0" r="1" gradientUnits="userSpaceOnUse" gradientTransform="translate(283.273 182.414) rotate(-1.89637) scale(35.2855)">
<stop stop-color="white"/>
<stop offset="0.5" stop-color="white"/>
<stop offset="0.625" stop-color="white"/>
<stop offset="0.648438" stop-color="white"/>
<stop offset="0.65625" stop-color="#FEFEFE"/>
<stop offset="0.664062" stop-color="#FDFDFD"/>
<stop offset="0.671875" stop-color="#FCFCFC"/>
<stop offset="0.679688" stop-color="#FBFBFB"/>
<stop offset="0.6875" stop-color="#FBFBFB"/>
<stop offset="0.695312" stop-color="#FAFAFA"/>
<stop offset="0.703125" stop-color="#F9F9F9"/>
<stop offset="0.710938" stop-color="#F8F8F8"/>
<stop offset="0.71875" stop-color="#F7F7F7"/>
<stop offset="0.726562" stop-color="#F7F7F7"/>
<stop offset="0.734375" stop-color="#F6F6F6"/>
<stop offset="0.742188" stop-color="#F5F5F5"/>
<stop offset="0.75" stop-color="#F4F4F4"/>
<stop offset="0.757812" stop-color="#F3F3F3"/>
<stop offset="0.761719" stop-color="#F3F3F3"/>
<stop offset="0.765625" stop-color="#F3F3F3"/>
<stop offset="0.769531" stop-color="#F2F2F2"/>
<stop offset="0.773438" stop-color="#F2F2F2"/>
<stop offset="0.777344" stop-color="#F1F1F1"/>
<stop offset="0.78125" stop-color="#F1F1F1"/>
<stop offset="0.785156" stop-color="#F1F1F1"/>
<stop offset="0.789062" stop-color="#F0F0F0"/>
<stop offset="0.792969" stop-color="#F0F0F0"/>
<stop offset="0.796875" stop-color="#EFEFEF"/>
<stop offset="0.800781" stop-color="#EFEFEF"/>
<stop offset="0.804688" stop-color="#EEEEEE"/>
<stop offset="0.808594" stop-color="#EEEEEE"/>
<stop offset="0.8125" stop-color="#EEEEEE"/>
<stop offset="0.816406" stop-color="#EDEDED"/>
<stop offset="0.824219" stop-color="#ECECEC"/>
<stop offset="0.832031" stop-color="#EBEBEB"/>
<stop offset="0.839844" stop-color="#EBEBEB"/>
<stop offset="0.847656" stop-color="#EAEAEA"/>
<stop offset="0.855469" stop-color="#E9E9E9"/>
<stop offset="0.863281" stop-color="#E8E8E8"/>
<stop offset="0.871094" stop-color="#E7E7E7"/>
<stop offset="0.878906" stop-color="#E7E7E7"/>
<stop offset="0.882812" stop-color="#E6E6E6"/>
<stop offset="0.886719" stop-color="#E6E6E6"/>
<stop offset="0.890625" stop-color="#E5E5E5"/>
<stop offset="0.894531" stop-color="#E5E5E5"/>
<stop offset="0.898438" stop-color="#E5E5E5"/>
<stop offset="0.902344" stop-color="#E4E4E4"/>
<stop offset="0.90625" stop-color="#E4E4E4"/>
<stop offset="0.910156" stop-color="#E3E3E3"/>
<stop offset="0.917969" stop-color="#E2E2E2"/>
<stop offset="0.925781" stop-color="#E1E1E1"/>
<stop offset="0.933594" stop-color="#E1E1E1"/>
<stop offset="0.941406" stop-color="#E0E0E0"/>
<stop offset="0.945312" stop-color="#E0E0E0"/>
<stop offset="0.949219" stop-color="#DFDFDF"/>
<stop offset="0.953125" stop-color="#DFDFDF"/>
<stop offset="0.957031" stop-color="#DEDEDE"/>
<stop offset="0.964844" stop-color="#DDDDDD"/>
<stop offset="0.972656" stop-color="#DDDDDD"/>
<stop offset="0.976562" stop-color="#DCDCDC"/>
<stop offset="0.980469" stop-color="#DCDCDC"/>
<stop offset="0.988281" stop-color="#DBDBDB"/>
<stop offset="0.992188" stop-color="#DADADA"/>
<stop offset="1" stop-color="#DADADA"/>
</radialGradient>
<radialGradient id="paint5_radial_2_9" cx="0" cy="0" r="1" gradientUnits="userSpaceOnUse" gradientTransform="translate(282.323 184.374) rotate(-178.172) scale(27.4504)">
<stop stop-color="white"/>
<stop offset="0.125" stop-color="white"/>
<stop offset="0.152344" stop-color="white"/>
<stop offset="0.175781" stop-color="#FEFFFE"/>
<stop offset="0.179688" stop-color="#FEFEFD"/>
<stop offset="0.183594" stop-color="#FDFEFC"/>
<stop offset="0.1875" stop-color="#FDFEFB"/>
<stop offset="0.191406" stop-color="#FCFEFA"/>
<stop offset="0.195312" stop-color="#FCFDF9"/>
<stop offset="0.199219" stop-color="#FBFDF8"/>
<stop offset="0.203125" stop-color="#FAFDF7"/>
<stop offset="0.207031" stop-color="#FAFCF6"/>
<stop offset="0.210938" stop-color="#F9FCF5"/>
<stop offset="0.214844" stop-color="#F9FCF4"/>
<stop offset="0.21875" stop-color="#F8FCF3"/>
<stop offset="0.222656" stop-color="#F8FBF2"/>
<stop offset="0.226562" stop-color="#F7FBF2"/>
<stop offset="0.230469" stop-color="#F6FBF1"/>
<stop offset="0.234375" stop-color="#F6FAF0"/>
<stop offset="0.238281" stop-color="#F5FAEF"/>
<stop offset="0.242188" stop-color="#F5FAEE"/>
<stop offset="0.246094" stop-color="#F4FAED"/>
<stop offset="0.25" stop-color="#F4F9EC"/>
<stop offset="0.253906" stop-color="#F3F9EB"/>
<stop offset="0.257812" stop-color="#F2F9EA"/>
<stop offset="0.261719" stop-color="#F2F8E9"/>
<stop offset="0.265625" stop-color="#F1F8E8"/>
<stop offset="0.269531" stop-color="#F1F8E7"/>
<stop offset="0.273438" stop-color="#F0F8E6"/>
<stop offset="0.277344" stop-color="#F0F7E5"/>
<stop offset="0.28125" stop-color="#EFF7E4"/>
<stop offset="0.285156" stop-color="#EFF7E3"/>
<stop offset="0.289062" stop-color="#EEF6E2"/>
<stop offset="0.292969" stop-color="#EDF6E1"/>
<stop offset="0.296875" stop-color="#EDF6E0"/>
<stop offset="0.300781" stop-color="#ECF6DF"/>
<stop offset="0.304688" stop-color="#ECF5DE"/>
<stop offset="0.308594" stop-color="#EBF5DD"/>
<stop offset="0.3125" stop-color="#EBF5DD"/>
<stop offset="0.316406" stop-color="#EAF4DC"/>
<stop offset="0.320312" stop-color="#E9F4DB"/>
<stop offset="0.324219" stop-color="#E9F4DA"/>
<stop offset="0.328125" stop-color="#E8F4D9"/>
<stop offset="0.332031" stop-color="#E8F3D8"/>
<stop offset="0.335938" stop-color="#E7F3D7"/>
<stop offset="0.339844" stop-color="#E7F3D6"/>
<stop offset="0.34375" stop-color="#E6F3D5"/>
<stop offset="0.347656" stop-color="#E5F2D4"/>
<stop offset="0.351562" stop-color="#E5F2D3"/>
<stop offset="0.355469" stop-color="#E4F2D2"/>
<stop offset="0.359375" stop-color="#E4F1D1"/>
<stop offset="0.363281" stop-color="#E3F1D0"/>
<stop offset="0.367188" stop-color="#E3F1CF"/>
<stop offset="0.371094" stop-color="#E2F1CE"/>
<stop offset="0.375" stop-color="#E1F0CD"/>
<stop offset="0.378906" stop-color="#E1F0CC"/>
<stop offset="0.382812" stop-color="#E0F0CB"/>
<stop offset="0.386719" stop-color="#E0EFCA"/>
<stop offset="0.390625" stop-color="#DFEFC9"/>
<stop offset="0.394531" stop-color="#DFEFC8"/>
<stop offset="0.398438" stop-color="#DEEFC8"/>
<stop offset="0.402344" stop-color="#DEEEC7"/>
<stop offset="0.40625" stop-color="#DDEEC6"/>
<stop offset="0.410156" stop-color="#DCEEC5"/>
<stop offset="0.414062" stop-color="#DCEDC4"/>
<stop offset="0.417969" stop-color="#DBEDC3"/>
<stop offset="0.421875" stop-color="#DBEDC2"/>
<stop offset="0.425781" stop-color="#DAEDC1"/>
<stop offset="0.429688" stop-color="#DAECC0"/>
<stop offset="0.433594" stop-color="#D9ECBF"/>
<stop offset="0.4375" stop-color="#D8ECBE"/>
<stop offset="0.441406" stop-color="#D8EBBD"/>
<stop offset="0.445312" stop-color="#D7EBBC"/>
<stop offset="0.449219" stop-color="#D7EBBB"/>
<stop offset="0.453125" stop-color="#D6EBBA"/>
<stop offset="0.457031" stop-color="#D6EAB9"/>
<stop offset="0.460938" stop-color="#D5EAB8"/>
<stop offset="0.464844" stop-color="#D4EAB7"/>
<stop offset="0.46875" stop-color="#D4E9B6"/>
<stop offset="0.472656" stop-color="#D3E9B5"/>
<stop offset="0.476562" stop-color="#D3E9B4"/>
<stop offset="0.480469" stop-color="#D2E9B3"/>
<stop offset="0.484375" stop-color="#D2E8B3"/>
<stop offset="0.488281" stop-color="#D1E8B2"/>
<stop offset="0.492188" stop-color="#D0E8B1"/>
<stop offset="0.496094" stop-color="#D0E7B0"/>
<stop offset="0.5" stop-color="#CFE7AF"/>
<stop offset="0.503906" stop-color="#CFE7AE"/>
<stop offset="0.507812" stop-color="#CEE7AD"/>
<stop offset="0.511719" stop-color="#CEE6AC"/>
<stop offset="0.515625" stop-color="#CDE6AB"/>
<stop offset="0.519531" stop-color="#CDE6AA"/>
<stop offset="0.523438" stop-color="#CCE5A9"/>
<stop offset="0.527344" stop-color="#CBE5A8"/>
<stop offset="0.53125" stop-color="#CBE5A7"/>
<stop offset="0.535156" stop-color="#CAE5A6"/>
<stop offset="0.539062" stop-color="#CAE4A5"/>
<stop offset="0.542969" stop-color="#C9E4A4"/>
<stop offset="0.546875" stop-color="#C9E4A3"/>
<stop offset="0.550781" stop-color="#C8E3A2"/>
<stop offset="0.554688" stop-color="#C7E3A1"/>
<stop offset="0.558594" stop-color="#C7E3A0"/>
<stop offset="0.5625" stop-color="#C6E39F"/>
<stop offset="0.566406" stop-color="#C6E29E"/>
<stop offset="0.570312" stop-color="#C5E29E"/>
<stop offset="0.574219" stop-color="#C5E29D"/>
<stop offset="0.578125" stop-color="#C4E19C"/>
<stop offset="0.582031" stop-color="#C3E19B"/>
<stop offset="0.585938" stop-color="#C3E19A"/>
<stop offset="0.589844" stop-color="#C2E199"/>
<stop offset="0.59375" stop-color="#C2E098"/>
<stop offset="0.597656" stop-color="#C1E097"/>
<stop offset="0.601562" stop-color="#C1E096"/>
<stop offset="0.605469" stop-color="#C0E095"/>
<stop offset="0.609375" stop-color="#BFDF94"/>
<stop offset="0.613281" stop-color="#BFDF93"/>
<stop offset="0.617188" stop-color="#BEDF92"/>
<stop offset="0.621094" stop-color="#BEDE91"/>
<stop offset="0.625" stop-color="#BDDE90"/>
<stop offset="0.628906" stop-color="#BDDE8F"/>
<stop offset="0.632812" stop-color="#BCDE8E"/>
<stop offset="0.636719" stop-color="#BBDD8D"/>
<stop offset="0.640625" stop-color="#BBDD8C"/>
<stop offset="0.644531" stop-color="#BADD8B"/>
<stop offset="0.648438" stop-color="#BADC8A"/>
<stop offset="0.652344" stop-color="#B9DC89"/>
<stop offset="0.65625" stop-color="#B9DC89"/>
<stop offset="0.660156" stop-color="#B8DC88"/>
<stop offset="0.664062" stop-color="#B8DB87"/>
<stop offset="0.667969" stop-color="#B7DB86"/>
<stop offset="0.671875" stop-color="#B6DB85"/>
<stop offset="0.675781" stop-color="#B6DA84"/>
<stop offset="0.679688" stop-color="#B5DA83"/>
<stop offset="0.683594" stop-color="#B5DA82"/>
<stop offset="0.6875" stop-color="#B4DA81"/>
<stop offset="0.691406" stop-color="#B4D980"/>
<stop offset="0.695312" stop-color="#B3D97F"/>
<stop offset="0.699219" stop-color="#B2D97E"/>
<stop offset="0.703125" stop-color="#B2D87D"/>
<stop offset="0.707031" stop-color="#B1D87C"/>
<stop offset="0.710938" stop-color="#B1D87B"/>
<stop offset="0.714844" stop-color="#B0D87A"/>
<stop offset="0.71875" stop-color="#B0D779"/>
<stop offset="0.722656" stop-color="#AFD778"/>
<stop offset="0.726562" stop-color="#AED777"/>
<stop offset="0.730469" stop-color="#AED676"/>
<stop offset="0.734375" stop-color="#ADD675"/>
<stop offset="0.738281" stop-color="#ADD675"/>
<stop offset="0.742188" stop-color="#ACD674"/>
<stop offset="0.746094" stop-color="#ACD573"/>
<stop offset="0.75" stop-color="#ABD572"/>
<stop offset="0.753906" stop-color="#AAD571"/>
<stop offset="0.757812" stop-color="#AAD470"/>
<stop offset="0.761719" stop-color="#A9D46F"/>
<stop offset="0.765625" stop-color="#A9D46E"/>
<stop offset="0.769531" stop-color="#A8D46D"/>
<stop offset="0.773438" stop-color="#A8D36C"/>
<stop offset="0.777344" stop-color="#A7D36B"/>
<stop offset="0.78125" stop-color="#A7D36A"/>
<stop offset="0.785156" stop-color="#A6D269"/>
<stop offset="0.789062" stop-color="#A5D268"/>
<stop offset="0.792969" stop-color="#A5D267"/>
<stop offset="0.796875" stop-color="#A4D266"/>
<stop offset="0.800781" stop-color="#A4D165"/>
<stop offset="0.804688" stop-color="#A3D164"/>
<stop offset="0.808594" stop-color="#A3D163"/>
<stop offset="0.8125" stop-color="#A2D062"/>
<stop offset="0.816406" stop-color="#A1D061"/>
<stop offset="0.820312" stop-color="#A1D060"/>
<stop offset="0.824219" stop-color="#A0D060"/>
<stop offset="0.828125" stop-color="#A0CF5F"/>
<stop offset="0.832031" stop-color="#9FCF5E"/>
<stop offset="0.835938" stop-color="#9FCF5D"/>
<stop offset="0.839844" stop-color="#9ECF5C"/>
<stop offset="0.84375" stop-color="#9DCE5B"/>
<stop offset="0.847656" stop-color="#9DCE5A"/>
<stop offset="0.851562" stop-color="#9CCE59"/>
<stop offset="0.855469" stop-color="#9CCD58"/>
<stop offset="0.859375" stop-color="#9BCD57"/>
<stop offset="0.863281" stop-color="#9BCD56"/>
<stop offset="0.867188" stop-color="#9ACD55"/>
<stop offset="0.871094" stop-color="#99CC54"/>
<stop offset="0.875" stop-color="#99CC53"/>
<stop offset="0.878906" stop-color="#98CC52"/>
<stop offset="0.882812" stop-color="#98CB51"/>
<stop offset="0.886719" stop-color="#97CB50"/>
<stop offset="0.890625" stop-color="#97CB4F"/>
<stop offset="0.894531" stop-color="#96CB4E"/>
<stop offset="0.898438" stop-color="#96CA4D"/>
<stop offset="0.902344" stop-color="#95CA4C"/>
<stop offset="0.90625" stop-color="#94CA4B"/>
<stop offset="0.910156" stop-color="#94C94B"/>
<stop offset="0.914062" stop-color="#93C94A"/>
<stop offset="0.917969" stop-color="#93C949"/>
<stop offset="0.921875" stop-color="#92C948"/>
<stop offset="0.925781" stop-color="#92C847"/>
<stop offset="0.929688" stop-color="#91C846"/>
<stop offset="0.933594" stop-color="#90C845"/>
<stop offset="0.9375" stop-color="#90C744"/>
<stop offset="0.941406" stop-color="#8FC743"/>
<stop offset="0.945312" stop-color="#8FC742"/>
<stop offset="0.949219" stop-color="#8EC741"/>
<stop offset="0.953125" stop-color="#8EC640"/>
<stop offset="0.957031" stop-color="#8DC63F"/>
<stop offset="1" stop-color="#8DC63F"/>
</radialGradient>
<radialGradient id="paint6_radial_2_9" cx="0" cy="0" r="1" gradientUnits="userSpaceOnUse" gradientTransform="translate(282.323 184.374) rotate(-178.172) scale(27.4504)">
<stop stop-color="white"/>
<stop offset="0.125" stop-color="white"/>
<stop offset="0.179688" stop-color="#FEFFFE"/>
<stop offset="0.183594" stop-color="#FEFFFE"/>
<stop offset="0.1875" stop-color="#FEFFFD"/>
<stop offset="0.191406" stop-color="#FDFEFD"/>
<stop offset="0.195312" stop-color="#FDFEFC"/>
<stop offset="0.199219" stop-color="#FDFEFB"/>
<stop offset="0.210938" stop-color="#FDFEFB"/>
<stop offset="0.214844" stop-color="#FDFEFA"/>
<stop offset="0.21875" stop-color="#FCFDF9"/>
<stop offset="0.222656" stop-color="#FCFDF9"/>
<stop offset="0.234375" stop-color="#FBFDF8"/>
<stop offset="0.238281" stop-color="#FBFDF7"/>
<stop offset="0.242188" stop-color="#FAFDF7"/>
<stop offset="0.246094" stop-color="#FAFDF6"/>
<stop offset="0.25" stop-color="#FAFDF6"/>
<stop offset="0.253906" stop-color="#F9FCF5"/>
<stop offset="0.261719" stop-color="#F9FCF5"/>
<stop offset="0.265625" stop-color="#F8FCF4"/>
<stop offset="0.269531" stop-color="#F8FCF3"/>
<stop offset="0.277344" stop-color="#F7FBF2"/>
<stop offset="0.285156" stop-color="#F7FBF2"/>
<stop offset="0.289062" stop-color="#F7FBF1"/>
<stop offset="0.292969" stop-color="#F6FBF1"/>
<stop offset="0.296875" stop-color="#F6FBF0"/>
<stop offset="0.300781" stop-color="#F6FBEF"/>
<stop offset="0.304688" stop-color="#F5FAEF"/>
<stop offset="0.308594" stop-color="#F5FAEE"/>
<stop offset="0.316406" stop-color="#F4FAED"/>
<stop offset="0.324219" stop-color="#F4FAED"/>
<stop offset="0.328125" stop-color="#F3F9EC"/>
<stop offset="0.332031" stop-color="#F3F9EB"/>
<stop offset="0.339844" stop-color="#F3F9EA"/>
<stop offset="0.347656" stop-color="#F3F9EA"/>
<stop offset="0.351562" stop-color="#F3F9E9"/>
<stop offset="0.355469" stop-color="#F2F8E8"/>
<stop offset="0.359375" stop-color="#F2F8E8"/>
<stop offset="0.367188" stop-color="#F1F8E7"/>
<stop offset="0.375" stop-color="#F1F8E6"/>
<stop offset="0.378906" stop-color="#F0F8E6"/>
<stop offset="0.382812" stop-color="#F0F8E5"/>
<stop offset="0.390625" stop-color="#EFF7E4"/>
<stop offset="0.398438" stop-color="#EFF7E4"/>
<stop offset="0.402344" stop-color="#EEF7E3"/>
<stop offset="0.40625" stop-color="#EEF7E2"/>
<stop offset="0.414062" stop-color="#EDF6E1"/>
<stop offset="0.421875" stop-color="#EDF6E1"/>
<stop offset="0.425781" stop-color="#EDF6E0"/>
<stop offset="0.429688" stop-color="#ECF6E0"/>
<stop offset="0.433594" stop-color="#ECF6DF"/>
<stop offset="0.441406" stop-color="#EBF5DE"/>
<stop offset="0.449219" stop-color="#EBF5DD"/>
<stop offset="0.453125" stop-color="#EAF5DD"/>
<stop offset="0.457031" stop-color="#EAF5DC"/>
<stop offset="0.464844" stop-color="#EAF4DB"/>
<stop offset="0.472656" stop-color="#EAF4DB"/>
<stop offset="0.476562" stop-color="#EAF4DA"/>
<stop offset="0.480469" stop-color="#E9F4D9"/>
<stop offset="0.484375" stop-color="#E9F4D9"/>
<stop offset="0.492188" stop-color="#E8F3D8"/>
<stop offset="0.5" stop-color="#E8F3D7"/>
<stop offset="0.503906" stop-color="#E7F3D7"/>
<stop offset="0.507812" stop-color="#E7F3D6"/>
<stop offset="0.511719" stop-color="#E7F3D6"/>
<stop offset="0.515625" stop-color="#E6F3D5"/>
<stop offset="0.519531" stop-color="#E6F3D5"/>
<stop offset="0.523438" stop-color="#E6F3D5"/>
<stop offset="0.527344" stop-color="#E5F2D4"/>
<stop offset="0.53125" stop-color="#E5F2D3"/>
<stop offset="0.535156" stop-color="#E5F2D3"/>
<stop offset="0.546875" stop-color="#E4F2D2"/>
<stop offset="0.550781" stop-color="#E4F2D1"/>
<stop offset="0.554688" stop-color="#E3F1D1"/>
<stop offset="0.558594" stop-color="#E3F1D0"/>
<stop offset="0.5625" stop-color="#E3F1CF"/>
<stop offset="0.566406" stop-color="#E2F1CF"/>
<stop offset="0.570312" stop-color="#E2F1CE"/>
<stop offset="0.574219" stop-color="#E2F1CE"/>
<stop offset="0.578125" stop-color="#E1F0CD"/>
<stop offset="0.582031" stop-color="#E1F0CD"/>
<stop offset="0.585938" stop-color="#E1F0CD"/>
<stop offset="0.589844" stop-color="#E0F0CC"/>
<stop offset="0.59375" stop-color="#E0F0CB"/>
<stop offset="0.597656" stop-color="#E0F0CB"/>
<stop offset="0.609375" stop-color="#E0EFCA"/>
<stop offset="0.613281" stop-color="#E0EFC9"/>
<stop offset="0.617188" stop-color="#DFEFC9"/>
<stop offset="0.621094" stop-color="#DFEFC8"/>
<stop offset="0.625" stop-color="#DFEFC8"/>
<stop offset="0.628906" stop-color="#DEEFC7"/>
<stop offset="0.636719" stop-color="#DEEFC6"/>
<stop offset="0.640625" stop-color="#DDEEC6"/>
<stop offset="0.644531" stop-color="#DDEEC5"/>
<stop offset="0.652344" stop-color="#DCEEC4"/>
<stop offset="0.660156" stop-color="#DCEEC4"/>
<stop offset="0.664062" stop-color="#DCEEC3"/>
<stop offset="0.667969" stop-color="#DBEDC2"/>
<stop offset="0.675781" stop-color="#DAEDC1"/>
<stop offset="0.683594" stop-color="#DAEDC1"/>
<stop offset="0.6875" stop-color="#DAEDC0"/>
<stop offset="0.691406" stop-color="#D9ECC0"/>
<stop offset="0.695312" stop-color="#D9ECBF"/>
<stop offset="0.703125" stop-color="#D8ECBE"/>
<stop offset="0.710938" stop-color="#D8ECBD"/>
<stop offset="0.714844" stop-color="#D7EBBD"/>
<stop offset="0.71875" stop-color="#D7EBBC"/>
<stop offset="0.726562" stop-color="#D7EBBB"/>
<stop offset="0.734375" stop-color="#D7EBBB"/>
<stop offset="0.738281" stop-color="#D7EBBA"/>
<stop offset="0.742188" stop-color="#D6EAB9"/>
<stop offset="0.746094" stop-color="#D6EAB9"/>
<stop offset="0.753906" stop-color="#D5EAB8"/>
<stop offset="0.757812" stop-color="#D5EAB8"/>
<stop offset="0.761719" stop-color="#D5EAB7"/>
<stop offset="0.765625" stop-color="#D4EAB7"/>
<stop offset="0.769531" stop-color="#D4EAB6"/>
<stop offset="0.773438" stop-color="#D3E9B5"/>
<stop offset="0.785156" stop-color="#D3E9B5"/>
<stop offset="0.789062" stop-color="#D2E9B4"/>
<stop offset="0.792969" stop-color="#D2E9B3"/>
<stop offset="0.796875" stop-color="#D2E9B3"/>
<stop offset="0.808594" stop-color="#D1E8B2"/>
<stop offset="0.8125" stop-color="#D1E8B1"/>
<stop offset="0.816406" stop-color="#D0E8B1"/>
<stop offset="0.820312" stop-color="#D0E8B0"/>
<stop offset="0.824219" stop-color="#D0E8AF"/>
<stop offset="0.828125" stop-color="#CFE7AF"/>
<stop offset="0.832031" stop-color="#CFE7AE"/>
<stop offset="0.839844" stop-color="#CEE7AD"/>
<stop offset="0.847656" stop-color="#CEE7AD"/>
<stop offset="0.851562" stop-color="#CDE6AC"/>
<stop offset="0.855469" stop-color="#CDE6AB"/>
<stop offset="0.863281" stop-color="#CDE6AA"/>
<stop offset="0.871094" stop-color="#CDE6AA"/>
<stop offset="0.875" stop-color="#CDE6A9"/>
<stop offset="0.878906" stop-color="#CCE5A9"/>
<stop offset="0.882812" stop-color="#CCE5A8"/>
<stop offset="0.886719" stop-color="#CCE5A8"/>
<stop offset="0.890625" stop-color="#CBE5A7"/>
<stop offset="0.894531" stop-color="#CBE5A7"/>
<stop offset="0.898438" stop-color="#CBE5A6"/>
<stop offset="0.902344" stop-color="#CAE5A6"/>
<stop offset="0.90625" stop-color="#CAE5A5"/>
<stop offset="0.910156" stop-color="#CAE5A5"/>
<stop offset="0.917969" stop-color="#C9E4A4"/>
<stop offset="0.925781" stop-color="#C9E4A3"/>
<stop offset="0.929688" stop-color="#C8E4A2"/>
<stop offset="0.9375" stop-color="#C7E3A1"/>
<stop offset="0.945312" stop-color="#C7E3A1"/>
<stop offset="0.949219" stop-color="#C7E3A0"/>
<stop offset="0.953125" stop-color="#C6E39F"/>
<stop offset="1" stop-color="#C6E39F"/>
</radialGradient>
</defs>
</svg>
